<svg width="36" height="39" viewBox="0 0 36 39" fill="none" xmlns="http://www.w3.org/2000/svg">
<path d="M15.0783 38.7339C14.3677 38.6012 13.6672 38.419 12.982 38.1887C11.6015 37.672 10.3903 36.7843 9.48183 35.6235C8.57336 34.4626 8.0028 33.0735 7.83297 31.6093C7.81544 31.4995 7.78871 31.3916 7.77856 31.3391C7.12338 31.5047 6.45998 31.6358 5.79108 31.732C4.43423 31.8075 3.09771 31.3763 2.04104 30.5217C0.98438 29.6672 0.282982 28.4505 0.0730402 27.1078C-0.141295 25.7579 0.119467 24.3756 0.810841 23.1965C2.69134 19.8662 4.56355 16.5304 6.45327 13.2056C6.91151 12.2979 7.61698 11.538 8.48836 11.0139C9.35973 10.4898 10.3615 10.2225 11.3782 10.2432C11.4381 10.2432 11.4981 10.2339 11.617 10.2247V9.78293C11.617 7.63098 11.617 5.47903 11.617 3.32708C11.5926 2.8123 11.692 2.2993 11.9069 1.83087C12.1217 1.36245 12.4458 0.952312 12.8519 0.635034C13.3922 0.21405 14.0605 -0.00898862 14.7454 0.00322793C20.6509 -0.00107598 26.5565 -0.00107598 32.4621 0.00322793C32.8847 -0.00419986 33.3044 0.0758301 33.6947 0.238072C34.0851 0.400315 34.4377 0.64138 34.7306 0.946208C35.0235 1.25104 35.2503 1.6129 35.3968 2.00942C35.5433 2.40595 35.6064 2.82849 35.5821 3.25052C35.5962 9.8564 35.5962 16.4617 35.5821 23.0664C35.5878 23.7763 35.4521 24.4802 35.1829 25.1372C34.9137 25.7942 34.5164 26.3909 34.0142 26.8928C32.7108 28.2455 31.4196 29.6111 30.1407 30.9896C29.6437 31.5509 29.0291 31.9957 28.3406 32.2926C27.6522 32.5896 26.9068 32.7315 26.1575 32.7078C25.4067 32.6968 24.656 32.717 23.9062 32.7004C23.8564 32.692 23.8054 32.6934 23.7561 32.7047C23.7068 32.716 23.6602 32.7369 23.619 32.7662C23.5778 32.7955 23.5428 32.8325 23.5159 32.8754C23.4891 32.9182 23.471 32.966 23.4626 33.0159C23.0301 34.4464 22.2078 35.7281 21.0877 36.7175C19.9676 37.707 18.5941 38.365 17.1211 38.6177C16.9311 38.6564 16.7402 38.6913 16.5502 38.7291L15.0783 38.7339ZM34.0022 24.1704C34.0401 23.7323 34.1055 23.3236 34.1055 22.9151C34.1117 16.4094 34.1117 9.90446 34.1055 3.40003C34.1439 3.1481 34.1234 2.89067 34.0457 2.64799C33.9679 2.4053 33.8351 2.18386 33.6575 2.00109C33.4799 1.81833 33.2624 1.67913 33.0221 1.59445C32.7817 1.50977 32.525 1.48185 32.2721 1.51294H14.928C14.6783 1.48221 14.4249 1.50928 14.1873 1.59197C13.9498 1.67467 13.7343 1.81094 13.5577 1.99006C13.3811 2.16918 13.248 2.38631 13.1686 2.62502C13.0893 2.86373 13.0658 3.11749 13.1 3.3667C13.1 5.63179 13.1 7.89704 13.0926 10.1612C13.077 10.2741 13.1027 10.3889 13.1651 10.4843C13.2275 10.5798 13.3223 10.6494 13.432 10.6804C14.1246 10.9888 14.7476 11.434 15.2633 11.9897C15.7789 12.5454 16.1767 13.1999 16.4325 13.9135C16.6883 14.6272 16.7969 15.3854 16.7516 16.1422C16.7064 16.899 16.5083 17.6387 16.1693 18.3168C15.5293 19.608 14.7785 20.8326 14.0785 22.0869C14.0168 22.1985 13.9568 22.31 13.872 22.465C14.0186 22.4447 14.0905 22.4374 14.1615 22.4244C15.8601 22.0666 17.629 22.2718 19.2004 23.0092C20.7718 23.7466 22.0602 24.976 22.8705 26.5111C22.9174 26.5746 22.9771 26.6274 23.0458 26.6663C23.1144 26.7052 23.1904 26.7293 23.2689 26.737C23.7227 26.7656 24.1792 26.7443 24.6339 26.7498C24.7812 26.7499 24.928 26.7657 25.0719 26.7969C25.2368 26.8353 25.3832 26.9302 25.4859 27.0648C25.5885 27.1995 25.6411 27.3655 25.6345 27.5347C25.6349 27.7116 25.5687 27.8821 25.4491 28.0123C25.3294 28.1425 25.1652 28.2229 24.9889 28.2375C24.5278 28.2651 24.0667 28.244 23.6517 28.244L23.9283 31.1952C24.7584 31.1952 25.6059 31.2007 26.4544 31.1952C26.6739 31.1952 26.8916 31.137 27.112 31.1204C27.3887 31.1011 27.4735 30.9721 27.4698 30.6843C27.4532 29.4854 27.4376 28.292 27.4754 27.0986C27.4792 26.6236 27.575 26.1538 27.7576 25.7152C27.9716 25.2285 28.3303 24.8194 28.7849 24.5437C29.2395 24.268 29.7679 24.1388 30.2984 24.174C31.5029 24.1657 32.7083 24.1704 34.0022 24.1704ZM5.28475 18.2963L12.2183 22.3913C13.1517 20.7018 14.1551 19.0849 14.9612 17.3723C15.3478 16.484 15.4002 15.4861 15.1089 14.5622C14.8175 13.6383 14.202 12.8508 13.3758 12.3451C12.5873 11.8434 11.6439 11.6441 10.7199 11.7842C9.79591 11.9242 8.95387 12.394 8.34945 13.1068C7.8268 13.8206 7.35879 14.573 6.94944 15.3573C6.38963 16.3155 5.85379 17.2874 5.28383 18.2963H5.28475ZM11.3274 23.6133L4.52481 19.5978C3.59332 21.2929 2.59727 22.9298 1.77645 24.6536C1.44498 25.4338 1.36916 26.299 1.55987 27.1249C1.75058 27.9509 2.19801 28.6952 2.83798 29.2511C3.47115 29.81 4.26693 30.1507 5.10829 30.2236C5.94965 30.2965 6.79219 30.0976 7.51203 29.656C7.67132 29.5535 7.78622 29.3948 7.8339 29.2115C8.16242 27.0861 9.30148 25.1704 11.012 23.8668C11.1042 23.7931 11.1965 23.7157 11.3274 23.6133ZM16.4986 37.1494C18.1858 36.9569 19.7354 36.1262 20.8298 34.8277C21.9242 33.5293 22.4804 31.8614 22.3845 30.166C22.2673 26.9251 19.2626 23.6879 16.4986 23.8493V37.1494ZM14.9787 37.1402V23.843C13.3824 24.0769 11.9236 24.8773 10.8687 26.098C9.81385 27.3187 9.23339 28.8782 9.23339 30.4916C9.23339 32.1049 9.81385 33.6645 10.8687 34.8852C11.9236 36.1059 13.3824 36.9062 14.9787 37.1402ZM28.951 30.0746L33.092 25.6949C32.0092 25.6949 31.0178 25.6663 30.0291 25.706C29.7444 25.715 29.4741 25.8333 29.2745 26.0365C29.0749 26.2397 28.9613 26.512 28.9574 26.7969C28.9344 27.851 28.951 28.9052 28.951 30.0737V30.0746Z" fill="#0E4C8F"/>
<path d="M23.5272 6.76997H29.3015C29.9037 6.77734 30.2431 7.03832 30.2588 7.50129C30.2744 7.96427 29.9092 8.27943 29.3033 8.28035C26.938 8.28466 24.5727 8.28466 22.2074 8.28035C20.7355 8.28035 19.2635 8.28035 17.7916 8.28035C17.6286 8.282 17.4659 8.26615 17.3065 8.23262C17.1441 8.18863 17.0017 8.09036 16.9027 7.95432C16.8038 7.81827 16.7543 7.65265 16.7625 7.48463C16.7707 7.31661 16.836 7.15649 16.9477 7.0307C17.0594 6.90491 17.2107 6.82094 17.3766 6.79293C17.5262 6.77444 17.6769 6.76682 17.8275 6.76997C19.7299 6.76874 21.6298 6.76874 23.5272 6.76997Z" fill="#0E4C8F"/>
<path d="M22.0294 14.9438C20.6349 14.9438 19.2405 14.9438 17.8451 14.9438C17.6824 14.9473 17.52 14.9302 17.3618 14.8925C17.195 14.853 17.0485 14.7535 16.95 14.6133C16.8514 14.4731 16.8076 14.3017 16.8269 14.1314C16.8355 13.9669 16.9 13.8103 17.0097 13.6874C17.1193 13.5645 17.2676 13.4828 17.43 13.4555C17.567 13.4373 17.7052 13.4308 17.8432 13.4361H26.2488C26.9414 13.4361 27.2928 13.6897 27.2928 14.1868C27.2928 14.6839 26.9368 14.9469 26.2506 14.9479L22.0294 14.9438Z" fill="#0E4C8F"/>
<path d="M25.308 21.5989C24.0126 21.5989 22.7168 21.5989 21.4207 21.5989C21.2826 21.6039 21.1443 21.5966 21.0075 21.5768C20.8394 21.5443 20.6872 21.4554 20.5761 21.3251C20.465 21.1947 20.4015 21.0306 20.3961 20.8594C20.395 20.695 20.4488 20.5349 20.5491 20.4046C20.6493 20.2743 20.7902 20.1809 20.9494 20.1398C21.1082 20.1034 21.2708 20.0869 21.4336 20.0903C24.0123 20.0903 26.5909 20.0903 29.1696 20.0903C29.8576 20.0903 30.22 20.3462 30.232 20.8378C30.244 21.3294 29.8696 21.6016 29.1557 21.6016L25.308 21.5989Z" fill="#0E4C8F"/>
<path d="M29.5016 14.9376C29.3062 14.9315 29.1203 14.8522 28.9804 14.7156C28.8406 14.579 28.757 14.3947 28.7463 14.1996C28.7477 13.9975 28.8292 13.8044 28.9729 13.6623C29.1165 13.5202 29.3106 13.4409 29.5127 13.4417C29.7083 13.4472 29.8941 13.5287 30.0305 13.6691C30.1669 13.8094 30.2432 13.9975 30.2431 14.1932C30.2378 14.3885 30.158 14.5741 30.0202 14.7125C29.8823 14.8508 29.6968 14.9316 29.5016 14.9376Z" fill="#0E4C8F"/>
</svg>
