<svg width="29" height="39" viewBox="0 0 29 39" fill="none" xmlns="http://www.w3.org/2000/svg">
<path d="M0.0182124 17.8721C0.0182124 14.1825 0.0182124 10.4929 0.0182124 6.80329C-0.0283693 6.28745 0.107493 5.77154 0.40134 5.34856C0.695187 4.92558 1.12774 4.62318 1.62113 4.49585C5.76969 3.02712 9.91736 1.55553 14.0641 0.0807571C14.3451 -0.026919 14.655 -0.026919 14.9359 0.0807571C19.0465 1.54344 23.1582 3.00151 27.2712 4.45514C27.809 4.57205 28.2837 4.89115 28.6007 5.34856C28.9176 5.80596 29.0534 6.36796 28.981 6.92277C28.981 14.2253 28.972 21.5279 28.9907 28.8314C29.0229 29.3369 28.9017 29.8404 28.6435 30.2735C28.3853 30.7066 28.0026 31.0485 27.5472 31.253C23.3536 33.46 19.1682 35.6843 14.9912 37.9258C14.842 38.0172 14.6711 38.0654 14.4969 38.0654C14.3228 38.0654 14.1519 38.0172 14.0027 37.9258C9.81139 35.6861 5.61504 33.4555 1.41365 31.234C0.969432 31.0345 0.596115 30.701 0.344161 30.2786C0.092208 29.8562 -0.0262304 29.3654 0.00486895 28.8723C0.0315841 25.2011 0.0182124 21.537 0.0182124 17.8721ZM1.22485 17.9166C1.22485 21.5941 1.2311 25.2709 1.21863 28.9484C1.19988 29.1843 1.25343 29.4202 1.37193 29.6237C1.49043 29.8272 1.66802 29.9883 1.88026 30.0848C6.0027 32.2664 10.1239 34.4511 14.244 36.6387C14.3228 36.6752 14.4081 36.6949 14.4947 36.6965C14.5812 36.698 14.6671 36.6814 14.7471 36.6478C18.8714 34.4692 22.9923 32.2843 27.11 30.093C27.3276 29.9936 27.5095 29.8279 27.6305 29.6188C27.7516 29.4098 27.8059 29.1675 27.7859 28.9257C27.7758 21.5705 27.7734 14.2158 27.7788 6.86126C27.7788 6.1127 27.6238 5.88523 26.9408 5.64326C22.8997 4.20897 18.8571 2.77823 14.8131 1.35119C14.6024 1.28598 14.3771 1.28916 14.1683 1.36026C10.1349 2.77824 6.10421 4.20433 2.07617 5.63862C1.38247 5.88421 1.22396 6.10716 1.22396 6.84666C1.22455 10.5363 1.22485 14.2263 1.22485 17.9166Z" fill="#0E4C8F"/>
<path d="M2.43591 17.9577C2.43591 14.4741 2.43591 10.9899 2.43591 7.50572C2.43591 6.90216 2.51606 6.78082 3.07708 6.58597C6.75783 5.27976 10.4425 3.97717 14.1309 2.67821C14.3778 2.59847 14.6428 2.59847 14.8896 2.67821C18.59 3.97415 22.2864 5.28146 25.9791 6.60035C26.4679 6.77345 26.5677 6.92217 26.5686 7.44598C26.5686 14.4398 26.5704 21.4335 26.5739 28.4267C26.5861 28.5983 26.5456 28.7695 26.458 28.9168C26.3705 29.064 26.2401 29.18 26.085 29.2486C22.3782 31.214 18.674 33.1847 14.9724 35.1609C14.8338 35.2464 14.6751 35.2922 14.513 35.2935C14.351 35.2948 14.1916 35.2515 14.0516 35.1682C10.34 33.1836 6.62486 31.2071 2.90611 29.2387C2.75196 29.168 2.6233 29.0499 2.53807 28.9013C2.45284 28.7526 2.41528 28.5808 2.43059 28.4094C2.43949 24.9252 2.44126 21.4413 2.43591 17.9577ZM25.3619 17.9902C25.3619 14.6969 25.3619 11.4046 25.3682 8.11217C25.3901 7.98565 25.3624 7.85524 25.2909 7.74932C25.2195 7.64339 25.1101 7.57041 24.9862 7.54577C21.629 6.36945 18.2765 5.18014 14.9288 3.97785C14.6606 3.87421 14.3644 3.87421 14.0962 3.97785C10.723 5.18618 7.34647 6.3838 3.96671 7.57099C3.86027 7.59234 3.76624 7.6553 3.70468 7.74622C3.64312 7.83714 3.61889 7.94892 3.6372 8.05774C3.64433 14.6691 3.64433 21.2802 3.6372 27.891C3.62677 28.0013 3.65224 28.1119 3.70968 28.2061C3.76712 28.3002 3.85336 28.3727 3.95514 28.4121C7.37467 30.2246 10.7906 32.042 14.203 33.8642C14.297 33.9228 14.4054 33.9531 14.5156 33.952C14.6259 33.9509 14.7336 33.9183 14.8264 33.8578C18.2281 32.0398 21.6331 30.2273 25.0414 28.4203C25.1491 28.3785 25.2402 28.3017 25.3004 28.2017C25.3607 28.1017 25.3867 27.984 25.3744 27.8674C25.3575 24.5795 25.3619 21.2826 25.3619 17.9902Z" fill="#0E4C8F"/>
<path d="M13.0525 19.5143C13.1413 19.3768 13.2389 19.2455 13.3446 19.1211C15.2853 17.1352 17.2278 15.1518 19.1721 13.1714C19.6601 12.673 19.9014 12.6757 20.3974 13.1813C21.1431 13.9414 21.8881 14.7024 22.6326 15.4642C23.0502 15.8929 23.0493 16.1748 22.6272 16.6052C19.7355 19.5572 16.8428 22.5086 13.9493 25.4593C13.5521 25.8653 13.3259 25.877 12.87 25.5272C10.9524 24.0609 9.03578 22.594 7.12001 21.1265C6.62489 20.7477 6.58569 20.4757 6.95703 19.97C7.60235 19.0879 8.24975 18.2076 8.89922 17.3285C9.24474 16.8618 9.52259 16.8201 9.97941 17.1672C10.9759 17.9221 11.9697 18.6832 13.0525 19.5143ZM19.7269 14.3215C19.27 14.7954 18.8159 15.274 18.3555 15.7452C16.7775 17.3583 15.1981 18.9699 13.6171 20.58C13.2199 20.9851 12.9875 21.0016 12.5361 20.6599C12.2742 20.4614 12.0151 20.2592 11.7542 20.0599L9.60718 18.4195L8.16099 20.3862L13.2609 24.2876L21.3841 15.9999L19.7269 14.3215Z" fill="#0E4C8F"/>
</svg>
