<svg width="35" height="35" viewBox="0 0 35 35" fill="none" xmlns="http://www.w3.org/2000/svg">
<path d="M0.415788 35C0.273539 34.9064 0.159977 34.7753 0.0875915 34.6211C0.0152056 34.467 -0.0131585 34.2957 0.00564935 34.1265C0.0103179 23.0464 0.0103179 11.966 0.00564935 0.885247C0.00564935 0.201871 0.200723 0.00658924 0.875995 0.00658924C7.11517 0.00658924 13.354 0.00472884 19.5925 0.000726629C19.7621 -0.00521109 19.931 0.0252923 20.0878 0.0903757C20.2445 0.155459 20.3854 0.253553 20.5009 0.377888C22.421 2.31229 24.3478 4.24098 26.2812 6.16404C26.4051 6.2798 26.5026 6.42085 26.5671 6.57759C26.6317 6.73434 26.6617 6.90309 26.6554 7.0725C26.6464 8.88349 26.6554 10.6934 26.6554 12.5044V12.9708C26.7984 12.8357 26.8845 12.7577 26.9675 12.6767C28.1513 11.5047 29.3348 10.3328 30.5179 9.16081C31.0021 8.68154 31.2712 8.68353 31.7614 9.1718C32.7311 10.1383 33.6999 11.1054 34.6676 12.0733C35.1108 12.5165 35.1108 12.7867 34.6676 13.2309C32.0912 15.801 29.5125 18.369 26.9315 20.9351C26.8373 21.0223 26.7634 21.1293 26.7152 21.2483C26.667 21.3673 26.6455 21.4953 26.6524 21.6235C26.6604 25.7798 26.6627 29.9362 26.6594 34.0925C26.6594 34.4757 26.6094 34.8239 26.2042 35H0.415788ZM18.366 23.0503C18.6271 22.2709 18.8663 21.5105 19.1404 20.7651C19.2351 20.4999 19.3839 20.2574 19.5775 20.0528C21.4502 18.1668 23.34 16.2956 25.2138 14.4105C25.3412 14.2759 25.4167 14.1005 25.4269 13.9154C25.4409 11.8542 25.4359 9.79195 25.4359 7.73082V7.38761H25.0107C23.3761 7.38761 21.742 7.38761 20.1087 7.38761C19.5085 7.38761 19.3365 7.21654 19.3355 6.61521C19.3355 4.9523 19.3355 3.28954 19.3355 1.62662V1.24824H1.25817V33.7503H25.4109V22.4811C25.2899 22.5932 25.2108 22.6652 25.1298 22.7432C24.6546 23.2195 24.1924 23.7098 23.7002 24.1691C23.504 24.3557 23.2719 24.5002 23.0179 24.5941C21.6914 25.0504 20.3569 25.4796 19.0253 25.9188C18.9113 25.9568 18.8002 26.0031 18.6882 26.0451C18.7923 26.0931 18.907 26.1136 19.0213 26.105C19.8216 26.105 20.622 26.0991 21.4223 26.1101C21.5684 26.1199 21.7058 26.1826 21.8087 26.2867C21.9117 26.3908 21.9731 26.5291 21.9814 26.6753C21.9896 26.8215 21.9441 26.9656 21.8535 27.0806C21.7629 27.1956 21.6333 27.2736 21.4893 27.2997C21.3537 27.3175 21.2168 27.3245 21.0801 27.3207H5.54786C5.45682 27.3207 5.3648 27.3207 5.27376 27.3207C4.82158 27.2937 4.57345 27.0616 4.58446 26.6844C4.59546 26.3072 4.84758 26.1169 5.28475 26.1059C5.38479 26.1059 5.49086 26.1059 5.5939 26.1059H17.7988C17.2576 25.4296 17.9129 24.8923 17.9059 24.2719H5.50286C5.36594 24.28 5.22859 24.2748 5.09272 24.256C4.95486 24.241 4.82746 24.1753 4.73509 24.0719C4.64273 23.9684 4.59194 23.8344 4.59252 23.6957C4.5756 23.5575 4.61246 23.4181 4.69553 23.3063C4.77859 23.1945 4.90147 23.1191 5.03868 23.0955C5.19491 23.0631 5.35436 23.049 5.51385 23.0535C9.64885 23.0535 13.7862 23.0535 17.9259 23.0535L18.366 23.0503ZM23.074 22.9883L30.753 15.3842L28.3951 13.0367L20.77 20.6891L23.074 22.9883ZM33.4601 12.6925L31.1312 10.3673L29.3985 12.1033L31.7194 14.4157L33.4601 12.6925ZM24.4805 6.14498L20.5719 2.25881V6.14498H24.4805ZM21.8254 23.7296L20.0507 21.8988L19.1393 24.6251L21.8254 23.7296Z" fill="#0E4C8F"/>
<path d="M15.3689 31.7135C12.6618 31.7135 9.95478 31.7135 7.24769 31.7135C6.75649 31.7135 6.49337 31.5203 6.46936 31.1473C6.44741 31.0069 6.47976 30.8636 6.55985 30.7462C6.63994 30.6288 6.76179 30.5463 6.90056 30.5155C7.04729 30.4783 7.1984 30.4614 7.34972 30.4654C12.7059 30.4654 18.062 30.4654 23.4182 30.4654C23.9544 30.4654 24.2255 30.6323 24.2785 30.9893C24.2952 31.0726 24.294 31.1583 24.2751 31.2411C24.2561 31.3238 24.2198 31.4017 24.1686 31.4693C24.1173 31.537 24.0523 31.5929 23.9778 31.6336C23.9032 31.6743 23.821 31.6989 23.7363 31.7054C23.6203 31.7158 23.5036 31.7189 23.3872 31.7144L15.3689 31.7135Z" fill="#0E4C8F"/>
<path d="M11.4964 21.1187C12.8722 21.1187 14.2482 21.1187 15.6241 21.1187C15.7522 21.1114 15.8807 21.1187 16.0072 21.1407C16.148 21.1628 16.2755 21.2363 16.365 21.3472C16.4545 21.4581 16.4996 21.5983 16.4914 21.7405C16.4998 21.8767 16.458 22.0113 16.3739 22.1187C16.2899 22.2261 16.1693 22.2989 16.0352 22.3235C15.8867 22.3534 15.7354 22.3662 15.584 22.3616C12.8436 22.3616 10.1032 22.3616 7.36273 22.3616H7.2927C6.73947 22.3546 6.45933 22.1437 6.46033 21.7337C6.46133 21.3237 6.73948 21.1187 7.2977 21.1187C8.6976 21.1174 10.0971 21.1174 11.4964 21.1187Z" fill="#0E4C8F"/>
</svg>
