<svg width="24" height="24" viewBox="0 0 24 24" fill="none" xmlns="http://www.w3.org/2000/svg">
<path fill-rule="evenodd" clip-rule="evenodd" d="M12 2.75024C17.108 2.75024 21.25 6.89224 21.25 12.0002C21.25 17.1082 17.108 21.2502 12 21.2502C6.891 21.2502 2.75 17.1082 2.75 12.0002C2.75 6.89224 6.891 2.75024 12 2.75024Z" stroke="#0E4C8F" stroke-width="1.5" stroke-linecap="round" stroke-linejoin="round"/>
<path fill-rule="evenodd" clip-rule="evenodd" d="M8 12.1997C8 11.656 8.4407 11.2153 8.98434 11.2153H15.4167C15.9603 11.2153 16.401 11.656 16.401 12.1997C16.401 12.7433 15.9603 13.184 15.4167 13.184H8.98434C8.4407 13.184 8 12.7433 8 12.1997Z" fill="#0E4C8F"/>
<path fill-rule="evenodd" clip-rule="evenodd" d="M12.2002 8C12.7438 8 13.1845 8.4407 13.1845 8.98434V15.4167C13.1845 15.9603 12.7438 16.401 12.2002 16.401C11.6565 16.401 11.2158 15.9603 11.2158 15.4167V8.98434C11.2158 8.4407 11.6565 8 12.2002 8Z" fill="#0E4C8F"/>
</svg>
