<svg width="24" height="24" viewBox="0 0 24 24" fill="none" xmlns="http://www.w3.org/2000/svg">
<g clip-path="url(#clip0_384_585)">
<path d="M6.76885 9.20156C6.51765 8.52516 5.47796 8.5372 5.24241 9.219L3.28041 14.3704C2.95693 15.2315 4.26385 15.7285 4.59455 14.8709L4.91073 14.0408H7.09238L7.4049 14.8689C7.73818 15.7309 9.04065 15.2308 8.72059 14.3724L6.77644 9.22073C6.77404 9.21429 6.77151 9.2079 6.76885 9.20156ZM5.44632 12.6345L6.00657 11.1636L6.56171 12.6345H5.44632ZM20.0625 10.1227C20.4508 10.1227 20.7656 9.80784 20.7656 9.41953C20.7656 9.03122 20.4508 8.71641 20.0625 8.71641H17.881C17.4927 8.71641 17.1779 9.03122 17.1779 9.41953V14.5968C17.1779 14.9851 17.4927 15.3 17.881 15.3H20.0625C20.4508 15.3 20.7656 14.9851 20.7656 14.5968C20.7656 14.2085 20.4508 13.8937 20.0625 13.8937H18.5841V12.7113H19.9016C20.2899 12.7113 20.6048 12.3965 20.6048 12.0082C20.6048 11.6198 20.2899 11.305 19.9016 11.305H18.5841V10.1227H20.0625ZM12.8709 10.0825C13.2535 10.0825 13.6225 10.1951 13.9379 10.4082C14.2597 10.6255 14.6968 10.541 14.9142 10.2192C15.1316 9.89742 15.0469 9.46036 14.7252 9.24295C14.1764 8.87222 13.5352 8.67628 12.8709 8.67628C11.0426 8.67628 9.55524 10.1637 9.55524 11.9919C9.55524 13.8201 11.0426 15.3075 12.8709 15.3075C14.6127 15.3075 15.8292 13.9441 15.8292 11.9919C15.8292 11.6036 15.5144 11.2888 15.1261 11.2888H13.563C13.1747 11.2888 12.8599 11.6036 12.8599 11.9919C12.8599 12.3802 13.1747 12.695 13.563 12.695H14.3328C14.1585 13.3419 13.7156 13.9012 12.8709 13.9012C11.818 13.9012 10.9615 13.0447 10.9615 11.9919C10.9615 10.939 11.818 10.0825 12.8709 10.0825Z" fill="#058638"/>
<path d="M23.2969 11.2969C22.9086 11.2969 22.5938 11.6117 22.5938 12C22.5938 14.8297 21.4918 17.49 19.4909 19.4909C17.49 21.4918 14.8297 22.5938 12 22.5938C9.17034 22.5938 6.51 21.4918 4.50909 19.4909C2.50819 17.49 1.40625 14.8297 1.40625 12C1.40625 9.1703 2.50819 6.51 4.50909 4.50909C6.51 2.50819 9.17034 1.40625 12 1.40625C13.419 1.40625 14.7957 1.68183 16.0918 2.22539C16.8319 2.53576 17.5343 2.92954 18.1852 3.39909L17.2531 3.51652C16.3384 3.63637 16.5202 5.02458 17.4289 4.91175L19.9443 4.59488C20.3186 4.56389 20.6161 4.20638 20.5768 3.83255L20.3527 1.3087C20.3183 0.921891 19.9768 0.636 19.5901 0.6705C19.2033 0.704859 18.9176 1.0463 18.9519 1.43306L19.0264 2.27189C18.2836 1.7339 17.4813 1.28314 16.6355 0.9285C15.1664 0.312375 13.6068 0 12 0C8.79469 0 5.78123 1.24823 3.51473 3.51473C1.24823 5.78123 0 8.79469 0 12C0 15.2053 1.24823 18.2188 3.51473 20.4853C5.78123 22.7518 8.79469 24 12 24C15.2053 24 18.2188 22.7518 20.4853 20.4853C22.7518 18.2188 24 15.2053 24 12C24 11.6117 23.6852 11.2969 23.2969 11.2969Z" fill="#058638"/>
</g>
<defs>
<clipPath id="clip0_384_585">
<rect width="24" height="24" fill="white"/>
</clipPath>
</defs>
</svg>
