<svg width="34" height="37" viewBox="0 0 34 37" fill="none" xmlns="http://www.w3.org/2000/svg">
<path d="M27.6964 0.583333C27.6964 0.428624 27.6344 0.280251 27.5238 0.170854C27.4133 0.0614581 27.2634 0 27.1072 0H2.94643C2.16526 0.000868477 1.41633 0.308438 0.863958 0.855231C0.311585 1.40202 0.000877339 2.14339 0 2.91667V32.0833C0.000877339 32.8566 0.311585 33.598 0.863958 34.1448C1.41633 34.6916 2.16526 34.9991 2.94643 35H27.1072C27.2634 35 27.4133 34.9385 27.5238 34.8291C27.6344 34.7197 27.6964 34.5714 27.6964 34.4167V17.5H32.4107C32.5174 17.5 32.6221 17.4713 32.7136 17.4171C32.8051 17.3628 32.88 17.285 32.9303 17.1919C32.9806 17.0988 33.0045 16.9939 32.9993 16.8885C32.9942 16.783 32.9602 16.6809 32.901 16.5931L31.9404 15.1667L32.901 13.7403C32.9602 13.6524 32.9942 13.5503 32.9993 13.4449C33.0045 13.3394 32.9806 13.2345 32.9303 13.1414C32.88 13.0483 32.8051 12.9705 32.7136 12.9163C32.6221 12.862 32.5174 12.8333 32.4107 12.8333H27.6964V11.6667H31.2322C31.3388 11.6667 31.4435 11.638 31.535 11.5837C31.6265 11.5295 31.7014 11.4517 31.7517 11.3586C31.802 11.2655 31.8259 11.1606 31.8207 11.0551C31.8156 10.9497 31.7816 10.8476 31.7224 10.7597L30.7618 9.33333L31.7224 7.90694C31.7816 7.81909 31.8156 7.71699 31.8207 7.61153C31.8259 7.50607 31.802 7.4012 31.7517 7.3081C31.7014 7.21501 31.6265 7.13718 31.535 7.08292C31.4435 7.02866 31.3388 7 31.2322 7H27.6964V0.583333ZM2.4213 1.24549C2.59131 1.19308 2.76837 1.1665 2.94643 1.16667H26.5179V2.33333H12.375V3.5H26.5179V4.66667H2.94643C2.52349 4.66679 2.11452 4.51682 1.79374 4.24397C1.47296 3.97112 1.26163 3.59346 1.1981 3.17955C1.13457 2.76564 1.22304 2.34289 1.44747 1.98803C1.6719 1.63318 2.01742 1.36972 2.4213 1.24549ZM1.17857 32.0833V5.2484C1.68785 5.62862 2.30854 5.83399 2.94643 5.83333H3.53572V33.8333H2.94643C2.47773 33.8328 2.02839 33.6482 1.69697 33.3202C1.36555 32.9921 1.17912 32.5473 1.17857 32.0833V32.0833ZM15.9107 33.8333V31.5H14.7321V33.8333H13.5536V28H12.375V30.0417C12.3751 30.0804 12.3673 30.1189 12.3521 30.1546C12.3369 30.1904 12.3146 30.2227 12.2866 30.2498C12.2589 30.2774 12.2258 30.299 12.1893 30.3133C12.1528 30.3277 12.1137 30.3345 12.0745 30.3333C11.9941 30.3265 11.9193 30.2894 11.8656 30.2298C11.8119 30.1701 11.7834 30.0924 11.7857 30.0125V28C11.7861 27.6907 11.9104 27.3942 12.1313 27.1754C12.3523 26.9567 12.6518 26.8337 12.9643 26.8333H17.6786C17.991 26.8337 18.2906 26.9567 18.5115 27.1754C18.7325 27.3942 18.8568 27.6907 18.8571 28V30.0125C18.8595 30.0924 18.8309 30.1701 18.7772 30.2298C18.7235 30.2895 18.6487 30.3265 18.5683 30.3333C18.5291 30.334 18.4902 30.3269 18.4538 30.3126C18.4173 30.2982 18.3842 30.2769 18.3561 30.2498C18.3281 30.2227 18.3059 30.1903 18.2907 30.1546C18.2756 30.1188 18.2678 30.0804 18.2679 30.0417V28H17.0893V33.8333H15.9107ZM13.5536 23.9167C13.5536 23.5705 13.6573 23.2322 13.8515 22.9444C14.0458 22.6566 14.3219 22.4323 14.6449 22.2999C14.9679 22.1674 15.3234 22.1328 15.6663 22.2003C16.0093 22.2678 16.3243 22.4345 16.5715 22.6792C16.8187 22.924 16.9871 23.2358 17.0553 23.5753C17.1235 23.9147 17.0885 24.2666 16.9547 24.5864C16.8209 24.9061 16.5943 25.1794 16.3036 25.3717C16.0129 25.564 15.6711 25.6667 15.3214 25.6667C14.8527 25.6661 14.4034 25.4816 14.072 25.1535C13.7406 24.8254 13.5541 24.3806 13.5536 23.9167V23.9167ZM26.5179 33.8333H18.2679V31.4708C18.3738 31.4921 18.4818 31.5017 18.5898 31.4995C18.979 31.4868 19.3478 31.3243 19.6178 31.0466C19.8878 30.7689 20.0377 30.3979 20.0357 30.0125V28C20.035 27.3814 19.7865 26.7883 19.3446 26.3509C18.9027 25.9134 18.3035 25.6674 17.6786 25.6667H17.677C18.0058 25.2335 18.2062 24.7181 18.2558 24.1785C18.3053 23.6388 18.202 23.0961 17.9574 22.6114C17.7128 22.1266 17.3366 21.7188 16.871 21.4338C16.4054 21.1488 15.8689 20.9979 15.3214 20.9979C14.774 20.9979 14.2374 21.1488 13.7718 21.4338C13.3062 21.7188 12.9301 22.1266 12.6855 22.6114C12.4409 23.0961 12.3376 23.6388 12.3871 24.1785C12.4366 24.7181 12.6371 25.2335 12.9659 25.6667H12.9643C12.3394 25.6674 11.7402 25.9134 11.2983 26.3509C10.8564 26.7883 10.6078 27.3814 10.6071 28V30.0125C10.6032 30.2311 10.6488 30.4478 10.7406 30.6466C10.8325 30.8454 10.9683 31.0212 11.1379 31.1612C11.3076 31.3011 11.5068 31.4016 11.7209 31.4552C11.935 31.5088 12.1585 31.5141 12.375 31.4708V33.8333H4.71429V5.83333H26.5179V33.8333ZM31.3096 14L30.7419 14.8431C30.6773 14.9389 30.6429 15.0515 30.6429 15.1667C30.6429 15.2818 30.6773 15.3944 30.7419 15.4903L31.3096 16.3333H27.6964V14H31.3096ZM30.1311 8.16667L29.5633 9.00973C29.4987 9.10556 29.4643 9.21816 29.4643 9.33333C29.4643 9.44851 29.4987 9.56111 29.5633 9.65694L30.1311 10.5H27.6964V8.16667H30.1311Z" fill="#0E4C8F"/>
<path d="M5.30357 2.33325H2.94643V3.49992H5.30357V2.33325Z" fill="#0E4C8F"/>
<path d="M10.6071 2.33325H7.66071V3.49992H10.6071V2.33325Z" fill="#0E4C8F"/>
<path d="M18.2679 11.6667H17.0893V10.5001C17.0893 10.3454 17.0272 10.197 16.9167 10.0876C16.8062 9.97821 16.6563 9.91675 16.5 9.91675H14.1428C13.9866 9.91675 13.8367 9.97821 13.7262 10.0876C13.6156 10.197 13.5536 10.3454 13.5536 10.5001V11.6667H12.375C12.2187 11.6667 12.0688 11.7282 11.9583 11.8376C11.8478 11.947 11.7857 12.0954 11.7857 12.2501V14.5834C11.7857 14.7381 11.8478 14.8865 11.9583 14.9959C12.0688 15.1053 12.2187 15.1667 12.375 15.1667H13.5536V16.3334C13.5536 16.4881 13.6156 16.6365 13.7262 16.7459C13.8367 16.8553 13.9866 16.9167 14.1428 16.9167H16.5C16.6563 16.9167 16.8062 16.8553 16.9167 16.7459C17.0272 16.6365 17.0893 16.4881 17.0893 16.3334V15.1667H18.2679C18.4241 15.1667 18.574 15.1053 18.6845 14.9959C18.7951 14.8865 18.8571 14.7381 18.8571 14.5834V12.2501C18.8571 12.0954 18.7951 11.947 18.6845 11.8376C18.574 11.7282 18.4241 11.6667 18.2679 11.6667ZM17.6786 14.0001H16.5C16.3437 14.0001 16.1938 14.0615 16.0833 14.1709C15.9728 14.2803 15.9107 14.4287 15.9107 14.5834V15.7501H14.7321V14.5834C14.7321 14.4287 14.6701 14.2803 14.5595 14.1709C14.449 14.0615 14.2991 14.0001 14.1428 14.0001H12.9643V12.8334H14.1428C14.2991 12.8334 14.449 12.772 14.5595 12.6626C14.6701 12.5532 14.7321 12.4048 14.7321 12.2501V11.0834H15.9107V12.2501C15.9107 12.4048 15.9728 12.5532 16.0833 12.6626C16.1938 12.772 16.3437 12.8334 16.5 12.8334H17.6786V14.0001Z" fill="#0E4C8F"/>
<path d="M15.3214 7C14.0394 7 12.7861 7.37633 11.7202 8.0814C10.6542 8.78648 9.82334 9.78862 9.33272 10.9611C8.8421 12.1336 8.71373 13.4238 8.96385 14.6685C9.21396 15.9132 9.83133 17.0565 10.7379 17.9539C11.6444 18.8513 12.7994 19.4625 14.0568 19.71C15.3142 19.9576 16.6176 19.8306 17.8021 19.3449C18.9865 18.8592 19.9989 18.0368 20.7111 16.9816C21.4234 15.9264 21.8036 14.6858 21.8036 13.4167C21.8016 11.7155 21.1181 10.0845 19.9029 8.88153C18.6876 7.67859 17.04 7.00193 15.3214 7V7ZM15.3214 18.6667C14.2725 18.6667 13.2471 18.3588 12.3749 17.7819C11.5028 17.205 10.823 16.3851 10.4216 15.4258C10.0202 14.4664 9.91514 13.4108 10.1198 12.3924C10.3244 11.374 10.8295 10.4386 11.5712 9.70436C12.313 8.97013 13.258 8.47012 14.2868 8.26754C15.3156 8.06497 16.3819 8.16894 17.351 8.5663C18.3201 8.96366 19.1484 9.63657 19.7312 10.4999C20.314 11.3633 20.625 12.3783 20.625 13.4167C20.6234 14.8086 20.0642 16.143 19.0699 17.1273C18.0756 18.1115 16.7276 18.6651 15.3214 18.6667V18.6667Z" fill="#0E4C8F"/>
<path d="M15.494 28.1709L15.3215 28.3418L15.1489 28.1709C15.0384 28.0615 14.8885 28 14.7322 28C14.5759 28 14.426 28.0615 14.3155 28.1709C14.205 28.2803 14.1429 28.4286 14.1429 28.5833C14.1429 28.7381 14.205 28.8864 14.3155 28.9958L14.9048 29.5792C14.9595 29.6333 15.0244 29.6763 15.0959 29.7056C15.1674 29.7349 15.2441 29.75 15.3215 29.75C15.3988 29.75 15.4755 29.7349 15.547 29.7056C15.6185 29.6763 15.6834 29.6333 15.7382 29.5792L16.3274 28.9958C16.438 28.8864 16.5 28.7381 16.5 28.5833C16.5 28.4286 16.438 28.2803 16.3274 28.1709C16.2169 28.0615 16.067 28 15.9107 28C15.7544 28 15.6046 28.0615 15.494 28.1709V28.1709Z" fill="#0E4C8F"/>
</svg>
