<svg width="52" height="52" viewBox="0 0 52 52" fill="none" xmlns="http://www.w3.org/2000/svg">
<g filter="url(#filter0_d_67_4120)">
<path d="M26 43C37.0457 43 46 34.0457 46 23C46 11.9543 37.0457 3 26 3C14.9543 3 6 11.9543 6 23C6 34.0457 14.9543 43 26 43Z" fill="#0E4C8F"/>
</g>
<path d="M30.0561 32.9989C29.6761 32.9199 29.2901 32.8647 28.9171 32.7587C27.9778 32.4763 27.1311 31.9481 26.4648 31.2284C25.7984 30.5087 25.3366 29.6238 25.1273 28.6657C24.9179 27.7075 24.9686 26.7109 25.274 25.7789C25.5794 24.8469 26.1286 24.0135 26.8645 23.3651C27.6003 22.7167 28.4961 22.2769 29.4592 22.0912C30.4222 21.9055 31.4174 21.9807 32.3416 22.309C33.2658 22.6373 34.0855 23.2067 34.7155 23.9584C35.3456 24.71 35.7631 25.6165 35.925 26.5839C35.949 26.7399 35.977 26.8949 36.003 27.0509V27.9628C35.9887 28.0057 35.9771 28.0496 35.9681 28.0939C35.8631 29.1504 35.4494 30.1525 34.7786 30.9755C34.1079 31.7985 33.2096 32.4058 32.196 32.7218C31.7926 32.8399 31.3822 32.9325 30.9671 32.9989H30.0561ZM26.2801 27.5077C26.2817 28.3434 26.5309 29.1598 26.9963 29.8539C27.4617 30.548 28.1224 31.0886 28.895 31.4074C29.6675 31.7261 30.5172 31.8087 31.3366 31.6447C32.156 31.4807 32.9085 31.0774 33.4988 30.486C34.0892 29.8945 34.4909 29.1412 34.6534 28.3214C34.8158 27.5017 34.7317 26.6522 34.4116 25.8803C34.0914 25.1083 33.5495 24.4486 32.8546 23.9845C32.1596 23.5204 31.3427 23.2728 30.507 23.2728C29.9511 23.2727 29.4006 23.3823 28.887 23.5951C28.3734 23.8079 27.9069 24.12 27.514 24.5133C27.1211 24.9067 26.8096 25.3735 26.5974 25.8873C26.3851 26.4012 26.2763 26.9517 26.277 27.5077H26.2801Z" fill="white"/>
<path d="M31.6391 19.352H17.2771V19.5679C17.2771 21.9272 17.2771 24.2863 17.2771 26.645C17.262 26.8007 17.2816 26.9578 17.3344 27.105C17.3873 27.2522 17.472 27.3857 17.5826 27.4963C17.6932 27.6069 17.8269 27.6918 17.9741 27.7446C18.1213 27.7974 18.2784 27.817 18.4341 27.802C19.9934 27.802 21.5527 27.802 23.112 27.802C23.2061 27.7907 23.3015 27.8005 23.3913 27.8306C23.4812 27.8606 23.5631 27.9102 23.6314 27.9758C23.6997 28.0414 23.7526 28.1216 23.7863 28.2102C23.8199 28.2987 23.8336 28.3936 23.8261 28.488C23.8167 28.6343 23.7557 28.7725 23.6541 28.8782C23.5525 28.9838 23.4168 29.0499 23.271 29.0649C23.199 29.0719 23.1261 29.071 23.0531 29.071C21.5201 29.071 19.987 29.0461 18.453 29.0791C18.1282 29.0866 17.8052 29.028 17.5036 28.907C17.202 28.7859 16.9281 28.605 16.6985 28.375C16.469 28.145 16.2885 27.8707 16.1681 27.5688C16.0477 27.267 15.9899 26.9437 15.9981 26.6189C16.0251 23.4339 16.0061 20.2489 16.0071 17.0639C15.9923 16.5029 16.1832 15.9557 16.5439 15.5256C16.9045 15.0955 17.41 14.8123 17.9651 14.729C18.3462 14.6917 18.7294 14.6807 19.112 14.696C19.196 14.696 19.2801 14.696 19.3861 14.696C19.3861 14.364 19.3861 14.0551 19.3861 13.7461C19.3844 13.6342 19.3993 13.5226 19.4301 13.415C19.4796 13.2792 19.5745 13.1645 19.6987 13.0906C19.8229 13.0166 19.9689 12.9879 20.1119 13.009C20.2549 13.0302 20.3863 13.1 20.4838 13.2068C20.5813 13.3135 20.639 13.4506 20.6471 13.595C20.6581 13.95 20.6471 14.3069 20.6471 14.6789H28.263C28.263 14.3629 28.263 14.0541 28.263 13.7461C28.2614 13.6342 28.2762 13.5226 28.307 13.415C28.3566 13.2791 28.4516 13.1645 28.576 13.0906C28.7003 13.0166 28.8463 12.9877 28.9894 13.009C29.1324 13.0303 29.2638 13.1003 29.3612 13.2073C29.4587 13.3142 29.5162 13.4515 29.5241 13.5959C29.5341 13.9509 29.5241 14.307 29.5241 14.696C29.6241 14.696 29.7081 14.696 29.7901 14.696C30.238 14.6837 30.6861 14.7081 31.13 14.769C31.6384 14.8813 32.0928 15.1648 32.4172 15.572C32.7416 15.9792 32.9163 16.4855 32.9121 17.0061C32.9261 18.1221 32.9181 19.2389 32.9121 20.3559C32.9181 20.4428 32.9061 20.53 32.877 20.612C32.8479 20.6941 32.8021 20.7693 32.7427 20.833C32.6833 20.8966 32.6114 20.9472 32.5316 20.9819C32.4517 21.0166 32.3656 21.0347 32.2785 21.0347C32.1915 21.0347 32.1053 21.0166 32.0255 20.9819C31.9456 20.9472 31.8738 20.8966 31.8144 20.833C31.755 20.7693 31.7093 20.6941 31.6801 20.612C31.651 20.53 31.6391 20.4428 31.6451 20.3559C31.6451 20.0389 31.645 19.722 31.64 19.405C31.6417 19.3874 31.6414 19.3696 31.6391 19.352ZM17.2831 18.0639H31.6391C31.6391 17.6569 31.6691 17.264 31.6311 16.864C31.6225 16.6518 31.5395 16.4494 31.3968 16.2922C31.254 16.135 31.0605 16.0328 30.8501 16.0039C30.4124 15.9666 29.9724 15.962 29.534 15.99C29.534 16.338 29.541 16.6899 29.534 17.0349C29.5286 17.1907 29.4656 17.339 29.357 17.4509C29.2485 17.5629 29.1022 17.6306 28.9466 17.6409C28.791 17.6511 28.6372 17.6031 28.515 17.5063C28.3927 17.4095 28.3108 17.2707 28.2851 17.1169C28.2708 17.0055 28.2655 16.8932 28.2691 16.781C28.2691 16.513 28.2691 16.2449 28.2691 15.9719H20.669C20.669 16.0479 20.6611 16.112 20.6601 16.177C20.6601 16.461 20.6661 16.746 20.6601 17.029C20.6592 17.1203 20.6383 17.2102 20.5988 17.2925C20.5594 17.3748 20.5024 17.4475 20.4319 17.5054C20.3613 17.5632 20.2789 17.6049 20.1905 17.6274C20.102 17.65 20.0097 17.6529 19.9201 17.636C19.7659 17.6073 19.6274 17.5232 19.5307 17.3996C19.4341 17.2761 19.3858 17.1217 19.3951 16.9651C19.3951 16.6371 19.3951 16.3081 19.3951 15.9651C19.0031 15.9651 18.6341 15.9541 18.2661 15.9651C18.0124 15.9777 17.7723 16.0836 17.592 16.2624C17.4117 16.4413 17.3038 16.6805 17.289 16.9341C17.266 17.3091 17.2801 17.6789 17.2801 18.0639H17.2831Z" fill="white"/>
<path d="M31.1321 26.8621C31.6871 26.8621 32.2081 26.8561 32.7321 26.8621C32.8697 26.862 33.0059 26.8902 33.1321 26.9451C33.2546 27.0095 33.3522 27.1128 33.4097 27.2386C33.4672 27.3644 33.4813 27.5057 33.4499 27.6404C33.4184 27.7752 33.3432 27.8956 33.2359 27.983C33.1286 28.0703 32.9954 28.1196 32.8571 28.1231C32.3571 28.1321 31.8671 28.1231 31.3711 28.1231H31.1341C31.1341 28.4351 31.1341 28.723 31.1341 29.012C31.1341 29.276 31.1341 29.54 31.1341 29.804C31.1341 29.9718 31.0675 30.1327 30.9489 30.2513C30.8303 30.3699 30.6694 30.4366 30.5016 30.4366C30.3339 30.4366 30.173 30.3699 30.0544 30.2513C29.9357 30.1327 29.8691 29.9718 29.8691 29.804C29.8601 29.322 29.8691 28.8402 29.8691 28.3582C29.8691 28.2882 29.8691 28.217 29.8691 28.126H29.0361C28.7361 28.126 28.4421 28.132 28.1451 28.126C27.9928 28.1177 27.8488 28.0543 27.7399 27.9476C27.631 27.8408 27.5647 27.698 27.5533 27.546C27.5419 27.3939 27.5862 27.2429 27.678 27.1212C27.7698 26.9994 27.9028 26.915 28.0522 26.8841C28.1512 26.8674 28.2517 26.8603 28.3521 26.8631C28.8521 26.8631 29.3521 26.8631 29.8741 26.8631C29.8741 26.3421 29.8741 25.8421 29.8741 25.3421C29.8713 25.2417 29.8783 25.1411 29.8951 25.0421C29.9232 24.8875 30.0095 24.7498 30.1362 24.6568C30.2628 24.5638 30.4202 24.5226 30.5761 24.5421C30.7258 24.5536 30.8661 24.6203 30.9696 24.7291C31.0732 24.8378 31.1329 24.981 31.1371 25.1312C31.1481 25.6312 31.1371 26.1222 31.1421 26.6172C31.1331 26.6932 31.1321 26.7651 31.1321 26.8621Z" fill="white"/>
<defs>
<filter id="filter0_d_67_4120" x="0" y="0" width="52" height="52" filterUnits="userSpaceOnUse" color-interpolation-filters="sRGB">
<feFlood flood-opacity="0" result="BackgroundImageFix"/>
<feColorMatrix in="SourceAlpha" type="matrix" values="0 0 0 0 0 0 0 0 0 0 0 0 0 0 0 0 0 0 127 0" result="hardAlpha"/>
<feOffset dy="3"/>
<feGaussianBlur stdDeviation="3"/>
<feColorMatrix type="matrix" values="0 0 0 0 0.235294 0 0 0 0 0.235294 0 0 0 0 0.235294 0 0 0 0.102 0"/>
<feBlend mode="normal" in2="BackgroundImageFix" result="effect1_dropShadow_67_4120"/>
<feBlend mode="normal" in="SourceGraphic" in2="effect1_dropShadow_67_4120" result="shape"/>
</filter>
</defs>
</svg>
