<svg width="24" height="24" viewBox="0 0 24 24" fill="none" xmlns="http://www.w3.org/2000/svg">
<path d="M22 5.78195V20.436C21.9874 20.4655 21.977 20.496 21.969 20.5271C21.9004 20.9477 21.6802 21.3287 21.35 21.5981C21.0824 21.8032 20.7692 21.9403 20.437 21.998H3.56403C3.37573 21.9534 3.19118 21.8942 3.01203 21.821C2.69339 21.6737 2.42658 21.4336 2.2464 21.1323C2.06623 20.831 1.98105 20.4825 2.00202 20.132C2.00202 17.0974 2.00202 14.0639 2.00202 11.0319C2.00202 9.39695 2.00202 7.76305 2.00202 6.13205C1.9957 5.46203 2.21865 4.81 2.63391 4.28415C3.04918 3.75829 3.6318 3.39011 4.28504 3.24093C4.37193 3.21193 4.44377 3.14989 4.48499 3.06808C4.61357 2.75042 4.83515 2.47903 5.12067 2.28952C5.40619 2.1 5.74236 2.00119 6.08503 2.00607C6.42661 1.99194 6.76429 2.08271 7.05268 2.26632C7.34106 2.44994 7.56628 2.71744 7.698 3.03293C7.71196 3.07777 7.74127 3.1164 7.78077 3.14181C7.82026 3.16723 7.86741 3.17796 7.914 3.17209C8.67534 3.16742 9.43704 3.16742 10.199 3.17209C10.2427 3.17842 10.2872 3.16922 10.3248 3.14621C10.3624 3.1232 10.3908 3.08785 10.405 3.04611C10.5419 2.73706 10.7654 2.47415 11.0485 2.28952C11.3316 2.10488 11.6621 2.00622 12.0001 2.00558C12.338 2.00495 12.669 2.10253 12.9528 2.2861C13.2365 2.46967 13.461 2.73148 13.599 3.04001C13.6118 3.08192 13.6387 3.11804 13.6752 3.1423C13.7117 3.16656 13.7554 3.17751 13.799 3.17306C14.567 3.1684 15.3337 3.1684 16.099 3.17306C16.1426 3.17751 16.1864 3.16656 16.2228 3.1423C16.2593 3.11804 16.2863 3.08192 16.299 3.04001C16.4296 2.72389 16.654 2.45542 16.9418 2.27072C17.2297 2.08602 17.5672 1.99401 17.909 2.00705C18.2541 2.00161 18.5927 2.10127 18.8798 2.29294C19.1668 2.4846 19.3887 2.7592 19.516 3.08004C19.5554 3.15623 19.6234 3.21365 19.705 3.23996C20.1714 3.34268 20.6052 3.55914 20.9679 3.86984C21.3306 4.18054 21.6109 4.57587 21.784 5.02096C21.8721 5.26979 21.9442 5.52396 22 5.78195ZM3.17304 9.07296V9.28097C3.17304 12.895 3.17304 16.5087 3.17304 20.122C3.17304 20.607 3.39199 20.8271 3.87299 20.8271H20.118C20.613 20.8271 20.827 20.6101 20.827 20.1101C20.827 16.5027 20.827 12.8954 20.827 9.28805V9.07199L3.17304 9.07296ZM20.823 7.88498C20.823 7.23798 20.83 6.61407 20.823 5.98507C20.8141 5.66338 20.7069 5.35203 20.516 5.09298C20.3109 4.78755 20.0097 4.5595 19.66 4.44503C19.66 4.61103 19.66 4.74502 19.66 4.88302C19.6679 5.33066 19.5027 5.76403 19.199 6.09298C18.9775 6.33614 18.6918 6.512 18.3749 6.60006C18.0579 6.68813 17.7226 6.68479 17.4074 6.59079C17.0921 6.49678 16.8098 6.31585 16.5929 6.06857C16.376 5.82129 16.2332 5.51787 16.181 5.19308C16.1484 4.91224 16.1314 4.62962 16.13 4.34689H13.758C13.758 4.53089 13.758 4.70011 13.758 4.86911C13.7568 5.20195 13.6696 5.52881 13.505 5.81808C13.3167 6.12894 13.0373 6.37419 12.7047 6.52072C12.3721 6.66724 12.0025 6.70779 11.646 6.63693C11.2968 6.56446 10.9782 6.38672 10.733 6.12765C10.4879 5.86858 10.3281 5.54064 10.275 5.18795C10.242 4.90696 10.241 4.62301 10.226 4.34201H7.87403C7.86003 4.62301 7.86202 4.89601 7.83002 5.16501C7.77303 5.58285 7.56655 5.96582 7.24884 6.24313C6.93114 6.52044 6.5237 6.67331 6.10199 6.67331C5.68028 6.67331 5.27291 6.52044 4.9552 6.24313C4.6375 5.96582 4.43102 5.58285 4.37403 5.16501C4.34503 4.93201 4.34402 4.69404 4.33002 4.45504C3.99072 4.57351 3.69698 4.79512 3.48987 5.08883C3.28277 5.38255 3.17263 5.7336 3.17499 6.09298C3.16599 6.65298 3.17499 7.21292 3.17499 7.77292C3.17783 7.8093 3.18355 7.84557 3.19202 7.88107L20.823 7.88498ZM6.68799 4.3359C6.68799 4.1359 6.69399 3.94497 6.68799 3.74997C6.69125 3.67131 6.67862 3.59289 6.65076 3.51925C6.6229 3.44562 6.58045 3.37831 6.52594 3.3215C6.47144 3.26469 6.40598 3.21957 6.33356 3.18869C6.26114 3.15781 6.18322 3.14181 6.1045 3.14181C6.02577 3.14181 5.94785 3.15781 5.87543 3.18869C5.80301 3.21957 5.73761 3.26469 5.68311 3.3215C5.6286 3.37831 5.58615 3.44562 5.55829 3.51925C5.53044 3.59289 5.51774 3.67131 5.521 3.74997C5.513 4.14063 5.513 4.53142 5.521 4.92209C5.51774 5.00074 5.53044 5.07917 5.55829 5.1528C5.58615 5.22643 5.6286 5.29375 5.68311 5.35055C5.73761 5.40736 5.80301 5.45249 5.87543 5.48337C5.94785 5.51424 6.02577 5.53024 6.1045 5.53024C6.18322 5.53024 6.26114 5.51424 6.33356 5.48337C6.40598 5.45249 6.47144 5.40736 6.52594 5.35055C6.58045 5.29375 6.6229 5.22643 6.65076 5.1528C6.67862 5.07917 6.69125 5.00074 6.68799 4.92209C6.69299 4.72609 6.68799 4.53093 6.68799 4.33493V4.3359ZM11.416 4.32712C11.416 4.52712 11.416 4.71805 11.416 4.91305C11.416 5.06794 11.4775 5.21637 11.587 5.32589C11.6966 5.43542 11.8451 5.49704 12 5.49704C12.1549 5.49704 12.3034 5.43542 12.413 5.32589C12.5225 5.21637 12.584 5.06794 12.584 4.91305C12.5907 4.52905 12.5907 4.14495 12.584 3.76095C12.584 3.60607 12.5225 3.45763 12.413 3.34811C12.3034 3.23859 12.1549 3.17697 12 3.17697C11.8451 3.17697 11.6966 3.23859 11.587 3.34811C11.4775 3.45763 11.416 3.60607 11.416 3.76095C11.411 3.94895 11.415 4.13812 11.415 4.32712H11.416ZM18.485 4.33908C18.485 4.14408 18.49 3.9479 18.485 3.7529C18.4882 3.67424 18.4756 3.59582 18.4478 3.52218C18.4199 3.44855 18.3774 3.38124 18.3229 3.32443C18.2684 3.26762 18.203 3.22249 18.1306 3.19162C18.0581 3.16074 17.9802 3.14474 17.9015 3.14474C17.8228 3.14474 17.7449 3.16074 17.6725 3.19162C17.6001 3.22249 17.5346 3.26762 17.4801 3.32443C17.4256 3.38124 17.3831 3.44855 17.3553 3.52218C17.3274 3.59582 17.3147 3.67424 17.318 3.7529C17.31 4.14356 17.31 4.53435 17.318 4.92502C17.3147 5.00367 17.3274 5.0821 17.3553 5.15573C17.3831 5.22936 17.4256 5.29667 17.4801 5.35348C17.5346 5.41029 17.6001 5.45542 17.6725 5.48629C17.7449 5.51717 17.8228 5.53317 17.9015 5.53317C17.9802 5.53317 18.0581 5.51717 18.1306 5.48629C18.203 5.45542 18.2684 5.41029 18.3229 5.35348C18.3774 5.29667 18.4199 5.22936 18.4478 5.15573C18.4756 5.0821 18.4882 5.00367 18.485 4.92502C18.488 4.73002 18.488 4.53408 18.488 4.33908H18.485Z" fill="#D6D6D6"/>
<path d="M20.321 22C20.6782 21.9375 21.0148 21.7891 21.302 21.5679C21.6565 21.2785 21.8931 20.8696 21.967 20.418C21.9753 20.3838 21.9863 20.3503 22 20.3179V21.998L20.321 22Z" fill="#D6D6D6"/>
<path d="M9.516 12.2889H8.78504C8.28504 12.2889 7.79199 12.2889 7.29499 12.2889C7.20945 12.2942 7.12377 12.2822 7.0431 12.2533C6.96243 12.2243 6.88852 12.1792 6.82587 12.1207C6.76323 12.0622 6.71312 11.9917 6.67872 11.9132C6.64432 11.8347 6.62635 11.7498 6.6258 11.6641C6.62526 11.5784 6.6422 11.4936 6.6756 11.4146C6.70901 11.3357 6.75812 11.2644 6.82001 11.2052C6.88191 11.1459 6.95529 11.0999 7.03559 11.0699C7.11589 11.0399 7.2014 11.0268 7.28699 11.0311C7.46199 11.0311 7.63702 11.0311 7.81202 11.0311C8.84702 11.0311 9.882 11.0311 10.917 11.0311C11.057 11.0138 11.199 11.0419 11.3219 11.1112C11.4448 11.1805 11.5423 11.2873 11.6 11.4161C11.656 11.5497 11.666 11.6981 11.6285 11.838C11.5911 11.9779 11.5082 12.1013 11.393 12.189C10.95 12.627 10.512 13.0691 10.073 13.5101C10.025 13.5581 9.98104 13.6099 9.94904 13.6429C10.226 13.7954 10.4932 13.9651 10.749 14.151C11.1604 14.4884 11.4529 14.9487 11.5837 15.4644C11.7146 15.9802 11.6768 16.5242 11.476 17.0169C11.2598 17.5519 10.8663 17.9964 10.3615 18.276C9.85673 18.5555 9.27123 18.6533 8.70301 18.5528C8.13479 18.4523 7.61833 18.1597 7.24006 17.724C6.86179 17.2882 6.64465 16.7357 6.62501 16.159C6.61326 16.0725 6.61957 15.9845 6.64356 15.9005C6.66755 15.8165 6.70872 15.7383 6.76441 15.671C6.8201 15.6037 6.88909 15.5486 6.96711 15.5094C7.04513 15.4701 7.13044 15.4476 7.21766 15.443C7.30488 15.4383 7.39214 15.4517 7.47388 15.4825C7.55563 15.5133 7.63011 15.5607 7.69263 15.6217C7.75515 15.6827 7.80433 15.7558 7.8371 15.8368C7.86988 15.9177 7.88549 16.0048 7.883 16.0921C7.8853 16.3356 7.9594 16.5729 8.09602 16.7745C8.23263 16.976 8.4257 17.1326 8.65101 17.2249C8.85942 17.3204 9.09086 17.3542 9.31788 17.3223C9.54489 17.2904 9.75799 17.1942 9.93201 17.045C10.1287 16.8854 10.2725 16.67 10.3444 16.4271C10.4163 16.1842 10.413 15.9251 10.3348 15.6842C10.2567 15.4432 10.1073 15.2317 9.90656 15.0772C9.70578 14.9228 9.46297 14.8327 9.21003 14.8189C9.01003 14.8059 8.804 14.811 8.602 14.814C8.46327 14.8298 8.32322 14.7999 8.20301 14.7288C8.0828 14.6578 7.989 14.5496 7.93586 14.4205C7.88272 14.2914 7.87312 14.1483 7.90852 14.0133C7.94391 13.8782 8.0224 13.7584 8.13203 13.672C8.57603 13.225 9.021 12.7809 9.516 12.2889Z" fill="#D6D6D6"/>
<path d="M16.0371 17.329C16.6891 17.329 17.3111 17.323 17.9371 17.329C18.0197 17.3289 18.1016 17.3452 18.1778 17.3771C18.2541 17.409 18.3232 17.4556 18.3811 17.5145C18.4391 17.5735 18.4847 17.6436 18.5152 17.7204C18.5458 17.7972 18.5607 17.8792 18.5591 17.9618C18.5563 18.1244 18.491 18.2797 18.3766 18.3954C18.2622 18.5111 18.1077 18.5783 17.9451 18.5829C17.8821 18.5829 17.8191 18.5829 17.7561 18.5829H12.9921C12.9019 18.5965 12.8099 18.5906 12.7222 18.5656C12.6346 18.5405 12.5533 18.4969 12.484 18.4376C12.4146 18.3784 12.3589 18.305 12.3204 18.2223C12.2819 18.1396 12.2617 18.0498 12.261 17.9586C12.2604 17.8675 12.2793 17.7772 12.3166 17.694C12.3539 17.6108 12.4086 17.5367 12.4771 17.4765C12.5456 17.4163 12.6262 17.3714 12.7135 17.3451C12.8008 17.3188 12.8927 17.3115 12.983 17.3239C13.508 17.3239 14.0321 17.3239 14.5571 17.3239H14.772V13.205C14.71 13.261 14.6601 13.3049 14.6151 13.3449C14.1941 13.7649 13.7791 14.1919 13.3501 14.6039C13.2733 14.6863 13.1757 14.7465 13.0676 14.778C12.9595 14.8095 12.8449 14.8111 12.7359 14.7829C12.6269 14.7546 12.5275 14.6974 12.4483 14.6173C12.3691 14.5373 12.3131 14.4371 12.2861 14.3278C12.2552 14.2223 12.2543 14.1105 12.2834 14.0045C12.3125 13.8986 12.3706 13.8028 12.4511 13.7279C13.2791 12.8939 14.1097 12.0625 14.9431 11.2338C15.0285 11.1343 15.1439 11.0653 15.2719 11.037C15.3999 11.0087 15.5337 11.0226 15.6531 11.0768C15.7796 11.1313 15.8854 11.2248 15.9553 11.3434C16.0253 11.4621 16.0556 11.5999 16.0421 11.737C16.0421 13.5136 16.0421 15.291 16.0421 17.069L16.0371 17.329Z" fill="#D6D6D6"/>
</svg>
