<svg width="36" height="35" viewBox="0 0 36 35" fill="none" xmlns="http://www.w3.org/2000/svg">
<path d="M35.0003 9.34596C34.8856 10.0158 34.7777 10.6879 34.6533 11.3567C33.7743 16.1949 31.6621 20.7244 28.521 24.5077C24.3193 29.6585 18.47 33.2026 11.9595 34.543C11.1905 34.7112 10.4041 34.801 9.62634 34.9322C9.54878 34.9498 9.47247 34.9724 9.3979 35.0001H8.40825C8.01547 34.8895 7.63194 34.7484 7.26113 34.5781C6.70835 34.3009 6.24461 33.8739 5.92282 33.3458C5.60104 32.8178 5.43417 32.2102 5.44126 31.5919C5.41501 30.1521 5.42955 28.7111 5.43539 27.2713C5.40901 26.4065 5.70908 25.5635 6.27593 24.9098C6.84278 24.2561 7.63492 23.8398 8.49476 23.7435C9.75394 23.5639 10.9916 23.2572 12.1889 22.8278C12.8429 22.5579 13.5642 22.4961 14.2546 22.6508C14.945 22.8054 15.571 23.1691 16.0474 23.6922C16.4955 24.1414 16.9408 24.5951 17.4006 25.0617C20.5722 23.1698 23.2241 20.5202 25.1184 17.35C24.6635 16.896 24.2144 16.4487 23.7662 16.0005C23.2391 15.5273 22.8715 14.9024 22.7138 14.2119C22.5561 13.5214 22.616 12.7993 22.8854 12.1442C23.3256 10.9113 23.6402 9.6371 23.8245 8.34106C23.9374 7.52094 24.3432 6.7692 24.967 6.22493C25.5908 5.68066 26.3905 5.38072 27.2183 5.38C28.6435 5.36736 30.0696 5.37028 31.4957 5.38C32.3178 5.36258 33.1187 5.64117 33.752 6.1656C34.3853 6.69003 34.8088 7.42525 34.9449 8.23616C34.9593 8.27968 34.9785 8.32136 35.0022 8.36052L35.0003 9.34596ZM6.63894 29.3509C6.63894 30.1063 6.62533 30.8626 6.63894 31.618C6.64934 31.9281 6.72393 32.2329 6.85806 32.5128C6.9922 32.7926 7.18293 33.0414 7.41819 33.2438C7.65345 33.4461 7.92816 33.5977 8.22491 33.6885C8.52165 33.7793 8.83401 33.8072 9.14223 33.7711C9.72552 33.6973 10.3088 33.6199 10.8921 33.511C16.8279 32.4497 22.2622 29.4995 26.386 25.1001C30.5098 20.7008 33.1026 15.0873 33.7783 9.09533C33.8158 8.78413 33.7875 8.46839 33.6955 8.16875C33.6035 7.86912 33.4498 7.5922 33.2441 7.35562C33.0385 7.11905 32.7856 6.92836 32.5017 6.7955C32.2179 6.66264 31.9093 6.59058 31.5959 6.58427C30.1377 6.56871 28.6736 6.5726 27.2124 6.58427C26.6823 6.58695 26.1705 6.77896 25.7696 7.12588C25.3687 7.4728 25.105 7.95158 25.0261 8.47587C24.8164 9.90014 24.467 11.3006 23.983 12.6564C23.8205 13.0665 23.7864 13.5162 23.8853 13.9461C23.9843 14.376 24.2116 14.7658 24.5371 15.0635C25.0903 15.6273 25.6551 16.1796 26.2112 16.7415C26.2805 16.7931 26.3387 16.8582 26.3823 16.9328C26.4259 17.0074 26.4541 17.0901 26.4651 17.1758C26.476 17.2616 26.4696 17.3485 26.4462 17.4317C26.4228 17.5149 26.3828 17.5926 26.3288 17.66C24.2729 21.2381 21.3056 24.2077 17.7291 26.2664C17.6611 26.3251 17.5815 26.3686 17.4954 26.3941C17.4093 26.4196 17.3187 26.4262 17.2297 26.4141C17.1407 26.4019 17.0554 26.371 16.9793 26.3234C16.9031 26.2758 16.838 26.2125 16.7881 26.1378C16.2272 25.5808 15.676 25.0153 15.1093 24.4641C14.8071 24.1441 14.4157 23.9222 13.9859 23.8275C13.5562 23.7329 13.1079 23.77 12.6993 23.9334C11.3688 24.4087 9.99417 24.7498 8.59587 24.952C8.04451 25.0183 7.5379 25.2886 7.17574 25.7096C6.81359 26.1306 6.6221 26.6716 6.63894 27.2267C6.63797 27.9335 6.64185 28.6422 6.64185 29.3509H6.63894Z" fill="#0E4C8F"/>
<path d="M16.059 0C16.8017 0.115685 17.5503 0.194274 18.2852 0.350789C21.0591 0.930405 23.6062 2.30026 25.6191 4.29491C25.9594 4.62447 26.0079 4.98403 25.7464 5.25234C25.4849 5.52066 25.1398 5.5062 24.7879 5.16595C23.0275 3.44073 20.8388 2.2164 18.4474 1.61914C16.0561 1.02187 13.5487 1.07326 11.1839 1.76819C8.81907 2.46311 6.68246 3.77625 4.9944 5.57228C3.30634 7.36831 2.12795 9.58238 1.58079 11.9857C1.0288 14.2461 1.06524 16.6101 1.68659 18.8524C2.30793 21.0948 3.49345 23.1405 5.1301 24.7945C5.18648 24.8548 5.24677 24.9121 5.29926 24.9753C5.4089 25.0929 5.46798 25.2489 5.4638 25.4097C5.45962 25.5704 5.3925 25.7232 5.27689 25.835C5.22064 25.8926 5.15282 25.9375 5.07788 25.9669C5.00294 25.9964 4.92261 26.0093 4.8422 26.0054C4.76179 26.0014 4.68315 25.9803 4.61145 25.9437C4.53975 25.9071 4.4766 25.856 4.42627 25.7932C3.88397 25.2192 3.37164 24.6176 2.89127 23.9908C0.858255 21.2283 -0.156353 17.8472 0.019566 14.4218C0.183603 10.756 1.67785 7.27555 4.22269 4.63194C6.76753 1.98832 10.1885 0.362775 13.8454 0.0593351C13.9248 0.0466258 14.0029 0.0267441 14.0787 0H16.059Z" fill="#0E4C8F"/>
<path d="M13.5353 6.07985C14.1727 5.50507 14.9508 5.10959 15.7907 4.93303C17.0651 4.67623 18.3893 4.93219 19.4761 5.64552C19.8723 5.89655 20.1981 6.24436 20.4228 6.65612C20.6475 7.06788 20.7637 7.52993 20.7603 7.99899C20.9057 9.9096 20.407 11.8138 19.3439 13.408C19.1805 13.648 19.0758 13.9233 19.0379 14.2111C19.0001 14.499 19.0303 14.7915 19.1261 15.0656C19.5775 16.5373 19.7078 18.089 19.5082 19.6154C19.4228 20.6311 19.0651 21.6049 18.4728 22.4345C18.2877 22.672 18.0358 22.8486 17.7495 22.9419C17.2411 23.0819 16.8494 22.7474 16.6433 22.1981C16.199 21.0092 15.7683 19.8105 15.2482 18.6537C14.9796 18.1163 14.6287 17.6243 14.2081 17.1955C14.1328 17.0813 14.0303 16.9878 13.91 16.923C13.7896 16.8582 13.655 16.8243 13.5183 16.8243C13.3816 16.8243 13.247 16.8582 13.1266 16.923C13.0062 16.9878 12.9039 17.0813 12.8286 17.1955C12.3364 17.7476 11.9205 18.3636 11.592 19.0263C11.1253 20.0257 10.7744 21.0814 10.4089 22.1245C10.265 22.5338 10.0764 22.861 9.63119 22.9514C9.42661 22.9904 9.21499 22.9659 9.02496 22.8807C8.83493 22.7955 8.67563 22.654 8.56861 22.4753C7.92726 21.5358 7.55141 20.4403 7.48076 19.3049C7.33255 17.9158 7.46718 16.511 7.87647 15.1752C7.98301 14.8438 8.0098 14.4922 7.95473 14.1485C7.89966 13.8047 7.76424 13.4788 7.5595 13.1972C6.49666 11.5555 6.05219 9.58934 6.30545 7.6501C6.36861 7.07459 6.60503 6.53178 6.98348 6.09362C7.36192 5.65546 7.86453 5.34268 8.42473 5.19647C9.23944 4.8526 10.1342 4.74357 11.0076 4.88223C11.881 5.0209 12.698 5.40134 13.3662 5.98065C13.4021 6.00981 13.4401 6.03937 13.4789 6.06561C13.497 6.07293 13.516 6.07749 13.5353 6.07985ZM17.7399 21.3817C18.1205 20.5995 18.3363 19.7473 18.3737 18.8782C18.4403 17.6387 18.2883 16.3972 17.9246 15.2103C17.8029 14.8006 17.7755 14.3686 17.8444 13.9467C17.9132 13.5249 18.0766 13.1241 18.3222 12.7743C19.244 11.3873 19.6777 9.73293 19.5549 8.07209C19.5603 7.75685 19.4774 7.44636 19.3153 7.17589C19.1533 6.90543 18.9186 6.6856 18.6381 6.54172C17.896 6.11501 17.0287 5.95936 16.1845 6.10122C15.3403 6.24307 14.5716 6.6739 14.0097 7.31972C13.5175 7.84031 12.9623 8.29741 12.357 8.68063C11.9995 8.8821 11.6051 9.00917 11.1973 9.05468C11.1158 9.07281 11.0312 9.07267 10.9498 9.0542C10.8683 9.03574 10.792 8.99938 10.7263 8.94788C10.6605 8.89637 10.607 8.83125 10.5696 8.75658C10.5322 8.68191 10.5119 8.59988 10.51 8.51639C10.5001 8.43379 10.5081 8.34979 10.5333 8.27051C10.5584 8.19122 10.6003 8.11821 10.656 8.05643C10.7117 7.99464 10.78 7.94582 10.8562 7.9126C10.9325 7.87937 11.015 7.86243 11.0981 7.86371C11.6961 7.74019 12.2411 7.43465 12.6584 6.98887C12.0499 6.44139 11.2748 6.11473 10.458 6.06182C9.64123 6.0089 8.83042 6.23301 8.15641 6.69741C7.96801 6.82232 7.81071 6.98882 7.69662 7.18396C7.58254 7.37911 7.51469 7.59743 7.49827 7.82288C7.29823 9.44296 7.66211 11.0829 8.52874 12.4662C8.85316 12.9169 9.06596 13.4382 9.14962 13.9871C9.23328 14.536 9.1854 15.097 9.00995 15.6238C8.56433 17.0638 8.5027 18.5951 8.83111 20.0663C8.93416 20.5145 9.10427 20.9479 9.24426 21.3883L9.35118 21.3688C9.52909 20.8633 9.69533 20.3538 9.88781 19.8541C10.2978 18.6071 10.9569 17.4564 11.8253 16.472C12.0193 16.2101 12.272 15.9973 12.5632 15.8507C12.8543 15.704 13.1758 15.6276 13.5018 15.6276C13.8278 15.6276 14.1492 15.704 14.4404 15.8507C14.7315 15.9973 14.9842 16.2101 15.1782 16.472C15.6914 17.0393 16.1238 17.6749 16.4634 18.3603C16.9475 19.3237 17.3111 20.3473 17.7399 21.3817Z" fill="#0E4C8F"/>
</svg>
