<svg width="24" height="24" viewBox="0 0 24 24" fill="none" xmlns="http://www.w3.org/2000/svg">
<path d="M17.88 21.9989H15.986C15.4952 21.9979 15.024 21.8062 14.6718 21.4644C14.3195 21.1227 14.1138 20.6574 14.098 20.1669V17.3059C14.0917 17.1351 14.018 16.9737 13.893 16.8571C13.768 16.7405 13.6019 16.6782 13.431 16.6839H10.616C10.4469 16.6809 10.2833 16.7444 10.1604 16.8607C10.0376 16.977 9.96526 17.1368 9.959 17.3059V20.1589C9.95921 20.2267 9.94909 20.2941 9.929 20.3589C9.8631 20.8212 9.63014 21.2433 9.27416 21.5455C8.91818 21.8476 8.46384 22.0089 7.997 21.9989H6.12C5.05689 22.0266 4.02617 21.6316 3.25384 20.9005C2.48152 20.1694 2.03061 19.1619 2 18.0989V9.99689C2 9.99689 2 9.99689 2 9.98989C2.00666 9.53521 2.12064 9.08852 2.33265 8.68623C2.54466 8.28394 2.8487 7.93742 3.22 7.67489L9.604 2.78989C10.2917 2.27705 11.1266 2 11.9845 2C12.8424 2 13.6773 2.27705 14.365 2.78989L20.78 7.66589C21.1498 7.92925 21.4527 8.27554 21.6645 8.67702C21.8764 9.07851 21.9913 9.52403 22 9.97789C22 9.97789 22 9.98389 22 9.98789V18.1029C21.9683 19.1652 21.517 20.1717 20.7448 20.9019C19.9726 21.6322 18.9424 22.0266 17.88 21.9989ZM16.013 20.5989H17.88C18.5633 20.618 19.2264 20.3657 19.7241 19.8972C20.2219 19.4287 20.5138 18.7821 20.536 18.0989V9.99289C20.5305 9.75237 20.4687 9.51648 20.3557 9.30411C20.2426 9.09173 20.0814 8.90878 19.885 8.76989L19.873 8.76089L13.45 3.87989C13.0264 3.56192 12.5111 3.39002 11.9815 3.39002C11.4519 3.39002 10.9366 3.56192 10.513 3.87989L4.128 8.76889L4.112 8.78089C3.91537 8.91852 3.75408 9.10069 3.64128 9.31255C3.52849 9.5244 3.4674 9.75993 3.463 9.99989V18.0999C3.48521 18.7831 3.77713 19.4297 4.27488 19.8982C4.77263 20.3667 5.4357 20.619 6.119 20.5999H7.997C8.11941 20.604 8.23846 20.5595 8.32819 20.4761C8.41792 20.3927 8.47105 20.2773 8.476 20.1549C8.47602 20.1017 8.4824 20.0486 8.495 19.9969V17.2969C8.51149 16.7499 8.7428 16.2313 9.13885 15.8536C9.5349 15.4759 10.0638 15.2694 10.611 15.2789H13.432C13.9817 15.2652 14.5145 15.4698 14.9137 15.848C15.3129 16.2262 15.546 16.7472 15.562 17.2969V20.1589C15.5646 20.2771 15.6131 20.3897 15.6973 20.4728C15.7815 20.5559 15.8947 20.6029 16.013 20.6039V20.5989Z" fill="#0E4C8F"/>
</svg>
