<svg xmlns="http://www.w3.org/2000/svg" version="1.1" xmlns:xlink="http://www.w3.org/1999/xlink" xmlns:svgjs="http://svgjs.com/svgjs" width="35" height="35" x="0" y="0" viewBox="0 0 511.899 511.899" style="enable-background:new 0 0 512 512" xml:space="preserve"><g><path d="M466.043 92.104H45.856c-6.417 0-12.959-.216-19.299.924-6.397 1.15-12.332 4.063-16.943 8.676-4.612 4.614-7.53 10.545-8.673 16.946-1.144 6.335-.924 12.888-.924 19.297v236.009c0 6.408-.221 12.96.924 19.293 1.154 6.389 4.062 12.342 8.673 16.946 4.609 4.602 10.557 7.532 16.943 8.68 6.338 1.132 12.888.92 19.3.92h420.187c6.417 0 12.958.21 19.3-.92 6.389-1.138 12.337-4.078 16.94-8.68 4.608-4.608 7.537-10.552 8.673-16.946 1.145-6.33.927-12.888.927-19.293V137.947c0-6.412.218-12.961-.927-19.297-1.152-6.371-4.085-12.351-8.673-16.946-4.601-4.609-10.553-7.531-16.939-8.676-6.346-1.138-12.883-.924-19.302-.924z" fill="#000000" data-original="#000000"></path><path d="M466.043 103.026c5.751.011 11.676-.269 17.363.751 4.201.753 8.113 2.615 11.147 5.644 3.048 3.044 4.905 6.955 5.654 11.172 1.028 5.689.753 11.597.753 17.354v236.009c0 5.752.27 11.696-.759 17.383-.759 4.195-2.613 8.105-5.642 11.133-3.032 3.031-6.938 4.896-11.133 5.651-5.692 1.014-11.627.751-17.384.751H45.788c-5.74 0-11.625.266-17.299-.748-4.211-.752-8.121-2.617-11.158-5.659-3.022-3.027-4.896-6.977-5.642-11.159-1.015-5.681-.755-11.605-.749-17.351V137.948c0-7.787-.904-16.32 2.752-23.503 1.875-3.683 4.99-6.794 8.671-8.666 7.105-3.613 15.768-2.736 23.494-2.752h420.186" style="" fill="#FFFFFF" data-original="#ffffff"></path><path d="M139.753 202.321c4.383-5.482 7.357-12.842 6.572-20.364-6.416.319-14.245 4.233-18.778 9.719-4.07 4.698-7.672 12.367-6.733 19.573 7.203.624 14.398-3.6 18.939-8.928M146.243 212.656c-10.459-.623-19.352 5.936-24.346 5.936-4.997 0-12.646-5.622-20.919-5.471-10.767.158-20.758 6.246-26.222 15.929-11.238 19.37-2.966 48.102 7.963 63.878 5.307 7.805 11.703 16.398 20.131 16.09 7.963-.312 11.084-5.156 20.763-5.156 9.672 0 12.483 5.156 20.913 5 8.741-.156 14.206-7.809 19.513-15.621 6.088-8.897 8.581-17.488 8.738-17.959-.157-.156-16.856-6.562-17.01-25.771-.158-16.084 13.11-23.734 13.735-24.209-7.493-11.083-19.2-12.333-23.259-12.646M237.312 190.889c22.733 0 38.562 15.67 38.562 38.484 0 22.895-16.155 38.646-39.132 38.646h-25.169v40.026h-18.185V190.889h43.924zm-25.739 61.866h20.866c15.833 0 24.843-8.524 24.843-23.301 0-14.776-9.011-23.22-24.762-23.22h-20.947v46.521zM280.626 283.77c0-14.94 11.448-24.114 31.747-25.251l23.381-1.38v-6.576c0-9.5-6.414-15.183-17.129-15.183-10.151 0-16.484 4.87-18.025 12.503h-16.562c.974-15.427 14.126-26.793 35.236-26.793 20.703 0 33.936 10.961 33.936 28.091v58.862h-16.807v-14.046h-.404c-4.952 9.5-15.751 15.507-26.954 15.507-16.727.002-28.419-10.39-28.419-25.734zm55.127-7.713v-6.739l-21.029 1.298c-10.474.731-16.4 5.359-16.4 12.666 0 7.468 6.17 12.34 15.588 12.34 12.26.001 21.841-8.443 21.841-19.565zM369.075 339.466v-14.209c1.297.324 4.219.324 5.682.324 8.118 0 12.503-3.409 15.181-12.177 0-.163 1.544-5.196 1.544-5.277l-30.851-85.493h18.996l21.599 69.499h.323l21.599-69.499h18.51l-31.991 89.876c-7.304 20.704-15.748 27.362-33.447 27.362-1.463-.001-5.848-.163-7.145-.406z" fill="#000000" data-original="#000000"></path></g></svg>