<svg width="24" height="24" viewBox="0 0 24 24" fill="none" xmlns="http://www.w3.org/2000/svg">
<path d="M14.296 21.941C13.8789 21.9554 13.4663 21.8516 13.106 21.6412C12.7747 21.423 12.3867 21.3065 11.99 21.3065C11.5933 21.3065 11.2053 21.423 10.874 21.6412C10.4776 21.8689 10.0241 21.9774 9.56755 21.954C9.11104 21.9306 8.67094 21.7762 8.29997 21.5091C7.9274 21.2626 7.62521 20.9234 7.42297 20.525C7.32297 20.345 7.23797 20.1612 7.13497 19.9852C6.9793 19.7401 6.7675 19.5355 6.51708 19.3885C6.26667 19.2416 5.98485 19.1564 5.69497 19.14C5.1582 19.0755 4.65583 18.8422 4.26039 18.4735C3.86494 18.1048 3.59691 17.6202 3.49497 17.0892C3.42457 16.6697 3.42153 16.2416 3.48597 15.8211C3.54845 15.5077 3.53199 15.1835 3.43807 14.878C3.34416 14.5725 3.17574 14.2954 2.94798 14.0711C2.44864 13.6202 2.12164 13.0096 2.02297 12.3441C1.96966 11.9768 1.99305 11.6023 2.09167 11.2445C2.19029 10.8867 2.362 10.5531 2.59597 10.265C2.70753 10.1243 2.82777 9.99081 2.95597 9.86509C3.18516 9.64673 3.35368 9.37254 3.44502 9.06944C3.53635 8.76634 3.54736 8.44473 3.47697 8.13609C3.39011 7.7541 3.38293 7.35838 3.45588 6.97349C3.52883 6.5886 3.68034 6.22274 3.90097 5.89903C4.09792 5.60099 4.35753 5.34961 4.66168 5.16221C4.96582 4.97482 5.30719 4.85596 5.66197 4.81407C6.03223 4.77871 6.38594 4.64339 6.68534 4.42271C6.98475 4.20203 7.21862 3.90434 7.36198 3.56114C7.49798 3.22613 7.70466 2.92444 7.96792 2.67662C8.23118 2.42879 8.54483 2.24063 8.88743 2.1251C9.23003 2.00957 9.59353 1.96939 9.9531 2.00718C10.3127 2.04498 10.6599 2.15986 10.971 2.3441C11.175 2.47914 11.4037 2.5725 11.644 2.619C11.8842 2.6655 12.1313 2.66423 12.371 2.61509C12.5897 2.5445 12.8019 2.45476 13.005 2.34703C13.3179 2.16213 13.667 2.04694 14.0285 2.00914C14.39 1.97133 14.7554 2.01187 15.0998 2.12803C15.4442 2.2442 15.7595 2.43321 16.0243 2.68223C16.289 2.93126 16.497 3.2345 16.634 3.57115C16.7635 3.90013 16.98 4.18766 17.2605 4.40294C17.5409 4.61821 17.8747 4.75303 18.226 4.79307C18.6062 4.83799 18.9724 4.96346 19.3001 5.16124C19.6279 5.35902 19.9097 5.62464 20.1266 5.94005C20.3436 6.25545 20.4907 6.61352 20.5582 6.99034C20.6257 7.36716 20.612 7.75401 20.518 8.1251C20.4455 8.43726 20.4558 8.76299 20.5479 9.06993C20.64 9.37687 20.8107 9.65438 21.043 9.8751C21.5402 10.3282 21.8661 10.9388 21.966 11.6041C22.0187 11.9715 21.9951 12.3458 21.8967 12.7037C21.7983 13.0616 21.6272 13.3954 21.394 13.6842C21.2779 13.8306 21.1526 13.9696 21.019 14.1002C20.7963 14.3142 20.6324 14.5817 20.5431 14.8773C20.4538 15.1729 20.442 15.4867 20.509 15.7882C20.6719 16.5122 20.5535 17.2709 20.178 17.911C19.9596 18.2689 19.6601 18.5705 19.3036 18.7911C18.9471 19.0118 18.5437 19.1452 18.126 19.181C17.8161 19.2149 17.5212 19.332 17.2723 19.5196C17.0235 19.7073 16.8299 19.9586 16.712 20.2472C16.4643 20.878 15.9869 21.3918 15.376 21.6852C15.0267 21.813 14.6701 21.9193 14.308 22.004L14.296 21.941ZM19.648 7.45714C19.6367 7.32276 19.6173 7.18904 19.59 7.05699C19.5146 6.70826 19.3285 6.39333 19.0594 6.15904C18.7904 5.92475 18.4528 5.78386 18.097 5.75718C17.6041 5.7086 17.1339 5.52636 16.7369 5.23033C16.3399 4.93429 16.0312 4.5355 15.844 4.07701C15.8007 3.98456 15.7526 3.89442 15.7 3.80699C15.5031 3.45255 15.1798 3.18562 14.7945 3.05919C14.4093 2.93276 13.9906 2.95625 13.622 3.1251C13.433 3.2101 13.252 3.31303 13.063 3.39903C12.7263 3.56036 12.3575 3.64337 11.9842 3.64146C11.6109 3.63956 11.2429 3.5528 10.908 3.38804C10.72 3.30004 10.539 3.19809 10.349 3.11509C9.97752 2.95164 9.55799 2.93471 9.17449 3.06749C8.79099 3.20027 8.47184 3.47301 8.28097 3.83116C8.19197 3.98716 8.11398 4.15116 8.02998 4.31016C7.84884 4.67651 7.58315 4.99447 7.25488 5.2379C6.9266 5.48132 6.54514 5.64313 6.14198 5.71007C5.95398 5.74507 5.76397 5.77213 5.57897 5.82213C5.14882 5.94759 4.78465 6.23607 4.56405 6.62608C4.34345 7.0161 4.28387 7.47671 4.39797 7.91002C4.5055 8.39332 4.48564 8.89642 4.34031 9.36973C4.19499 9.84305 3.9292 10.2705 3.56898 10.6102C3.52498 10.6542 3.48297 10.7002 3.43997 10.7452C3.27796 10.9071 3.14945 11.0991 3.06176 11.3107C2.97408 11.5222 2.92895 11.7491 2.92895 11.9781C2.92895 12.2071 2.97408 12.4338 3.06176 12.6454C3.14945 12.8569 3.27796 13.0492 3.43997 13.211C3.53997 13.32 3.63997 13.425 3.73997 13.536C4.00875 13.8301 4.20995 14.1794 4.32949 14.5594C4.44903 14.9395 4.48401 15.3412 4.43197 15.7362C4.37094 16.1091 4.36051 16.4884 4.40097 16.8641C4.46459 17.2202 4.64595 17.5444 4.91596 17.785C5.18598 18.0257 5.52899 18.1687 5.88998 18.191C6.37449 18.2395 6.83716 18.417 7.22987 18.7049C7.62258 18.9928 7.93097 19.3805 8.12297 19.828C8.17134 19.9355 8.22611 20.0402 8.28697 20.1412C8.43315 20.4213 8.66243 20.6491 8.94334 20.7938C9.22425 20.9385 9.54303 20.9928 9.85597 20.9491C10.1645 20.895 10.4617 20.7892 10.735 20.6361C11.1188 20.4221 11.551 20.3097 11.9905 20.3097C12.43 20.3097 12.8621 20.4221 13.246 20.6361C13.369 20.7001 13.491 20.7652 13.618 20.8211C13.9871 20.9891 14.406 21.0115 14.791 20.8841C15.176 20.7568 15.4988 20.489 15.695 20.1341C15.802 19.9521 15.889 19.7581 15.995 19.5731C16.179 19.2217 16.4423 18.918 16.7641 18.6861C17.086 18.4542 17.4574 18.3005 17.849 18.2372C18.037 18.2032 18.227 18.1741 18.411 18.1241C18.8411 17.9987 19.2053 17.7102 19.4259 17.3202C19.6465 16.9302 19.7061 16.4693 19.592 16.036C19.4837 15.5526 19.5032 15.0495 19.6488 14.576C19.7944 14.1025 20.0608 13.6751 20.422 13.336C20.483 13.276 20.541 13.213 20.598 13.149C20.8914 12.8297 21.0551 12.4123 21.0571 11.9786C21.0592 11.5449 20.8994 11.1262 20.609 10.8041C20.487 10.6631 20.352 10.5332 20.229 10.3922C19.9627 10.1003 19.7643 9.75296 19.6481 9.37535C19.532 8.99774 19.5008 8.59918 19.557 8.20811C19.596 7.95911 19.622 7.70814 19.652 7.45714H19.648Z" fill="#D6D6D6" stroke="#D6D6D6" stroke-width="0.4"/>
<path d="M8.01892 15.3849C8.08503 15.261 8.1645 15.1447 8.25592 15.038C9.47859 13.8053 10.7053 12.5763 11.9359 11.351C12.9746 10.3123 14.0136 9.27399 15.0529 8.23599C15.125 8.15388 15.2118 8.08608 15.3089 8.03604C15.4016 7.98975 15.5075 7.97693 15.6085 7.99991C15.7095 8.02288 15.7994 8.0802 15.8629 8.16202C15.9297 8.2356 15.9705 8.32894 15.9791 8.42788C15.9878 8.52683 15.9638 8.62581 15.9109 8.70987C15.8653 8.78405 15.8094 8.85158 15.7449 8.91006C13.4736 11.1834 11.2023 13.4562 8.93094 15.7289C8.86528 15.818 8.77395 15.8848 8.66922 15.9206C8.56449 15.9563 8.45136 15.9592 8.34494 15.9289C8.14094 15.8559 8.03092 15.6989 8.01892 15.3849Z" fill="#D6D6D6" stroke="#D6D6D6" stroke-width="0.4"/>
<path d="M8.05299 8.61624C8.0528 8.2108 8.17277 7.81436 8.39775 7.47708C8.62273 7.13979 8.94263 6.87678 9.31703 6.72122C9.69144 6.56565 10.1035 6.52451 10.5013 6.60305C10.8991 6.68159 11.2646 6.87618 11.5518 7.16238C11.839 7.44858 12.0349 7.81348 12.1148 8.21096C12.1947 8.60845 12.155 9.0206 12.0007 9.39553C11.8464 9.77047 11.5845 10.0913 11.2479 10.3174C10.9114 10.5435 10.5154 10.6649 10.11 10.666C9.83991 10.668 9.5721 10.6164 9.3221 10.5142C9.07209 10.412 8.84483 10.2612 8.65352 10.0706C8.4622 9.87992 8.31062 9.65325 8.20754 9.40359C8.10445 9.15393 8.05193 8.88634 8.05299 8.61624ZM11.181 8.60818C11.1813 8.3226 11.0686 8.04836 10.8676 7.84548C10.6666 7.64261 10.3936 7.52755 10.108 7.52517C9.81763 7.52516 9.53905 7.63995 9.33299 7.84451C9.12693 8.04907 9.01009 8.32686 9.00798 8.61721C9.01009 8.90263 9.12469 9.17553 9.32689 9.37698C9.52909 9.57843 9.80258 9.6921 10.088 9.69314C10.2322 9.69669 10.3755 9.67088 10.5095 9.61746C10.6434 9.56404 10.7652 9.48413 10.8673 9.38235C10.9695 9.28057 11.05 9.15917 11.1039 9.02542C11.1578 8.89167 11.184 8.74821 11.181 8.60403V8.60818Z" fill="#D6D6D6" stroke="#D6D6D6" stroke-width="0.4"/>
<path d="M13.896 17.3779C13.4899 17.3779 13.093 17.2574 12.7554 17.0317C12.4179 16.806 12.1549 16.4853 11.9997 16.1101C11.8446 15.7348 11.8042 15.322 11.8838 14.9238C11.9634 14.5256 12.1593 14.1601 12.4468 13.8733C12.7343 13.5865 13.1004 13.3913 13.4987 13.3127C13.8971 13.2341 14.3099 13.2755 14.6847 13.4316C15.0596 13.5877 15.3797 13.8516 15.6046 14.1897C15.8295 14.5278 15.949 14.925 15.948 15.331C15.9461 15.8742 15.7292 16.3944 15.3446 16.7781C14.9601 17.1617 14.4392 17.3774 13.896 17.3779ZM13.901 14.2471C13.7597 14.2452 13.6193 14.2714 13.4882 14.3242C13.3571 14.377 13.2377 14.4552 13.1371 14.5544C13.0364 14.6537 12.9565 14.7719 12.9019 14.9023C12.8473 15.0327 12.8191 15.1726 12.819 15.3139C12.8162 15.4573 12.842 15.5999 12.8949 15.7331C12.9478 15.8664 13.0268 15.9879 13.1272 16.0903C13.2275 16.1927 13.3473 16.274 13.4795 16.3296C13.6117 16.3852 13.7536 16.4139 13.897 16.414C14.1822 16.4113 14.4552 16.2978 14.6584 16.0976C14.8615 15.8975 14.979 15.6262 14.986 15.341C14.987 15.1979 14.9598 15.0559 14.9057 14.9233C14.8516 14.7908 14.7719 14.6702 14.671 14.5686C14.5702 14.467 14.4502 14.3863 14.3181 14.3313C14.1859 14.2763 14.0442 14.248 13.901 14.248V14.2471Z" fill="#D6D6D6" stroke="#D6D6D6" stroke-width="0.4"/>
</svg>
