<svg width="24" height="24" viewBox="0 0 24 24" fill="none" xmlns="http://www.w3.org/2000/svg">
<path d="M12 14.6253C13.8016 14.5581 15.6026 14.7727 17.338 15.2613C19.538 16.0023 20 17.3353 20 18.3233C20 19.3113 19.536 20.6413 17.327 21.3753C15.5939 21.8556 13.7972 22.066 12 21.9993C10.1985 22.0667 8.39745 21.8525 6.662 21.3643C4.462 20.6233 4 19.2903 4 18.3023C4 17.3143 4.464 15.9823 6.673 15.2493C8.40613 14.7692 10.2028 14.5588 12 14.6253ZM12 20.4993C16.3 20.4993 18.484 19.7673 18.484 18.3223C18.484 17.8543 18.315 17.1743 16.85 16.6803C15.2708 16.2507 13.6354 16.0636 12 16.1253C7.697 16.1253 5.515 16.8573 5.515 18.3023C5.515 18.7753 5.685 19.4503 7.15 19.9443C8.72925 20.3738 10.3646 20.5609 12 20.4993Z" fill="#D6D6D6"/>
<path d="M12.0001 12.6201H11.9671C10.5527 12.6244 9.19427 12.0674 8.18998 11.0713C7.18569 10.0753 6.61752 8.72155 6.61011 7.30711C6.62305 5.88921 7.19772 4.5343 8.20812 3.53946C9.21852 2.54463 10.5822 1.99105 12.0001 2.00011C13.4186 1.99105 14.7827 2.54504 15.7931 3.54053C16.8036 4.53601 17.378 5.89169 17.3901 7.31011C17.3777 8.72845 16.8033 10.084 15.7929 11.0794C14.7824 12.0748 13.4185 12.6289 12.0001 12.6201ZM12.0001 3.42911C10.9626 3.42245 9.96495 3.82788 9.2262 4.55632C8.48744 5.28476 8.06804 6.27665 8.06011 7.31411C8.06487 8.34707 8.47924 9.33594 9.21228 10.0637C9.94532 10.7915 10.9371 11.1988 11.9701 11.1961H12.0001C13.0371 11.2028 14.0343 10.7978 14.773 10.07C15.5116 9.34217 15.9314 8.35105 15.9401 7.31411C15.9324 6.27648 15.5132 5.28433 14.7744 4.55567C14.0356 3.82701 13.0377 3.42145 12.0001 3.42811V3.42911Z" fill="#D6D6D6"/>
</svg>
