<svg width="35" height="35" viewBox="0 0 35 35" fill="none" xmlns="http://www.w3.org/2000/svg">
<path d="M29 0H6C2.68629 0 0 2.68629 0 6V29C0 32.3137 2.68629 35 6 35H29C32.3137 35 35 32.3137 35 29V6C35 2.68629 32.3137 0 29 0Z" fill="white"/>
<path d="M29 0.125H6C2.75533 0.125 0.125 2.75533 0.125 6V29C0.125 32.2447 2.75533 34.875 6 34.875H29C32.2447 34.875 34.875 32.2447 34.875 29V6C34.875 2.75533 32.2447 0.125 29 0.125Z" fill="white" stroke="#0E4C8F" stroke-width="0.25"/>
<path d="M13.3895 14.984H12.4565C10.4215 14.984 8.77148 16.634 8.77148 18.669V23.544C8.77148 25.578 10.4215 27.228 12.4565 27.228H23.5865C25.6215 27.228 27.2715 25.578 27.2715 23.544V18.659C27.2715 16.63 25.6265 14.984 23.5975 14.984L22.6545 14.984" stroke="#0E4C8F" stroke-width="1.5" stroke-linecap="round" stroke-linejoin="round"/>
<path d="M18.0215 8.19044V20.2314" stroke="#0E4C8F" stroke-width="1.5" stroke-linecap="round" stroke-linejoin="round"/>
<path d="M15.1062 11.1187L18.0212 8.19065L20.9372 11.1187" stroke="#0E4C8F" stroke-width="1.5" stroke-linecap="round" stroke-linejoin="round"/>
</svg>
