<svg width="26" height="41" viewBox="0 0 26 41" fill="none" xmlns="http://www.w3.org/2000/svg">
<path d="M19.681 39.359C19.681 38.7137 19.681 38.1113 19.681 37.509C19.681 35.5001 19.681 33.4903 19.681 31.4814C19.681 30.8961 19.995 30.541 20.4648 30.538C20.9347 30.535 21.2426 30.8883 21.2646 31.4726C21.2706 31.6146 21.2646 31.7575 21.2646 31.8995V39.3742C22.1644 39.3742 23.0472 39.4101 23.92 39.3561C24.2779 39.3351 24.3938 38.9819 24.3908 38.6248C24.3838 37.8244 24.3908 37.0241 24.3908 36.2238C24.3908 35.5875 24.6718 35.2333 25.1666 35.2233C25.6855 35.2113 25.9804 35.5721 25.9834 36.2384C25.9834 37.0738 25.9944 37.9105 25.9834 38.7459C25.9889 39.0445 25.9339 39.3408 25.8217 39.6174C25.7096 39.8941 25.5425 40.1453 25.3307 40.3556C25.1189 40.5658 24.8667 40.7311 24.5893 40.8411C24.312 40.9512 24.0153 41.0039 23.717 40.996C16.5622 41.0013 9.40768 41.0013 2.25352 40.996C1.96363 41.0054 1.67479 40.956 1.40443 40.8509C1.13407 40.7458 0.887758 40.5872 0.680254 40.3844C0.472751 40.1816 0.308368 39.9387 0.19698 39.6707C0.0855919 39.4027 0.0295256 39.1148 0.0321055 38.8246C0.00511239 36.0683 -0.0288925 33.3114 0.043089 30.5571C0.0988974 28.9776 0.755088 27.4789 1.8777 26.3672C3.00031 25.2555 4.50466 24.6146 6.08353 24.5753C7.01829 24.5483 7.95504 24.5753 8.96078 24.5753C8.96078 24.0201 8.97377 23.5106 8.95077 23.0014C8.93841 22.9349 8.91275 22.872 8.87529 22.8157C8.83783 22.7595 8.78934 22.7115 8.73281 22.6746C7.74212 22.0409 6.90358 21.1959 6.27708 20.2003C5.65059 19.2046 5.25163 18.0825 5.10874 16.9146C5.10874 16.8826 5.07579 16.8535 5.0498 16.8144C4.70362 16.7944 4.35882 16.7553 4.01704 16.6967C3.61681 16.6098 3.24059 16.4354 2.91509 16.1867C2.58959 15.938 2.32282 15.6206 2.13362 15.2571C1.94442 14.8936 1.83746 14.4932 1.82034 14.0837C1.80323 13.6742 1.87637 13.2658 2.03458 12.8878C2.18039 12.5315 2.25277 12.1493 2.24748 11.7643C2.11439 9.60565 2.58562 7.45283 3.60815 5.54752C4.69213 3.58284 6.36408 2.00718 8.38897 1.04251C10.4139 0.0778359 12.6899 -0.227615 14.8972 0.169059C17.1046 0.565732 19.1322 1.64454 20.6952 3.25398C22.2582 4.86341 23.2778 6.9226 23.611 9.14195C23.756 10.1024 23.705 11.0922 23.755 12.0676C23.7559 12.2773 23.7935 12.4849 23.8659 12.6817C24.0927 13.1174 24.201 13.605 24.18 14.0959C24.1589 14.5868 24.0091 15.0637 23.7457 15.4784C23.4824 15.893 23.1147 16.2308 22.6796 16.4583C22.2445 16.6858 21.7572 16.7948 21.2666 16.7744C21.1667 16.7744 21.0587 16.7835 20.9417 16.7895C20.8327 17.2687 20.7537 17.7389 20.6198 18.1901C20.122 19.9506 19.0168 21.4777 17.5006 22.5002C17.3411 22.5863 17.212 22.7195 17.1308 22.8817C17.0496 23.0438 17.0202 23.2274 17.0467 23.4068C17.0777 23.742 17.0577 24.0809 17.0637 24.419C17.078 24.4717 17.0988 24.5224 17.1257 24.57C17.9255 24.57 18.7563 24.565 19.5831 24.57C21.1348 24.5332 22.6446 25.0766 23.8174 26.0941C24.9902 27.1116 25.7418 28.5301 25.9254 30.0725C26.0019 30.815 26.0196 31.5627 25.9784 32.3079C25.9771 32.5155 25.8937 32.7142 25.7464 32.8604C25.5992 33.0066 25.4001 33.0883 25.1926 33.0881C25.0858 33.0861 24.9804 33.0631 24.8826 33.0201C24.7847 32.9772 24.6963 32.9152 24.6225 32.8379C24.5487 32.7606 24.4909 32.6695 24.4525 32.5697C24.4141 32.47 24.3959 32.3635 24.3988 32.2566C24.4103 31.5469 24.3822 30.8372 24.3148 30.1306C24.1756 29.1001 23.6867 28.1489 22.9302 27.436C22.1736 26.7232 21.1952 26.2919 20.1589 26.2148C19.1432 26.1207 18.1114 26.1991 17.0917 26.1991C16.2369 28.9004 14.8413 30.1109 12.7928 29.9518C11.805 29.8936 10.8717 29.4798 10.165 28.7868C9.4583 28.0937 9.02595 27.1681 8.94778 26.1811C7.09726 26.2421 5.17174 25.8198 3.50716 27.1024C2.94402 27.4971 2.48189 28.019 2.15827 28.626C1.83464 29.2331 1.65867 29.9083 1.64467 30.5962C1.60268 33.2804 1.62068 35.9654 1.62368 38.6507C1.62368 39.1879 1.83961 39.3979 2.36348 39.4059C3.13728 39.4179 3.91206 39.4059 4.73884 39.4059V38.7816C4.73884 36.4345 4.73884 34.0873 4.73884 31.7403C4.72996 31.5805 4.73399 31.4202 4.75086 31.261C4.76273 31.0621 4.85275 30.8764 5.00129 30.7437C5.14983 30.611 5.34479 30.5425 5.54363 30.5532C5.6423 30.5486 5.74096 30.5637 5.83372 30.5976C5.92647 30.6316 6.01149 30.6838 6.0839 30.751C6.1563 30.8183 6.21464 30.8989 6.25542 30.9889C6.29621 31.079 6.31863 31.1764 6.32144 31.2752C6.34078 31.5415 6.34443 31.8091 6.33243 32.0759C6.33243 34.492 6.33243 36.9077 6.33243 39.3668L19.681 39.359ZM19.4281 13.8722H19.3621C19.3621 13.0188 19.3621 12.1653 19.3621 11.3129C19.3621 10.4855 19.0702 10.2935 18.2624 10.4736C17.0387 10.7447 15.815 11.0357 14.5763 11.2088C12.2449 11.4485 9.88922 11.1953 7.6621 10.4648C6.96828 10.2647 6.65537 10.5128 6.65437 11.2362C6.65437 12.8369 6.63937 14.4375 6.65437 16.0382C6.68147 17.6058 7.2819 19.1093 8.34198 20.2638C9.40206 21.4183 10.8483 22.1439 12.4069 22.3033C13.9579 22.4492 15.5081 22.0159 16.7594 21.0874C18.0108 20.1589 18.8751 18.8002 19.1862 17.2727C19.337 16.1459 19.4178 15.0109 19.4281 13.8741V13.8722ZM22.1004 11.2069C22.1597 9.97063 21.9673 8.7354 21.5351 7.5758C21.1028 6.4162 20.4396 5.35646 19.5858 4.46108C18.732 3.5657 17.7052 2.85316 16.568 2.36685C15.4307 1.88054 14.2065 1.63071 12.9697 1.63214C11.7329 1.63356 10.5094 1.88622 9.37321 2.37515C8.23704 2.86409 7.21197 3.57888 6.36019 4.47622C5.50842 5.37356 4.84772 6.43474 4.41812 7.59534C3.98853 8.75593 3.79899 9.99178 3.86108 11.2279L5.0138 11.1409C5.22674 9.71626 5.84258 8.94012 6.98229 8.81807C7.49063 8.79428 7.999 8.86451 8.4819 9.02519C10.4452 9.647 12.5185 9.84219 14.5633 9.59821C15.801 9.41113 17.0177 9.09782 18.2444 8.8337C18.5157 8.76211 18.7986 8.7463 19.0762 8.7868C19.3538 8.82731 19.6205 8.92353 19.86 9.06965C20.0996 9.21577 20.3072 9.40892 20.4704 9.63729C20.6336 9.86567 20.749 10.1248 20.8097 10.3989C20.9357 11.1152 21.2536 11.2509 21.8414 11.2078C21.9304 11.2038 22.0165 11.2088 22.0994 11.2088L22.1004 11.2069ZM10.5644 23.5338C10.5644 24.3522 10.5574 25.0776 10.5644 25.8049C10.5423 26.4398 10.7687 27.058 11.1955 27.5284C11.6223 27.9987 12.2156 28.284 12.8492 28.3232C13.4829 28.3623 14.1068 28.1522 14.5881 27.7379C15.0693 27.3236 15.37 26.7377 15.4261 26.1049C15.5051 25.2795 15.4411 24.441 15.4411 23.5426C13.852 24.0325 12.1521 24.0302 10.5644 23.5358V23.5338ZM5.0188 15.1437V12.8048C4.02706 12.7217 3.43417 13.1657 3.43217 13.9591C3.43017 14.7525 4.00406 15.1897 5.0188 15.1476V15.1437ZM20.9857 15.1437C21.2618 15.2129 21.5528 15.1905 21.815 15.0797C22.0772 14.9689 22.2963 14.7759 22.4393 14.5297C22.5556 14.3382 22.6108 14.1158 22.5974 13.8922C22.584 13.6685 22.5026 13.4543 22.3643 13.2781C22.2103 13.0681 21.9951 12.9107 21.7483 12.8277C21.5015 12.7448 21.2352 12.7401 20.9857 12.8145V15.1437Z" fill="#058638"/>
</svg>
