<svg width="35" height="35" viewBox="0 0 35 35" fill="none" xmlns="http://www.w3.org/2000/svg">
<g clip-path="url(#clip0_385_19505)">
<path d="M35 26.5243C35 22.5039 32.1977 19.1354 28.4347 18.2661C27.817 18.1232 27.1765 18.0488 26.5188 18.0488C26.3358 18.0488 26.1528 18.0545 25.9698 18.066C21.8636 18.3291 18.5523 21.5145 18.0948 25.5635C18.0605 25.8781 18.0376 26.1983 18.0376 26.5186C18.0376 27.1305 18.1062 27.7253 18.2263 28.2972C19.0499 32.1289 22.4526 34.9998 26.5245 34.9998C31.2026 34.9998 35 31.2024 35 26.5243ZM26.5245 32.1289C23.4306 32.1289 20.92 29.6183 20.92 26.5243C20.92 23.4304 23.4306 20.9197 26.5245 20.9197C29.6185 20.9197 32.1291 23.4304 32.1291 26.5243C32.1291 29.6183 29.6185 32.1289 26.5245 32.1289Z" fill="#0E4C8F"/>
<path d="M27.6168 22.6934H25.701V25.7015H22.6928V27.6174H27.6168V25.7015V22.6934Z" fill="#0E4C8F"/>
<path d="M6.29082 0C5.76468 0 5.33575 0.428922 5.33575 0.955065V3.14542V5.46732C5.33575 5.99346 5.76468 6.42239 6.29082 6.42239H7.10863C7.63477 6.42239 8.0637 5.99346 8.0637 5.46732V3.14542V0.955065C8.0637 0.428922 7.63477 0 7.10863 0H6.29082Z" fill="#0E4C8F"/>
<path d="M21.326 0C20.7998 0 20.3709 0.428922 20.3709 0.955065V3.14542V5.46732C20.3709 5.99346 20.7998 6.42239 21.326 6.42239H22.1438C22.6699 6.42239 23.0989 5.99346 23.0989 5.46732V3.14542V0.955065C23.1046 0.428922 22.6756 0 22.1495 0H21.326Z" fill="#0E4C8F"/>
<path d="M2.18464 28.3022H15.7214C15.5899 27.6388 15.5155 26.9525 15.5155 26.2491C15.5155 26.0203 15.527 25.7916 15.5384 25.5628H4.10049C3.1969 25.5628 2.45915 24.8308 2.45915 23.9272V10.8022H25.9755V15.8749C26.1585 15.8635 26.3415 15.8578 26.5245 15.8578C27.1765 15.8578 27.817 15.9207 28.4404 16.0351V5.32917C28.4404 4.12247 27.4624 3.14453 26.2557 3.14453H24.4771V5.46643C24.4771 6.74747 23.4363 7.78832 22.1552 7.78832H21.3374C20.0564 7.78832 19.0155 6.74747 19.0155 5.46643V3.14453H9.43627V5.46643C9.43627 6.74747 8.39542 7.78832 7.11438 7.78832H6.29085C5.0098 7.78832 3.96895 6.74747 3.96895 5.46643V3.14453H2.18464C0.977941 3.14453 0 4.12247 0 5.32917V26.1119C0 27.3185 0.977941 28.3022 2.18464 28.3022Z" fill="#0E4C8F"/>
<path d="M7.70915 17.0769C8.90938 17.0769 9.88235 16.1039 9.88235 14.9037C9.88235 13.7034 8.90938 12.7305 7.70915 12.7305C6.50893 12.7305 5.53595 13.7034 5.53595 14.9037C5.53595 16.1039 6.50893 17.0769 7.70915 17.0769Z" fill="#0E4C8F"/>
<path d="M14.2173 17.0769C15.4176 17.0769 16.3905 16.1039 16.3905 14.9037C16.3905 13.7034 15.4176 12.7305 14.2173 12.7305C13.0171 12.7305 12.0441 13.7034 12.0441 14.9037C12.0441 16.1039 13.0171 17.0769 14.2173 17.0769Z" fill="#0E4C8F"/>
<path d="M20.7312 17.0769C21.9314 17.0769 22.9044 16.1039 22.9044 14.9037C22.9044 13.7034 21.9314 12.7305 20.7312 12.7305C19.531 12.7305 18.558 13.7034 18.558 14.9037C18.558 16.1039 19.531 17.0769 20.7312 17.0769Z" fill="#0E4C8F"/>
<path d="M14.2173 23.6355C15.4176 23.6355 16.3905 22.6625 16.3905 21.4623C16.3905 20.262 15.4176 19.2891 14.2173 19.2891C13.0171 19.2891 12.0441 20.262 12.0441 21.4623C12.0441 22.6625 13.0171 23.6355 14.2173 23.6355Z" fill="#0E4C8F"/>
<path d="M7.70915 23.6355C8.90938 23.6355 9.88235 22.6625 9.88235 21.4623C9.88235 20.262 8.90938 19.2891 7.70915 19.2891C6.50893 19.2891 5.53595 20.262 5.53595 21.4623C5.53595 22.6625 6.50893 23.6355 7.70915 23.6355Z" fill="#0E4C8F"/>
</g>
<defs>
<clipPath id="clip0_385_19505">
<rect width="35" height="35" fill="white"/>
</clipPath>
</defs>
</svg>
