<svg width="120" height="120" viewBox="0 0 120 120" fill="none" xmlns="http://www.w3.org/2000/svg">
<circle cx="60" cy="60" r="40" fill="#058638" fill-opacity="0.22"/>
<circle cx="60" cy="60" r="59.75" stroke="#058638" stroke-width="0.5" stroke-dasharray="5 5"/>
<circle cx="60" cy="60" r="25" fill="#058638"/>
<path d="M61.3941 64.314C61.8259 64.314 62.1761 63.9639 62.1761 63.532C62.1761 63.1001 61.8259 62.75 61.3941 62.75C60.9622 62.75 60.6121 63.1001 60.6121 63.532C60.6121 63.9639 60.9622 64.314 61.3941 64.314Z" fill="white"/>
<path d="M64.032 68.4371H54.169C53.7519 68.4395 53.351 68.2764 53.054 67.9836C52.7571 67.6908 52.5884 67.2921 52.585 66.8751V60.4691C52.5881 60.0519 52.7567 59.653 53.0537 59.36C53.3507 59.067 53.7518 58.9037 54.169 58.9061H65.577C65.7245 58.9023 65.8718 58.9184 66.015 58.9541C66.216 59.0119 66.4317 58.9879 66.6152 58.8876C66.7987 58.7872 66.9351 58.6185 66.995 58.4181C67.0232 58.319 67.0316 58.2153 67.0196 58.113C67.0075 58.0107 66.9753 57.9117 66.9248 57.8219C66.8744 57.7321 66.8066 57.6532 66.7254 57.5897C66.6442 57.5262 66.5513 57.4795 66.452 57.4521C66.167 57.3759 65.8729 57.3395 65.578 57.3441H64.626V54.5891C64.5859 53.3551 64.0676 52.185 63.1805 51.3262C62.2934 50.4674 61.1071 49.9873 59.8725 49.9873C58.6378 49.9873 57.4515 50.4674 56.5644 51.3262C55.6774 52.185 55.159 53.3551 55.119 54.5891V57.3441H54.17C53.3357 57.3393 52.5335 57.6656 51.9394 58.2515C51.3453 58.8373 51.0078 59.6348 51.001 60.4691V66.8751C51.0078 67.7093 51.3452 68.5066 51.9391 69.0924C52.5329 69.6782 53.3348 70.0046 54.169 70.0001H64.032C64.2392 70.0001 64.438 69.9178 64.5846 69.7712C64.7311 69.6247 64.8135 69.4259 64.8135 69.2186C64.8135 69.0114 64.7311 68.8126 64.5846 68.666C64.438 68.5195 64.2392 68.4371 64.032 68.4371ZM56.703 54.5891C56.7385 53.7725 57.0879 53.0011 57.6783 52.4359C58.2688 51.8706 59.0546 51.555 59.872 51.555C60.6894 51.555 61.4752 51.8706 62.0656 52.4359C62.656 53.0011 63.0054 53.7725 63.041 54.5891V57.3441H56.703V54.5891Z" fill="white"/>
<path d="M58.4229 64.314C58.8548 64.314 59.2049 63.9639 59.2049 63.532C59.2049 63.1001 58.8548 62.75 58.4229 62.75C57.991 62.75 57.6409 63.1001 57.6409 63.532C57.6409 63.9639 57.991 64.314 58.4229 64.314Z" fill="white"/>
<path d="M70 62.883C69.9573 62.1674 69.6418 61.4954 69.1185 61.0054C68.5951 60.5155 67.9038 60.245 67.1869 60.2496C66.47 60.2542 65.7822 60.5336 65.2652 61.0302C64.7482 61.5268 64.4414 62.2029 64.408 62.919C64.408 63.1278 64.4909 63.3281 64.6386 63.4758C64.7863 63.6235 64.9866 63.7065 65.1955 63.7065C65.4043 63.7065 65.6046 63.6235 65.7523 63.4758C65.9 63.3281 65.983 63.1278 65.983 62.919C65.983 62.595 66.1117 62.2843 66.3407 62.0553C66.5698 61.8262 66.8805 61.6975 67.2045 61.6975C67.5284 61.6975 67.8391 61.8262 68.0682 62.0553C68.2973 62.2843 68.426 62.595 68.426 62.919C68.426 62.926 68.426 62.933 68.426 62.94C68.4214 63.1755 68.3488 63.4046 68.217 63.5998C68.0852 63.7949 67.8997 63.9478 67.683 64.04C67.3056 64.2024 66.9843 64.4724 66.7592 64.8161C66.5341 65.1598 66.4151 65.5621 66.417 65.973V66.654C66.417 66.8628 66.4999 67.0632 66.6476 67.2108C66.7953 67.3585 66.9956 67.4415 67.2045 67.4415C67.4133 67.4415 67.6136 67.3585 67.7613 67.2108C67.909 67.0632 67.992 66.8628 67.992 66.654V65.973C67.9903 65.8706 68.0188 65.77 68.0739 65.6838C68.129 65.5975 68.2084 65.5294 68.302 65.488C68.8066 65.2734 69.237 64.915 69.5393 64.4574C69.8416 63.9998 70.0025 63.4634 70.002 62.915C70 62.904 70 62.893 70 62.883Z" fill="white"/>
<path d="M67.1719 70C67.6038 70 67.9539 69.6499 67.9539 69.218C67.9539 68.7861 67.6038 68.436 67.1719 68.436C66.74 68.436 66.3899 68.7861 66.3899 69.218C66.3899 69.6499 66.74 70 67.1719 70Z" fill="white"/>
<path d="M55.4519 64.314C55.8838 64.314 56.2339 63.9639 56.2339 63.532C56.2339 63.1001 55.8838 62.75 55.4519 62.75C55.02 62.75 54.6699 63.1001 54.6699 63.532C54.6699 63.9639 55.02 64.314 55.4519 64.314Z" fill="white"/>
</svg>
