<svg width="24" height="24" viewBox="0 0 24 24" fill="none" xmlns="http://www.w3.org/2000/svg">
<path d="M19.2263 20.8551C19.9747 20.8551 20.6942 20.8551 21.4078 20.8551C21.7733 20.8551 22.0112 21.0996 21.9996 21.4454C21.9938 21.7138 21.8197 21.9284 21.5586 21.9761C21.4658 21.994 21.373 22 21.2802 22C15.0895 22 8.90473 22 2.71412 22C2.6445 22 2.56907 22 2.49945 21.9881C2.18615 21.9463 1.98888 21.7138 2.00049 21.3977C2.01209 21.0936 2.23836 20.8611 2.55166 20.8551C3.20148 20.8491 3.85709 20.8551 4.5069 20.8551C4.58813 20.8551 4.66355 20.8551 4.77379 20.8551C4.77379 20.7418 4.77379 20.6404 4.77379 20.5391C4.77379 15.4049 4.77379 10.2707 4.77379 5.13655C4.77379 5.04711 4.77379 4.95766 4.77379 4.86822C4.79119 4.50447 5.00006 4.2898 5.35398 4.28384C5.88775 4.27788 6.42733 4.28384 6.99011 4.28384C6.99591 4.19439 7.00171 4.11688 7.00171 4.03936C7.00171 3.59213 7.00171 3.1449 7.00171 2.69767C7.00171 2.19678 7.18737 2 7.68053 2C9.96648 2 12.2524 2 14.5442 2C15.1476 2 15.7452 2 16.3486 2C16.8127 2 17.0042 2.20274 17.0042 2.68575C17.0042 3.16279 17.0042 3.63983 17.0042 4.11688C17.0042 4.16458 17.01 4.21825 17.0158 4.2898C17.2304 4.2898 17.4277 4.2898 17.6308 4.2898C17.9615 4.2898 18.298 4.28384 18.6287 4.2898C19.0058 4.29577 19.2147 4.50447 19.2263 4.89803C19.2263 4.98151 19.2263 5.05903 19.2263 5.14252C19.2263 10.2767 19.2263 15.4109 19.2263 20.545C19.2263 20.6345 19.2263 20.7299 19.2263 20.8551ZM5.89935 5.4347C5.89935 10.5868 5.89935 15.715 5.89935 20.8372C6.642 20.8372 7.36723 20.8372 8.10407 20.8372C8.10407 20.7299 8.10407 20.6404 8.10407 20.551C8.10407 19.3763 8.10407 18.2016 8.10407 17.0268C8.10407 16.4782 8.28973 16.2874 8.8177 16.2874C10.9296 16.2874 13.0415 16.2874 15.1592 16.2874C15.7045 16.2874 15.8902 16.4782 15.8902 17.0328C15.8902 18.2135 15.8902 19.4001 15.8902 20.5808C15.8902 20.6643 15.8902 20.7537 15.8902 20.8432C16.6444 20.8432 17.3755 20.8432 18.0949 20.8432C18.0949 15.6971 18.0949 10.5748 18.0949 5.4347C14.0278 5.4347 9.97228 5.4347 5.89935 5.4347ZM15.8844 3.15683C13.2794 3.15683 10.7033 3.15683 8.12148 3.15683C8.12148 3.54442 8.12148 3.90817 8.12148 4.27191C10.7149 4.27191 13.2968 4.27191 15.8844 4.27191C15.8844 3.89028 15.8844 3.5325 15.8844 3.15683ZM11.4286 20.8491C11.4286 19.6983 11.4286 18.5772 11.4286 17.4383C10.6917 17.4383 9.96648 17.4383 9.23544 17.4383C9.23544 18.5832 9.23544 19.7102 9.23544 20.8491C9.97228 20.8491 10.6917 20.8491 11.4286 20.8491ZM12.5715 20.8432C13.32 20.8432 14.0452 20.8432 14.7704 20.8432C14.7704 19.6983 14.7704 18.5772 14.7704 17.4383C14.0336 17.4383 13.3084 17.4383 12.5715 17.4383C12.5715 18.5772 12.5715 19.7042 12.5715 20.8432Z" fill="#058638"/>
<path d="M15.3448 7.14608C15.6987 7.14608 16.0526 7.14012 16.4066 7.14608C16.7605 7.15205 16.9984 7.37864 16.9984 7.71257C16.9984 8.04054 16.7721 8.2731 16.424 8.27906C15.6987 8.28502 14.9793 8.28502 14.2541 8.27906C13.9001 8.2731 13.6623 8.02861 13.6681 7.70064C13.6739 7.37864 13.9118 7.15205 14.2541 7.14608C14.6196 7.14012 14.9793 7.14608 15.3448 7.14608Z" fill="#058638"/>
<path d="M15.3506 10.0024C15.7045 10.0024 16.0584 9.99641 16.4123 10.0024C16.7546 10.0083 16.9925 10.2349 16.9983 10.5569C17.0041 10.8909 16.772 11.1294 16.4181 11.1354C15.6929 11.1413 14.9735 11.1413 14.2482 11.1354C13.9059 11.1294 13.6738 10.8909 13.6738 10.5689C13.6738 10.2409 13.9175 10.0024 14.2714 10.0024C14.6311 9.99641 14.9909 10.0024 15.3506 10.0024Z" fill="#058638"/>
<path d="M15.3331 13.9976C14.985 13.9976 14.6369 14.0036 14.2888 13.9976C13.9116 13.9917 13.668 13.7651 13.668 13.4311C13.668 13.0972 13.9174 12.8647 14.2888 12.8647C14.9908 12.8647 15.6928 12.8647 16.3949 12.8647C16.7546 12.8647 16.9924 13.0912 16.9983 13.4192C17.0041 13.7651 16.7662 13.9917 16.3949 13.9976C16.0409 13.9976 15.687 13.9976 15.3331 13.9976Z" fill="#058638"/>
<path d="M8.67863 7.14608C9.03254 7.14608 9.38646 7.14012 9.74037 7.14608C10.0827 7.15205 10.3206 7.37864 10.3264 7.70064C10.338 8.02861 10.1001 8.27906 9.74617 8.27906C9.02094 8.28502 8.3015 8.28502 7.57627 8.27906C7.22235 8.2731 6.99028 8.02861 7.00188 7.69468C7.00768 7.37268 7.24556 7.15205 7.59367 7.14608C7.95339 7.14012 8.31891 7.14608 8.67863 7.14608Z" fill="#058638"/>
<path d="M8.67863 10.0024C9.03254 10.0024 9.38646 9.99641 9.74037 10.0024C10.0827 10.0083 10.3206 10.2349 10.3264 10.5569C10.338 10.8849 10.1001 11.1354 9.74617 11.1354C9.02094 11.1413 8.3015 11.1413 7.57627 11.1354C7.22235 11.1294 6.99028 10.8849 7.00188 10.551C7.00768 10.229 7.24556 10.0083 7.59367 10.0024C7.95339 9.99641 8.31891 10.0024 8.67863 10.0024Z" fill="#058638"/>
<path d="M8.6787 13.9976C8.32478 13.9976 7.97087 14.0036 7.61695 13.9976C7.23983 13.9916 7.00195 13.7651 7.00195 13.4252C7.00195 13.0853 7.24563 12.8646 7.62276 12.8587C8.31898 12.8587 9.00941 12.8587 9.70563 12.8587C10.0828 12.8587 10.3264 13.0853 10.3322 13.4192C10.338 13.7531 10.0944 13.9916 9.72304 13.9916C9.37493 13.9976 9.02681 13.9976 8.6787 13.9976Z" fill="#058638"/>
</svg>
