<svg width="35" height="37" viewBox="0 0 35 37" fill="none" xmlns="http://www.w3.org/2000/svg">
<path d="M8.85839 26.7235C7.52133 26.7235 6.25309 26.7235 4.97502 26.7235C4.56211 26.7235 4.13936 26.7339 3.72644 26.682C2.36972 26.495 1.40625 25.3941 1.36693 23.9504C1.3276 22.7041 1.3571 21.4682 1.34726 20.2218C1.34726 18.0303 1.33743 15.8389 1.34726 13.6578C1.3571 12.0583 2.28124 10.9262 3.72644 10.6977C5.12249 10.4692 6.5382 11.5702 6.74466 13.0658C6.78398 13.3358 6.79381 13.6059 6.79381 13.8759C6.79381 16.0778 6.79381 18.2796 6.79381 20.4815C6.79381 20.6373 6.79381 20.7827 6.79381 20.98C6.97078 20.98 7.10842 20.98 7.23622 20.98C8.63227 20.98 10.0283 20.98 11.4342 20.98C13.1448 20.98 14.2951 22.1848 14.3049 24.0024C14.3148 27.3363 14.3148 30.6599 14.3049 33.9938C14.3049 35.3232 13.6561 36.3515 12.5746 36.7981C11.5522 37.2239 10.4019 36.9642 9.62523 36.1334C9.06485 35.5206 8.84856 34.7832 8.84856 33.9419C8.85839 31.7089 8.84856 29.4862 8.84856 27.2532C8.85839 27.087 8.85839 26.9313 8.85839 26.7235ZM2.37955 18.6743C2.37955 20.3049 2.37955 21.9355 2.37955 23.5765C2.37955 24.9371 3.03825 25.6434 4.32615 25.6434C5.909 25.6434 7.49184 25.6434 9.07468 25.6434C9.78253 25.6434 9.89068 25.7576 9.89068 26.495C9.89068 28.9462 9.89068 31.3973 9.89068 33.838C9.89068 34.1081 9.90051 34.3885 9.96933 34.6481C10.2053 35.479 11.0114 36.0191 11.7881 35.8841C12.7024 35.7387 13.2727 35.0117 13.2825 33.973C13.2923 30.6391 13.2923 27.3155 13.2825 23.9816C13.2825 22.7768 12.5845 22.0602 11.4342 22.0498C9.81203 22.0498 8.19969 22.0498 6.57753 22.0498C5.909 22.0498 5.77136 21.9044 5.77136 21.2189C5.77136 18.7574 5.77136 16.2959 5.77136 13.8343C5.77136 13.6059 5.76153 13.367 5.71237 13.1385C5.53541 12.2349 4.66042 11.6221 3.80509 11.7779C2.93011 11.9337 2.38938 12.6296 2.37955 13.6162C2.37955 15.3092 2.37955 16.9917 2.37955 18.6743Z" fill="#2C509F"/>
<path d="M28.1965 20.9696C28.1965 20.7722 28.1965 20.6164 28.1965 20.4606C28.1965 18.2068 28.1867 15.9531 28.1965 13.6993C28.2064 12.2348 29.0125 11.1131 30.2906 10.7808C31.9128 10.3549 33.5251 11.5909 33.6431 13.3461C33.6529 13.5123 33.6627 13.6785 33.6627 13.8551C33.6627 17.0955 33.6332 20.336 33.6726 23.5765C33.7021 25.4564 32.4142 26.8066 30.6544 26.7442C29.3075 26.7027 27.9606 26.7339 26.6039 26.7339C26.4662 26.7339 26.3384 26.7339 26.1418 26.7339C26.1418 26.9104 26.1418 27.0662 26.1418 27.2116C26.1418 29.4654 26.1516 31.7192 26.1418 33.973C26.1319 35.427 25.3749 36.528 24.146 36.8811C22.5435 37.3485 20.9312 36.2164 20.7247 34.4715C20.7051 34.3053 20.6854 34.1392 20.6854 33.973C20.6854 30.639 20.6756 27.3155 20.6854 23.9815C20.6854 22.4859 21.5211 21.3435 22.8286 21.0319C23.0646 20.9799 23.3104 20.9696 23.5561 20.9696C24.9522 20.9592 26.3482 20.9696 27.7541 20.9696C27.8918 20.9696 28.0294 20.9696 28.1965 20.9696ZM32.6206 18.6846C32.6206 17.0748 32.6206 15.4753 32.6206 13.8654C32.6206 13.6681 32.6206 13.4708 32.601 13.2838C32.483 12.3283 31.5982 11.622 30.6937 11.7778C29.7794 11.9336 29.2386 12.6503 29.2288 13.7097C29.2288 16.2231 29.2288 18.7365 29.2288 21.25C29.2288 21.8939 29.0813 22.0497 28.4718 22.0497C26.8693 22.0497 25.257 22.0497 23.6545 22.0497C22.3862 22.0497 21.7275 22.7456 21.7275 24.0854C21.7275 27.3362 21.7275 30.5871 21.7275 33.838C21.7275 34.0561 21.7373 34.2846 21.7767 34.4923C21.9536 35.4063 22.8483 36.0294 23.7134 35.8529C24.5884 35.6763 25.1095 34.9804 25.1193 33.9522C25.1292 31.4388 25.1193 28.9253 25.1193 26.4119C25.1193 25.7679 25.257 25.6225 25.8468 25.6225C27.469 25.6225 29.0813 25.6225 30.7035 25.6225C31.9423 25.6225 32.6206 24.9059 32.6206 23.6076C32.6206 21.977 32.6206 20.3256 32.6206 18.6846Z" fill="#2C509F"/>
<path d="M13.076 9.72141C12.0044 9.72141 11.0016 9.72141 9.99883 9.72141C9.73338 9.72141 9.46794 9.70064 9.34013 9.40983C9.20249 9.09824 9.35979 8.86975 9.55642 8.65164C9.96933 8.19465 10.3921 7.73766 10.7853 7.2599C10.9033 7.12488 10.9918 6.90677 10.9918 6.71982C11.0016 4.74646 11.0016 2.78348 11.0016 0.810118C11.0016 0.145406 11.1491 0 11.7881 0C14.9047 0 18.0212 0 21.1279 0C21.7767 0 21.9144 0.145406 21.9144 0.841276C21.9144 1.20479 21.9144 1.5683 21.9144 1.93182C21.9144 1.95259 21.9242 1.98375 21.9439 2.06684C22.0619 2.06684 22.1897 2.06684 22.3175 2.06684C23.2416 2.06684 24.1559 2.06684 25.0801 2.06684C25.3357 2.06684 25.5913 2.11877 25.6405 2.39919C25.6699 2.60692 25.611 2.89773 25.4832 3.05352C25.0899 3.55205 24.6573 4.01943 24.2346 4.47642C24.0576 4.66337 23.9888 4.86071 23.9888 5.13075C23.9986 7.07295 23.9986 9.01516 23.9986 10.9574C23.9986 11.6428 23.861 11.7883 23.2318 11.7883C20.1054 11.7883 16.9791 11.7883 13.8527 11.7883C13.2137 11.7883 13.0859 11.6428 13.0859 10.9574C13.076 10.5627 13.076 10.1576 13.076 9.72141ZM12.0339 1.11132C12.0339 1.27749 12.0339 1.43329 12.0339 1.58908C12.0339 3.38588 12.0241 5.19306 12.0339 6.98986C12.0339 7.32222 11.9454 7.59226 11.7193 7.82075C11.4834 8.05963 11.2769 8.31929 11.0213 8.6101C14.3443 8.6101 17.5984 8.6101 20.8624 8.6101C20.8624 6.09666 20.8624 3.62476 20.8624 1.11132C17.9327 1.11132 15.003 1.11132 12.0339 1.11132ZM14.128 10.6665C17.0872 10.6665 20.0071 10.6665 22.9663 10.6665C22.9663 10.5004 22.9663 10.355 22.9663 10.2199C22.9663 8.40237 22.9663 6.59519 22.9663 4.77762C22.9663 4.45565 23.045 4.20638 23.2613 3.97789C23.4972 3.739 23.7135 3.47935 23.9691 3.18854C23.2514 3.18854 22.6026 3.18854 21.9242 3.18854C21.9242 3.35472 21.9242 3.50012 21.9242 3.63514C21.9242 5.40078 21.9242 7.15604 21.9242 8.92168C21.9242 9.57601 21.7866 9.71103 21.1672 9.71103C18.965 9.71103 16.7529 9.71103 14.5507 9.71103C14.4229 9.71103 14.2853 9.71103 14.1378 9.71103C14.128 10.0538 14.128 10.3446 14.128 10.6665Z" fill="#2C509F"/>
<path d="M17.5001 18.3315C15.0226 18.3315 12.5451 18.3315 10.0676 18.3315C9.4286 18.3315 9.29096 18.1758 9.28113 17.511C9.28113 16.7217 9.28113 15.9323 9.28113 15.143C9.28113 14.5718 9.44826 14.3952 9.98898 14.3952C14.9931 14.3952 19.9973 14.3952 25.0014 14.3952C25.5421 14.3952 25.7093 14.5718 25.7093 15.143C25.7093 15.9635 25.7093 16.7736 25.7093 17.5941C25.7093 18.155 25.5323 18.3315 25.0014 18.3315C22.5042 18.3419 20.0071 18.3315 17.5001 18.3315ZM10.3331 17.2202C15.1308 17.2202 19.8891 17.2202 24.6573 17.2202C24.6573 16.6282 24.6573 16.0674 24.6573 15.5169C19.8695 15.5169 15.1111 15.5169 10.3331 15.5169C10.3331 16.0881 10.3331 16.6386 10.3331 17.2202Z" fill="#2C509F"/>
<path d="M26.8497 5.83696C26.8497 3.47931 28.6685 1.5475 30.8904 1.53711C33.1811 1.53711 35.0196 3.47931 34.9999 5.87851C34.9802 8.22577 33.1516 10.1368 30.9199 10.1368C28.6882 10.1576 26.8497 8.205 26.8497 5.83696ZM30.9494 2.63804C29.2682 2.63804 27.8919 4.06094 27.8919 5.83696C27.882 7.60261 29.2486 9.06705 30.9199 9.07744C32.6109 9.07744 33.9873 7.62338 33.9873 5.83696C33.9676 4.08171 32.6011 2.63804 30.9494 2.63804Z" fill="#2C509F"/>
<path d="M4.10985 1.59947C6.36122 1.62024 8.18001 3.56245 8.15052 5.93049C8.12102 8.31929 6.28257 10.22 4.0017 10.1888C1.77982 10.1576 -0.0291383 8.20505 0.000355613 5.85778C0.0200182 3.48975 1.85847 1.5787 4.10985 1.59947ZM4.04103 9.09825C5.72218 9.11903 7.09857 7.69613 7.11823 5.93049C7.13789 4.15446 5.791 2.71079 4.10985 2.69002C2.42869 2.66924 1.04248 4.09214 1.02281 5.85778C1.01298 7.62342 2.35987 9.07748 4.04103 9.09825Z" fill="#2C509F"/>
<path d="M16.4581 4.13367C15.6716 4.13367 14.8851 4.13367 14.0986 4.13367C13.6955 4.13367 13.4595 3.93634 13.4595 3.60398C13.4497 3.27162 13.6856 3.04313 14.0789 3.04313C15.6716 3.03274 17.2642 3.03274 18.8667 3.04313C19.2403 3.04313 19.4665 3.26124 19.4763 3.58321C19.4861 3.91556 19.2502 4.12329 18.8569 4.13367C18.0507 4.13367 17.2544 4.13367 16.4581 4.13367Z" fill="#2C509F"/>
<path d="M16.4678 6.67825C15.701 6.67825 14.9243 6.67825 14.1575 6.67825C13.7052 6.67825 13.4594 6.47053 13.4693 6.12779C13.4791 5.79543 13.7151 5.58771 14.1378 5.58771C15.6912 5.58771 17.2445 5.58771 18.7979 5.58771C19.2206 5.58771 19.4664 5.78504 19.4762 6.1174C19.486 6.47053 19.2304 6.66786 18.788 6.66786C18.0015 6.67825 17.2347 6.67825 16.4678 6.67825Z" fill="#2C509F"/>
</svg>
