<svg width="56" height="56" viewBox="0 0 56 56" fill="none" xmlns="http://www.w3.org/2000/svg">
<path d="M14.1735 40.4464C12.0342 40.4464 10.005 40.4464 7.96008 40.4464C7.29941 40.4464 6.62302 40.4621 5.96236 40.3835C3.7916 40.1005 2.25005 38.4343 2.18713 36.2493C2.12421 34.3629 2.1714 32.4923 2.15567 30.6059C2.15567 27.2891 2.13994 23.9723 2.15567 20.6712C2.1714 18.2504 3.65003 16.537 5.96236 16.1911C8.19603 15.8453 10.4612 17.5116 10.7915 19.7752C10.8544 20.1839 10.8701 20.5926 10.8701 21.0013C10.8701 24.3338 10.8701 27.6664 10.8701 30.9989C10.8701 31.2347 10.8701 31.4548 10.8701 31.7535C11.1533 31.7535 11.3735 31.7535 11.578 31.7535C13.8117 31.7535 16.0453 31.7535 18.2948 31.7535C21.0318 31.7535 22.8722 33.5769 22.8879 36.3279C22.9037 41.3738 22.9037 46.4041 22.8879 51.4501C22.8879 53.4622 21.8498 55.0184 20.1194 55.6943C18.4835 56.3388 16.6431 55.9458 15.4004 54.6883C14.5038 53.7608 14.1577 52.6447 14.1577 51.3715C14.1735 47.9918 14.1577 44.6278 14.1577 41.2481C14.1735 40.9966 14.1735 40.7608 14.1735 40.4464ZM3.80733 28.2637C3.80733 30.7317 3.80733 33.1997 3.80733 35.6834C3.80733 37.7426 4.86125 38.8115 6.92189 38.8115C9.45444 38.8115 11.987 38.8115 14.5195 38.8115C15.6521 38.8115 15.8251 38.9845 15.8251 40.1005C15.8251 43.8104 15.8251 47.5202 15.8251 51.2143C15.8251 51.623 15.8409 52.0474 15.951 52.4404C16.3285 53.6979 17.6184 54.5154 18.861 54.311C20.3239 54.0909 21.2363 52.9906 21.252 51.4186C21.2677 46.3726 21.2677 41.3424 21.252 36.2964C21.252 34.4729 20.1352 33.3883 18.2948 33.3726C15.6993 33.3726 13.1196 33.3726 10.5241 33.3726C9.45444 33.3726 9.23422 33.1525 9.23422 32.115C9.23422 28.3895 9.23422 24.664 9.23422 20.9384C9.23422 20.5926 9.21849 20.231 9.13984 19.8852C8.85669 18.5176 7.45672 17.5902 6.0882 17.826C4.68822 18.0618 3.82306 19.115 3.80733 20.6083C3.80733 23.1706 3.80733 25.7172 3.80733 28.2637Z" fill="#2C509F"/>
<path d="M45.1144 31.7377C45.1144 31.4391 45.1144 31.2033 45.1144 30.9675C45.1144 27.5564 45.0987 24.1452 45.1144 20.7341C45.1301 18.5176 46.42 16.8199 48.4649 16.3169C51.0604 15.6724 53.6401 17.543 53.8289 20.1996C53.8446 20.4511 53.8603 20.7026 53.8603 20.9699C53.8603 25.8744 53.8131 30.7789 53.876 35.6834C53.9232 38.5286 51.8626 40.5721 49.0469 40.4778C46.8919 40.4149 44.7369 40.4621 42.5661 40.4621C42.3459 40.4621 42.1414 40.4621 41.8268 40.4621C41.8268 40.7293 41.8268 40.9651 41.8268 41.1852C41.8268 44.5963 41.8425 48.0075 41.8268 51.4186C41.8111 53.6194 40.5998 55.2856 38.6336 55.8201C36.0696 56.5275 33.4898 54.814 33.1595 52.1732C33.128 51.9216 33.0966 51.6701 33.0966 51.4186C33.0966 46.3726 33.0809 41.3424 33.0966 36.2964C33.0966 34.0328 34.4336 32.3037 36.5258 31.8321C36.9033 31.7535 37.2965 31.7377 37.6898 31.7377C39.9235 31.722 42.1571 31.7377 44.4065 31.7377C44.6268 31.7377 44.847 31.7377 45.1144 31.7377ZM52.1929 28.2795C52.1929 25.8429 52.1929 23.4221 52.1929 20.9856C52.1929 20.6869 52.1929 20.3882 52.1615 20.1053C51.9727 18.6591 50.557 17.5902 49.1098 17.826C47.6469 18.0618 46.7818 19.1464 46.766 20.7498C46.766 24.5539 46.766 28.3581 46.766 32.1622C46.766 33.1368 46.5301 33.3726 45.5548 33.3726C42.9908 33.3726 40.4111 33.3726 37.8471 33.3726C35.8179 33.3726 34.764 34.4258 34.764 36.4536C34.764 41.3738 34.764 46.294 34.764 51.2143C34.764 51.5444 34.7797 51.8902 34.8426 52.2046C35.1258 53.5879 36.5572 54.5311 37.9415 54.2639C39.3414 53.9966 40.1751 52.9434 40.1909 51.3872C40.2066 47.583 40.1909 43.7789 40.1909 39.9748C40.1909 39.0002 40.4111 38.7801 41.3549 38.7801C43.9504 38.7801 46.5301 38.7801 49.1256 38.7801C51.1076 38.7801 52.1929 37.6955 52.1929 35.7305C52.1929 33.2625 52.1929 30.7631 52.1929 28.2795Z" fill="#2C509F"/>
<path d="M20.9215 14.7135C19.207 14.7135 17.6025 14.7135 15.998 14.7135C15.5733 14.7135 15.1486 14.682 14.9441 14.2419C14.7239 13.7703 14.9756 13.4245 15.2902 13.0944C15.9508 12.4027 16.6272 11.7111 17.2564 10.988C17.4452 10.7836 17.5868 10.4535 17.5868 10.1705C17.6025 7.18383 17.6025 4.21284 17.6025 1.22612C17.6025 0.220073 17.8385 0 18.8609 0C23.8473 0 28.8338 0 33.8045 0C34.8427 0 35.0629 0.220074 35.0629 1.27328C35.0629 1.82347 35.0629 2.37365 35.0629 2.92383C35.0629 2.95527 35.0786 3.00243 35.1101 3.12819C35.2989 3.12819 35.5034 3.12819 35.7078 3.12819C37.1865 3.12819 38.6494 3.12819 40.128 3.12819C40.537 3.12819 40.946 3.20679 41.0246 3.63121C41.0718 3.9456 40.9774 4.38575 40.7729 4.62154C40.1437 5.37608 39.4516 6.08346 38.7752 6.77512C38.4921 7.05807 38.382 7.35674 38.382 7.76545C38.3977 10.705 38.3977 13.6446 38.3977 16.5841C38.3977 17.6216 38.1775 17.8417 37.1707 17.8417C32.1686 17.8417 27.1664 17.8417 22.1642 17.8417C21.1418 17.8417 20.9373 17.6216 20.9373 16.5841C20.9215 15.9868 20.9215 15.3737 20.9215 14.7135ZM19.2542 1.68199C19.2542 1.9335 19.2542 2.1693 19.2542 2.40509C19.2542 5.12457 19.2384 7.85977 19.2542 10.5793C19.2542 11.0823 19.1126 11.491 18.7508 11.8368C18.3733 12.1984 18.0429 12.5914 17.634 13.0315C22.9507 13.0315 28.1574 13.0315 33.3798 13.0315C33.3798 9.22737 33.3798 5.48612 33.3798 1.68199C28.6922 1.68199 24.0046 1.68199 19.2542 1.68199ZM22.6047 16.144C27.3394 16.144 32.0113 16.144 36.746 16.144C36.746 15.8925 36.746 15.6724 36.746 15.468C36.746 12.7171 36.746 9.98191 36.746 7.23099C36.746 6.74368 36.8719 6.36641 37.2179 6.02058C37.5955 5.65903 37.9415 5.26605 38.3505 4.8259C37.2022 4.8259 36.164 4.8259 35.0786 4.8259C35.0786 5.07741 35.0786 5.29748 35.0786 5.50184C35.0786 8.17416 35.0786 10.8308 35.0786 13.5031C35.0786 14.4934 34.8584 14.6978 33.8674 14.6978C30.3439 14.6978 26.8046 14.6978 23.2811 14.6978C23.0766 14.6978 22.8564 14.6978 22.6204 14.6978C22.6047 15.2165 22.6047 15.6567 22.6047 16.144Z" fill="#2C509F"/>
<path d="M28.0002 27.745C24.0362 27.745 20.0722 27.745 16.1083 27.745C15.0858 27.745 14.8656 27.5092 14.8499 26.5031C14.8499 25.3085 14.8499 24.1138 14.8499 22.9191C14.8499 22.0545 15.1173 21.7873 15.9824 21.7873C23.989 21.7873 31.9957 21.7873 40.0023 21.7873C40.8674 21.7873 41.1348 22.0545 41.1348 22.9191C41.1348 24.1609 41.1348 25.3871 41.1348 26.6289C41.1348 27.4778 40.8517 27.745 40.0023 27.745C36.0068 27.7607 32.0114 27.745 28.0002 27.745ZM16.533 26.063C24.2093 26.063 31.8226 26.063 39.4517 26.063C39.4517 25.167 39.4517 24.3181 39.4517 23.485C31.7912 23.485 24.1778 23.485 16.533 23.485C16.533 24.3496 16.533 25.1827 16.533 26.063Z" fill="#2C509F"/>
<path d="M42.9595 8.83438C42.9595 5.26605 45.8695 2.34221 49.4245 2.32649C53.0897 2.32649 56.0312 5.26605 55.9997 8.89726C55.9683 12.4499 53.0425 15.3423 49.4717 15.3423C45.901 15.3737 42.9595 12.4184 42.9595 8.83438ZM49.5189 3.99276C46.8291 3.99276 44.6269 6.14634 44.6269 8.83438C44.6111 11.5067 46.7976 13.7232 49.4717 13.7389C52.1773 13.7389 54.3795 11.5381 54.3795 8.83438C54.3481 6.17778 52.1616 3.99276 49.5189 3.99276Z" fill="#2C509F"/>
<path d="M6.57575 2.42081C10.1779 2.45225 13.088 5.3918 13.0408 8.97586C12.9936 12.5914 10.0521 15.468 6.40272 15.4209C2.84772 15.3737 -0.0466213 12.4184 0.000568981 8.86582C0.0320292 5.28177 2.97356 2.38937 6.57575 2.42081ZM6.46564 13.7703C9.15549 13.8018 11.3577 11.6482 11.3892 8.97586C11.4206 6.28782 9.2656 4.1028 6.57575 4.07136C3.8859 4.03992 1.66796 6.1935 1.6365 8.86582C1.62077 11.5381 3.77579 13.7389 6.46564 13.7703Z" fill="#2C509F"/>
<path d="M26.3328 6.25637C25.0744 6.25637 23.816 6.25637 22.5576 6.25637C21.9127 6.25637 21.5351 5.9577 21.5351 5.45468C21.5194 4.95165 21.8969 4.60582 22.5261 4.60582C25.0744 4.5901 27.6227 4.5901 30.1867 4.60582C30.7844 4.60582 31.1462 4.93593 31.162 5.42324C31.1777 5.92626 30.8002 6.24065 30.171 6.25637C28.8811 6.25637 27.607 6.25637 26.3328 6.25637Z" fill="#2C509F"/>
<path d="M26.3484 10.1077C25.1215 10.1077 23.8788 10.1077 22.6519 10.1077C21.9283 10.1077 21.535 9.79328 21.5507 9.27453C21.5665 8.77151 21.944 8.45712 22.6204 8.45712C25.1057 8.45712 27.5911 8.45712 30.0765 8.45712C30.7529 8.45712 31.1461 8.75579 31.1618 9.25881C31.1776 9.79328 30.7686 10.0919 30.0607 10.0919C28.8023 10.1077 27.5754 10.1077 26.3484 10.1077Z" fill="#2C509F"/>
</svg>
