<svg width="35" height="35" viewBox="0 0 35 35" fill="none" xmlns="http://www.w3.org/2000/svg">
<path d="M34.9944 30.1168C34.2416 29.3701 33.4897 28.6229 32.7387 27.875C32.6366 27.7535 32.5433 27.6249 32.4597 27.49L31.9367 28.1313L29.2809 25.4324L32.6621 22.0393L30.1085 19.4728L28.4392 21.1756L13.9365 6.60101L11.5919 8.96594C11.1323 8.49957 10.7095 8.05413 10.2678 7.63128C10.1455 7.52386 9.99135 7.45933 9.82897 7.44767C9.34526 7.50482 8.8556 7.48471 8.3782 7.38809C7.94882 7.20457 7.64427 6.72579 7.2896 6.36821C5.27571 4.3451 3.26306 2.32079 1.25169 0.295154C1.17312 0.202294 1.10171 0.103621 1.03799 0L0.221741 0.890081C0.274705 0.947785 0.353208 1.03959 0.438329 1.12473C2.71704 3.4165 4.99694 5.70687 7.27817 7.99549C7.3636 8.06825 7.43123 8.15948 7.47583 8.26246C7.52042 8.36545 7.54089 8.47739 7.53552 8.58949C7.4572 9.05164 7.47231 9.52476 7.57997 9.98096C7.74548 10.383 8.19378 10.6678 8.52575 11.0018C8.68559 11.1645 8.85104 11.3205 9.03074 11.4965L6.71638 13.8073L21.2077 28.3754L19.4675 30.0942L22.0116 32.6369L25.3767 29.2447L28.0723 31.9568L27.6069 32.4459L30.1606 35C30.2201 34.9432 30.3109 34.8619 30.397 34.7748C31.839 33.3243 33.2807 31.8757 34.7221 30.429C34.8091 30.342 34.9112 30.2663 35.0001 30.1858L34.9944 30.1168ZM16.4012 15.7466L17.2165 16.5771L19.6424 14.1367L21.7591 16.2633L18.2068 19.8284L18.9851 20.6354L22.5526 17.0464L24.6815 19.1568L22.2338 21.6051L23.0321 22.4158L25.441 19.9827L27.4641 22.0091L22.0145 27.4881L8.45001 13.8424L13.8835 8.3814L15.9416 10.4417L12.4006 13.9946L13.2225 14.815L16.7739 11.2419L18.8367 13.308L16.4012 15.7466ZM30.9313 21.9626L21.9549 30.9891L21.1567 30.1755L30.1539 21.1273L30.9313 21.9626ZM26.3774 28.4029L28.3777 26.3906L30.9313 28.9533L28.9319 30.9778L26.3774 28.4029ZM33.2637 30.0923L30.0952 33.2813L29.2554 32.5046L32.4616 29.2835L33.2637 30.0923ZM10.7312 9.71422L9.80727 10.6602C9.57443 10.3893 9.32146 10.1362 9.05059 9.90336C8.5777 9.54768 8.67225 9.08981 8.71197 8.60358C8.85523 8.59327 8.99912 8.59327 9.14238 8.60358C9.34777 8.60358 9.55018 8.65299 9.73257 8.74746C10.0958 9.04449 10.4078 9.39545 10.7294 9.71329L10.7312 9.71422Z" fill="#0E4C8F"/>
<path d="M2.36571 6.04199C1.75568 6.64268 1.15981 7.18683 0.613144 7.77712C0.270422 8.13296 0.0579793 8.59413 0.0102526 9.08591C-0.037474 9.5777 0.0823588 10.071 0.350259 10.4862C0.628869 10.9064 1.03376 11.2274 1.50651 11.4026C1.97926 11.5777 2.49542 11.5979 2.98049 11.4605C3.46005 11.3445 3.88748 11.0725 4.19562 10.6871C4.50376 10.3017 4.6752 9.82462 4.68295 9.33118C4.69844 8.83113 4.53542 8.3419 4.22322 7.95102C4.13145 7.83311 4.03364 7.72016 3.93008 7.61245C3.41274 7.09028 2.89251 6.57079 2.36571 6.04199ZM2.37333 7.67966C2.6268 7.94453 2.85568 8.18657 3.0874 8.42401C3.2782 8.57465 3.41405 8.78402 3.47405 9.01963C3.53405 9.25524 3.51482 9.50391 3.41932 9.72749C3.31297 9.95368 3.13447 10.1383 2.91191 10.252C2.68935 10.3657 2.43543 10.4021 2.18987 10.3557C1.99324 10.352 1.80178 10.2914 1.63882 10.1813C1.47586 10.0712 1.34829 9.91618 1.27145 9.73511C1.17957 9.56018 1.14355 9.36141 1.16824 9.16536C1.19293 8.96931 1.27715 8.78547 1.40953 8.63879C1.69705 8.31243 2.02435 8.02399 2.3724 7.67966H2.37333Z" fill="#0E4C8F"/>
</svg>
