<svg width="59" height="53" viewBox="0 0 59 53" fill="none" xmlns="http://www.w3.org/2000/svg">
<path d="M58.9849 43.7373C58.8013 44.4692 58.6636 45.2163 58.4341 45.9329C56.9499 50.4004 52.4668 53.3737 47.8766 52.962C42.9956 52.5198 39.1398 48.9824 38.4054 44.2557C37.518 38.6294 41.4197 33.3233 47.0809 32.4542C52.7881 31.5851 58.1128 35.5494 58.8931 41.252C58.9084 41.4045 58.9696 41.5417 59.0002 41.6789C58.9849 42.365 58.9849 43.0512 58.9849 43.7373ZM56.6898 42.6852C56.7204 38.2787 53.0941 34.6346 48.6875 34.6193C44.2503 34.6041 40.5934 38.172 40.5628 42.5785C40.5322 47.0155 44.1279 50.6597 48.5804 50.7054C53.0329 50.7206 56.6745 47.1222 56.6898 42.6852Z" fill="#2C509F"/>
<path d="M2.63205 12.4495C18.7591 12.4495 34.8249 12.4495 50.9213 12.4495C50.9366 12.3123 50.9672 12.1598 50.9672 12.0226C50.9672 10.5741 50.9672 9.1256 50.9672 7.69234C50.9672 6.67076 50.4011 6.1066 49.3759 6.09136C48.6874 6.07611 47.9989 6.09136 47.3103 6.09136C47.2491 6.09136 47.2032 6.1066 47.0655 6.1371C47.0655 6.53353 47.0655 6.94521 47.0655 7.35689C47.0502 8.86639 46.071 9.84223 44.5562 9.85748C43.9136 9.85748 43.2556 9.87272 42.613 9.84223C41.4501 9.78124 40.4862 8.79015 40.425 7.66184C40.3944 6.97571 40.7463 6.47254 41.3583 6.36581C41.9551 6.24383 42.4753 6.59452 42.6742 7.26541C42.7048 7.35689 42.7201 7.44838 42.7507 7.55511C43.4086 7.55511 44.0513 7.55511 44.7704 7.55511C44.7704 6.67076 44.7704 5.80165 44.7704 4.93255C44.7704 4.07869 44.7704 3.22484 44.7704 2.34048C44.0819 2.34048 43.4392 2.34048 42.766 2.34048C42.7201 2.47771 42.6742 2.64543 42.6283 2.79791C42.4294 3.31632 41.9398 3.62127 41.4195 3.54503C40.8687 3.46879 40.4709 3.02662 40.4403 2.44722C40.3638 1.22742 41.4042 0.083861 42.6895 0.0228712C43.3933 -0.00762372 44.0972 -0.00762372 44.801 0.0228712C46.0404 0.0686135 47.0196 1.07495 47.0808 2.30999C47.0961 2.78266 47.0808 3.25533 47.0808 3.78899C47.8612 3.78899 48.5803 3.78899 49.2994 3.78899C51.717 3.80424 53.2776 5.34423 53.2776 7.75333C53.2776 15.3771 53.2776 23.0008 53.2776 30.6397C53.2776 30.777 53.2776 30.9142 53.2776 31.0362C53.2317 31.6461 52.8033 32.073 52.2219 32.1035C51.6099 32.134 51.1049 31.7376 51.0131 31.1277C50.9825 30.9294 50.9978 30.716 50.9978 30.5025C50.9978 25.5166 50.9978 20.5307 50.9978 15.5448C50.9978 15.3161 50.9978 15.1026 50.9978 14.8434C34.8708 14.8434 18.805 14.8434 2.66266 14.8434C2.66266 15.0416 2.66266 15.2551 2.66266 15.4533C2.66266 24.5865 2.66266 33.7197 2.66266 42.8377C2.66266 44.1642 3.15228 44.6521 4.49875 44.6521C14.8115 44.6521 25.1089 44.6521 35.4216 44.6521C35.7123 44.6521 36.0031 44.6521 36.2785 44.7131C36.8293 44.8504 37.1812 45.3688 37.1353 45.9024C37.0741 46.4513 36.6457 46.863 36.0796 46.924C35.896 46.9393 35.697 46.9393 35.5134 46.9393C25.1854 46.9393 14.8574 46.9088 4.52935 46.9698C1.98942 46.985 0.306336 45.1858 0.321637 42.8072C0.38284 31.1734 0.352238 19.5244 0.352238 7.89055C0.352238 5.29849 1.88232 3.78899 4.48345 3.78899C5.478 3.78899 6.47255 3.78899 7.4671 3.78899C8.30864 3.78899 8.82887 4.23117 8.82887 4.93255C8.82887 5.63393 8.32395 6.07611 7.4824 6.07611C6.41135 6.07611 5.34029 6.07611 4.26924 6.07611C3.21348 6.09136 2.64736 6.65551 2.63205 7.69234C2.63205 9.27807 2.63205 10.8486 2.63205 12.4495Z" fill="#2C509F"/>
<path d="M31.4585 7.53987C32.1318 7.53987 32.7744 7.53987 33.4476 7.53987C33.4476 5.80166 33.4476 4.07869 33.4476 2.30999C32.8356 2.30999 32.2695 2.29474 31.7033 2.32524C31.5962 2.32524 31.4279 2.49296 31.3973 2.61494C31.1525 3.31632 30.6323 3.66701 30.0356 3.52979C29.3776 3.37731 29.041 2.78266 29.1787 2.02029C29.3929 0.861482 30.311 0.053367 31.4891 0.0228721C32.1318 0.0076246 32.7897 0.0076246 33.4323 0.0228721C34.7176 0.053367 35.6968 0.998709 35.7733 2.29474C35.8039 2.76741 35.7733 3.24008 35.7733 3.77375C36.0335 3.78899 36.2324 3.80424 36.4313 3.80424C38.0991 3.80424 39.7516 3.78899 41.4193 3.80424C42.4292 3.81949 43.0259 4.70384 42.5669 5.49671C42.3221 5.93888 41.909 6.09136 41.404 6.09136C39.7669 6.07611 38.1144 6.09136 36.4772 6.09136C36.263 6.09136 36.0641 6.09136 35.7733 6.09136C35.7733 6.54878 35.7886 6.96046 35.7733 7.37214C35.7427 8.89689 34.7788 9.84223 33.2487 9.87272C32.6214 9.87272 31.9941 9.88797 31.3667 9.85748C30.3263 9.81174 29.4388 9.06461 29.194 8.05828C28.9951 7.18917 29.3011 6.56403 30.0203 6.39631C30.7241 6.21334 31.229 6.60977 31.4585 7.53987Z" fill="#2C509F"/>
<path d="M10.8638 2.32523C10.1753 2.32523 9.54795 2.32523 8.89001 2.32523C8.85941 2.46246 8.82881 2.58444 8.78291 2.70642C8.584 3.30107 8.03317 3.65176 7.46704 3.54503C6.88561 3.42305 6.50309 2.91988 6.53369 2.27949C6.5949 1.09019 7.58945 0.0838571 8.79821 0.0381147C9.50205 0.00761981 10.2059 0.00761981 10.9097 0.0381147C12.1491 0.0838571 13.1283 1.09019 13.1742 2.32523C13.1895 2.7979 13.1742 3.27057 13.1742 3.80423C13.4955 3.80423 13.7557 3.80423 14.0158 3.80423C15.5612 3.80423 17.1065 3.80423 18.6519 3.80423C19.57 3.80423 20.1208 4.24641 20.1055 4.96304C20.0902 5.66442 19.57 6.0761 18.6825 6.0761C17.0759 6.0761 15.4847 6.0761 13.8781 6.0761C13.6792 6.0761 13.4649 6.0761 13.1895 6.0761C13.1895 6.53353 13.1895 6.94521 13.1895 7.35689C13.1742 8.86639 12.195 9.82698 10.6649 9.85747C10.0682 9.85747 9.48674 9.87272 8.89001 9.85747C7.71185 9.82698 6.77851 9.03411 6.5643 7.89055C6.42659 7.14343 6.76321 6.54878 7.43644 6.38105C8.09437 6.22858 8.6299 6.60977 8.82881 7.38739C8.84411 7.43313 8.85941 7.49412 8.89001 7.55511C9.53265 7.55511 10.1753 7.55511 10.8638 7.55511C10.8638 5.80165 10.8638 4.09394 10.8638 2.32523Z" fill="#2C509F"/>
<path d="M20.1974 7.53986C20.8553 7.53986 21.4979 7.53986 22.1865 7.53986C22.1865 5.80165 22.1865 4.10919 22.1865 2.35573C21.5285 2.35573 20.8706 2.35573 20.1974 2.35573C20.1821 2.41672 20.1515 2.47771 20.1209 2.55395C19.8914 3.30107 19.3711 3.66701 18.7438 3.52979C18.1012 3.39256 17.7799 2.84365 17.8717 2.08128C17.9941 0.968214 19.0039 0.0686144 20.1821 0.022872C20.8094 0.0076246 21.4367 0.0076246 22.0641 0.022872C23.4258 0.0533669 24.4357 1.0292 24.4816 2.40147C24.4969 2.84365 24.4816 3.27058 24.4816 3.78899C24.7111 3.78899 24.91 3.78899 25.1242 3.78899C26.792 3.78899 28.4445 3.78899 30.1123 3.78899C30.9079 3.78899 31.3975 4.24641 31.3975 4.93255C31.3975 5.60344 30.9232 6.06086 30.1735 6.06086C28.5057 6.07611 26.8532 6.06086 25.1854 6.06086C24.9865 6.06086 24.7723 6.06086 24.4969 6.06086C24.4969 6.51828 24.4969 6.92997 24.4969 7.34165C24.4663 8.82065 23.487 9.81173 22.0182 9.82698C21.3449 9.84223 20.687 9.84223 20.0138 9.81173C18.8356 9.75074 17.8717 8.72916 17.8411 7.55511C17.8258 6.89947 18.1777 6.4268 18.7897 6.32007C19.3711 6.21334 19.8761 6.54878 20.075 7.18917C20.1209 7.3264 20.1515 7.43313 20.1974 7.53986Z" fill="#2C509F"/>
<path d="M9.85428 39.1783C9.15045 39.1783 8.44661 39.1936 7.74278 39.1783C7.03894 39.1631 6.54932 38.6904 6.54932 38.0653C6.54932 37.4401 7.02364 36.9217 7.72748 36.9217C9.15045 36.8912 10.5887 36.9065 12.0117 36.9217C12.7308 36.937 13.1899 37.4096 13.1899 38.05C13.1899 38.7209 12.7308 39.1783 11.9658 39.1936C11.262 39.1936 10.5581 39.1783 9.85428 39.1783Z" fill="#2C509F"/>
<path d="M43.73 30.8685C43.0262 30.8685 42.3223 30.8837 41.6185 30.8685C40.8994 30.8532 40.4403 30.3958 40.425 29.7554C40.425 29.115 40.8841 28.6271 41.5879 28.6118C43.0109 28.5813 44.4492 28.5966 45.8721 28.6118C46.576 28.6271 47.0503 29.0998 47.0656 29.7402C47.0656 30.411 46.5913 30.8685 45.8415 30.8837C45.153 30.8837 44.4339 30.8685 43.73 30.8685Z" fill="#2C509F"/>
<path d="M21.1308 39.1783C20.427 39.1783 19.7231 39.1936 19.0193 39.1783C18.3307 39.1631 17.8717 38.7209 17.8564 38.0957C17.8258 37.4401 18.2848 36.9217 18.9734 36.9064C20.4423 36.876 21.9111 36.876 23.38 36.9064C24.0379 36.9217 24.5123 37.4401 24.497 38.05C24.497 38.6752 24.0073 39.1631 23.3035 39.1783C22.5844 39.1936 21.8499 39.1783 21.1308 39.1783Z" fill="#2C509F"/>
<path d="M21.1766 30.8685C20.4728 30.8685 19.7689 30.8837 19.0651 30.8685C18.3001 30.8532 17.841 30.3958 17.8563 29.7249C17.8716 29.0845 18.3307 28.6118 19.0498 28.6118C20.4575 28.5966 21.8651 28.5966 23.2728 28.6118C24.0072 28.6271 24.5122 29.1303 24.4969 29.7706C24.4816 30.3958 24.0072 30.8532 23.2881 30.8837C22.5843 30.8837 21.8804 30.8685 21.1766 30.8685Z" fill="#2C509F"/>
<path d="M32.4534 28.5966C33.1419 28.5966 33.8305 28.5813 34.5037 28.5966C35.2993 28.6118 35.7737 29.0693 35.7737 29.7554C35.7584 30.4263 35.2993 30.8532 34.519 30.8685C33.1419 30.8837 31.7802 30.8837 30.4031 30.8685C29.6227 30.8532 29.1025 30.3805 29.1331 29.7097C29.1484 29.054 29.638 28.6118 30.4031 28.5966C31.0763 28.5813 31.7649 28.5966 32.4534 28.5966Z" fill="#2C509F"/>
<path d="M32.4687 39.1783C31.7649 39.1783 31.0611 39.1936 30.3572 39.1783C29.6534 39.1631 29.1638 38.7209 29.1332 38.0805C29.1026 37.4401 29.6075 36.9217 30.3419 36.9065C31.7496 36.8912 33.1573 36.8912 34.5802 36.9065C35.33 36.9217 35.8043 37.3944 35.789 38.0653C35.7737 38.7361 35.2994 39.1631 34.5343 39.1783C34.5037 39.1783 34.4578 39.1783 34.4272 39.1783C33.754 39.1936 33.1114 39.1936 32.4687 39.1783Z" fill="#2C509F"/>
<path d="M32.4379 22.5434C31.7493 22.5434 31.0608 22.5586 30.3876 22.5434C29.6225 22.5281 29.1329 22.0859 29.1329 21.4303C29.1176 20.7899 29.6072 20.2867 30.357 20.2715C31.7647 20.2562 33.1723 20.241 34.58 20.2715C35.345 20.2867 35.7888 20.7746 35.7735 21.4455C35.7582 22.0859 35.2991 22.5129 34.5647 22.5434C33.8609 22.5586 33.1417 22.5434 32.4379 22.5434Z" fill="#2C509F"/>
<path d="M9.88499 30.8685C9.18115 30.8685 8.47732 30.8837 7.77348 30.8685C7.02375 30.8532 6.53412 30.3805 6.54942 29.7249C6.56472 29.0693 7.05435 28.6118 7.80408 28.5966C9.18115 28.5813 10.5429 28.5813 11.92 28.5966C12.7156 28.6118 13.2053 29.0693 13.19 29.7554C13.1747 30.4263 12.7156 30.8532 11.9506 30.8685C11.2621 30.8837 10.5735 30.8685 9.88499 30.8685Z" fill="#2C509F"/>
<path d="M43.7606 22.5434C43.0567 22.5434 42.3529 22.5586 41.6491 22.5434C40.9299 22.5281 40.4556 22.0859 40.4403 21.4455C40.425 20.7899 40.884 20.2867 41.6491 20.2867C43.0567 20.2562 44.4644 20.2562 45.8721 20.2867C46.6218 20.302 47.0962 20.7899 47.0808 21.4455C47.0655 22.1012 46.5912 22.5434 45.8109 22.5586C45.1223 22.5586 44.4338 22.5434 43.7606 22.5434Z" fill="#2C509F"/>
<path d="M9.8389 22.5434C9.15037 22.5434 8.46183 22.5586 7.7733 22.5434C7.02356 22.5281 6.53394 22.0707 6.53394 21.415C6.53394 20.7746 7.02356 20.2867 7.7733 20.2715C9.16567 20.2562 10.558 20.2562 11.9504 20.2715C12.7155 20.2867 13.1898 20.7442 13.1898 21.3998C13.1898 22.0859 12.7001 22.5129 11.9045 22.5281C11.216 22.5586 10.5274 22.5586 9.8389 22.5434Z" fill="#2C509F"/>
<path d="M21.1613 22.5434C20.4575 22.5434 19.7536 22.5586 19.0498 22.5434C18.3154 22.5281 17.8716 22.0859 17.8563 21.4455C17.841 20.7899 18.2848 20.302 19.0039 20.2867C20.4575 20.2562 21.8957 20.2562 23.3493 20.2867C24.0532 20.302 24.5275 20.8204 24.4969 21.4455C24.4816 22.0707 23.992 22.5281 23.2728 22.5434C22.569 22.5586 21.8651 22.5434 21.1613 22.5434Z" fill="#2C509F"/>
<path d="M52.8186 41.9839C52.8033 42.3955 52.5279 42.7767 52.0229 42.9292C50.9978 43.2341 49.9726 43.5391 48.9322 43.7373C48.5803 43.7983 48.06 43.6611 47.7999 43.4171C46.2698 41.9686 44.7857 40.4591 43.2862 38.9496C42.766 38.4159 42.7507 37.7298 43.225 37.2724C43.6993 36.7997 44.3725 36.8302 44.9081 37.3486C46.1627 38.5837 47.4021 39.8187 48.6262 41.0538C48.871 41.2977 49.0852 41.374 49.4218 41.2672C50.095 41.0538 50.7836 40.8708 51.4721 40.7336C52.2218 40.5963 52.8186 41.13 52.8186 41.9839Z" fill="#2C509F"/>
</svg>
