<svg width="36" height="36" viewBox="0 0 36 36" fill="none" xmlns="http://www.w3.org/2000/svg">
<path d="M17.5049 35.0023H0.937725C0.151671 35.0023 -0.0623176 34.8162 0.0146877 34.0391C0.580727 28.1797 2.97689 23.4655 8.32526 20.6383C10.1906 19.7123 12.1985 19.1065 14.2647 18.8462C14.4747 18.8322 14.6828 18.8944 14.8507 19.0212C15.6508 19.6063 16.4308 20.2112 17.2039 20.8282C17.2398 20.8707 17.2845 20.9051 17.3348 20.9288C17.3851 20.9526 17.4399 20.9652 17.4956 20.9659C17.5512 20.9667 17.6064 20.9556 17.6573 20.9332C17.7083 20.9108 17.7539 20.8778 17.7909 20.8363C18.551 20.2253 19.321 19.6252 20.1131 19.0571C20.3286 18.9088 20.5899 18.8422 20.8501 18.8691C23.8563 19.2327 26.7134 20.3831 29.1327 22.2043C31.7883 24.353 33.6486 27.3286 34.4171 30.657C34.6778 31.7983 34.8675 32.9545 34.9851 34.1192C35.0701 34.7882 34.8221 35.0033 34.151 35.0033L17.5049 35.0023ZM24.6334 24.6366C24.6334 23.5415 24.6424 22.4644 24.6214 21.3883C24.6043 21.3183 24.5704 21.2534 24.5227 21.1994C24.4749 21.1453 24.4148 21.1038 24.3474 21.0783C23.2963 20.7902 22.2372 20.5313 21.1831 20.2513C21.0604 20.2191 20.9315 20.2191 20.8088 20.2515C20.6861 20.284 20.5739 20.3475 20.4831 20.4361C19.8164 20.9695 19.1383 21.488 18.4489 21.9914C18.3494 22.0567 18.2691 22.1474 18.2163 22.2541C18.1636 22.3608 18.1403 22.4796 18.1489 22.5984C18.1589 26.1596 18.1549 29.721 18.1569 33.2822C18.1569 33.4122 18.1679 33.5432 18.1729 33.6592H33.717C33.4647 30.5186 32.2729 27.5267 30.2968 25.0727C29.1132 23.6479 27.628 22.5035 25.9485 21.7223V24.6295C27.4906 25.3466 28.1326 26.4706 27.7956 27.8487C27.6537 28.44 27.308 28.9625 26.8192 29.3242C26.3304 29.6859 25.7299 29.8638 25.1229 29.8267C24.516 29.7895 23.9416 29.5396 23.5005 29.1211C23.0595 28.7025 22.78 28.1418 22.7113 27.5377C22.634 26.9045 22.7851 26.2644 23.1374 25.7326C23.4897 25.2008 24.0202 24.8123 24.6334 24.6366ZM10.3724 24.6366C11.0988 24.7785 11.757 25.1588 12.2425 25.7175C13.1745 26.8918 13.6581 28.3596 13.6066 29.8579C13.6139 29.9338 13.6056 30.0103 13.582 30.0828C13.5585 30.1553 13.5203 30.2222 13.4698 30.2793C13.4194 30.3364 13.3578 30.3826 13.2887 30.4148C13.2197 30.4471 13.1447 30.4647 13.0686 30.4668C12.5691 30.5007 12.0679 30.5007 11.5685 30.4668C11.486 30.4617 11.4056 30.4394 11.3324 30.4012C11.2592 30.363 11.1948 30.3098 11.1435 30.2452C11.0921 30.1805 11.0549 30.1056 11.0342 30.0257C11.0135 29.9457 11.0098 29.8622 11.0234 29.7808C11.0211 29.7018 11.0349 29.6233 11.0639 29.5498C11.0929 29.4763 11.1366 29.4094 11.1922 29.3532C11.2479 29.2971 11.3144 29.253 11.3877 29.2234C11.4609 29.1937 11.5394 29.1792 11.6185 29.1809C11.8185 29.1699 12.0185 29.1809 12.2135 29.1809C12.1781 28.2881 11.8815 27.4255 11.3604 26.6997C11.0423 26.279 10.5738 25.9973 10.0529 25.9138C9.53204 25.8303 8.99903 25.9515 8.56527 26.2517C8.14735 26.6187 7.80971 27.0679 7.57344 27.5714C7.33717 28.0749 7.20738 28.622 7.19219 29.1779C7.4282 29.1779 7.60222 29.1709 7.77524 29.1779C7.94764 29.1742 8.11442 29.2391 8.23895 29.3584C8.36348 29.4777 8.43557 29.6416 8.43928 29.814C8.443 29.9864 8.37807 30.1531 8.25879 30.2776C8.13951 30.4022 7.97566 30.4741 7.80325 30.4778C7.35922 30.4998 6.91119 30.4998 6.46716 30.4778C6.37759 30.4822 6.28814 30.4668 6.2053 30.4324C6.12247 30.3981 6.0483 30.3458 5.98812 30.2793C5.92795 30.2128 5.88326 30.1337 5.85732 30.0479C5.83137 29.962 5.82481 29.8716 5.83809 29.783C5.83732 29.442 5.8644 29.1014 5.91909 28.7648C6.25811 26.8447 6.95418 25.1926 9.05932 24.6195V21.7653C5.31906 22.8574 1.02476 29.5358 1.40779 33.666H16.8218C16.8357 33.622 16.8454 33.5768 16.8509 33.531C16.8509 29.8594 16.8492 26.1879 16.8459 22.5163C16.8406 22.4462 16.8216 22.3777 16.7898 22.3149C16.7581 22.2521 16.7143 22.1962 16.6609 22.1504C15.9048 21.5553 15.1388 20.9733 14.3667 20.3983C14.2657 20.3147 14.1365 20.2728 14.0056 20.2813C12.8636 20.54 11.7248 20.8132 10.5894 21.1012C10.5346 21.1266 10.4868 21.1652 10.4502 21.2133C10.4136 21.2614 10.3893 21.3177 10.3794 21.3773C10.3674 22.4584 10.3724 23.5356 10.3724 24.6356V24.6366ZM25.2974 28.4508C25.5574 28.4504 25.8113 28.3725 26.0268 28.2272C26.2423 28.0819 26.4098 27.8759 26.5077 27.6351C26.6057 27.3944 26.6298 27.1298 26.5769 26.8753C26.524 26.6208 26.3965 26.3879 26.2108 26.2061C26.025 26.0243 25.7894 25.9018 25.5338 25.8545C25.2782 25.8071 25.0143 25.837 24.7757 25.9402C24.5372 26.0433 24.3347 26.215 24.1941 26.4336C24.0535 26.6522 23.9812 26.9079 23.9863 27.1678C23.9954 27.51 24.1374 27.835 24.3821 28.0743C24.6268 28.3137 24.9552 28.4484 25.2974 28.4499V28.4508Z" fill="#0E4C8F"/>
<path d="M9.63037 8.71036C9.6259 7.42055 9.89666 6.14476 10.4245 4.96791C10.9524 3.79107 11.7253 2.74028 12.6916 1.88591C14.0489 0.633869 15.8397 -0.0416731 17.6857 0.00199231C19.5318 0.0456577 21.2887 0.805243 22.5853 2.12006C24.3701 3.9157 25.3687 6.34659 25.3616 8.87834C25.3544 11.4101 24.3422 13.8354 22.5473 15.621C21.8039 16.3517 20.9114 16.913 19.9308 17.2664C18.9502 17.6197 17.9047 17.7568 16.8662 17.6683C15.8276 17.5797 14.8204 17.2677 13.9138 16.7534C13.0072 16.2391 12.2225 15.5348 11.6135 14.6888C10.2984 12.976 9.59966 10.8696 9.63037 8.71036ZM10.9425 8.69644C10.9055 10.6329 11.5505 12.5208 12.7646 14.0298C13.2939 14.7313 13.9726 15.3064 14.7516 15.713C15.5306 16.1197 16.3904 16.3478 17.2685 16.3811C18.1467 16.4143 19.0212 16.2519 19.8287 15.9052C20.6362 15.5585 21.3565 15.0363 21.9373 14.3768C23.3581 12.7996 24.1158 10.7351 24.0524 8.61319C23.9891 6.4913 23.1096 4.47572 21.5972 2.98609C20.5597 1.96182 19.1749 1.36528 17.7178 1.31507C16.2608 1.26486 14.8382 1.76466 13.7326 2.71507C12.8559 3.44525 12.1512 4.36003 11.6687 5.39397C11.1862 6.42791 10.9379 7.55547 10.9415 8.69644H10.9425Z" fill="#0E4C8F"/>
</svg>
