<svg xmlns="http://www.w3.org/2000/svg" version="1.1" xmlns:xlink="http://www.w3.org/1999/xlink" xmlns:svgjs="http://svgjs.com/svgjs" width="25" height="25" x="0" y="0" viewBox="0 0 682.667 682.667" style="enable-background:new 0 0 512 512" xml:space="preserve" class=""><g><defs><clipPath id="a" clipPathUnits="userSpaceOnUse"><path d="M0 512h512V0H0Z" fill="#058638" data-original="#000000" opacity="1"></path></clipPath></defs><g clip-path="url(#a)" transform="matrix(1.33333 0 0 -1.33333 0 682.667)"><path d="M0 0c10.9 0 19.762 8.89 19.762 19.791 0 10.9-8.862 19.762-19.762 19.762s-19.79-8.862-19.79-19.762C-19.79 8.89-10.9 0 0 0Z" style="stroke-linecap: round; stroke-linejoin: round; stroke-miterlimit: 10; stroke-dasharray: none; stroke-opacity: 1;" transform="translate(419.643 321.487)" fill="none" stroke="#058638" stroke-width="15px" stroke-linecap="round" stroke-linejoin="round" stroke-miterlimit="10" stroke-dasharray="none" stroke-opacity="" data-original="#000000" opacity="1" class=""></path><path d="M0 0c33.89 0 33.89-48.075 0-48.075h-146.4" style="stroke-linecap: round; stroke-linejoin: round; stroke-miterlimit: 10; stroke-dasharray: none; stroke-opacity: 1;" transform="translate(406.987 199.743)" fill="none" stroke="#058638" stroke-width="15px" stroke-linecap="round" stroke-linejoin="round" stroke-miterlimit="10" stroke-dasharray="none" stroke-opacity="" data-original="#000000" opacity="1" class=""></path><path d="M0 0c-33.918 0-33.89-48.046 0-48.046" style="stroke-linecap: round; stroke-linejoin: round; stroke-miterlimit: 10; stroke-dasharray: none; stroke-opacity: 1;" transform="translate(260.587 151.668)" fill="none" stroke="#058638" stroke-width="15px" stroke-linecap="round" stroke-linejoin="round" stroke-miterlimit="10" stroke-dasharray="none" stroke-opacity="" data-original="#000000" opacity="1" class=""></path><path d="M0 0c33.89 0 33.89-48.046 0-48.046h-87.115" style="stroke-linecap: round; stroke-linejoin: round; stroke-miterlimit: 10; stroke-dasharray: none; stroke-opacity: 1;" transform="translate(347.702 151.668)" fill="none" stroke="#058638" stroke-width="15px" stroke-linecap="round" stroke-linejoin="round" stroke-miterlimit="10" stroke-dasharray="none" stroke-opacity="" data-original="#000000" opacity="1" class=""></path><path d="M0 0c33.89 0 33.89-48.046 0-48.046h-63.475" style="stroke-linecap: round; stroke-linejoin: round; stroke-miterlimit: 10; stroke-dasharray: none; stroke-opacity: 1;" transform="translate(324.062 55.546)" fill="none" stroke="#058638" stroke-width="15px" stroke-linecap="round" stroke-linejoin="round" stroke-miterlimit="10" stroke-dasharray="none" stroke-opacity="" data-original="#000000" opacity="1" class=""></path><path d="M0 0c-33.89 0-33.89-48.046 0-48.046" style="stroke-linecap: round; stroke-linejoin: round; stroke-miterlimit: 10; stroke-dasharray: none; stroke-opacity: 1;" transform="translate(260.587 55.546)" fill="none" stroke="#058638" stroke-width="15px" stroke-linecap="round" stroke-linejoin="round" stroke-miterlimit="10" stroke-dasharray="none" stroke-opacity="" data-original="#000000" opacity="1" class=""></path><path d="M0 0h-123.695c16.789 32.673 2.803 67.724-16.874 82.164-9.937 7.276-25.225 4.076-26.924-13.138-3.001-30.776-13.137-46.744-25.905-55.634C-206.507 4.275-222.39 2.577-236.319 0h-28.596m0-162.571h23.415c30.888 0 32.501-25.595 70.27-29.672h70.043" style="stroke-linecap: round; stroke-linejoin: round; stroke-miterlimit: 10; stroke-dasharray: none; stroke-opacity: 1;" transform="translate(361.773 199.743)" fill="none" stroke="#058638" stroke-width="15px" stroke-linecap="round" stroke-linejoin="round" stroke-miterlimit="10" stroke-dasharray="none" stroke-opacity="" data-original="#000000" opacity="1" class=""></path><path d="M0 0c33.917 0 33.889-48.075 0-48.075h-75.281" style="stroke-linecap: round; stroke-linejoin: round; stroke-miterlimit: 10; stroke-dasharray: none; stroke-opacity: 1;" transform="translate(335.868 103.622)" fill="none" stroke="#058638" stroke-width="15px" stroke-linecap="round" stroke-linejoin="round" stroke-miterlimit="10" stroke-dasharray="none" stroke-opacity="" data-original="#000000" opacity="1" class=""></path><path d="M0 0c-33.918 0-33.89-48.075 0-48.075" style="stroke-linecap: round; stroke-linejoin: round; stroke-miterlimit: 10; stroke-dasharray: none; stroke-opacity: 1;" transform="translate(260.587 103.622)" fill="none" stroke="#058638" stroke-width="15px" stroke-linecap="round" stroke-linejoin="round" stroke-miterlimit="10" stroke-dasharray="none" stroke-opacity="" data-original="#000000" opacity="1" class=""></path><path d="M0 0v-76.756a3.226 3.226 0 0 1 3.228-3.227h57.303c1.755 0 3.199 1.443 3.199 3.227v184.032c0 1.784-1.444 3.228-3.199 3.228H3.228A3.226 3.226 0 0 1 0 107.276V34.57" style="stroke-linecap: round; stroke-linejoin: round; stroke-miterlimit: 10; stroke-dasharray: none; stroke-opacity: 1;" transform="translate(33.129 103.197)" fill="none" stroke="#058638" stroke-width="15px" stroke-linecap="round" stroke-linejoin="round" stroke-miterlimit="10" stroke-dasharray="none" stroke-opacity="" data-original="#000000" opacity="1" class=""></path><path d="M0 0c10.872 0 19.762 8.89 19.762 19.791 0 10.9-8.89 19.762-19.762 19.762-10.9 0-19.79-8.862-19.79-19.762C-19.79 8.89-10.9 0 0 0Z" style="stroke-linecap: round; stroke-linejoin: round; stroke-miterlimit: 10; stroke-dasharray: none; stroke-opacity: 1;" transform="translate(343.852 321.487)" fill="none" stroke="#058638" stroke-width="15px" stroke-linecap="round" stroke-linejoin="round" stroke-miterlimit="10" stroke-dasharray="none" stroke-opacity="" data-original="#000000" opacity="1" class=""></path><path d="M0 0h-32.162c-2.577 0-4.672-2.123-4.672-4.7v-81.2c0-11.411 9.343-20.753 20.753-20.753 11.437 0 20.78 9.342 20.78 20.753v81.2C4.699-2.123 2.576 0 0 0Z" style="stroke-linecap: round; stroke-linejoin: round; stroke-miterlimit: 10; stroke-dasharray: none; stroke-opacity: 1;" transform="translate(397.815 291.362)" fill="none" stroke="#058638" stroke-width="15px" stroke-linecap="round" stroke-linejoin="round" stroke-miterlimit="10" stroke-dasharray="none" stroke-opacity="" data-original="#000000" opacity="1" class=""></path><path d="M0 0h32.418c2.774 0 5.067 2.293 5.067 5.097v50.311c0 2.803-2.293 5.096-5.067 5.096H-72.761c-2.802 0-5.096-2.293-5.096-5.096V5.097c0-2.804 2.294-5.097 5.096-5.097h36.296" style="stroke-linecap: round; stroke-linejoin: round; stroke-miterlimit: 10; stroke-dasharray: none; stroke-opacity: 1;" transform="translate(401.919 404.556)" fill="none" stroke="#058638" stroke-width="15px" stroke-linecap="round" stroke-linejoin="round" stroke-miterlimit="10" stroke-dasharray="none" stroke-opacity="" data-original="#000000" opacity="1" class=""></path><path d="M0 0h-7.191c-38.051 0-69.195 31.144-69.195 69.196V212.43c0 20.753 16.988 37.712 37.712 37.712H80.179c20.753 0 37.712-16.959 37.712-37.712V69.196C117.891 31.144 86.747 0 48.696 0h-7.163" style="stroke-linecap: round; stroke-linejoin: round; stroke-miterlimit: 10; stroke-dasharray: none; stroke-opacity: 1;" transform="translate(360.98 254.358)" fill="none" stroke="#058638" stroke-width="15px" stroke-linecap="round" stroke-linejoin="round" stroke-miterlimit="10" stroke-dasharray="none" stroke-opacity="" data-original="#000000" opacity="1" class=""></path></g></g></svg>