<svg width="29" height="28" viewBox="0 0 29 28" fill="none" xmlns="http://www.w3.org/2000/svg">
<path d="M14.422 27.9277C9.85264 27.9277 5.2833 27.9277 0.785355 27.9277C0.142792 27.9277 0 27.783 0 27.1321C0.35698 23.3712 1.64211 20.1166 4.56934 17.5852C6.21145 16.211 8.06774 15.3431 10.1382 14.9092C10.638 14.7645 11.2092 14.6922 11.7089 14.6199C11.9231 14.6199 12.1373 14.6922 12.2801 14.7645C12.9227 15.2708 13.5652 15.7048 14.2078 16.211C14.422 16.3557 14.4934 16.3557 14.7076 16.211C15.3501 15.7048 15.9927 15.1985 16.6353 14.7645C16.778 14.6199 17.0636 14.5476 17.2778 14.6199C19.7767 14.9815 22.1327 15.7771 24.1318 17.3682C26.4165 19.1764 27.773 21.5631 28.487 24.3838C28.7012 25.324 28.844 26.2642 28.9867 27.2768C29.0581 27.8554 28.844 28 28.2728 28C23.5607 27.9277 18.9913 27.9277 14.422 27.9277ZM21.4188 17.0066C21.4188 17.8022 21.4188 18.5978 21.4188 19.3933C22.6325 19.8996 23.2037 20.8398 22.9895 21.9247C22.7753 22.9373 21.9186 23.6605 20.919 23.7328C19.9195 23.7328 19.0627 23.0819 18.7771 22.0694C18.6343 21.5631 18.7057 21.0568 18.9199 20.6229C19.2055 19.9719 19.7053 19.6103 20.3478 19.3933C20.3478 18.5254 20.3478 17.5852 20.3478 16.7173C20.3478 16.645 20.2051 16.428 20.1337 16.428C19.2769 16.211 18.3488 15.9941 17.4206 15.7771C17.2778 15.7771 17.135 15.7771 16.9922 15.8494C16.4211 16.2834 15.8499 16.7173 15.2073 17.1513C14.9931 17.2959 14.9931 17.4406 14.9931 17.6575C14.9931 20.6229 14.9931 23.5159 14.9931 26.4812C14.9931 26.6258 14.9931 26.6982 14.9931 26.8428C19.2769 26.8428 23.5607 26.8428 27.773 26.8428C27.8444 23.0819 24.6316 18.1638 21.4188 17.0066ZM7.42518 19.3933C7.42518 18.5978 7.42518 17.8022 7.42518 17.0066C5.42609 17.9468 3.85538 19.3933 2.78444 21.2738C1.7849 23.0096 1.21373 24.89 1.07094 26.8428C5.3547 26.8428 9.56706 26.8428 13.8508 26.8428C13.8508 26.7705 13.8508 26.7705 13.8508 26.7705C13.8508 23.7328 13.8508 20.6952 13.8508 17.6575C13.8508 17.5129 13.7794 17.3682 13.708 17.2959C13.0655 16.7896 12.4943 16.3557 11.8517 15.8494C11.7803 15.7771 11.6375 15.7048 11.5661 15.7048C10.5666 15.8494 9.49566 16.0664 8.56751 16.428C8.56751 17.3682 8.56751 18.3085 8.56751 19.2487C9.42426 19.538 9.85264 19.755 10.2096 20.3336C10.9236 21.2738 11.2092 22.431 11.2092 23.5882C11.2092 23.8775 11.0664 24.0945 10.7808 24.0945C10.3524 24.0945 9.92404 24.1668 9.42426 24.0945C9.13868 24.0945 8.99589 23.8052 8.99589 23.5159C8.99589 23.2266 9.21008 23.0819 9.49566 23.0096C9.63845 23.0096 9.85264 23.0096 9.99543 23.0096C10.0668 22.214 9.56706 21.1291 9.06728 20.6952C8.42472 20.1166 7.42518 20.1889 6.78261 20.8398C6.21145 21.4184 5.99726 22.214 5.92586 23.0819C6.06866 23.0819 6.21145 23.0819 6.35424 23.0819C6.71122 23.0819 6.92541 23.2989 6.92541 23.5882C6.92541 23.9498 6.71122 24.1668 6.42563 24.1668C6.06866 24.1668 5.71168 24.1668 5.3547 24.1668C4.99772 24.1668 4.78353 23.9498 4.85492 23.5882C4.85492 23.1542 4.92632 22.7203 4.99772 22.3587C5.2833 20.9845 5.92586 19.755 7.42518 19.3933ZM20.8476 20.3336C20.2764 20.3336 19.7767 20.8398 19.7767 21.4184C19.7767 21.997 20.2764 22.5033 20.8476 22.5033C21.4188 22.5033 21.9186 21.997 21.9186 21.4184C21.9186 20.8398 21.4188 20.3336 20.8476 20.3336Z" fill="#058638"/>
<path d="M20.8477 7.43939C20.7763 9.53681 20.0623 11.4896 18.3488 13.0084C15.9213 15.1782 12.5657 15.1058 10.2811 12.8638C7.28243 9.97076 7.28243 4.83569 10.1383 1.87037C12.9227 -0.9503 17.1351 -0.51635 19.4197 2.73827C20.4193 4.11244 20.8477 5.63127 20.8477 7.43939ZM9.06733 7.15009C9.06733 8.88589 9.5671 10.3324 10.5666 11.5619C12.5657 14.021 15.7786 14.1656 17.9918 11.9235C20.4907 9.31984 20.4193 4.83569 17.7776 2.37665C15.9213 0.713174 13.3511 0.568524 11.4234 2.15967C9.78129 3.53385 9.13873 5.26964 9.06733 7.15009Z" fill="#058638"/>
</svg>
