<svg width="53" height="53" viewBox="0 0 53 53" fill="none" xmlns="http://www.w3.org/2000/svg">
<path d="M26.3574 52.8691C18.0065 52.8691 9.65569 52.8691 1.4353 52.8691C0.260965 52.8691 0 52.6073 0 51.4291C0.652411 44.6218 3.00109 38.7309 8.35086 34.1491C11.352 31.6618 14.7445 30.0909 18.5285 29.3054C19.4419 29.0436 20.4857 28.9127 21.3991 28.7818C21.7905 28.7818 22.182 28.9127 22.4429 29.0436C23.6173 29.96 24.7916 30.7454 25.966 31.6618C26.3574 31.9236 26.4879 31.9236 26.8793 31.6618C28.0537 30.7454 29.228 29.8291 30.4024 29.0436C30.6633 28.7818 31.1853 28.6509 31.5767 28.7818C36.1436 29.4363 40.4495 30.8763 44.103 33.7563C48.2784 37.0291 50.7576 41.3491 52.0624 46.4545C52.4539 48.1564 52.7148 49.8582 52.9758 51.6909C53.1063 52.7382 52.7148 53 51.671 53C43.0591 52.8691 34.7083 52.8691 26.3574 52.8691ZM39.1447 33.1018C39.1447 34.5418 39.1447 35.9818 39.1447 37.4218C41.3629 38.3382 42.4067 40.04 42.0153 42.0036C41.6238 43.8364 40.058 45.1454 38.2313 45.2764C36.4045 45.2764 34.8388 44.0982 34.3168 42.2654C34.0559 41.3491 34.1863 40.4327 34.5778 39.6473C35.0997 38.4691 36.0131 37.8145 37.1874 37.4218C37.1874 35.8509 37.1874 34.1491 37.1874 32.5782C37.1874 32.4473 36.9265 32.0545 36.796 32.0545C35.2302 31.6618 33.5339 31.2691 31.8377 30.8763C31.5767 30.8763 31.3157 30.8763 31.0548 31.0073C30.0109 31.7927 28.9671 32.5782 27.7927 33.3636C27.4013 33.6254 27.4013 33.8873 27.4013 34.28C27.4013 39.6473 27.4013 44.8836 27.4013 50.2509C27.4013 50.5127 27.4013 50.6436 27.4013 50.9055C35.2302 50.9055 43.0591 50.9055 50.7576 50.9055C50.8881 44.0982 45.0164 35.1963 39.1447 33.1018ZM13.5702 37.4218C13.5702 35.9818 13.5702 34.5418 13.5702 33.1018C9.91665 34.8036 7.04604 37.4218 5.08881 40.8254C3.26206 43.9673 2.2182 47.3709 1.95723 50.9055C9.78617 50.9055 17.4846 50.9055 25.3136 50.9055C25.3136 50.7745 25.3136 50.7745 25.3136 50.7745C25.3136 45.2764 25.3136 39.7782 25.3136 34.28C25.3136 34.0182 25.1831 33.7563 25.0526 33.6254C23.8783 32.7091 22.8344 31.9236 21.6601 31.0073C21.5296 30.8763 21.2686 30.7454 21.1381 30.7454C19.3114 31.0073 17.3541 31.4 15.6579 32.0545C15.6579 33.7563 15.6579 35.4582 15.6579 37.16C17.2237 37.6836 18.0065 38.0763 18.659 39.1236C19.9638 40.8254 20.4857 42.92 20.4857 45.0145C20.4857 45.5382 20.2247 45.9309 19.7028 45.9309C18.9199 45.9309 18.137 46.0618 17.2237 45.9309C16.7017 45.9309 16.4408 45.4073 16.4408 44.8836C16.4408 44.36 16.8322 44.0982 17.3541 43.9673C17.6151 43.9673 18.0065 43.9673 18.2675 43.9673C18.398 42.5273 17.4846 40.5636 16.5712 39.7782C15.3969 38.7309 13.5702 38.8618 12.3958 40.04C11.352 41.0873 10.9605 42.5273 10.83 44.0982C11.091 44.0982 11.352 44.0982 11.6129 44.0982C12.2653 44.0982 12.6568 44.4909 12.6568 45.0145C12.6568 45.6691 12.2653 46.0618 11.7434 46.0618C11.091 46.0618 10.4386 46.0618 9.78617 46.0618C9.13376 46.0618 8.74231 45.6691 8.87279 45.0145C8.87279 44.2291 9.00327 43.4436 9.13376 42.7891C9.65569 40.3018 10.83 38.0763 13.5702 37.4218ZM38.1008 39.1236C37.057 39.1236 36.1436 40.04 36.1436 41.0873C36.1436 42.1345 37.057 43.0509 38.1008 43.0509C39.1447 43.0509 40.058 42.1345 40.058 41.0873C40.058 40.04 39.1447 39.1236 38.1008 39.1236Z" fill="#0E4C8F"/>
<path d="M38.1008 13.4654C37.9703 17.2618 36.6655 20.7963 33.5339 23.5454C29.0975 27.4727 22.9648 27.3418 18.7894 23.2836C13.3091 18.0472 13.3091 8.75268 18.5284 3.3854C23.6172 -1.72006 31.3157 -0.934601 35.4911 4.95631C37.3179 7.44359 38.1008 10.1927 38.1008 13.4654ZM16.5712 12.9418C16.5712 16.0836 17.4846 18.7018 19.3113 20.9272C22.9648 25.3782 28.8365 25.64 32.8815 21.5818C37.4484 16.8691 37.3179 8.75268 32.49 4.30177C29.0975 1.29086 24.4001 1.02904 20.8771 3.90904C17.876 6.39632 16.7017 9.53814 16.5712 12.9418Z" fill="#0E4C8F"/>
</svg>
