<svg width="39" height="37" viewBox="0 0 39 37" fill="none" xmlns="http://www.w3.org/2000/svg">
<path d="M0.0470867 20.7328C0.334267 18.7432 1.89728 17.1802 3.8869 16.893V15.7154C3.8869 12.4665 6.35664 9.82122 9.39248 9.82122C12.3409 9.82122 14.8093 12.3862 14.8981 15.5393H14.8605L14.8981 15.5457V28.3103C14.8981 32.3909 17.9488 35.7046 21.6991 35.7046C25.4493 35.7046 28.5001 32.3863 28.5001 28.3103V27.2046C27.5609 27.2046 26.5569 26.5239 26.5569 24.6137V22.9847C22.3999 21.9218 19.4321 18.3523 19.4321 14.3054V12.9549H20.7275L20.7547 4.52485C20.7641 2.96443 21.8838 1.63208 23.4194 1.35429C23.7506 0.339561 24.8418 -0.21456 25.8566 0.116747C26.8713 0.447972 27.4254 1.53913 27.0941 2.55394C26.7629 3.56866 25.6718 4.12278 24.6569 3.79148C24.1136 3.61409 23.6766 3.2053 23.4634 2.67498C22.6336 2.91107 22.0588 3.66598 22.0521 4.52874L22.0229 12.9549H23.3184V14.3241C23.37 16.5771 24.8805 18.535 27.0466 19.1567C28.2056 19.5245 29.45 19.5245 30.609 19.1567C32.7727 18.5329 34.2797 16.5754 34.3295 14.3241V12.9549H36.2727V4.53457C36.2689 3.6591 35.6802 2.89415 34.8347 2.66656C34.4405 3.67011 33.3074 4.164 32.3039 3.76978C31.3003 3.37556 30.8064 2.24239 31.2006 1.23891C31.5949 0.23544 32.728 -0.258523 33.7315 0.135692C34.2753 0.349357 34.6948 0.795228 34.8749 1.35105C36.4272 1.61629 37.5638 2.95973 37.5681 4.53457V12.9549H38.8635V14.3021C38.8635 18.3536 35.8938 21.9244 31.7387 22.9847V24.6137C31.7387 26.5239 30.7347 27.2046 29.7955 27.2046V28.3103C29.7955 33.1033 26.1638 37 21.6991 37C17.2344 37 13.6026 33.0988 13.6026 28.3103V15.5768C13.5379 13.1187 11.6478 11.1186 9.39248 11.1186C7.07107 11.1186 5.18233 13.1809 5.18233 15.7174V16.893C7.66074 17.2507 9.37985 19.5498 9.02215 22.0282C8.66445 24.5066 6.36531 26.2257 3.8869 25.868C1.4085 25.5103 -0.310614 23.2111 0.0470867 20.7328ZM25.2615 2.59142C25.6192 2.59142 25.9092 2.30141 25.9092 1.94371C25.9092 1.58601 25.6192 1.29599 25.2615 1.29599C24.9038 1.29599 24.6138 1.58601 24.6138 1.94371C24.6138 2.30141 24.9038 2.59142 25.2615 2.59142ZM33.0341 1.29599C32.6764 1.29599 32.3864 1.58601 32.3864 1.94371C32.3864 2.30141 32.6764 2.59142 33.0341 2.59142C33.3918 2.59142 33.6818 2.30141 33.6818 1.94371C33.6818 1.58601 33.3918 1.29599 33.0341 1.29599ZM37.5681 14.3021V14.2503H35.6249V14.3241C35.5764 17.1394 33.7034 19.5962 31.0016 20.3887C29.5857 20.837 28.066 20.837 26.6502 20.3887C23.947 19.5973 22.0724 17.1403 22.0229 14.3241V14.2503H20.7275V14.3021C20.7275 17.9054 23.5049 21.0759 27.3342 21.8428C28.2334 22.0229 29.1544 22.0681 30.0669 21.9769C30.3673 21.9477 30.6659 21.9026 30.9614 21.8415C34.7907 21.0759 37.5681 17.9054 37.5681 14.3021ZM29.7955 25.9092C30.3785 25.9092 30.4432 25.0024 30.4432 24.6137V23.2393C30.3914 23.2458 30.3383 23.2484 30.2858 23.2535C30.2211 23.2607 30.1563 23.2658 30.0915 23.2717C29.7851 23.2989 29.4762 23.317 29.1646 23.3177H29.1323C28.8213 23.3177 28.513 23.2989 28.2086 23.2717C28.1438 23.2658 28.0752 23.2607 28.0085 23.2535C27.9573 23.2477 27.9042 23.2458 27.853 23.2393V24.6137C27.853 25.0024 27.9178 25.9092 28.5007 25.9092H29.7955ZM4.53462 24.6137C6.3232 24.6137 7.7732 23.1638 7.7732 21.3752C7.7732 19.5866 6.3232 18.1366 4.53462 18.1366C2.74603 18.1366 1.29604 19.5866 1.29604 21.3752C1.29815 23.1629 2.74693 24.6116 4.53462 24.6137Z" fill="#0E4C8F"/>
<path d="M4.53461 19.4321C5.60779 19.4321 6.47775 20.3021 6.47775 21.3753C6.47775 22.4485 5.60779 23.3184 4.53461 23.3184C3.46142 23.3184 2.59146 22.4485 2.59146 21.3753C2.59146 20.3021 3.46142 19.4321 4.53461 19.4321ZM4.53461 22.023C4.89231 22.023 5.18232 21.733 5.18232 21.3753C5.18232 21.0176 4.89231 20.7276 4.53461 20.7276C4.17691 20.7276 3.88689 21.0176 3.88689 21.3753C3.88689 21.733 4.17691 22.023 4.53461 22.023Z" fill="#0E4C8F"/>
</svg>
