<svg width="24" height="24" viewBox="0 0 24 24" fill="none" xmlns="http://www.w3.org/2000/svg">
<path d="M17.1167 21.9922C16.6158 21.8122 16.0954 21.6792 15.6258 21.4406C15.168 21.2059 14.7611 20.8695 14.3463 20.5605C14.2367 20.4784 14.1389 20.4275 14.002 20.4275C10.4412 20.4314 6.88041 20.4314 3.31964 20.4314C2.47053 20.4314 2.00098 19.9621 2.00098 19.1132C2.00098 17.1222 2.00098 15.1312 2.00098 13.1402C2.00098 13.0698 1.99707 12.9955 2.00489 12.9251C2.02837 12.7256 2.19663 12.5809 2.39227 12.5809C2.58792 12.5809 2.75226 12.7295 2.77574 12.929C2.78357 12.9994 2.77965 13.0737 2.77965 13.1441C2.77965 15.1469 2.77965 17.1535 2.77965 19.1563C2.77965 19.5044 2.91661 19.6491 3.25703 19.6491C6.62216 19.6491 9.98728 19.6491 13.3524 19.6491C13.3955 19.6491 13.4424 19.6491 13.5285 19.6491C12.6872 18.4444 12.382 17.1183 12.4759 15.6671C12.382 15.6671 12.3077 15.6671 12.2333 15.6671C9.79946 15.6671 7.36562 15.6671 4.93177 15.6671C4.86134 15.6671 4.78699 15.671 4.71656 15.6593C4.517 15.628 4.37613 15.4559 4.38396 15.2642C4.39178 15.0765 4.53265 14.92 4.72047 14.8926C4.7909 14.8848 4.86525 14.8887 4.93568 14.8887C7.35779 14.8887 9.7799 14.8887 12.1981 14.8887C12.2764 14.8887 12.3546 14.8887 12.4485 14.8887C12.4485 14.4271 12.4485 13.9695 12.4485 13.4845C12.3781 13.4845 12.3037 13.4845 12.2294 13.4845C9.79555 13.4845 7.3617 13.4845 4.92786 13.4845C4.57178 13.4845 4.38787 13.3515 4.38396 13.0972C4.38004 12.839 4.56787 12.706 4.92003 12.706C7.34605 12.706 9.77598 12.706 12.202 12.706C12.2803 12.706 12.3585 12.706 12.4563 12.706C12.4642 12.4205 12.652 12.3149 12.8946 12.2406C13.7907 11.9707 14.6828 11.689 15.575 11.4113C15.6689 11.3839 15.751 11.3683 15.7471 11.2275C15.7393 9.5885 15.7432 7.94954 15.7432 6.30667C15.7432 6.28711 15.7354 6.27146 15.7276 6.22453C15.661 6.22453 15.5906 6.22453 15.5241 6.22453C14.8472 6.22453 14.1702 6.22453 13.4933 6.22453C12.7772 6.22453 12.3116 5.75513 12.3077 5.03931C12.3077 4.30002 12.3077 3.55682 12.3077 2.79014C12.2255 2.79014 12.159 2.79014 12.0885 2.79014C9.15774 2.79014 6.23086 2.79014 3.30007 2.79014C2.90487 2.78232 2.78357 2.90749 2.78357 3.31039C2.78357 5.30921 2.78357 7.30413 2.78357 9.30295C2.78357 9.36945 2.78748 9.43204 2.77965 9.49853C2.75618 9.69802 2.59183 9.84667 2.39618 9.84667C2.19271 9.85058 2.02446 9.69802 2.00489 9.4868C1.99707 9.42812 2.00098 9.36945 2.00098 9.31078C2.00098 7.30413 2.00098 5.29357 2.00098 3.283C2.00098 2.48504 2.48227 2.00391 3.2766 2.00391C6.37564 2.00391 9.47469 2.00391 12.5698 2C12.7733 2 12.9259 2.06259 13.0707 2.20731C14.1546 3.29474 15.2384 4.38216 16.3302 5.46568C16.4671 5.60258 16.5336 5.75122 16.5336 5.95071C16.5297 7.58576 16.5297 9.2169 16.5297 10.8519C16.5297 10.9302 16.5297 11.0084 16.5297 11.1101C16.7019 11.0553 16.8506 10.9889 17.0071 10.9654C17.1558 10.9419 17.3201 10.9224 17.461 10.9654C18.8462 11.3878 20.2274 11.8259 21.6126 12.2523C21.7848 12.3071 21.9139 12.3931 22 12.5496C22 13.9538 22 15.362 22 16.7663C21.9883 16.821 21.9726 16.8758 21.9648 16.9345C21.6283 19.3206 20.3292 20.936 18.0792 21.7849C17.8445 21.8748 17.594 21.9296 17.3553 22C17.2732 21.9922 17.1949 21.9922 17.1167 21.9922ZM13.2507 12.9486C13.2507 14.079 13.2468 15.1899 13.2507 16.3008C13.2585 18.6047 14.7806 20.5684 17.011 21.1473C17.148 21.1825 17.3084 21.1864 17.4453 21.1512C19.6757 20.5801 21.2057 18.6126 21.2174 16.3125C21.2213 15.2447 21.2174 14.1807 21.2174 13.1129C21.2174 13.062 21.2174 13.0111 21.2174 12.9681C21.1939 12.9525 21.1861 12.9407 21.1744 12.9407C19.8909 12.5378 18.6075 12.135 17.324 11.736C17.2653 11.7164 17.191 11.7203 17.1323 11.7399C15.845 12.135 14.5537 12.5418 13.2507 12.9486ZM15.0898 5.43438C14.4285 4.77332 13.7515 4.09662 13.0902 3.43947C13.0902 3.96753 13.0863 4.53863 13.0942 5.10972C13.0942 5.28965 13.2194 5.43047 13.3955 5.43438C13.9785 5.44221 14.5576 5.43438 15.0898 5.43438Z" fill="#058638"/>
<path d="M7.12689 17.0718C7.886 17.0718 8.64902 17.0718 9.40813 17.0718C9.57639 17.0718 9.73682 17.1187 9.7916 17.2791C9.83073 17.3925 9.83464 17.5607 9.77594 17.6585C9.71725 17.7563 9.56073 17.8424 9.44335 17.8463C7.88991 17.858 6.33647 17.8541 4.78304 17.8541C4.54826 17.8541 4.38 17.682 4.38 17.4668C4.38 17.2439 4.55217 17.0796 4.8026 17.0757C5.58128 17.0718 6.35604 17.0718 7.12689 17.0718Z" fill="#058638"/>
<path d="M2.77968 11.231C2.77185 11.4462 2.58012 11.6183 2.3649 11.6026C2.15752 11.587 1.99317 11.4071 2.001 11.1997C2.00883 10.9846 2.20056 10.8125 2.41577 10.8281C2.62316 10.8438 2.79141 11.0237 2.77968 11.231Z" fill="#058638"/>
<path d="M14.0293 15.2019C14.0293 14.7599 14.0293 14.3178 14.0293 13.8758C14.0293 13.6138 14.1154 13.4925 14.3619 13.4143C15.2658 13.1326 16.1736 12.8471 17.0814 12.5733C17.1753 12.5459 17.2927 12.5459 17.3827 12.5733C18.2905 12.8471 19.1944 13.1326 20.1022 13.4143C20.3526 13.4925 20.4348 13.6138 20.4348 13.8758C20.4348 14.709 20.4426 15.5422 20.4348 16.3753C20.4152 18.1825 19.1983 19.8097 17.4688 20.33C17.324 20.373 17.144 20.373 16.9992 20.33C15.2345 19.7823 14.041 18.1629 14.0332 16.3167C14.0293 15.9451 14.0293 15.5735 14.0293 15.2019ZM19.6874 15.3896C19.6757 15.3896 19.6639 15.3896 19.6522 15.3857C19.6522 15.0141 19.6444 14.6425 19.6561 14.2748C19.66 14.1301 19.6091 14.0714 19.4761 14.0323C18.7757 13.8211 18.0753 13.5981 17.3709 13.383C17.2888 13.3595 17.187 13.3556 17.1088 13.3791C16.3888 13.5981 15.6727 13.8289 14.9528 14.0479C14.8471 14.0792 14.808 14.1223 14.808 14.2357C14.8158 14.9789 14.8001 15.7182 14.8158 16.4614C14.8471 17.8265 15.8097 19.1135 17.101 19.5398C17.1792 19.5672 17.2849 19.5711 17.3592 19.5437C18.5448 19.0978 19.3039 18.2568 19.5622 17.0208C19.6757 16.4888 19.6522 15.9333 19.6874 15.3896Z" fill="#058638"/>
<path d="M16.8819 16.6295C17.3318 16.1757 17.7583 15.7454 18.1849 15.3191C18.3688 15.1391 18.6153 15.1391 18.7718 15.3073C18.9088 15.4599 18.9166 15.6789 18.7601 15.8354C18.2279 16.3791 17.6918 16.915 17.1479 17.447C16.9914 17.5995 16.7645 17.5917 16.604 17.4352C16.3027 17.1419 16.0014 16.8446 15.708 16.5395C15.5475 16.3752 15.5554 16.1522 15.7041 15.9958C15.8567 15.8393 16.0914 15.8315 16.2636 15.9958C16.4671 16.1992 16.6627 16.4065 16.8819 16.6295Z" fill="#058638"/>
<path d="M11.0066 9.63235C10.9062 9.72291 10.8124 9.82147 10.7041 9.90138C9.96164 10.4554 9.1452 10.5966 8.2746 10.2903C6.91651 9.81348 6.26785 8.30984 6.72231 7.02595C7.07108 6.04172 7.7858 5.47836 8.80568 5.31321C9.18484 5.25194 9.56003 5.29589 9.92729 5.41443C9.93786 5.41842 9.94975 5.41842 9.96032 5.42109C9.9775 5.43174 9.99467 5.44106 10.0118 5.45172C10.0409 5.497 10.0515 5.54362 10.0185 5.59156C9.98542 5.63951 9.93654 5.63818 9.88502 5.63152C9.07783 5.53296 8.40803 5.79533 7.89941 6.43328C7.23622 7.26301 7.31152 8.49363 8.05398 9.25677C8.79511 10.0186 9.97485 10.1185 10.8309 9.49117C10.8362 9.48718 10.8415 9.48318 10.8468 9.47919C10.8864 9.44722 10.93 9.42858 10.9789 9.45388C11.0291 9.48052 11.0423 9.52713 11.0383 9.58041C11.0264 9.59905 11.0172 9.61503 11.0066 9.63235ZM9.89427 5.52097C8.87306 5.16937 7.55857 5.56626 6.95879 6.73161C6.37222 7.87299 6.76723 9.26343 7.79636 9.93601C8.89155 10.6512 10.2087 10.3329 10.9009 9.57508C10.4663 9.88406 9.99599 10.0306 9.47812 10.0079C8.96025 9.98528 8.50315 9.80016 8.10946 9.46054C7.42514 8.87054 7.16092 7.85568 7.46873 6.99665C7.62726 6.55714 7.89413 6.19621 8.27196 5.92452C8.75416 5.57824 9.29317 5.44905 9.89427 5.52097Z" fill="#058638"/>
<path fill-rule="evenodd" clip-rule="evenodd" d="M11.113 9.72085L11.0982 9.73418C11.0725 9.75734 11.0453 9.78302 11.0169 9.80986C10.9461 9.87672 10.8677 9.95085 10.7855 10.0115C10.0083 10.5913 9.14449 10.7417 8.22892 10.4196C6.79598 9.91648 6.1145 8.33226 6.59299 6.98047L6.59301 6.98042C6.95935 5.9466 7.71692 5.35097 8.78357 5.17825L8.78362 5.17825C9.18681 5.1131 9.5831 5.16015 9.96622 5.28339L9.96722 5.28353C9.96876 5.28375 9.97095 5.28407 9.97336 5.28445C9.97806 5.28519 9.9853 5.28644 9.99359 5.28853L10.0142 5.29373L10.0323 5.30495C10.039 5.30908 10.0459 5.31311 10.0547 5.31826L10.0554 5.31861C10.0636 5.32339 10.0736 5.32922 10.0838 5.33558L10.1102 5.35191L10.1269 5.37798C10.1481 5.41099 10.1697 5.45521 10.1746 5.50828C10.1798 5.56514 10.1648 5.62044 10.131 5.6694C10.0933 5.7242 10.0415 5.75455 9.98685 5.76614C9.93968 5.77613 9.89456 5.771 9.86774 5.76755C9.10654 5.67474 8.48428 5.91928 8.0063 6.5188L8.00619 6.51893C7.38729 7.29325 7.45626 8.44644 8.15194 9.16151C8.84538 9.87429 9.94821 9.96767 10.7489 9.38153L10.7624 9.37136C10.7896 9.34966 10.8278 9.32447 10.8759 9.31244C10.9296 9.29902 10.987 9.30419 11.0417 9.3325L11.0423 9.33282L11.0429 9.33314C11.0953 9.36093 11.1334 9.40293 11.155 9.45438C11.1753 9.50269 11.1776 9.55127 11.1747 9.59075L11.1721 9.62512L11.1536 9.65419C11.1466 9.66518 11.1414 9.67383 11.1353 9.68396C11.1318 9.68984 11.128 9.69622 11.1233 9.70385L11.113 9.72085ZM10.8466 9.47938L10.8307 9.49136C10.8267 9.49433 10.8226 9.49729 10.8185 9.50023C10.784 9.52514 10.749 9.54887 10.7136 9.57144C10.3362 9.81149 9.90614 9.91948 9.48262 9.90047C9.01387 9.87944 8.55318 9.70286 8.18101 9.37761C8.181 9.3776 8.18102 9.37761 8.18101 9.37761C8.13734 9.33944 8.09487 9.29921 8.05377 9.25696C7.47525 8.66232 7.30179 7.78386 7.56714 7.03239C7.56716 7.03232 7.56719 7.03225 7.56721 7.03218C7.6424 6.8193 7.75281 6.61662 7.8992 6.43347C8.03258 6.26617 8.17705 6.1247 8.33217 6.0088C8.33219 6.00879 8.33221 6.00877 8.33223 6.00876C8.73462 5.70812 9.2087 5.57951 9.747 5.61829C9.7834 5.62092 9.8201 5.62431 9.85709 5.62846C9.865 5.62935 9.87293 5.63027 9.88088 5.63123C9.8818 5.63134 9.88272 5.63145 9.88364 5.63156C9.88403 5.63161 9.88442 5.63166 9.88481 5.63171C9.93633 5.63837 9.98521 5.6397 10.0182 5.59175C10.0513 5.54381 10.0407 5.49719 10.0116 5.45191C10.003 5.44658 9.99446 5.44159 9.98587 5.43659C9.97728 5.4316 9.9687 5.4266 9.96011 5.42128C9.95583 5.4202 9.95132 5.41956 9.94678 5.41891C9.94216 5.41825 9.9375 5.41758 9.93298 5.41645C9.93211 5.41623 9.93124 5.41599 9.93038 5.41573C9.92927 5.4154 9.92817 5.41503 9.92708 5.41462C9.92058 5.41252 9.91407 5.41044 9.90756 5.40839C9.86732 5.3957 9.82699 5.38392 9.78658 5.37307C9.46432 5.28661 9.1364 5.25993 8.80547 5.3134C7.91016 5.45837 7.25002 5.91023 6.86617 6.68428C6.86616 6.68429 6.86615 6.68431 6.86614 6.68433C6.81274 6.79202 6.76469 6.90594 6.7221 7.02614C6.33257 8.12659 6.75346 9.38848 7.73687 10.0268C7.73688 10.0269 7.73686 10.0268 7.73687 10.0268C7.90079 10.1332 8.08036 10.2223 8.27439 10.2905C9.14499 10.5968 9.96143 10.4556 10.7039 9.90157C10.7607 9.85964 10.8136 9.81259 10.8654 9.76425C10.8823 9.74858 10.899 9.73278 10.9157 9.71698C10.9328 9.70081 10.9499 9.68464 10.9671 9.6686C10.973 9.66309 10.979 9.6576 10.9849 9.65213C10.9855 9.65158 10.9861 9.65103 10.9867 9.65048C10.9933 9.64447 10.9998 9.63849 11.0064 9.63254C11.0099 9.62676 11.0133 9.62114 11.0167 9.61551C11.0234 9.60427 11.0302 9.59302 11.0381 9.5806C11.0421 9.52732 11.0289 9.48071 10.9787 9.45407C10.9298 9.42877 10.8862 9.44741 10.8466 9.47938ZM10.781 9.65568C10.6162 9.76003 10.4462 9.84162 10.2705 9.9001C10.0187 9.98389 9.75512 10.0202 9.47791 10.0081C8.96004 9.98547 8.50294 9.80035 8.10925 9.46073C8.06242 9.42036 8.01756 9.37799 7.97471 9.33382C7.39144 8.73256 7.18177 7.79708 7.46852 6.99684C7.55269 6.76349 7.6674 6.55228 7.81304 6.36483C7.81307 6.36479 7.8131 6.36476 7.81313 6.36472C7.94178 6.19916 8.09456 6.05212 8.27175 5.92471C8.55692 5.71993 8.86195 5.59107 9.18795 5.53483C9.37295 5.50291 9.56469 5.49438 9.76339 5.50863C9.80433 5.51157 9.84556 5.51547 9.88709 5.52034C9.88896 5.52056 9.89084 5.52078 9.89272 5.52101C9.89317 5.52106 9.89361 5.52111 9.89405 5.52116C9.89364 5.52102 9.89322 5.52088 9.89281 5.52074C9.89108 5.52014 9.88934 5.51955 9.88761 5.51896C9.84914 5.50585 9.81026 5.49379 9.77101 5.4828C9.5795 5.42916 9.37945 5.40079 9.17709 5.39781C9.05926 5.39607 8.94065 5.40295 8.82249 5.41845C8.82251 5.41845 8.82248 5.41846 8.82249 5.41845C8.08249 5.51558 7.36024 5.95137 6.95858 6.7318C6.9033 6.83935 6.85675 6.94911 6.81862 7.06028C6.81862 7.06027 6.81861 7.06029 6.81862 7.06028C6.4521 8.12884 6.864 9.327 7.79615 9.9362C7.96283 10.045 8.13465 10.13 8.30862 10.193C8.30865 10.193 8.30867 10.193 8.30869 10.193C9.01136 10.4477 9.74919 10.3461 10.3255 10.026C10.437 9.96411 10.5425 9.894 10.6405 9.81671C10.6407 9.81659 10.6408 9.81646 10.641 9.81634C10.696 9.77294 10.7486 9.72727 10.7987 9.67952C10.8323 9.64741 10.8648 9.61436 10.896 9.58042C10.8964 9.58 10.8968 9.57959 10.8972 9.57918C10.8983 9.57788 10.8995 9.57657 10.9007 9.57527C10.8993 9.57628 10.8979 9.57728 10.8965 9.57829C10.896 9.5786 10.8956 9.57892 10.8951 9.57923C10.8574 9.60594 10.8193 9.63143 10.781 9.65568ZM8.01978 9.56438C7.29205 8.93694 7.01291 7.86233 7.33959 6.95067L7.33969 6.9504C7.50724 6.48587 7.79066 6.10201 8.19177 5.81357L8.19184 5.81352C8.29083 5.74244 8.39214 5.67999 8.49576 5.62605C7.92429 5.79108 7.39697 6.17931 7.08039 6.79436M8.01978 9.56438C8.43621 9.92362 8.92256 10.1209 9.47193 10.1449C9.52117 10.147 9.57002 10.1477 9.61847 10.147C9.06027 10.2676 8.43453 10.1895 7.87109 9.82161C6.89996 9.18694 6.52626 7.87272 7.08036 6.79444" fill="#058638"/>
</svg>
