<svg width="48" height="48" viewBox="0 0 48 48" fill="none" xmlns="http://www.w3.org/2000/svg">
<rect width="48" height="48" rx="5" fill="#006F2C"/>
<path d="M21.9751 34C21.9751 33.9193 21.9595 33.8386 21.9595 33.7418C21.9595 30.8855 21.9595 28.013 21.9595 25.1567C21.9595 25.076 21.9595 24.9953 21.9595 24.8823C20.9626 24.8823 19.9969 24.8823 19 24.8823C19 23.6882 19 22.5263 19 21.3321C19.9813 21.3321 20.947 21.3321 21.9595 21.3321C21.9595 21.2353 21.9595 21.1546 21.9595 21.0739C21.9595 20.1379 21.9439 19.2181 21.9751 18.2821C22.0218 17.1686 22.3333 16.1358 23.0966 15.2967C23.6729 14.6673 24.405 14.2962 25.215 14.1187C25.8847 13.9734 26.5545 13.9896 27.2243 14.0218C27.7695 14.038 28.3146 14.0864 28.8598 14.1348C28.9065 14.1348 28.9377 14.1509 29 14.1671C29 15.216 29 16.2649 29 17.33C28.9377 17.33 28.8754 17.33 28.7975 17.33C28.1277 17.3462 27.4579 17.33 26.7882 17.3623C25.9938 17.4107 25.5421 17.8626 25.5109 18.6856C25.4798 19.5408 25.4953 20.3961 25.4953 21.2676C25.4953 21.2837 25.5109 21.2837 25.5109 21.3321C26.6168 21.3321 27.7383 21.3321 28.8754 21.3321C28.7196 22.5263 28.5794 23.7043 28.4393 24.8823C27.4579 24.8823 26.4922 24.8823 25.5109 24.8823C25.5109 24.963 25.4953 25.0114 25.4953 25.076C25.4953 28.013 25.4953 30.95 25.4953 33.8709C25.4953 33.9193 25.4953 33.9677 25.5109 34C24.3427 34 23.1589 34 21.9751 34Z" fill="white"/>
</svg>
