<svg width="37" height="27" viewBox="0 0 37 27" fill="none" xmlns="http://www.w3.org/2000/svg">
<path d="M37 20.2633C36.7497 21.3169 36.1446 22.2472 35.2908 22.891C34.6168 23.4078 33.9015 23.866 33.1525 24.2605C31.0679 25.2563 28.8544 25.9417 26.5795 26.2959C22.8158 26.9603 18.987 27.1555 15.1772 26.8772C11.9279 26.7181 8.71642 26.096 5.63562 25.029C4.38099 24.5893 3.19152 23.9751 2.10075 23.204C1.31925 22.7158 0.706767 21.99 0.348951 21.1284C-0.00886487 20.2668 -0.0940921 19.3123 0.105252 18.3988C0.343737 16.6503 1.03556 14.999 2.10892 13.6157C3.18227 12.2324 4.59811 11.1674 6.20977 10.5315C6.29783 10.4937 6.38587 10.4578 6.51796 10.4038C5.68303 9.81589 5.02059 9.00664 4.6017 8.06305C4.1828 7.11947 4.0233 6.07703 4.14031 5.04782C4.27545 3.59939 4.96437 2.26402 6.05744 1.33156C7.14173 0.397915 8.53537 -0.0749398 9.95082 0.0107893C11.3663 0.0965184 12.6956 0.734257 13.6644 1.79225C14.2006 2.39732 14.6056 3.11127 14.8531 3.88742C15.1005 4.66357 15.1848 5.48438 15.1002 6.29609C15.0157 7.10781 14.7642 7.89201 14.3624 8.59756C13.9607 9.3031 13.4175 9.91404 12.7687 10.3902C13.2759 10.635 13.7964 10.8536 14.2834 11.1326C14.7704 11.4115 15.2124 11.7437 15.6756 12.0541C16.4325 11.3269 17.4304 10.9187 18.4693 10.9113C19.5083 10.904 20.5116 11.2979 21.2782 12.0144L24.1754 10.3524C23.5201 9.85958 22.9765 9.22837 22.5813 8.50155C22.1862 7.77474 21.949 6.96946 21.8857 6.14055C21.8225 5.31165 21.9347 4.47845 22.2148 3.69783C22.4949 2.91722 22.9362 2.20741 23.5088 1.61672C24.5496 0.576234 25.949 -0.00435235 27.405 2.45689e-05C28.8611 0.00440149 30.2571 0.593502 31.2918 1.64022C31.8616 2.2408 32.2976 2.95997 32.5704 3.74858C32.8432 4.53719 32.9463 5.37653 32.8725 6.20954C32.7987 7.04255 32.5497 7.84944 32.1427 8.57515C31.7357 9.30086 31.1802 9.92837 30.5142 10.4146C31.5172 10.7797 32.4552 11.3097 33.2909 11.9838C34.3108 12.7974 35.1591 13.8134 35.7851 14.9705C36.411 16.1277 36.8015 17.402 36.9331 18.7173C36.948 18.788 36.9695 18.857 36.9974 18.9234L37 20.2633ZM14.8011 13.3121C13.8915 12.5261 12.8216 11.9576 11.6695 11.6479C10.5174 11.3383 9.31233 11.2954 8.14194 11.5223C6.44114 11.866 4.88815 12.7448 3.70086 14.0357C2.51357 15.3267 1.75146 16.9651 1.52133 18.7211C1.39714 19.3295 1.45844 19.9623 1.69698 20.5341C1.93552 21.106 2.33986 21.5893 2.85549 21.9191C3.18308 22.1494 3.51067 22.3817 3.85587 22.5805C5.5275 23.4854 7.32025 24.1342 9.17661 24.5061C9.95685 24.6861 10.7467 24.8221 11.5446 24.9796C11.5591 23.5662 11.9756 22.1876 12.7431 21.0117C13.5106 19.8359 14.5962 18.9133 15.8676 18.3566C15.1831 17.7454 14.7097 16.925 14.5176 16.0171C14.3255 15.1092 14.4249 14.1621 14.8011 13.3165V13.3121ZM25.4568 24.9479C25.5122 24.9519 25.5678 24.9519 25.6232 24.9479C27.4907 24.6589 29.3269 24.1882 31.1068 23.5423C32.4284 23.1017 33.6491 22.3926 34.6954 21.4575C34.9531 21.2488 35.1627 20.9848 35.3096 20.6842C35.4564 20.3836 35.5369 20.0538 35.5452 19.718C35.5365 19.1602 35.4776 18.6045 35.3691 18.0578C35.0049 16.1952 34.0258 14.517 32.5956 13.3037C31.1654 12.0905 29.3709 11.4158 27.5122 11.3927C25.5765 11.3373 23.6891 12.0148 22.2125 13.295C22.5952 14.1457 22.6979 15.1004 22.5051 16.0158C22.3124 16.9312 21.8347 17.7581 21.1434 18.3728C22.4124 18.9188 23.4972 19.8324 24.264 21.001C25.0308 22.1696 25.4461 23.5419 25.4585 24.9488L25.4568 24.9479ZM13.6951 5.66515C13.6848 4.84471 13.4372 4.04581 12.9833 3.36896C12.5295 2.6921 11.8897 2.16762 11.1446 1.86167C10.3995 1.55572 9.58242 1.48196 8.79639 1.64967C8.01036 1.81738 7.29048 2.21909 6.72748 2.80414C6.16448 3.38918 5.7836 4.13143 5.63271 4.93732C5.48182 5.74321 5.56774 6.57672 5.87964 7.33281C6.19153 8.08889 6.71543 8.73354 7.38537 9.18589C8.0553 9.63823 8.84126 9.87792 9.64423 9.87461C10.1806 9.87132 10.7111 9.75993 11.2052 9.54661C11.6993 9.3333 12.1474 9.02231 12.5236 8.63161C12.8998 8.24091 13.1968 7.77804 13.3975 7.26976C13.5983 6.76147 13.6988 6.21763 13.6934 5.66954L13.6951 5.66515ZM23.3265 5.67503C23.3331 6.49633 23.5778 7.29713 24.0295 7.9765C24.4812 8.65586 25.1197 9.18329 25.8645 9.49213C26.6092 9.80097 27.4269 9.87743 28.2142 9.71182C29.0014 9.54621 29.7231 9.14608 30.2879 8.56175C30.8528 7.97742 31.2356 7.23522 31.3879 6.42879C31.5403 5.62236 31.4554 4.78784 31.144 4.03066C30.8326 3.27348 30.3087 2.62744 29.6383 2.17429C28.9679 1.72113 28.1812 1.48111 27.3774 1.48446C26.2959 1.49279 25.2619 1.93923 24.5021 2.72571C23.7424 3.51218 23.3189 4.57455 23.3248 5.67965L23.3265 5.67503ZM24.009 25.1755C24.048 24.1865 23.8274 23.205 23.3704 22.3323C22.9133 21.4596 22.2363 20.7276 21.4094 20.2121C20.5425 19.613 19.5182 19.2964 18.4717 19.3041C17.4251 19.3118 16.4055 19.6435 15.5471 20.2554C14.7388 20.775 14.079 21.5034 13.6345 22.367C13.1899 23.2306 12.9763 24.1988 13.0153 25.1738C16.6664 25.6004 20.3531 25.6026 24.0046 25.1801L24.009 25.1755ZM21.1355 15.1234C21.1306 14.5949 20.973 14.0798 20.6825 13.6425C20.392 13.2052 19.9815 12.8654 19.5026 12.6658C19.0237 12.4661 18.4978 12.4157 17.9908 12.5205C17.4839 12.6254 17.0185 12.881 16.6532 13.2552C16.288 13.6294 16.0392 14.1053 15.9379 14.6236C15.8367 15.1419 15.8875 15.6792 16.0841 16.168C16.2808 16.6569 16.6144 17.0756 17.0431 17.3713C17.4718 17.667 17.9764 17.8266 18.4936 17.8302C18.8412 17.8316 19.1856 17.7626 19.5069 17.6272C19.8282 17.4918 20.12 17.2927 20.3655 17.0413C20.611 16.7899 20.8053 16.4913 20.9372 16.1628C21.069 15.8342 21.1359 15.4821 21.1338 15.1269L21.1355 15.1234Z" fill="#0E4C8F"/>
<path d="M34.2507 19.4748C34.271 20.1811 34.0394 20.5402 33.5463 20.5627C33.0531 20.5852 32.7757 20.2281 32.7493 19.5073C32.7059 18.4472 32.3701 17.4211 31.7806 16.5476C31.7322 16.4738 31.6776 16.4044 31.63 16.3297C31.5614 16.2472 31.5099 16.1516 31.4789 16.0481C31.4478 15.9445 31.4379 15.8354 31.4495 15.7277C31.4612 15.6201 31.4941 15.5165 31.5465 15.4224C31.5989 15.3283 31.6696 15.2459 31.7542 15.1807C31.8413 15.1187 31.9403 15.0762 32.0446 15.0559C32.149 15.0357 32.2563 15.0384 32.3596 15.0634C32.4629 15.0885 32.5599 15.1354 32.6442 15.2014C32.7285 15.2673 32.7982 15.3507 32.8488 15.4461C33.7061 16.6121 34.1951 18.0175 34.2507 19.4748Z" fill="#0E4C8F"/>
<path d="M30.5388 15.1641C30.4426 15.1674 30.3468 15.1501 30.2575 15.1136C30.1681 15.077 30.0872 15.0217 30.0198 14.9514C29.9524 14.8812 29.9 14.7974 29.866 14.7054C29.8319 14.6134 29.8169 14.5154 29.822 14.4172C29.8161 14.319 29.83 14.2205 29.8627 14.128C29.8955 14.0356 29.9465 13.9509 30.0125 13.8794C30.0785 13.8078 30.1581 13.7504 30.2465 13.7115C30.3349 13.6726 30.4303 13.6529 30.5265 13.6531C30.6226 13.6527 30.7178 13.6721 30.8066 13.7098C30.8953 13.7475 30.9758 13.8029 31.0433 13.8728C31.1108 13.9427 31.1639 14.0255 31.1996 14.1166C31.2353 14.2078 31.2529 14.3054 31.2513 14.4035C31.2557 14.5019 31.2405 14.6001 31.2067 14.6922C31.1729 14.7844 31.1211 14.8685 31.0545 14.9396C30.9879 15.0107 30.9078 15.0671 30.8192 15.1057C30.7305 15.1442 30.6351 15.1643 30.5388 15.1641Z" fill="#0E4C8F"/>
</svg>
