<svg xmlns="http://www.w3.org/2000/svg" version="1.1" xmlns:xlink="http://www.w3.org/1999/xlink" xmlns:svgjs="http://svgjs.com/svgjs" width="24" height="24" x="0" y="0" viewBox="0 0 512 512" style="enable-background:new 0 0 512 512" xml:space="preserve" class=""><g><path d="M403.921 0v31.347h35.36l-68.982 65.409c-24.421-24.99-58.474-40.53-96.092-40.53-50.603 0-94.759 28.112-117.687 69.535a135.342 135.342 0 0 0-5.924-.138c-74.118 0-134.417 60.299-134.417 134.418 0 68.816 51.984 125.71 118.743 133.498v41.657H87.995v31.347h46.929V512h31.347v-45.458h48.977v-31.347h-48.977v-41.657c43.948-5.127 81.488-31.533 102.013-68.616 1.964.086 3.937.138 5.922.138 74.119 0 134.418-60.299 134.418-134.417 0-25.187-6.969-48.774-19.071-68.944l74.919-71.038v38.933h31.347V0h-91.898zM150.598 363.11c-56.833 0-103.07-46.237-103.07-103.071 0-54.619 42.705-99.442 96.477-102.853a134.204 134.204 0 0 0-4.215 33.457c0 60.464 40.132 111.726 95.157 128.562-18.666 26.533-49.515 43.905-84.349 43.905zm98.446-72.51c-44.709-11.26-77.906-51.802-77.906-99.957 0-10.636 1.62-20.901 4.625-30.561 44.709 11.26 77.906 51.803 77.906 99.958 0 10.636-1.621 20.9-4.625 30.56zm31.757 2.895a134.196 134.196 0 0 0 4.215-33.456c0-60.464-40.132-111.726-95.156-128.563 18.666-26.532 49.516-43.905 84.349-43.905 56.834 0 103.071 46.237 103.071 103.071-.002 54.619-42.707 99.443-96.479 102.853z" fill="#058638" data-original="#000000" opacity="1" class=""></path></g></svg>