<svg width="26" height="41" viewBox="0 0 26 41" fill="none" xmlns="http://www.w3.org/2000/svg">
<path d="M0.00603625 20.3823C0.9578 18.3499 1.57186 16.1757 1.82411 13.9453C1.97395 12.4983 1.94499 11.0263 2.14878 9.59034C2.49348 7.21364 3.58855 5.00953 5.27391 3.3003C6.95927 1.59107 9.14657 0.466331 11.5161 0.0903376C17.6388 -0.677662 22.9514 3.5236 23.9034 9.9336C24.0712 11.0696 24.0172 12.2406 24.1031 13.3916C24.2984 15.5471 24.8233 17.6594 25.6596 19.6553C25.7055 19.7693 25.7465 19.8864 25.7894 20.0024C26.0147 20.46 26.0611 20.9855 25.9195 21.4756C25.778 21.9656 25.4586 22.3848 25.0242 22.6514C24.0092 23.3514 22.9463 23.9744 21.9024 24.6284C21.7605 24.7174 21.6097 24.7916 21.5408 24.8286C22.259 25.3024 22.9451 25.8232 23.5947 26.3877C24.1663 26.9417 24.619 27.6063 24.9254 28.3413C25.2319 29.0763 25.3855 29.8662 25.3768 30.6626C25.3998 33.3626 25.3958 36.0704 25.3768 38.7744C25.3888 39.062 25.3425 39.349 25.2406 39.6182C25.1386 39.8873 24.9833 40.133 24.7838 40.3403C24.5844 40.5477 24.345 40.7121 24.0802 40.8242C23.8154 40.9363 23.5306 40.9939 23.243 40.9927C20.4699 41.0027 17.6977 40.9927 14.9246 40.9927C14.3642 40.9927 14.0255 40.7005 14.0106 40.2275C13.9946 39.7275 14.3452 39.4024 14.9246 39.4004C16.3781 39.3934 17.8306 39.4004 19.368 39.4004V31.8745C19.368 31.7315 19.368 31.5893 19.368 31.4473C19.383 30.9003 19.6607 30.5476 20.0933 30.5357C20.5448 30.5177 20.8815 30.8774 20.8845 31.4424C20.8944 33.2744 20.8845 35.1074 20.8845 36.9424C20.8845 37.7424 20.8845 38.5367 20.8845 39.3897C21.7296 39.3897 22.5358 39.4194 23.3389 39.3774C23.7505 39.3554 23.8594 39.0016 23.8584 38.6006C23.8524 37.0006 23.8584 35.4003 23.8584 33.8003C23.8584 32.8003 23.8704 31.8075 23.8584 30.8115C23.885 29.669 23.4793 28.5583 22.7225 27.7026C21.9657 26.847 20.9138 26.3092 19.7776 26.1973C18.8226 26.1143 17.8556 26.1836 16.8995 26.1836C16.2136 28.7423 14.897 29.9996 12.9496 29.9556C10.9787 29.9146 9.68801 28.6554 9.1176 26.2554C7.98607 26.1899 6.85144 26.1993 5.72109 26.2827C4.72062 26.4767 3.81781 27.0104 3.16525 27.794C2.51269 28.5775 2.15046 29.5625 2.13982 30.5825C2.10086 33.2685 2.1228 35.9556 2.1258 38.6416C2.1258 39.1736 2.3316 39.3904 2.82509 39.4004C3.45044 39.4134 4.07582 39.4004 4.70218 39.4004C4.80207 39.4004 4.90195 39.3913 5.09075 39.3814V38.8203C5.09075 36.4543 5.09075 34.088 5.09075 31.7207C5.08224 31.5086 5.1024 31.296 5.15069 31.0894C5.18518 30.9169 5.28432 30.7646 5.42775 30.6631C5.57117 30.5615 5.74802 30.5186 5.92193 30.5435C6.09797 30.5538 6.26401 30.6286 6.38824 30.7539C6.51248 30.8792 6.58614 31.0464 6.59518 31.2227C6.61138 31.3998 6.61609 31.5776 6.60921 31.7554C6.60921 34.0887 6.60921 36.4196 6.60921 38.7476V39.3994H8.05071C9.04968 39.3994 10.0486 39.3994 11.0476 39.3994C11.631 39.3994 11.9797 39.7223 11.9707 40.2183C11.9607 40.6973 11.629 40.9917 11.0666 40.9927C8.29344 40.9927 5.52134 41.0007 2.7482 40.9927C2.45628 40.9943 2.16709 40.9359 1.89855 40.8213C1.63002 40.7067 1.3878 40.5381 1.18682 40.3262C0.985852 40.1142 0.830365 39.8633 0.73002 39.5889C0.629676 39.3144 0.58659 39.0222 0.603381 38.7305C0.591394 36.1305 0.579406 33.5355 0.603381 30.9385C0.553014 29.7045 0.874579 28.4842 1.52626 27.4356C2.17793 26.3869 3.12961 25.5587 4.25763 25.0586C4.33355 25.0216 4.41048 24.9843 4.4864 24.9453C4.49739 24.9403 4.50339 24.9233 4.51737 24.9043C3.65626 24.3863 2.79015 23.8787 1.93703 23.3467C1.53125 23.1212 1.15478 22.8461 0.816174 22.5283C0.510801 22.1577 0.237731 21.762 0 21.3447L0.00603625 20.3823ZM16.8526 24.6045C17.2989 24.5915 17.7432 24.5387 18.1803 24.4473C20.2511 23.7953 22.1986 22.8017 23.9423 21.5073C24.5477 21.0653 24.5567 21.0473 24.2719 20.3403C23.0901 17.5197 22.4867 14.4903 22.4978 11.4316C22.4993 10.9342 22.4541 10.4378 22.3629 9.94874C21.3939 4.44074 16.8496 0.971271 11.5741 1.69727C9.44958 2.08167 7.51144 3.15822 6.06082 4.75879C4.61021 6.35937 3.72839 8.39441 3.55236 10.5483C3.47744 11.5403 3.47941 12.5383 3.40548 13.5303C3.19526 15.916 2.60578 18.2531 1.6593 20.4526C1.61016 20.5344 1.57821 20.6252 1.56546 20.7197C1.55271 20.8143 1.55943 20.9106 1.58516 21.0024C1.61088 21.0943 1.65509 21.1798 1.71509 21.2539C1.77508 21.3281 1.8496 21.3893 1.93404 21.4336C3.72912 22.7736 5.73913 23.7974 7.87786 24.4614C8.29286 24.5427 8.71474 24.5839 9.1376 24.5845C9.1376 24.1115 9.11763 23.7396 9.1426 23.3696C9.16674 23.2009 9.14042 23.0288 9.067 22.875C8.99357 22.7212 8.87631 22.5925 8.73 22.5054C7.87815 21.9424 7.15773 21.2022 6.61793 20.335C6.07812 19.4677 5.73168 18.494 5.60225 17.4805C5.43166 15.4456 5.37795 13.4024 5.44141 11.3613C5.44205 11.1813 5.47823 11.0034 5.54792 10.8374C5.61762 10.6715 5.71944 10.5209 5.84748 10.3945C5.97552 10.2681 6.12725 10.1685 6.29398 10.1011C6.46071 10.0336 6.63913 9.99962 6.81895 10.0015C7.44313 9.95782 8.0695 9.95533 8.69403 9.99366C9.63707 10.0823 10.5883 9.97746 11.4896 9.68604C12.391 9.39462 13.2235 8.92246 13.9366 8.29835C14.0929 8.14984 14.2932 8.05628 14.5073 8.03174C14.7214 8.00721 14.9377 8.0533 15.1234 8.1626C15.319 8.2647 15.4808 8.42132 15.589 8.61378C15.6971 8.80623 15.7471 9.02622 15.7328 9.24659C15.7328 9.57459 15.7328 9.90144 15.7328 10.2944C15.9404 10.2414 16.1415 10.1653 16.3321 10.0674C17.0744 9.54939 17.8306 9.04166 18.5299 8.47266C18.9574 8.12866 19.355 7.84566 19.9055 8.09766C20.1483 8.22324 20.3453 8.42233 20.4685 8.66651C20.5917 8.91069 20.6349 9.18738 20.5918 9.45753C20.5838 11.5205 20.5918 13.5845 20.5918 15.6475C20.6435 17.0063 20.3544 18.3564 19.751 19.5747C19.1476 20.7931 18.2491 21.8411 17.1373 22.6226C17.0016 22.7147 16.9061 22.8553 16.8706 23.0156C16.8336 23.5046 16.8526 23.9995 16.8526 24.6045ZM6.92285 11.5703C6.92285 12.7423 6.89687 13.8066 6.93083 14.8706C6.91821 15.757 6.98916 16.6426 7.14265 17.5156C7.42999 18.9337 8.22068 20.1992 9.36844 21.0786C10.5162 21.9581 11.9433 22.3919 13.3858 22.2993C14.8282 22.2067 16.1884 21.5942 17.2145 20.5752C18.2407 19.5562 18.8634 18.1995 18.9674 16.7564C19.1402 14.6914 19.0424 12.6005 19.0674 10.5205C19.0651 10.4507 19.0554 10.3812 19.0383 10.3135C18.2587 10.8065 17.4508 11.2532 16.6188 11.6514C15.0275 12.3094 14.4211 11.9026 14.1484 10.0596C11.9877 11.8286 9.47122 11.6184 6.92285 11.5684V11.5703ZM15.3202 23.5303C13.8058 24.0277 12.1724 24.0277 10.658 23.5303C10.658 24.3943 10.643 25.1746 10.658 25.9526C10.6456 26.2611 10.6946 26.5686 10.8021 26.8579C10.9097 27.1472 11.0736 27.4124 11.2844 27.6377C11.4952 27.863 11.7487 28.0441 12.0301 28.1704C12.3114 28.2967 12.6151 28.3658 12.9233 28.3735C13.2316 28.3813 13.5382 28.3273 13.8256 28.2153C14.1129 28.1033 14.3752 27.9351 14.597 27.7207C14.8188 27.5063 14.9959 27.2503 15.1178 26.9668C15.2397 26.6833 15.3041 26.378 15.3072 26.0693C15.3601 25.2593 15.3202 24.4423 15.3202 23.5283V23.5303Z" fill="#058638"/>
</svg>
