<svg width="35" height="35" viewBox="0 0 35 35" fill="none" xmlns="http://www.w3.org/2000/svg">
<path d="M29 0H6C2.68629 0 0 2.68629 0 6V29C0 32.3137 2.68629 35 6 35H29C32.3137 35 35 32.3137 35 29V6C35 2.68629 32.3137 0 29 0Z" fill="white"/>
<path d="M29 0.125H6C2.75533 0.125 0.125 2.75533 0.125 6V29C0.125 32.2447 2.75533 34.875 6 34.875H29C32.2447 34.875 34.875 32.2447 34.875 29V6C34.875 2.75533 32.2447 0.125 29 0.125Z" fill="white" stroke="#0E4C8F" stroke-width="0.25"/>
<path d="M18.1223 21.4361L18.1223 9.39514" stroke="#0E4C8F" stroke-width="1.5" stroke-linecap="round" stroke-linejoin="round"/>
<path d="M21.0383 18.5084L18.1223 21.4364L15.2063 18.5084" stroke="#0E4C8F" stroke-width="1.5" stroke-linecap="round" stroke-linejoin="round"/>
<path d="M22.7551 14.1281H23.6881C25.7231 14.1281 27.3721 15.7771 27.3721 17.8131V22.6971C27.3721 24.7271 25.7271 26.3721 23.6971 26.3721L12.5571 26.3721C10.5221 26.3721 8.87207 24.7221 8.87207 22.6871V17.8021C8.87207 15.7731 10.5181 14.1281 12.5471 14.1281L13.4891 14.1281" stroke="#0E4C8F" stroke-width="1.5" stroke-linecap="round" stroke-linejoin="round"/>
</svg>
