<svg width="48" height="48" viewBox="0 0 48 48" fill="none" xmlns="http://www.w3.org/2000/svg">
<rect x="0.125" y="0.125" width="47.75" height="47.75" rx="4.875" fill="white" stroke="#0E4C8F" stroke-width="0.25"/>
<path d="M34.77 18.2485C34.4036 16.4359 33.6226 14.873 32.5115 13.7287C31.429 12.614 30.1029 12 28.7777 12C27.7618 12 26.7924 12.3451 25.897 13.0256C25.1898 13.5631 24.5539 14.2942 23.9981 15.2067C22.7344 13.1291 21.066 12 19.2207 12C17.8959 12 16.5704 12.614 15.4881 13.7287C14.3773 14.873 13.5965 16.4359 13.2301 18.2483C12.8318 20.2191 12.7546 23.3689 14.6501 27.1817C16.4046 30.7109 19.4458 33.9809 23.6895 36.9007C23.7856 36.9668 23.8917 37 23.998 37C24.1042 37 24.2103 36.967 24.3065 36.9007C28.5513 33.9807 31.5935 30.7107 33.3487 27.1817C35.245 23.3689 35.1683 20.2194 34.77 18.2485V18.2485ZM23.998 35.259C18.9678 31.7278 16.4786 28.2255 15.2956 25.3129H17.0971C17.3413 25.3129 17.5644 25.1389 17.6735 24.8636L18.4777 22.8349L20.6622 28.3462C20.7713 28.6216 20.9945 28.7957 21.2386 28.7957C21.4826 28.7957 21.7059 28.6216 21.815 28.3462L23.9995 22.8349L24.8036 24.8636C24.9129 25.1391 25.136 25.3129 25.38 25.3129H30.2674C30.6232 25.3129 30.9117 24.949 30.9117 24.5001C30.9117 24.0513 30.6232 23.6873 30.2674 23.6873H25.7783L24.576 20.6538C24.4668 20.3784 24.2437 20.2045 23.9995 20.2045C23.7554 20.2045 23.5324 20.3784 23.4233 20.6538L21.2386 26.1651L19.054 20.6538C18.9448 20.3784 18.7217 20.2045 18.4777 20.2045C18.2334 20.2045 18.0104 20.3784 17.9013 20.6538L16.6988 23.6873H14.7453C14.1066 21.3319 14.3025 19.5232 14.479 18.6501C15.0771 15.692 17.0268 13.6258 19.2207 13.6258C20.88 13.6258 22.3809 14.8487 23.4468 17.0688C23.5634 17.312 23.7724 17.4607 23.9978 17.4607H23.998C24.2232 17.4607 24.4324 17.3122 24.5492 17.069C25.6158 14.8487 27.1176 13.6258 28.7777 13.6258C30.9725 13.6258 32.923 15.692 33.5211 18.6501C33.9358 20.7021 34.4582 27.9175 23.998 35.259V35.259Z" fill="#0E4C8F"/>
</svg>
