<svg xmlns="http://www.w3.org/2000/svg" version="1.1" xmlns:xlink="http://www.w3.org/1999/xlink" xmlns:svgjs="http://svgjs.com/svgjs" width="25" height="25" x="0" y="0" viewBox="0 0 32 32" style="enable-background:new 0 0 512 512" xml:space="preserve" class=""><g><path d="m26.8 18-8.47 8.46a2.22 2.22 0 0 1-3.12 0l-7.28-7.29a.5.5 0 0 1 0-.71.51.51 0 0 1 .71 0l7.27 7.28a1.23 1.23 0 0 0 1.72 0l8.46-8.46c3.48-3.49 2.75-7.39.59-9.55s-6.07-2.9-9.56.59a.51.51 0 0 1-.7 0C13.23 5.12 9.84 5.54 7.74 7a6.17 6.17 0 0 0-2.19 7.5H8.8l1.46-6a.79.79 0 0 1 .79-.57.78.78 0 0 1 .71.64l1.88 9.16 1.36-6.1a.75.75 0 0 1 1.46 0l.71 2.81h7a.5.5 0 0 1 0 1h-7a1 1 0 0 1-1-.78l-.45-1.78L14.38 19a.76.76 0 0 1-.75.59.75.75 0 0 1-.73-.64L11 9.77l-1.2 4.94a1 1 0 0 1-1 .79H3a.5.5 0 0 1-.5-.5.5.5 0 0 1 .5-.5h1.47a7.13 7.13 0 0 1 2.7-8.32c2.25-1.56 6.07-2.18 9.6 1.09C20.65 3.7 25 4.59 27.38 7s3.39 7-.58 11z" data-name="Layer 46" fill="#058638" data-original="#000000" opacity="1" class=""></path></g></svg>