<svg width="24" height="24" viewBox="0 0 24 24" fill="none" xmlns="http://www.w3.org/2000/svg">
<path d="M15.375 22.125C15.2755 22.125 15.1802 22.0855 15.1098 22.0152C15.0395 21.9448 15 21.8495 15 21.75V2.25C15 2.15054 15.0395 2.05516 15.1098 1.98484C15.1802 1.91451 15.2755 1.875 15.375 1.875C15.4745 1.875 15.5698 1.91451 15.6402 1.98484C15.7105 2.05516 15.75 2.15054 15.75 2.25V21.75C15.75 21.8495 15.7105 21.9448 15.6402 22.0152C15.5698 22.0855 15.4745 22.125 15.375 22.125Z" fill="#058638"/>
<path d="M16.875 5.87512H15.375C15.2755 5.87512 15.1802 5.83562 15.1098 5.76529C15.0395 5.69496 15 5.59958 15 5.50012C15 5.40067 15.0395 5.30529 15.1098 5.23496C15.1802 5.16463 15.2755 5.12512 15.375 5.12512H16.875C16.9745 5.12512 17.0698 5.16463 17.1402 5.23496C17.2105 5.30529 17.25 5.40067 17.25 5.50012C17.25 5.59958 17.2105 5.69496 17.1402 5.76529C17.0698 5.83562 16.9745 5.87512 16.875 5.87512ZM16.875 4.24988H15.375C15.2755 4.24988 15.1802 4.21037 15.1098 4.14004C15.0395 4.06971 15 3.97433 15 3.87488C15 3.77542 15.0395 3.68004 15.1098 3.60971C15.1802 3.53938 15.2755 3.49988 15.375 3.49988H16.875C16.9745 3.49988 17.0698 3.53938 17.1402 3.60971C17.2105 3.68004 17.25 3.77542 17.25 3.87488C17.25 3.97433 17.2105 4.06971 17.1402 4.14004C17.0698 4.21037 16.9745 4.24988 16.875 4.24988ZM16.875 10.7501H15.375C15.2755 10.7501 15.1802 10.7106 15.1098 10.6403C15.0395 10.57 15 10.4746 15 10.3751C15 10.2757 15.0395 10.1803 15.1098 10.11C15.1802 10.0396 15.2755 10.0001 15.375 10.0001H16.875C16.9745 10.0001 17.0698 10.0396 17.1402 10.11C17.2105 10.1803 17.25 10.2757 17.25 10.3751C17.25 10.4746 17.2105 10.57 17.1402 10.6403C17.0698 10.7106 16.9745 10.7501 16.875 10.7501ZM16.875 9.12488H15.375C15.2755 9.12488 15.1802 9.08537 15.1098 9.01504C15.0395 8.94471 15 8.84933 15 8.74988C15 8.65042 15.0395 8.55504 15.1098 8.48471C15.1802 8.41438 15.2755 8.37488 15.375 8.37488H16.875C16.9745 8.37488 17.0698 8.41438 17.1402 8.48471C17.2105 8.55504 17.25 8.65042 17.25 8.74988C17.25 8.84933 17.2105 8.94471 17.1402 9.01504C17.0698 9.08537 16.9745 9.12488 16.875 9.12488ZM16.875 15.6251H15.375C15.2755 15.6251 15.1802 15.5856 15.1098 15.5153C15.0395 15.445 15 15.3496 15 15.2501C15 15.1507 15.0395 15.0553 15.1098 14.985C15.1802 14.9146 15.2755 14.8751 15.375 14.8751H16.875C16.9745 14.8751 17.0698 14.9146 17.1402 14.985C17.2105 15.0553 17.25 15.1507 17.25 15.2501C17.25 15.3496 17.2105 15.445 17.1402 15.5153C17.0698 15.5856 16.9745 15.6251 16.875 15.6251ZM16.875 13.9999H15.375C15.2755 13.9999 15.1802 13.9604 15.1098 13.89C15.0395 13.8197 15 13.7243 15 13.6249C15 13.5254 15.0395 13.43 15.1098 13.3597C15.1802 13.2894 15.2755 13.2499 15.375 13.2499H16.875C16.9745 13.2499 17.0698 13.2894 17.1402 13.3597C17.2105 13.43 17.25 13.5254 17.25 13.6249C17.25 13.7243 17.2105 13.8197 17.1402 13.89C17.0698 13.9604 16.9745 13.9999 16.875 13.9999ZM16.875 20.5001H15.375C15.2755 20.5001 15.1802 20.4606 15.1098 20.3903C15.0395 20.32 15 20.2246 15 20.1251C15 20.0257 15.0395 19.9303 15.1098 19.86C15.1802 19.7896 15.2755 19.7501 15.375 19.7501H16.875C16.9745 19.7501 17.0698 19.7896 17.1402 19.86C17.2105 19.9303 17.25 20.0257 17.25 20.1251C17.25 20.2246 17.2105 20.32 17.1402 20.3903C17.0698 20.4606 16.9745 20.5001 16.875 20.5001ZM16.875 18.8749H15.375C15.2755 18.8749 15.1802 18.8354 15.1098 18.765C15.0395 18.6947 15 18.5993 15 18.4999C15 18.4004 15.0395 18.305 15.1098 18.2347C15.1802 18.1644 15.2755 18.1249 15.375 18.1249H16.875C16.9745 18.1249 17.0698 18.1644 17.1402 18.2347C17.2105 18.305 17.25 18.4004 17.25 18.4999C17.25 18.5993 17.2105 18.6947 17.1402 18.765C17.0698 18.8354 16.9745 18.8749 16.875 18.8749ZM18.375 17.25H15.375C15.2755 17.25 15.1802 17.2105 15.1098 17.1402C15.0395 17.0698 15 16.9745 15 16.875C15 16.7755 15.0395 16.6802 15.1098 16.6098C15.1802 16.5395 15.2755 16.5 15.375 16.5H18.375C18.4745 16.5 18.5698 16.5395 18.6402 16.6098C18.7105 16.6802 18.75 16.7755 18.75 16.875C18.75 16.9745 18.7105 17.0698 18.6402 17.1402C18.5698 17.2105 18.4745 17.25 18.375 17.25ZM18.375 7.5H15.375C15.2755 7.5 15.1802 7.46049 15.1098 7.39017C15.0395 7.31984 15 7.22446 15 7.125C15 7.02554 15.0395 6.93016 15.1098 6.85983C15.1802 6.78951 15.2755 6.75 15.375 6.75H18.375C18.4745 6.75 18.5698 6.78951 18.6402 6.85983C18.7105 6.93016 18.75 7.02554 18.75 7.125C18.75 7.22446 18.7105 7.31984 18.6402 7.39017C18.5698 7.46049 18.4745 7.5 18.375 7.5ZM18.375 12.375H15.375C15.2755 12.375 15.1802 12.3355 15.1098 12.2652C15.0395 12.1948 15 12.0995 15 12C15 11.9005 15.0395 11.8052 15.1098 11.7348C15.1802 11.6645 15.2755 11.625 15.375 11.625H18.375C18.4745 11.625 18.5698 11.6645 18.6402 11.7348C18.7105 11.8052 18.75 11.9005 18.75 12C18.75 12.0995 18.7105 12.1948 18.6402 12.2652C18.5698 12.3355 18.4745 12.375 18.375 12.375ZM18.375 2.625H15.375C15.2755 2.625 15.1802 2.58549 15.1098 2.51516C15.0395 2.44484 15 2.34946 15 2.25C15 2.15054 15.0395 2.05516 15.1098 1.98484C15.1802 1.91451 15.2755 1.875 15.375 1.875H18.375C18.4745 1.875 18.5698 1.91451 18.6402 1.98484C18.7105 2.05516 18.75 2.15054 18.75 2.25C18.75 2.34946 18.7105 2.44484 18.6402 2.51516C18.5698 2.58549 18.4745 2.625 18.375 2.625ZM18.375 22.125H15.375C15.2755 22.125 15.1802 22.0855 15.1098 22.0152C15.0395 21.9448 15 21.8495 15 21.75C15 21.6505 15.0395 21.5552 15.1098 21.4848C15.1802 21.4145 15.2755 21.375 15.375 21.375H18.375C18.4745 21.375 18.5698 21.4145 18.6402 21.4848C18.7105 21.5552 18.75 21.6505 18.75 21.75C18.75 21.8495 18.7105 21.9448 18.6402 22.0152C18.5698 22.0855 18.4745 22.125 18.375 22.125ZM13.125 10.875C13.0255 10.875 12.9302 10.8355 12.8598 10.7652C12.7895 10.6948 12.75 10.5995 12.75 10.5C12.75 9.46613 11.9089 8.625 10.875 8.625C10.7755 8.625 10.6802 8.58549 10.6098 8.51517C10.5395 8.44484 10.5 8.34946 10.5 8.25C10.5 8.15054 10.5395 8.05516 10.6098 7.98483C10.6802 7.91451 10.7755 7.875 10.875 7.875C12.3225 7.875 13.5 9.05288 13.5 10.5C13.5 10.5995 13.4605 10.6948 13.3902 10.7652C13.3198 10.8355 13.2245 10.875 13.125 10.875Z" fill="#058638"/>
<path d="M13.125 15.2295C13.0255 15.2295 12.9302 15.19 12.8598 15.1197C12.7895 15.0493 12.75 14.954 12.75 14.8545V10.5C12.75 10.4005 12.7895 10.3052 12.8598 10.2348C12.9302 10.1645 13.0255 10.125 13.125 10.125C13.2245 10.125 13.3198 10.1645 13.3902 10.2348C13.4605 10.3052 13.5 10.4005 13.5 10.5V14.8545C13.5 14.954 13.4605 15.0493 13.3902 15.1197C13.3198 15.19 13.2245 15.2295 13.125 15.2295ZM10.875 8.625H7.875C7.77554 8.625 7.68016 8.58549 7.60983 8.51517C7.53951 8.44484 7.5 8.34946 7.5 8.25C7.5 8.15054 7.53951 8.05516 7.60983 7.98483C7.68016 7.91451 7.77554 7.875 7.875 7.875H10.875C10.9745 7.875 11.0698 7.91451 11.1402 7.98483C11.2105 8.05516 11.25 8.15054 11.25 8.25C11.25 8.34946 11.2105 8.44484 11.1402 8.51517C11.0698 8.58549 10.9745 8.625 10.875 8.625Z" fill="#058638"/>
<path d="M5.625 10.875C5.52554 10.875 5.43016 10.8355 5.35984 10.7652C5.28951 10.6948 5.25 10.5995 5.25 10.5C5.25 9.05288 6.4275 7.875 7.875 7.875C7.97446 7.875 8.06984 7.91451 8.14017 7.98483C8.21049 8.05516 8.25 8.15054 8.25 8.25C8.25 8.34946 8.21049 8.44484 8.14017 8.51517C8.06984 8.58549 7.97446 8.625 7.875 8.625C6.84113 8.625 6 9.46613 6 10.5C6 10.5995 5.96049 10.6948 5.89016 10.7652C5.81984 10.8355 5.72446 10.875 5.625 10.875Z" fill="#058638"/>
<path d="M5.625 15.2295C5.52554 15.2295 5.43016 15.19 5.35984 15.1197C5.28951 15.0493 5.25 14.954 5.25 14.8545V10.5C5.25 10.4005 5.28951 10.3052 5.35984 10.2348C5.43016 10.1645 5.52554 10.125 5.625 10.125C5.72446 10.125 5.81984 10.1645 5.89016 10.2348C5.96049 10.3052 6 10.4005 6 10.5V14.8545C6 14.954 5.96049 15.0493 5.89016 15.1197C5.81984 15.19 5.72446 15.2295 5.625 15.2295ZM12.375 15.9551C11.8159 15.9551 11.25 15.5771 11.25 14.8545C11.25 14.755 11.2895 14.6597 11.3598 14.5893C11.4302 14.519 11.5255 14.4795 11.625 14.4795C11.7245 14.4795 11.8198 14.519 11.8902 14.5893C11.9605 14.6597 12 14.755 12 14.8545C12 15.1882 12.3124 15.2051 12.375 15.2051C12.4376 15.2051 12.75 15.1882 12.75 14.8545C12.75 14.755 12.7895 14.6597 12.8598 14.5893C12.9302 14.519 13.0255 14.4795 13.125 14.4795C13.2245 14.4795 13.3198 14.519 13.3902 14.5893C13.4605 14.6597 13.5 14.755 13.5 14.8545C13.5 15.5771 12.9341 15.9551 12.375 15.9551Z" fill="#058638"/>
<path d="M6.375 15.9551C5.81587 15.9551 5.25 15.5771 5.25 14.8545C5.25 14.755 5.28951 14.6597 5.35984 14.5893C5.43016 14.519 5.52554 14.4795 5.625 14.4795C5.72446 14.4795 5.81984 14.519 5.89016 14.5893C5.96049 14.6597 6 14.755 6 14.8545C6 15.1882 6.31238 15.2051 6.375 15.2051C6.43762 15.2051 6.75 15.1882 6.75 14.8545C6.75 14.755 6.78951 14.6597 6.85983 14.5893C6.93016 14.519 7.02554 14.4795 7.125 14.4795C7.22446 14.4795 7.31984 14.519 7.39017 14.5893C7.46049 14.6597 7.5 14.755 7.5 14.8545C7.5 15.5771 6.93413 15.9551 6.375 15.9551Z" fill="#058638"/>
<path d="M7.125 15.375C7.02554 15.375 6.93016 15.3355 6.85983 15.2652C6.78951 15.1948 6.75 15.0995 6.75 15V10.5C6.75 10.4005 6.78951 10.3052 6.85983 10.2348C6.93016 10.1645 7.02554 10.125 7.125 10.125C7.22446 10.125 7.31984 10.1645 7.39017 10.2348C7.46049 10.3052 7.5 10.4005 7.5 10.5V15C7.5 15.0995 7.46049 15.1948 7.39017 15.2652C7.31984 15.3355 7.22446 15.375 7.125 15.375ZM11.625 15.375C11.5255 15.375 11.4302 15.3355 11.3598 15.2652C11.2895 15.1948 11.25 15.0995 11.25 15V10.5C11.25 10.4005 11.2895 10.3052 11.3598 10.2348C11.4302 10.1645 11.5255 10.125 11.625 10.125C11.7245 10.125 11.8198 10.1645 11.8902 10.2348C11.9605 10.3052 12 10.4005 12 10.5V15C12 15.0995 11.9605 15.1948 11.8902 15.2652C11.8198 15.3355 11.7245 15.375 11.625 15.375Z" fill="#058638"/>
<path d="M7.125 21C7.02554 21 6.93016 20.9605 6.85983 20.8902C6.78951 20.8198 6.75 20.7245 6.75 20.625V15C6.75 14.9005 6.78951 14.8052 6.85983 14.7348C6.93016 14.6645 7.02554 14.625 7.125 14.625C7.22446 14.625 7.31984 14.6645 7.39017 14.7348C7.46049 14.8052 7.5 14.9005 7.5 15V20.625C7.5 20.7245 7.46049 20.8198 7.39017 20.8902C7.31984 20.9605 7.22446 21 7.125 21ZM11.625 21C11.5255 21 11.4302 20.9605 11.3598 20.8902C11.2895 20.8198 11.25 20.7245 11.25 20.625V15C11.25 14.9005 11.2895 14.8052 11.3598 14.7348C11.4302 14.6645 11.5255 14.625 11.625 14.625C11.7245 14.625 11.8198 14.6645 11.8902 14.7348C11.9605 14.8052 12 14.9005 12 15V20.625C12 20.7245 11.9605 20.8198 11.8902 20.8902C11.8198 20.9605 11.7245 21 11.625 21ZM9.375 21C9.27554 21 9.18016 20.9605 9.10983 20.8902C9.03951 20.8198 9 20.7245 9 20.625V15C9 14.9005 9.03951 14.8052 9.10983 14.7348C9.18016 14.6645 9.27554 14.625 9.375 14.625C9.47446 14.625 9.56984 14.6645 9.64017 14.7348C9.71049 14.8052 9.75 14.9005 9.75 15V20.625C9.75 20.7245 9.71049 20.8198 9.64017 20.8902C9.56984 20.9605 9.47446 21 9.375 21Z" fill="#058638"/>
<path d="M10.5 22.0883C10.1156 22.0883 9.75412 21.9592 9.48225 21.7252C9.17137 21.4582 9 21.0675 9 20.625C9 20.5255 9.03951 20.4302 9.10983 20.3598C9.18016 20.2895 9.27554 20.25 9.375 20.25C9.47446 20.25 9.56984 20.2895 9.64017 20.3598C9.71049 20.4302 9.75 20.5255 9.75 20.625C9.75 21.1511 10.1539 21.3383 10.5 21.3383C10.8461 21.3383 11.25 21.1511 11.25 20.625C11.25 20.5255 11.2895 20.4302 11.3598 20.3598C11.4302 20.2895 11.5255 20.25 11.625 20.25C11.7245 20.25 11.8198 20.2895 11.8902 20.3598C11.9605 20.4302 12 20.5255 12 20.625C12 21.5858 11.2455 22.0883 10.5 22.0883Z" fill="#058638"/>
<path d="M8.25 22.0882C7.86563 22.0882 7.50412 21.9592 7.23225 21.7252C6.92137 21.4582 6.75 21.0675 6.75 20.625C6.75 20.5255 6.78951 20.4302 6.85983 20.3598C6.93016 20.2895 7.02554 20.25 7.125 20.25C7.22446 20.25 7.31984 20.2895 7.39017 20.3598C7.46049 20.4302 7.5 20.5255 7.5 20.625C7.5 21.1511 7.90388 21.3382 8.25 21.3382C8.59612 21.3382 9 21.1511 9 20.625C9 20.5255 9.03951 20.4302 9.10983 20.3598C9.18016 20.2895 9.27554 20.25 9.375 20.25C9.47446 20.25 9.56984 20.2895 9.64017 20.3598C9.71049 20.4302 9.75 20.5255 9.75 20.625C9.75 21.5857 8.9955 22.0882 8.25 22.0882ZM9.375 7.125C7.95225 7.125 6.75 5.92275 6.75 4.5C6.75 3.07725 7.95225 1.875 9.375 1.875C10.7977 1.875 12 3.07725 12 4.5C12 5.92275 10.7977 7.125 9.375 7.125ZM9.375 2.625C8.35875 2.625 7.5 3.48375 7.5 4.5C7.5 5.51625 8.35875 6.375 9.375 6.375C10.3913 6.375 11.25 5.51625 11.25 4.5C11.25 3.48375 10.3913 2.625 9.375 2.625Z" fill="#058638"/>
</svg>
