<svg width="48" height="48" viewBox="0 0 48 48" fill="none" xmlns="http://www.w3.org/2000/svg">
<rect x="0.125" y="0.125" width="47.75" height="47.75" rx="4.875" fill="white" stroke="#0E4C8F" stroke-width="0.25"/>
<path d="M35.9964 23.9943C35.9964 26.8135 35.9964 29.6327 35.9964 32.452C35.9964 34.5622 34.5798 35.9802 32.4799 35.9802C31.255 35.9802 30.0218 35.9802 28.7969 35.9802C26.7887 35.9718 25.3388 34.5539 25.3388 32.5437C25.3304 26.8385 25.3304 21.1417 25.3388 15.4365C25.3388 13.4263 26.7887 12.0083 28.7969 12C30.0468 12 31.2967 12 32.5466 12C34.5631 12.0083 35.9964 13.443 35.9964 15.4698C36.0047 18.3141 35.9964 21.15 35.9964 23.9943ZM26.672 23.9943C26.672 26.8218 26.672 29.6494 26.672 32.4853C26.672 33.8366 27.497 34.654 28.8552 34.654C30.0634 34.654 31.2717 34.654 32.4799 34.654C33.8465 34.654 34.6715 33.8199 34.6715 32.452C34.6715 26.8135 34.6715 21.175 34.6715 15.5366C34.6715 14.1686 33.8465 13.3345 32.4799 13.3345C31.28 13.3345 30.0884 13.3596 28.8885 13.3262C27.5553 13.2928 26.647 14.2687 26.6637 15.5366C26.697 18.3558 26.672 21.175 26.672 23.9943Z" fill="#0E4C8F"/>
<path d="M17.3478 14.3188C17.3478 20.783 17.3478 27.1972 17.3478 33.6781C17.4562 33.578 17.5395 33.5113 17.6145 33.4362C18.4394 32.6104 19.256 31.7847 20.0977 30.9673C20.2393 30.8338 20.4393 30.7254 20.6226 30.6837C20.8893 30.6253 21.1142 30.7671 21.2476 31.009C21.3809 31.2425 21.3642 31.4928 21.2059 31.718C21.1476 31.8014 21.0726 31.8764 20.9976 31.9515C19.7643 33.186 18.5228 34.4204 17.2895 35.6549C16.8312 36.1136 16.5146 36.1136 16.0646 35.6632C14.8147 34.4121 13.5564 33.1609 12.3149 31.9098C12.1899 31.7847 12.0649 31.6179 12.0232 31.4427C11.9482 31.1508 12.0815 30.9089 12.3399 30.7588C12.6148 30.6086 12.8898 30.6336 13.1231 30.8422C13.4148 31.1091 13.6898 31.3927 13.9647 31.6763C14.623 32.3352 15.2813 32.9941 15.9813 33.6948C15.9813 27.2139 15.9813 20.7913 15.9813 14.3271C15.8896 14.4022 15.8229 14.4606 15.7646 14.519C14.923 15.3531 14.0897 16.2038 13.2398 17.0296C13.0981 17.1714 12.8815 17.2715 12.6815 17.3132C12.4232 17.3632 12.2232 17.2131 12.0899 16.9879C11.9565 16.746 11.9732 16.5041 12.1315 16.2872C12.1815 16.2122 12.2565 16.1454 12.3232 16.0787C13.5731 14.8276 14.823 13.5764 16.0813 12.3253C16.5146 11.8999 16.8312 11.8916 17.2562 12.3086C18.5144 13.5681 19.7727 14.8276 21.0226 16.0871C21.1392 16.2038 21.2559 16.3623 21.2976 16.5208C21.3726 16.8044 21.2726 17.0629 21.0143 17.2214C20.7476 17.3799 20.4643 17.3716 20.231 17.163C19.9477 16.9128 19.6977 16.6376 19.431 16.379C18.8227 15.7701 18.2061 15.1612 17.5978 14.544C17.5312 14.4773 17.4562 14.4189 17.3478 14.3188Z" fill="#0E4C8F"/>
</svg>
