<svg width="29" height="27" viewBox="0 0 29 27" fill="none" xmlns="http://www.w3.org/2000/svg">
<path d="M0 27C9.66162 27 19.3232 27 29 27C29 26.6864 29 26.4034 29 26.0898C28.4094 26.0898 27.8264 26.0898 27.2131 26.0898C27.2131 21.9595 27.2131 17.8598 27.2131 13.7295C25.6911 13.7295 24.207 13.7295 22.6851 13.7295C22.6851 10.211 22.6851 6.71558 22.6851 3.18952C21.1556 3.18952 19.664 3.18952 18.1496 3.18952C18.1496 2.11105 18.1496 1.06317 18.1496 0C15.7266 0 13.3264 0 10.8883 0C10.8883 1.04788 10.8883 2.1034 10.8883 3.17422C9.36632 3.17422 7.88225 3.17422 6.36031 3.17422C6.36031 6.69263 6.36031 10.1881 6.36031 13.7142C4.83081 13.7142 3.33916 13.7142 1.8248 13.7142C1.8248 17.8445 1.8248 21.9442 1.8248 26.0822C1.20392 26.0822 0.605745 26.0822 0.00757217 26.0822C0 26.3881 0 26.694 0 27ZM10.8883 4.11501C10.8883 5.18584 10.8883 6.24136 10.8883 7.28924C13.3112 7.28924 15.7115 7.28924 18.1345 7.28924C18.1345 6.22606 18.1345 5.17054 18.1345 4.11501C19.3611 4.11501 20.5499 4.11501 21.7462 4.11501C21.7462 11.4425 21.7462 18.747 21.7462 26.0592C20.5423 26.0592 19.346 26.0592 18.1193 26.0592C18.1193 24.3765 18.1193 22.7167 18.1193 21.0493C15.6963 21.0493 13.2961 21.0493 10.8731 21.0493C10.8731 22.7244 10.8731 24.3918 10.8731 26.0516C9.64647 26.0516 8.4577 26.0516 7.26136 26.0516C7.26136 18.7241 7.26136 11.4195 7.26136 4.09972C8.46527 4.11501 9.65405 4.11501 10.8883 4.11501ZM26.2893 26.0745C25.0702 26.0745 23.889 26.0745 22.6927 26.0745C22.6927 22.2578 22.6927 18.464 22.6927 14.655C23.9042 14.655 25.093 14.655 26.2893 14.655C26.2893 18.464 26.2893 22.2578 26.2893 26.0745ZM2.73342 14.655C3.94491 14.655 5.13368 14.655 6.33003 14.655C6.33003 18.4717 6.33003 22.2731 6.33003 26.0745C5.12611 26.0745 3.93734 26.0745 2.73342 26.0745C2.73342 22.2654 2.73342 18.4717 2.73342 14.655ZM11.8044 26.0745C11.8044 24.6977 11.8044 23.3363 11.8044 21.9901C13.6217 21.9901 15.4162 21.9901 17.2107 21.9901C17.2107 23.3669 17.2107 24.713 17.2107 26.0745C15.4086 26.0745 13.6141 26.0745 11.8044 26.0745Z" fill="#058638"/>
<path d="M19.0205 9.6068C17.8166 9.6068 16.6278 9.6068 15.4315 9.6068C15.4315 10.8153 15.4315 12.0161 15.4315 13.2323C16.6202 13.2323 17.809 13.2323 19.0205 13.2323C19.0205 12.0391 19.0205 10.8382 19.0205 9.6068ZM16.3401 12.3297C16.3401 11.7102 16.3401 11.1212 16.3401 10.5323C16.9458 10.5323 17.5364 10.5323 18.1195 10.5323C18.1195 11.1442 18.1195 11.7331 18.1195 12.3297C17.5213 12.3297 16.9458 12.3297 16.3401 12.3297Z" fill="#058638"/>
<path d="M9.98689 9.62209C9.98689 10.8306 9.98689 12.0314 9.98689 13.2476C11.1908 13.2476 12.3796 13.2476 13.5911 13.2476C13.5911 12.0391 13.5911 10.8459 13.5911 9.62209C12.3947 9.62209 11.2059 9.62209 9.98689 9.62209ZM10.9031 12.3297C10.9031 11.7102 10.9031 11.1212 10.9031 10.5323C11.5088 10.5323 12.0994 10.5323 12.6824 10.5323C12.6824 11.1442 12.6824 11.7255 12.6824 12.3297C12.0843 12.3297 11.5012 12.3297 10.9031 12.3297Z" fill="#058638"/>
<path d="M19.0278 18.7317C19.0278 17.5156 19.0278 16.3224 19.0278 15.1062C17.8239 15.1062 16.6351 15.1062 15.4237 15.1062C15.4237 16.3147 15.4237 17.5156 15.4237 18.7317C16.62 18.7317 17.8088 18.7317 19.0278 18.7317ZM18.1192 17.8215C17.5059 17.8215 16.9229 17.8215 16.3398 17.8215C16.3398 17.2096 16.3398 16.613 16.3398 16.0241C16.9456 16.0241 17.5286 16.0241 18.1192 16.0241C18.1192 16.6283 18.1192 17.2096 18.1192 17.8215Z" fill="#058638"/>
<path d="M13.5911 18.7394C13.5911 17.5309 13.5911 16.33 13.5911 15.1139C12.4023 15.1139 11.2059 15.1139 9.99446 15.1139C9.99446 16.3147 9.99446 17.5232 9.99446 18.7394C11.1832 18.7394 12.3644 18.7394 13.5911 18.7394ZM12.6824 17.8215C12.0691 17.8215 11.4861 17.8215 10.9031 17.8215C10.9031 17.2096 10.9031 16.613 10.9031 16.0241C11.5088 16.0241 12.0918 16.0241 12.6824 16.0241C12.6824 16.6283 12.6824 17.2096 12.6824 17.8215Z" fill="#058638"/>
</svg>
