<svg xmlns="http://www.w3.org/2000/svg" version="1.1" xmlns:xlink="http://www.w3.org/1999/xlink" xmlns:svgjs="http://svgjs.com/svgjs" width="24" height="24" x="0" y="0" viewBox="0 0 512 512" style="enable-background:new 0 0 512 512" xml:space="preserve"><g>
<g>
	<g>
		
			<line style="stroke-linecap: round; stroke-linejoin: round; stroke-miterlimit: 10;" x1="90.021" y1="280.642" x2="90.021" y2="102.315" fill="none" stroke="#058638" stroke-width="15px" stroke-linecap="round" stroke-linejoin="round" stroke-miterlimit="10" data-original="#000000"></line>
		<path style="stroke-linecap: round; stroke-linejoin: round; stroke-miterlimit: 10;" d="
			M90.021,67.598V20.573c0-7.22,5.853-13.073,13.073-13.073h257.804L438.6,89.503v401.924c0,7.22-5.853,13.073-13.073,13.073
			H103.094c-7.22,0-13.073-5.853-13.073-12.112V422.41" fill="none" stroke="#058638" stroke-width="15px" stroke-linecap="round" stroke-linejoin="round" stroke-miterlimit="10" data-original="#000000"></path>
		<path style="stroke-linecap: round; stroke-linejoin: round; stroke-miterlimit: 10;" d="
			M360.898,7.5v74.093c0,4.369,3.542,7.91,7.91,7.91H438.6L360.898,7.5z" fill="none" stroke="#058638" stroke-width="15px" stroke-linecap="round" stroke-linejoin="round" stroke-miterlimit="10" data-original="#000000"></path>
		<path style="stroke-linecap: round; stroke-linejoin: round; stroke-miterlimit: 10;" d="
			M265.158,422.409H84.869c-6.334,0-11.469-5.135-11.469-11.469V294.255c0-6.334,5.135-11.469,11.469-11.469h237.497
			c6.334,0,11.469,5.135,11.469,11.469V410.94c0,6.334-5.135,11.469-11.469,11.469h-22.378" fill="none" stroke="#058638" stroke-width="15px" stroke-linecap="round" stroke-linejoin="round" stroke-miterlimit="10" data-original="#000000"></path>
		<g>
			
				<line style="stroke-linecap: round; stroke-linejoin: round; stroke-miterlimit: 10;" x1="148.395" y1="179.3" x2="224.956" y2="179.3" fill="none" stroke="#058638" stroke-width="15px" stroke-linecap="round" stroke-linejoin="round" stroke-miterlimit="10" data-original="#000000"></line>
			
				<line style="stroke-linecap: round; stroke-linejoin: round; stroke-miterlimit: 10;" x1="148.395" y1="211.244" x2="172.24" y2="211.244" fill="none" stroke="#058638" stroke-width="15px" stroke-linecap="round" stroke-linejoin="round" stroke-miterlimit="10" data-original="#000000"></line>
			
				<line style="stroke-linecap: round; stroke-linejoin: round; stroke-miterlimit: 10;" x1="148.395" y1="243.189" x2="172.24" y2="243.189" fill="none" stroke="#058638" stroke-width="15px" stroke-linecap="round" stroke-linejoin="round" stroke-miterlimit="10" data-original="#000000"></line>
		</g>
		<g>
			<g>
				<g>
					<path style="stroke-linecap: round; stroke-linejoin: round; stroke-miterlimit: 10;" d="
						M245.973,351.933c0,19.829-11.005,35.52-28.466,35.825c-5.812,0.102-20.833,0.158-20.833,0.158l-0.146-71.966
						c0,0,13.514,0,20.382,0C236.062,315.95,245.973,332.104,245.973,351.933z" fill="none" stroke="#058638" stroke-width="15px" stroke-linecap="round" stroke-linejoin="round" stroke-miterlimit="10" data-original="#000000"></path>
				</g>
			</g>
			<g>
				<g>
					
						<line style="stroke-linecap: round; stroke-linejoin: round; stroke-miterlimit: 10;" x1="161.262" y1="315.95" x2="161.262" y2="389.245" fill="none" stroke="#058638" stroke-width="15px" stroke-linecap="round" stroke-linejoin="round" stroke-miterlimit="10" data-original="#000000"></line>
				</g>
			</g>
		</g>
	</g>
</g>















</g></svg>