<svg width="48" height="48" viewBox="0 0 48 48" fill="none" xmlns="http://www.w3.org/2000/svg">
<rect x="0.125" y="0.125" width="47.75" height="47.75" rx="4.875" fill="white" stroke="#0E4C8F" stroke-width="0.25"/>
<path d="M37.9944 23.9908C37.8235 24.0837 37.6392 24.1484 37.4484 24.1823C34.8293 24.1951 32.2095 24.1915 29.5897 24.1901C29.4848 24.2089 29.3772 24.2054 29.2738 24.1796C29.1703 24.1539 29.0733 24.1065 28.9887 24.0405C28.9041 23.9745 28.8338 23.8913 28.7823 23.7962C28.7308 23.7011 28.6993 23.596 28.6895 23.4878C28.5356 22.9271 28.3816 22.3665 28.1779 21.8036C28.0552 22.2798 27.9322 22.7545 27.809 23.2278C27.6299 23.9221 27.4535 24.6178 27.2715 25.3114C27.2485 25.4941 27.1581 25.6609 27.0186 25.7777C26.8791 25.8946 26.7012 25.9527 26.5212 25.9401C26.3315 25.9249 26.1551 25.8351 26.0291 25.6897C25.9031 25.5443 25.8374 25.3547 25.8457 25.1607C25.7639 23.9679 25.6882 22.7743 25.6084 21.5814C25.6011 21.4115 25.5715 21.2433 25.5203 21.0815C25.3173 21.8536 25.1122 22.6243 24.9113 23.3972C24.3756 25.4524 23.8411 27.508 23.3078 29.5637C23.2217 29.8973 23.0887 30.1852 22.7261 30.2688C22.6277 30.2926 22.5254 30.295 22.426 30.2759C22.3265 30.2568 22.2321 30.2165 22.1489 30.1577C22.0657 30.0988 21.9956 30.0228 21.9431 29.9345C21.8906 29.8461 21.8569 29.7476 21.8442 29.6451C21.5643 28.5818 21.2869 27.5182 21.012 26.4544C20.537 24.6339 20.0613 22.8134 19.5849 20.9929C19.5709 20.94 19.5499 20.8885 19.5072 20.7642C19.3777 21.2507 19.265 21.6715 19.1572 22.0929C18.9605 22.8408 18.7673 23.5893 18.5672 24.3357C18.5424 24.534 18.4415 24.7141 18.2866 24.8364C18.1317 24.9587 17.9355 25.0132 17.7413 24.9879C15.3498 24.9879 12.9584 24.9879 10.567 24.9879C10.3535 24.9879 10.147 24.9529 10.0672 24.73C10.041 24.664 10.0291 24.5929 10.0324 24.5218C10.0357 24.4506 10.054 24.3812 10.0861 24.3179C10.2086 24.1905 10.3723 24.1129 10.5467 24.0994C11.4405 24.0794 12.3357 24.0893 13.2302 24.0893C14.6448 24.0893 16.06 24.0851 17.4746 24.0944C17.5114 24.101 17.5492 24.0996 17.5855 24.0904C17.6218 24.0812 17.6558 24.0644 17.6853 24.041C17.7149 24.0176 17.7393 23.9881 17.757 23.9545C17.7747 23.9209 17.7853 23.8837 17.7882 23.8457C18.1143 22.5635 18.4503 21.2843 18.7863 20.005C18.7992 19.8906 18.8378 19.781 18.8991 19.6844C18.9604 19.5879 19.0427 19.5069 19.1397 19.4481C19.2366 19.3894 19.3456 19.3543 19.458 19.3456C19.5704 19.3369 19.6833 19.3548 19.7878 19.3979C19.9085 19.4551 20.0132 19.5421 20.0927 19.651C20.1721 19.7598 20.2237 19.887 20.2428 20.0214C20.6455 21.5718 21.0498 23.1223 21.4558 24.6723C21.7997 25.988 22.1445 27.3034 22.4903 28.6187C22.5064 28.6794 22.5281 28.7387 22.5708 28.8702C22.7766 28.0887 22.9648 27.3765 23.1517 26.6643C23.7541 24.3667 24.3565 22.0691 24.9589 19.7715C24.9779 19.6583 25.0228 19.5514 25.0901 19.4595C25.1573 19.3675 25.245 19.2931 25.3458 19.2424C25.4467 19.1916 25.5579 19.166 25.6703 19.1675C25.7828 19.1691 25.8932 19.1979 25.9927 19.2514C26.1204 19.3258 26.225 19.4355 26.2944 19.5678C26.3639 19.7 26.3954 19.8495 26.3854 19.9992C26.4694 21.2849 26.5604 22.5708 26.65 23.8565C26.6513 23.9126 26.6699 23.9668 26.7031 24.0115L27.4794 20.9871C27.5935 20.5421 27.8125 20.3378 28.1793 20.3335C28.355 20.3292 28.5261 20.3912 28.6599 20.5074C28.7938 20.6236 28.8811 20.7859 28.9051 20.9636C29.0941 21.6457 29.2894 22.3265 29.465 23.013C29.5217 23.2373 29.6211 23.2986 29.8416 23.2986C32.3698 23.2901 34.8979 23.2901 37.426 23.2986C37.6252 23.3308 37.8186 23.393 38 23.483L37.9944 23.9908Z" fill="#0E4C8F"/>
<path d="M37.9944 21.6357C37.9431 21.8609 37.892 22.0862 37.8411 22.3114C37.7501 22.7129 37.5744 22.8736 37.2874 22.8165C37.0005 22.7593 36.9025 22.5193 36.9872 22.1236C37.3924 20.3679 37.1591 18.5219 36.3306 16.9286C35.8806 16.018 35.2491 15.2134 34.4766 14.5663C33.7041 13.9193 32.8077 13.444 31.8448 13.171C30.8819 12.8981 29.8737 12.8334 28.8848 12.9811C27.896 13.1289 26.9484 13.4859 26.1026 14.0292C25.7595 14.2427 25.4294 14.4774 25.1143 14.732C24.9749 14.8824 24.8069 15.0022 24.6204 15.0837C24.434 15.1653 24.2332 15.207 24.0303 15.2063C23.8275 15.2057 23.627 15.1627 23.4411 15.0799C23.2552 14.9971 23.0878 14.8762 22.9494 14.7248C21.8677 13.8107 20.5639 13.2121 19.1761 12.9921C18.1397 12.8184 17.0782 12.8895 16.0731 13.2003C15.0679 13.5112 14.1461 14.0532 13.3786 14.7848C12.2558 15.7614 11.4586 17.0704 11.0976 18.5302C10.7365 19.9899 10.8294 21.528 11.3635 22.9314C11.4182 23.0299 11.437 23.1451 11.4163 23.2564C11.3957 23.3677 11.337 23.468 11.2508 23.5393C11.1951 23.585 11.1292 23.6159 11.0589 23.6291C10.9886 23.6423 10.9162 23.6376 10.8482 23.6152C10.7803 23.5927 10.7188 23.5532 10.6695 23.5004C10.6201 23.4476 10.5844 23.3833 10.5656 23.3129C10.1197 22.1711 9.93352 20.9409 10.0211 19.715C10.128 18.2181 10.6298 16.7786 11.4731 15.549C12.3165 14.3194 13.47 13.3455 14.8116 12.7305C16.1531 12.1155 17.6327 11.8824 19.0936 12.0557C20.5544 12.229 21.9422 12.8023 23.1097 13.715C23.2749 13.8321 23.4324 13.96 23.5898 14.0871C23.6447 14.1547 23.7134 14.209 23.7912 14.2463C23.869 14.2836 23.9539 14.303 24.0399 14.303C24.1259 14.303 24.2107 14.2836 24.2885 14.2463C24.3663 14.209 24.4351 14.1547 24.49 14.0871C25.508 13.2312 26.6957 12.6106 27.9714 12.2684C29.0175 12.0006 30.1054 11.949 31.1714 12.1165C32.2373 12.284 33.2596 12.6672 34.1783 13.2438C35.097 13.8203 35.8935 14.5783 36.5209 15.4735C37.1484 16.3687 37.5941 17.3829 37.832 18.4564C37.8887 18.71 37.9412 18.9642 37.9957 19.2185L37.9944 21.6357Z" fill="#0E4C8F"/>
<path d="M23.972 36.9999C23.5812 36.9785 23.2145 36.8006 22.9515 36.5048C21.5367 35.0477 20.1188 33.5934 18.698 32.142L13.0699 26.3734C13.0086 26.3176 12.9519 26.2565 12.9005 26.1911C12.8299 26.1088 12.7932 26.0019 12.798 25.8926C12.8029 25.7833 12.8489 25.6802 12.9264 25.6047C12.9607 25.5635 13.0026 25.5298 13.0497 25.5051C13.0968 25.4804 13.1482 25.4654 13.201 25.461C13.2538 25.4566 13.3069 25.4629 13.3573 25.4795C13.4077 25.496 13.4544 25.5226 13.4948 25.5576C13.5811 25.6266 13.6614 25.7031 13.7348 25.7862L23.503 35.7963C23.9146 36.2184 24.1658 36.217 24.5837 35.7891C28.0329 32.2543 31.4817 28.7191 34.93 25.1834C35.0462 25.0648 35.1526 24.9362 35.2709 24.8191C35.3105 24.7741 35.3585 24.7375 35.4121 24.7116C35.4656 24.6857 35.5237 24.671 35.5829 24.6682C35.6421 24.6654 35.7012 24.6747 35.7569 24.6954C35.8126 24.7162 35.8636 24.748 35.9071 24.7891C35.9496 24.8318 35.9832 24.8829 36.0058 24.9392C36.0284 24.9956 36.0396 25.056 36.0386 25.1169C36.0377 25.1778 36.0247 25.2378 36.0004 25.2934C35.9762 25.349 35.9411 25.399 35.8973 25.4404C35.7881 25.5661 35.6706 25.684 35.5544 25.8026C32.086 29.3579 28.6183 32.9137 25.1513 36.4699C25.0018 36.6373 24.8196 36.7709 24.6165 36.8621C24.4134 36.9534 24.1939 37.0003 23.972 36.9999Z" fill="#0E4C8F"/>
<path d="M35.8245 20.3458C35.702 20.9744 35.5956 21.6065 35.4507 22.2294C35.3597 22.6201 35.126 22.7614 34.8453 22.6657C34.5842 22.5764 34.5065 22.3301 34.6178 21.9615C34.8677 21.1915 34.9409 20.3732 34.8316 19.5698C34.7224 18.7664 34.4338 17.9993 33.9879 17.3278C33.8533 17.1275 33.7077 16.9351 33.5518 16.7515C33.3222 16.4658 33.3069 16.1942 33.5189 16.0128C33.731 15.8313 33.976 15.8808 34.2105 16.1558C35.2132 17.3051 35.7643 18.792 35.758 20.3308L35.8245 20.3458Z" fill="#0E4C8F"/>
<path d="M32.9506 15.3862C32.9464 15.7434 32.6594 15.9769 32.3969 15.8784C32.0719 15.7546 31.7543 15.6114 31.4457 15.4497C31.3519 15.4058 31.2788 15.326 31.2425 15.2274C31.2062 15.1288 31.2096 15.0195 31.2518 14.9234C31.2638 14.8701 31.2865 14.8199 31.3185 14.7761C31.3505 14.7322 31.3911 14.6957 31.4378 14.6688C31.4844 14.6419 31.536 14.6252 31.5893 14.6198C31.6426 14.6144 31.6965 14.6205 31.7474 14.6376C32.0994 14.7651 32.4404 14.922 32.7671 15.1069C32.8686 15.1633 32.9128 15.3262 32.9506 15.3862Z" fill="#0E4C8F"/>
</svg>
