<svg width="343" height="280" viewBox="0 0 343 280" fill="none" xmlns="http://www.w3.org/2000/svg">
<rect width="343" height="280" fill="white"/>
<path d="M262.957 57.7116L261.716 55.6969C251.27 38.6871 232.385 28.4328 212.462 29.68C209.9 29.8379 207.353 30.1831 204.841 30.7128C186.735 34.5391 170.997 48.0724 164.448 65.3982C160.607 75.5566 159.53 87.3178 152.242 95.4051C142.76 105.93 126.656 106.263 112.492 105.823C98.3284 105.383 82.2186 105.761 72.7817 116.331C66.8703 122.946 64.9919 132.359 65.4488 141.22C66.7123 164.686 83.2621 185.668 104.313 196.098C125.364 206.527 150.144 207.464 173.175 202.87C205.445 196.442 236.136 178.795 254.581 151.514C273.026 124.232 277.685 87.1373 262.957 57.7116Z" fill="#F5F8FB"/>
<path d="M231.217 55.2341H100.382C96.7836 55.2341 93.8667 58.1525 93.8667 61.7524V255.282C93.8667 258.882 96.7836 261.8 100.382 261.8H231.217C234.815 261.8 237.732 258.882 237.732 255.282V61.7524C237.732 58.1525 234.815 55.2341 231.217 55.2341Z" fill="#263238"/>
<path d="M233.124 69.9695H98.3345V242.477H233.124V69.9695Z" fill="white"/>
<path d="M171.319 251.444C171.319 252.537 170.995 253.606 170.388 254.515C169.781 255.423 168.918 256.131 167.909 256.549C166.899 256.967 165.789 257.076 164.717 256.863C163.646 256.649 162.662 256.122 161.89 255.349C161.118 254.576 160.592 253.591 160.38 252.519C160.167 251.447 160.278 250.336 160.696 249.326C161.115 248.317 161.824 247.454 162.733 246.848C163.642 246.241 164.71 245.918 165.802 245.919C166.527 245.919 167.245 246.062 167.915 246.34C168.584 246.618 169.193 247.025 169.705 247.538C170.217 248.051 170.624 248.66 170.901 249.33C171.177 250.001 171.32 250.719 171.319 251.444Z" fill="#455A64"/>
<path d="M186.78 61.1824H144.825C144.445 61.1824 144.137 61.4907 144.137 61.8709V62.7739C144.137 63.1542 144.445 63.4624 144.825 63.4624H186.78C187.16 63.4624 187.468 63.1542 187.468 62.7739V61.8709C187.468 61.4907 187.16 61.1824 186.78 61.1824Z" fill="#455A64"/>
<path d="M220.815 83.4464H113.434V101.585H220.815V83.4464Z" fill="#0E4C8F"/>
<path d="M146.247 89.6881H147.059V95.3881H146.247V89.6881Z" fill="white"/>
<path d="M153.669 89.6881V95.3881H153.003L149.579 91.1668V95.4164H148.767V89.7164H149.433L152.857 93.966V89.7164L153.669 89.6881Z" fill="white"/>
<path d="M154.859 94.7391L155.158 94.1014C155.69 94.5351 156.356 94.7688 157.042 94.7617C158.024 94.7617 158.447 94.3779 158.447 93.8813C158.447 92.4873 154.995 93.3677 154.995 91.2514C154.995 90.371 155.683 89.6204 157.178 89.6204C157.825 89.6083 158.462 89.7848 159.011 90.1283L158.74 90.7773C158.273 90.4791 157.732 90.3187 157.178 90.3146C156.207 90.3146 155.796 90.7209 155.796 91.2175C155.796 92.6115 159.248 91.7368 159.248 93.8305C159.248 94.7053 158.548 95.4559 157.042 95.4559C156.253 95.4789 155.481 95.2254 154.859 94.7391Z" fill="white"/>
<path d="M160.387 92.9275V89.6881H161.199V92.8937C161.199 94.1579 161.764 94.7279 162.807 94.7279C163.851 94.7279 164.415 94.1635 164.415 92.8937V89.6881H165.21V92.9275C165.21 94.5811 164.302 95.4559 162.796 95.4559C161.29 95.4559 160.387 94.5811 160.387 92.9275Z" fill="white"/>
<path d="M170.687 95.3881L169.457 93.6386H169.102H167.692V95.3712H166.874V89.6712H169.13C170.608 89.6712 171.505 90.4161 171.505 91.6577C171.524 92.0539 171.411 92.4452 171.185 92.7707C170.958 93.0963 170.631 93.3379 170.253 93.458L171.601 95.3712L170.687 95.3881ZM170.687 91.6747C170.687 90.862 170.123 90.3936 169.096 90.3936H167.714V92.9614H169.096C170.117 92.9614 170.665 92.4873 170.665 91.6747H170.687Z" fill="white"/>
<path d="M176.429 93.9885H173.4L172.768 95.4164H171.934L174.511 89.7164H175.318L177.907 95.4164H177.055L176.429 93.9885ZM176.142 93.3395L174.912 90.5177L173.682 93.3395H176.142Z" fill="white"/>
<path d="M183.654 89.6881V95.3881H182.989L179.571 91.1668V95.4164H178.758V89.7164H179.424L182.842 93.966V89.7164L183.654 89.6881Z" fill="white"/>
<path d="M184.902 92.5381C184.897 92.1444 184.972 91.7538 185.124 91.3904C185.275 91.027 185.499 90.6985 185.783 90.4252C186.066 90.1518 186.402 89.9394 186.771 89.801C187.139 89.6626 187.532 89.6011 187.925 89.6204C188.328 89.6044 188.731 89.6752 189.104 89.8281C189.478 89.9809 189.814 90.2123 190.091 90.5065L189.561 91.02C189.357 90.8007 189.108 90.6274 188.832 90.5116C188.556 90.3958 188.258 90.3402 187.959 90.3484C187.671 90.3484 187.387 90.4051 187.121 90.5151C186.856 90.6252 186.615 90.7865 186.411 90.9898C186.208 91.1931 186.047 91.4345 185.937 91.7002C185.827 91.9658 185.77 92.2506 185.77 92.5381C185.77 92.8257 185.827 93.1104 185.937 93.3761C186.047 93.6418 186.208 93.8832 186.411 94.0865C186.615 94.2898 186.856 94.4511 187.121 94.5612C187.387 94.6712 187.671 94.7278 187.959 94.7278C188.259 94.7339 188.557 94.6762 188.833 94.5585C189.109 94.4408 189.357 94.2657 189.561 94.045L190.091 94.5585C189.817 94.8533 189.482 95.0859 189.111 95.2407C188.739 95.3955 188.339 95.4688 187.936 95.4559C187.542 95.4768 187.148 95.4165 186.778 95.2788C186.409 95.1411 186.071 94.929 185.787 94.6554C185.502 94.3819 185.277 94.0528 185.125 93.6886C184.972 93.3245 184.896 92.9329 184.902 92.5381Z" fill="white"/>
<path d="M195.393 94.6771V95.3881H191.253V89.6881H195.269V90.3936H192.065V92.1487H194.919V92.8598H192.065V94.6996L195.393 94.6771Z" fill="white"/>
<path d="M223.472 125.474C223.472 125.474 223.472 125.372 223.472 125.169C223.472 124.966 223.472 124.656 223.472 124.249C223.472 123.425 223.472 122.178 223.444 120.474L223.489 120.519C210.138 120.581 165.903 120.621 113.496 120.621L113.643 120.474V125.474L113.496 125.327L191.422 125.389L214.893 125.435H221.272H222.931H223.495H222.931H221.289H214.943L191.506 125.48L113.473 125.542H113.327V120.248H113.479C165.898 120.248 210.132 120.293 223.472 120.355V120.395C223.472 122.088 223.472 123.363 223.472 124.193C223.472 124.599 223.472 124.898 223.472 125.102C223.472 125.305 223.472 125.474 223.472 125.474Z" fill="#263238"/>
<path d="M133.419 113.69C133.419 113.775 128.585 113.837 122.623 113.837C116.661 113.837 111.827 113.775 111.827 113.69C111.827 113.606 116.661 113.544 122.623 113.544C128.585 113.544 133.419 113.611 133.419 113.69Z" fill="#263238"/>
<path d="M221.831 201.911C221.831 201.911 221.831 201.803 221.831 201.6C221.831 201.397 221.831 201.092 221.831 200.68C221.831 199.856 221.831 198.615 221.831 196.91L221.87 196.95C208.519 197.012 164.29 197.057 111.877 197.057L112.024 196.91V201.911L111.877 201.764L189.798 201.82L213.274 201.866H219.648H221.312C221.684 201.866 221.876 201.866 221.876 201.866H221.312H219.665H213.325L189.888 201.911L111.855 201.973H111.708V196.679H111.86C164.279 196.679 208.508 196.724 221.854 196.786H221.899V196.826C221.899 198.519 221.899 199.789 221.87 200.624C221.87 201.025 221.87 201.324 221.87 201.533C221.87 201.741 221.831 201.911 221.831 201.911Z" fill="#263238"/>
<path d="M134.389 191.882C134.389 191.967 129.555 192.029 123.593 192.029C117.63 192.029 112.796 191.967 112.796 191.882C112.796 191.797 117.63 191.735 123.593 191.735C129.555 191.735 134.389 191.803 134.389 191.882Z" fill="#263238"/>
<path d="M221.831 144.578C221.831 144.578 221.831 144.476 221.831 144.273C221.831 144.07 221.831 143.765 221.831 143.353C221.831 142.529 221.831 141.287 221.831 139.583L221.87 139.622C208.519 139.685 164.29 139.73 111.877 139.73L112.024 139.583V144.578L111.877 144.431L189.798 144.493L213.274 144.538H219.648H221.312H221.876C221.876 144.538 221.696 144.538 221.312 144.538H219.665H213.325L189.888 144.583L111.855 144.64H111.708V139.352H111.86C164.279 139.352 208.508 139.397 221.854 139.459H221.899V139.498C221.899 141.191 221.899 142.461 221.87 143.291C221.87 143.697 221.87 143.996 221.87 144.205C221.87 144.414 221.831 144.578 221.831 144.578Z" fill="#263238"/>
<path d="M133.419 134.555C133.419 134.639 128.585 134.702 122.623 134.702C116.661 134.702 111.827 134.639 111.827 134.555C111.827 134.47 116.661 134.408 122.623 134.408C128.585 134.408 133.419 134.476 133.419 134.555Z" fill="#263238"/>
<path d="M158.605 163.687C158.605 163.687 158.605 163.568 158.605 163.354C158.605 163.139 158.605 162.789 158.605 162.389C158.605 161.537 158.605 160.295 158.571 158.687L158.633 158.749C150.505 158.799 132.601 158.833 111.849 158.833C111.917 158.771 111.703 158.98 111.996 158.687V163.67L111.849 163.523L145.05 163.585L154.983 163.63H157.68H158.385H158.633H158.402H157.719H155.057L145.152 163.675L111.872 163.738H111.725V158.608L111.872 158.461C132.624 158.461 150.527 158.495 158.656 158.545H158.718V158.608C158.718 160.233 158.689 161.486 158.678 162.344C158.678 162.756 158.678 163.072 158.678 163.297C158.678 163.523 158.605 163.687 158.605 163.687Z" fill="#263238"/>
<path d="M133.419 153.664C133.419 153.743 128.585 153.811 122.623 153.811C116.661 153.811 111.827 153.743 111.827 153.664C111.827 153.585 116.661 153.517 122.623 153.517C128.585 153.517 133.419 153.579 133.419 153.664Z" fill="#263238"/>
<path d="M119.611 181.853C119.602 181.729 119.602 181.605 119.611 181.481C119.611 181.21 119.611 180.871 119.583 180.465C119.583 179.556 119.543 178.332 119.521 176.859L119.633 176.972L111.849 177.006C111.815 177.006 112.126 176.723 111.996 176.859V178.163C111.996 178.597 111.996 179.02 111.996 179.438C111.996 180.273 111.996 181.08 111.996 181.848L111.861 181.712C114.117 181.712 116.046 181.752 117.428 181.78L119.047 181.82C119.246 181.818 119.446 181.827 119.645 181.848C119.458 181.877 119.269 181.888 119.081 181.882L117.49 181.915C116.119 181.944 114.156 181.972 111.849 181.983H111.714V181.848C111.714 181.08 111.714 180.273 111.714 179.438V176.859L111.861 176.712L119.645 176.74H119.763V176.859C119.763 178.411 119.724 179.681 119.701 180.538C119.701 180.933 119.701 181.261 119.673 181.526C119.667 181.637 119.646 181.748 119.611 181.853Z" fill="#263238"/>
<path d="M129.894 181.853C129.885 181.729 129.885 181.605 129.894 181.481C129.894 181.21 129.882 180.871 129.86 180.465C129.86 179.556 129.826 178.332 129.798 176.859L129.916 176.972L122.132 177.006C122.098 177.006 122.409 176.723 122.279 176.859V177.513C122.279 177.734 122.279 177.948 122.279 178.162V179.438C122.279 180.273 122.279 181.08 122.279 181.848L122.143 181.712C124.4 181.712 126.329 181.752 127.705 181.78L129.324 181.82C129.526 181.818 129.727 181.827 129.928 181.848C129.741 181.876 129.552 181.887 129.363 181.882L127.773 181.915C126.402 181.944 124.439 181.972 122.132 181.983H121.997V181.848C121.997 181.08 121.997 180.273 121.997 179.438V176.859C121.861 176.989 122.172 176.678 122.143 176.712L129.928 176.74H130.046V176.859C130.046 178.411 130.007 179.681 129.984 180.538C129.984 180.933 129.984 181.261 129.984 181.526C129.969 181.639 129.938 181.749 129.894 181.853Z" fill="#263238"/>
<path d="M140.177 181.853C140.156 181.73 140.147 181.606 140.148 181.481C140.148 181.21 140.148 180.871 140.12 180.465C140.12 179.556 140.086 178.332 140.058 176.859L140.177 176.972L132.387 177.006L132.533 176.859V179.438C132.533 180.273 132.533 181.08 132.533 181.848L132.398 181.712C134.654 181.712 136.589 181.752 137.965 181.78L139.584 181.82C139.786 181.818 139.987 181.828 140.188 181.848C140.001 181.876 139.812 181.887 139.624 181.882L138.039 181.915C136.668 181.944 134.699 181.972 132.398 181.983H132.263V181.848C132.263 181.08 132.263 180.273 132.263 179.438C132.263 179.02 132.263 178.597 132.263 178.163V176.859L132.409 176.712L140.199 176.74H140.318V176.859C140.318 178.411 140.278 179.681 140.261 180.538C140.261 180.933 140.261 181.261 140.227 181.526C140.222 181.637 140.205 181.746 140.177 181.853Z" fill="#263238"/>
<path d="M150.454 181.853C150.454 181.853 150.454 181.718 150.454 181.481C150.454 181.244 150.454 180.871 150.454 180.465C150.454 179.556 150.415 178.332 150.392 176.859L150.505 176.972L142.721 177.006C142.687 177.006 142.997 176.723 142.867 176.859V178.163C142.867 178.597 142.867 179.02 142.867 179.438C142.867 180.273 142.867 181.08 142.867 181.848L142.732 181.712C144.988 181.712 146.917 181.752 148.299 181.78L149.918 181.82C150.118 181.818 150.318 181.827 150.516 181.848C150.33 181.877 150.141 181.888 149.952 181.882L148.361 181.915C146.996 181.944 145.028 181.972 142.721 181.983H142.585V181.848C142.585 181.08 142.585 180.273 142.585 179.438V176.859L142.732 176.712L150.516 176.74H150.635V176.859C150.635 178.411 150.595 179.681 150.573 180.538C150.573 180.933 150.573 181.261 150.544 181.526C150.529 181.639 150.499 181.749 150.454 181.853Z" fill="#263238"/>
<path d="M160.737 181.853C160.728 181.729 160.728 181.605 160.737 181.481C160.737 181.21 160.737 180.871 160.703 180.465C160.703 179.556 160.669 178.332 160.647 176.859L160.759 176.972L152.975 177.006C152.941 177.006 153.252 176.723 153.122 176.859V178.163C153.122 178.597 153.122 179.02 153.122 179.438C153.122 180.273 153.122 181.08 153.122 181.848L152.986 181.712C155.243 181.712 157.172 181.752 158.548 181.78L160.167 181.82C160.369 181.818 160.57 181.827 160.771 181.848C160.584 181.876 160.395 181.887 160.207 181.882L158.616 181.915C157.245 181.944 155.282 181.972 152.975 181.983H152.84V181.848C152.84 181.08 152.84 180.273 152.84 179.438V176.859L152.986 176.712L160.771 176.74H160.861V176.859C160.861 178.411 160.821 179.681 160.799 180.538C160.799 180.933 160.799 181.261 160.799 181.526C160.793 181.637 160.772 181.748 160.737 181.853Z" fill="#263238"/>
<path d="M171.015 181.853C171.004 181.73 171.004 181.605 171.015 181.481C171.015 181.21 171.015 180.871 170.986 180.465C170.986 179.556 170.953 178.332 170.924 176.859L171.043 176.972L163.253 177.006L163.4 176.859V179.438C163.4 180.273 163.4 181.08 163.4 181.848L163.264 181.712C165.521 181.712 167.455 181.752 168.832 181.78L170.451 181.82C170.652 181.818 170.854 181.827 171.054 181.848C170.867 181.876 170.679 181.887 170.49 181.882L168.905 181.915C167.534 181.944 165.566 181.972 163.264 181.983H163.118V181.848C163.118 181.08 163.118 180.273 163.118 179.438C163.118 179.02 163.118 178.597 163.118 178.163V176.859L163.264 176.712L171.054 176.74H171.173V176.859C171.173 178.411 171.133 179.681 171.116 180.538C171.116 180.933 171.116 181.261 171.082 181.526C171.072 181.637 171.049 181.747 171.015 181.853Z" fill="#263238"/>
<path d="M181.303 181.853C181.283 181.73 181.273 181.606 181.275 181.481C181.275 181.21 181.275 180.871 181.247 180.465C181.247 179.556 181.207 178.332 181.185 176.859L181.303 176.972L173.513 177.006C173.479 177.006 173.79 176.723 173.66 176.859V179.438C173.66 180.273 173.66 181.08 173.66 181.848L173.525 181.712C175.781 181.712 177.71 181.752 179.092 181.78L180.711 181.82C180.912 181.818 181.114 181.828 181.314 181.848C181.128 181.875 180.939 181.887 180.75 181.882L179.165 181.915C177.795 181.944 175.826 181.972 173.525 181.983H173.389V181.848C173.389 181.08 173.389 180.273 173.389 179.438C173.389 179.02 173.389 178.597 173.389 178.163V176.859L173.536 176.712L181.326 176.74H181.438V176.859C181.438 178.411 181.399 179.681 181.376 180.538C181.376 180.933 181.376 181.261 181.348 181.526C181.345 181.636 181.33 181.746 181.303 181.853Z" fill="#263238"/>
<path d="M191.58 181.853C191.571 181.729 191.571 181.605 191.58 181.481C191.58 181.21 191.58 180.871 191.552 180.465C191.552 179.556 191.513 178.332 191.49 176.859L191.603 176.972L183.819 177.006C183.785 177.006 184.095 176.723 183.965 176.859V178.162C183.965 178.597 183.965 179.02 183.965 179.438C183.965 180.273 183.965 181.08 183.965 181.848L183.83 181.712C186.086 181.712 188.015 181.752 189.397 181.78L191.016 181.82C191.216 181.818 191.415 181.827 191.614 181.848C191.427 181.876 191.239 181.887 191.05 181.882L189.459 181.915C188.089 181.944 186.126 181.972 183.819 181.983H183.683V181.848C183.683 181.08 183.683 180.273 183.683 179.438V176.859C183.548 176.989 183.858 176.678 183.83 176.712L191.614 176.74H191.733V176.859C191.733 178.411 191.693 179.681 191.67 180.538C191.67 180.933 191.67 181.261 191.642 181.526C191.636 181.637 191.615 181.748 191.58 181.853Z" fill="#263238"/>
<path d="M201.863 181.853C201.846 181.73 201.837 181.606 201.835 181.481C201.835 181.21 201.835 180.871 201.807 180.465C201.807 179.556 201.773 178.332 201.745 176.859L201.863 176.972L194.079 177.006C194.045 177.006 194.355 176.723 194.22 176.859V179.438C194.22 180.273 194.22 181.08 194.22 181.848L194.085 181.712C196.341 181.712 198.276 181.752 199.652 181.78L201.271 181.82C201.472 181.818 201.674 181.827 201.874 181.848C201.688 181.876 201.499 181.887 201.31 181.882L199.72 181.915C198.349 181.944 196.38 181.972 194.079 181.983H193.949V181.848C193.949 181.08 193.949 180.273 193.949 179.438V178.162C193.949 177.948 193.949 177.734 193.949 177.513V176.859C193.82 176.989 194.13 176.678 194.102 176.712L201.886 176.74H202.004V176.859C202.004 178.411 201.959 179.681 201.942 180.538C201.942 180.933 201.942 181.261 201.908 181.526C201.905 181.636 201.89 181.746 201.863 181.853Z" fill="#263238"/>
<path d="M212.146 181.853C212.126 181.73 212.116 181.606 212.118 181.481C212.118 181.21 212.118 180.871 212.09 180.465C212.09 179.556 212.056 178.332 212.028 176.859L212.146 176.972L204.357 177.006C204.323 177.006 204.633 176.723 204.503 176.859V179.438C204.503 180.273 204.503 181.08 204.503 181.848L204.368 181.712C206.624 181.712 208.553 181.752 209.935 181.78L211.554 181.82C211.756 181.818 211.957 181.828 212.158 181.848C211.971 181.876 211.782 181.887 211.594 181.882L210.008 181.915C208.638 181.944 206.669 181.972 204.368 181.983H204.232V181.848C204.232 181.08 204.232 180.273 204.232 179.438C204.232 179.02 204.232 178.597 204.232 178.163V176.859L204.379 176.712L212.169 176.74H212.282V176.859C212.282 178.411 212.242 179.681 212.22 180.538C212.22 180.933 212.22 181.261 212.191 181.526C212.188 181.636 212.173 181.746 212.146 181.853Z" fill="#263238"/>
<path d="M222.423 181.853C222.414 181.729 222.414 181.605 222.423 181.481C222.423 181.21 222.423 180.871 222.395 180.465C222.395 179.556 222.356 178.332 222.333 176.859L222.446 176.972L214.662 177.006C214.628 177.006 214.938 176.723 214.808 176.859V178.163C214.808 178.597 214.808 179.02 214.808 179.438C214.808 180.273 214.808 181.08 214.808 181.848L214.673 181.712C216.929 181.712 218.858 181.752 220.24 181.78L221.859 181.82C222.059 181.818 222.259 181.827 222.457 181.848C222.271 181.877 222.082 181.888 221.893 181.882L220.302 181.915C218.932 181.944 216.969 181.972 214.662 181.983H214.526V181.848C214.526 181.08 214.526 180.273 214.526 179.438V176.859L214.673 176.712L222.457 176.74H222.576V176.859C222.576 178.411 222.536 179.681 222.514 180.538C222.514 180.933 222.514 181.261 222.485 181.526C222.479 181.637 222.458 181.748 222.423 181.853Z" fill="#263238"/>
<path d="M134.389 171.831C134.389 171.915 129.555 171.977 123.593 171.977C117.63 171.977 112.796 171.915 112.796 171.831C112.796 171.746 117.63 171.684 123.593 171.684C129.555 171.684 134.389 171.751 134.389 171.831Z" fill="#263238"/>
<path d="M221.053 163.687C221.053 163.687 221.053 163.568 221.053 163.354C221.053 163.139 221.053 162.789 221.053 162.389C221.053 161.537 221.053 160.295 221.019 158.687L221.081 158.749C212.953 158.799 195.055 158.833 174.303 158.833L174.449 158.687V163.67L174.303 163.523L207.504 163.585L217.437 163.63H220.139H220.844H221.087H220.861H220.173H217.51L207.611 163.675L174.331 163.738H174.19V163.591C174.19 162.795 174.19 161.971 174.19 161.136V158.608L174.342 158.461C195.094 158.461 212.992 158.495 221.12 158.545H221.182V158.608C221.182 160.233 221.154 161.486 221.149 162.344C221.149 162.756 221.149 163.072 221.149 163.297C221.149 163.523 221.053 163.687 221.053 163.687Z" fill="#263238"/>
<path d="M196.838 153.664C196.838 153.743 192.004 153.811 186.041 153.811C180.079 153.811 175.245 153.743 175.245 153.664C175.245 153.585 180.079 153.517 186.041 153.517C192.004 153.517 196.838 153.579 196.838 153.664Z" fill="#263238"/>
<path d="M186.611 227.928H144.87C142.976 227.925 141.161 227.17 139.824 225.829C138.486 224.489 137.734 222.672 137.734 220.777C137.736 218.885 138.487 217.07 139.824 215.731C141.16 214.391 142.973 213.637 144.864 213.632H186.605C188.501 213.632 190.318 214.386 191.659 215.727C192.999 217.068 193.752 218.886 193.752 220.783C193.75 222.677 192.998 224.494 191.659 225.833C190.32 227.173 188.504 227.926 186.611 227.928Z" fill="#0E4C8F"/>
<path d="M131.422 89.327H130.012V95.6478H131.422V89.327Z" fill="white"/>
<path d="M127.558 91.7819V93.1928H133.876V91.7819H127.558Z" fill="white"/>
<path d="M135.969 92.5043C135.969 92.5043 135.969 92.4761 135.969 92.4196V92.1657V91.9851C135.962 91.9111 135.951 91.8375 135.935 91.765C135.916 91.5741 135.88 91.3852 135.828 91.2006C135.575 90.2347 135.054 89.3601 134.326 88.678C133.597 87.9959 132.69 87.5341 131.71 87.346C130.542 87.1391 129.337 87.3257 128.286 87.8765C128.064 87.9979 127.851 88.1356 127.649 88.2885C127.45 88.443 127.261 88.6108 127.085 88.7908C126.902 88.9816 126.73 89.1833 126.571 89.3947C126.249 89.8318 125.997 90.3176 125.827 90.8338C125.473 91.902 125.473 93.0558 125.827 94.124C125.995 94.6412 126.246 95.1273 126.571 95.5631C126.729 95.7757 126.9 95.9774 127.085 96.167C127.26 96.3484 127.448 96.5163 127.649 96.6692C127.851 96.8222 128.064 96.9599 128.286 97.0812C128.505 97.1994 128.733 97.2994 128.969 97.3803C130.11 97.7971 131.36 97.8031 132.505 97.3973C133.649 96.9915 134.617 96.1992 135.241 95.1568C135.496 94.7222 135.686 94.2526 135.805 93.7628C135.857 93.5781 135.893 93.3893 135.912 93.1984C135.928 93.1259 135.94 93.0524 135.946 92.9783V92.7921V92.5438C135.946 92.4874 135.946 92.4591 135.946 92.4591V92.5438C135.946 92.6059 135.946 92.6905 135.946 92.7921V92.9783C135.946 93.0461 135.946 93.1194 135.918 93.2041C135.897 93.3943 135.863 93.5829 135.817 93.7684C135.701 94.2663 135.511 94.7439 135.252 95.185C134.871 95.8334 134.356 96.3929 133.741 96.826C133.126 97.2592 132.426 97.5559 131.688 97.6964C130.745 97.8754 129.771 97.7994 128.867 97.4763C128.63 97.3876 128.399 97.2859 128.173 97.1715C127.947 97.045 127.729 96.9056 127.519 96.7539C127.309 96.5935 127.107 96.4221 126.916 96.2403C126.729 96.0472 126.556 95.8416 126.397 95.6252C126.063 95.182 125.805 94.6861 125.635 94.1579C125.262 93.0601 125.262 91.8695 125.635 90.7717C125.805 90.2435 126.063 89.7475 126.397 89.3044C126.556 89.0881 126.729 88.8826 126.916 88.6892C127.105 88.5042 127.306 88.3326 127.519 88.1757C127.929 87.8669 128.383 87.6232 128.867 87.4533C129.703 87.1482 130.601 87.0596 131.48 87.1957C132.359 87.3319 133.189 87.6884 133.893 88.2321C134.433 88.6446 134.887 89.1583 135.23 89.7446C135.488 90.1857 135.678 90.6632 135.794 91.1611C135.841 91.3466 135.875 91.5352 135.895 91.7255C135.895 91.8045 135.895 91.8778 135.924 91.9456V92.1318C135.924 92.239 135.924 92.3237 135.924 92.3858L135.969 92.5043Z" fill="white"/>
<path d="M160.167 221.979H158.249L157.883 222.865H156.913L158.751 218.729H159.699L161.544 222.865H160.54L160.167 221.979ZM159.868 221.251L159.214 219.671L158.56 221.251H159.868Z" fill="white"/>
<path d="M161.65 220.794C161.668 220.343 161.82 219.907 162.087 219.544C162.354 219.18 162.724 218.905 163.149 218.753C163.574 218.602 164.035 218.582 164.471 218.695C164.908 218.808 165.301 219.05 165.599 219.389L164.984 219.953C164.859 219.799 164.7 219.676 164.52 219.592C164.341 219.508 164.144 219.466 163.946 219.468C163.61 219.49 163.295 219.639 163.065 219.885C162.835 220.13 162.707 220.454 162.707 220.791C162.707 221.128 162.835 221.452 163.065 221.698C163.295 221.944 163.61 222.093 163.946 222.115C164.145 222.117 164.342 222.074 164.522 221.989C164.702 221.904 164.86 221.779 164.984 221.624L165.599 222.188C165.301 222.527 164.908 222.769 164.471 222.882C164.035 222.995 163.574 222.975 163.149 222.824C162.724 222.672 162.354 222.397 162.087 222.033C161.82 221.669 161.668 221.234 161.65 220.783V220.794Z" fill="white"/>
<path d="M165.887 220.794C165.885 220.503 165.944 220.215 166.058 219.947C166.173 219.679 166.341 219.438 166.553 219.238C166.764 219.038 167.014 218.884 167.288 218.784C167.562 218.685 167.853 218.643 168.143 218.661C168.461 218.649 168.778 218.709 169.071 218.835C169.363 218.961 169.624 219.15 169.835 219.389L169.22 219.953C169.095 219.799 168.936 219.676 168.757 219.592C168.577 219.508 168.381 219.466 168.182 219.468C168.002 219.456 167.82 219.481 167.649 219.543C167.479 219.604 167.322 219.699 167.19 219.823C167.057 219.947 166.952 220.097 166.88 220.264C166.808 220.43 166.771 220.61 166.771 220.791C166.771 220.973 166.808 221.152 166.88 221.319C166.952 221.485 167.057 221.635 167.19 221.759C167.322 221.883 167.479 221.979 167.649 222.04C167.82 222.101 168.002 222.127 168.182 222.115C168.381 222.117 168.578 222.074 168.758 221.989C168.938 221.904 169.096 221.779 169.22 221.624L169.835 222.188C169.537 222.527 169.144 222.769 168.708 222.882C168.271 222.995 167.81 222.975 167.385 222.824C166.96 222.672 166.59 222.397 166.323 222.033C166.056 221.669 165.904 221.234 165.887 220.783V220.794Z" fill="white"/>
<path d="M173.676 222.098V222.865H170.45V218.712H173.575V219.479H171.403V220.405H173.321V221.15H171.403V222.098H173.676Z" fill="white"/>
<path d="M178.02 220.23C178.02 221.15 177.332 221.725 176.227 221.725H175.392V222.854H174.438V218.712H176.227C177.332 218.712 178.02 219.304 178.02 220.23ZM177.05 220.23C177.05 219.773 176.757 219.507 176.17 219.507H175.392V220.969H176.17C176.757 220.969 177.05 220.681 177.05 220.23Z" fill="white"/>
<path d="M179.441 219.507H178.121V218.712H181.731V219.49H180.411V222.848H179.452L179.441 219.507Z" fill="white"/>
<path d="M147.453 220.879L148.164 220.168L149.535 221.387L152.225 218.796L152.885 219.507L149.433 222.758L147.453 220.879Z" fill="white"/>
<path d="M295.284 261.439C295.284 261.518 240.147 261.586 172.148 261.586C104.15 261.586 49.001 261.518 49.001 261.439C49.001 261.36 104.127 261.292 172.148 261.292C240.169 261.292 295.284 261.355 295.284 261.439Z" fill="#263238"/>
<path d="M271.577 247.161L271.013 256.574C271.013 256.574 280.382 260.327 280.444 262.077L262.146 261.603L262.45 246.93L271.577 247.161Z" fill="#0E4C8F"/>
<g opacity="0.6">
<path d="M265.366 255.638C265.189 255.688 265.037 255.801 264.938 255.956C264.839 256.111 264.801 256.297 264.83 256.478C264.867 256.661 264.973 256.822 265.127 256.928C265.281 257.033 265.47 257.074 265.653 257.043C265.841 256.991 266.003 256.871 266.108 256.706C266.212 256.541 266.251 256.343 266.217 256.151C266.154 255.969 266.023 255.819 265.852 255.732C265.681 255.644 265.482 255.627 265.298 255.683" fill="white"/>
</g>
<g opacity="0.6">
<path d="M262.146 261.603L262.236 260.124L279.722 261.123C279.722 261.123 280.528 261.501 280.421 262.071L262.146 261.603Z" fill="white"/>
</g>
<path d="M271.3 256.49C271.3 256.58 270.849 256.608 270.397 256.885C269.946 257.161 269.709 257.528 269.63 257.494C269.551 257.46 269.692 256.93 270.239 256.62C270.787 256.309 271.322 256.411 271.3 256.49Z" fill="#263238"/>
<path d="M273.196 257.331C273.196 257.421 272.823 257.562 272.513 257.934C272.203 258.307 272.101 258.702 272.011 258.696C271.921 258.691 271.881 258.183 272.276 257.726C272.671 257.269 273.196 257.246 273.196 257.331Z" fill="#263238"/>
<path d="M274.239 259.656C274.154 259.656 274.042 259.227 274.284 258.741C274.527 258.256 274.95 258.076 274.984 258.149C275.018 258.222 274.758 258.482 274.566 258.877C274.374 259.272 274.318 259.65 274.239 259.656Z" fill="#263238"/>
<path d="M271.193 254.329C271.154 254.413 270.747 254.278 270.24 254.3C269.732 254.323 269.337 254.47 269.292 254.391C269.247 254.312 269.636 254.007 270.234 253.99C270.832 253.973 271.238 254.266 271.193 254.329Z" fill="#263238"/>
<g opacity="0.3">
<path d="M271.464 249.023L271.363 250.705L262.377 250.395L262.411 248.453L271.464 249.023Z" fill="black"/>
</g>
<path d="M271.272 252.426C270.971 252.503 270.655 252.493 270.359 252.398C270.03 252.335 269.712 252.229 269.411 252.082C269.23 251.998 269.057 251.9 268.892 251.789C268.79 251.731 268.698 251.657 268.621 251.569C268.564 251.503 268.529 251.421 268.523 251.334C268.517 251.248 268.539 251.161 268.587 251.089C268.635 251.029 268.696 250.98 268.766 250.947C268.835 250.913 268.911 250.896 268.988 250.897C269.103 250.898 269.217 250.917 269.326 250.953C269.521 251.005 269.709 251.075 269.89 251.162C270.196 251.307 270.477 251.497 270.725 251.727C271.137 252.133 271.289 252.466 271.244 252.483C271.199 252.5 271.002 252.229 270.579 251.918C270.333 251.721 270.062 251.557 269.772 251.433C269.604 251.36 269.431 251.302 269.253 251.258C269.061 251.202 268.898 251.196 268.841 251.258C268.785 251.32 268.841 251.303 268.841 251.365C268.903 251.426 268.971 251.479 269.044 251.523C269.196 251.631 269.354 251.729 269.518 251.817C269.8 251.963 270.094 252.084 270.398 252.178C270.695 252.241 270.987 252.324 271.272 252.426Z" fill="#263238"/>
<path d="M271.153 252.573C270.992 252.305 270.915 251.994 270.933 251.681C270.928 251.342 270.98 251.005 271.086 250.682C271.147 250.486 271.231 250.297 271.334 250.118C271.385 249.998 271.468 249.893 271.573 249.815C271.678 249.737 271.802 249.687 271.932 249.672C272.013 249.675 272.092 249.701 272.158 249.748C272.224 249.796 272.275 249.861 272.304 249.938C272.349 250.046 272.377 250.16 272.389 250.276C272.42 250.48 272.42 250.687 272.389 250.891C272.328 251.233 272.185 251.555 271.971 251.828C271.605 252.291 271.227 252.392 271.221 252.359C271.215 252.325 271.509 252.15 271.785 251.698C271.951 251.44 272.059 251.15 272.101 250.846C272.126 250.67 272.126 250.492 272.101 250.316C272.101 250.124 272.011 249.966 271.937 249.983C271.864 250 271.684 250.118 271.605 250.276C271.512 250.431 271.433 250.593 271.368 250.761C271.258 251.055 271.19 251.363 271.165 251.676C271.119 252.206 271.204 252.539 271.153 252.573Z" fill="#263238"/>
<path d="M275.367 189.816L260.831 194.489C261.006 194.619 263.527 210.963 263.527 210.963L261.429 254.351L272.964 254.492L278.125 208.982L275.367 189.816Z" fill="#263238"/>
<path d="M255.061 247.127L254.767 256.552C254.767 256.552 264.244 260.017 264.356 261.766L246.064 261.851L245.917 247.144L255.061 247.127Z" fill="#0E4C8F"/>
<g opacity="0.6">
<path d="M249.126 255.79C248.952 255.845 248.803 255.962 248.708 256.119C248.614 256.276 248.58 256.462 248.613 256.642C248.661 256.82 248.775 256.974 248.933 257.07C249.09 257.167 249.278 257.199 249.459 257.161C249.645 257.103 249.802 256.977 249.901 256.81C250 256.642 250.033 256.444 249.995 256.253C249.926 256.072 249.79 255.925 249.616 255.843C249.441 255.761 249.241 255.75 249.059 255.812" fill="white"/>
</g>
<g opacity="0.6">
<path d="M246.092 261.851L246.137 260.372L263.657 260.841C263.657 260.841 264.469 261.191 264.385 261.766L246.092 261.851Z" fill="white"/>
</g>
<path d="M255.061 256.461C255.061 256.546 254.61 256.591 254.175 256.879C253.741 257.167 253.504 257.545 253.419 257.511C253.335 257.477 253.47 256.947 253.983 256.62C254.497 256.292 255.1 256.377 255.061 256.461Z" fill="#263238"/>
<path d="M257.007 257.246C257.007 257.331 256.64 257.483 256.341 257.861C256.042 258.239 255.952 258.646 255.862 258.64C255.772 258.634 255.715 258.132 256.099 257.669C256.482 257.206 257.001 257.161 257.007 257.246Z" fill="#263238"/>
<path d="M258.107 259.537C258.028 259.537 257.898 259.108 258.107 258.617C258.315 258.126 258.755 257.934 258.789 258.008C258.823 258.081 258.575 258.341 258.394 258.747C258.214 259.153 258.197 259.526 258.107 259.537Z" fill="#263238"/>
<path d="M254.914 254.306C254.875 254.385 254.463 254.266 253.961 254.306C253.459 254.346 253.064 254.504 253.013 254.43C252.963 254.357 253.346 254.029 253.938 253.995C254.531 253.961 254.954 254.233 254.914 254.306Z" fill="#263238"/>
<g opacity="0.3">
<path d="M255.021 248.995L254.97 250.671L245.979 250.637L245.957 248.696L255.021 248.995Z" fill="black"/>
</g>
<path d="M254.937 252.398C254.638 252.484 254.322 252.484 254.023 252.398C253.691 252.343 253.367 252.246 253.059 252.11C252.879 252.028 252.703 251.936 252.534 251.834C252.431 251.777 252.338 251.705 252.258 251.619C252.198 251.557 252.161 251.476 252.153 251.39C252.144 251.304 252.165 251.218 252.212 251.145C252.257 251.083 252.315 251.032 252.383 250.996C252.45 250.96 252.525 250.939 252.602 250.936C252.718 250.935 252.834 250.95 252.946 250.982C253.139 251.031 253.328 251.097 253.51 251.179C253.822 251.321 254.109 251.511 254.362 251.743C254.785 252.133 254.926 252.466 254.926 252.483C254.926 252.5 254.677 252.234 254.243 251.918C253.99 251.733 253.716 251.579 253.425 251.461C253.253 251.395 253.075 251.342 252.895 251.303C252.703 251.252 252.54 251.252 252.489 251.337C252.438 251.422 252.489 251.388 252.489 251.444C252.548 251.506 252.616 251.557 252.692 251.597C252.847 251.701 253.009 251.793 253.177 251.873C253.46 252.014 253.757 252.126 254.063 252.206C254.357 252.254 254.649 252.318 254.937 252.398Z" fill="#263238"/>
<path d="M254.818 252.528C254.646 252.268 254.561 251.959 254.575 251.648C254.558 251.308 254.598 250.969 254.694 250.643C254.751 250.447 254.829 250.258 254.925 250.079C254.973 249.96 255.05 249.855 255.148 249.773C255.247 249.691 255.364 249.635 255.489 249.61C255.57 249.612 255.649 249.637 255.717 249.682C255.785 249.727 255.839 249.79 255.873 249.864C255.921 249.972 255.953 250.086 255.969 250.203C256 250.407 256 250.614 255.969 250.818C255.92 251.161 255.786 251.487 255.579 251.766C255.224 252.246 254.852 252.33 254.846 252.33C255.051 252.121 255.239 251.896 255.41 251.659C255.568 251.396 255.665 251.101 255.692 250.795C255.72 250.62 255.72 250.441 255.692 250.265C255.664 250.073 255.591 249.915 255.517 249.932C255.444 249.949 255.269 250.079 255.196 250.237C255.108 250.396 255.035 250.562 254.976 250.733C254.872 251.028 254.813 251.336 254.801 251.648C254.773 252.184 254.869 252.517 254.818 252.528Z" fill="#263238"/>
<path d="M243.379 192.13C243.379 195.415 244.676 256.32 244.676 256.32L255.625 255.344L257.881 217.916L259.06 214.654L260.431 194.489L243.379 192.13Z" fill="#263238"/>
<path d="M266.579 113.177C266.726 113.374 275.277 126.953 275.277 126.953L284.894 116.885L289.813 123.99C289.813 123.99 279.53 138.511 278.018 139.036C276.507 139.56 271.644 138.736 271.644 138.736L264.875 129.769L266.579 113.177Z" fill="#EBEBEB"/>
<path d="M275.367 130.057C275.201 129.553 275.14 129.021 275.187 128.493C275.133 127.968 275.169 127.438 275.294 126.924C275.46 127.428 275.524 127.959 275.48 128.488C275.53 129.013 275.492 129.544 275.367 130.057Z" fill="#263238"/>
<path d="M244.834 103.018L243.356 106.67C243.356 106.67 235.77 113.075 235.081 114.063C234.393 115.05 240.497 146.982 240.497 146.982C240.497 146.982 240.102 193.897 240.497 193.897C240.891 193.897 246.137 195.59 256.854 194.783C267.572 193.976 269.563 192.909 269.563 192.909L266.218 151.418L261.091 123.521L252.297 112.189L244.834 103.018Z" fill="#EBEBEB"/>
<path d="M262.117 118.86C262.117 118.86 260.989 113.448 261.085 113.278C261.181 113.109 258.558 106.715 258.558 106.715C258.558 106.715 257.678 103.786 257.678 103.797C257.678 103.808 245.725 101.777 245.725 101.777L245.161 103.583L261.102 123.736L262.737 132.387L264.43 130.028L262.117 118.86Z" fill="#0E4C8F"/>
<path d="M272.783 159.595L270.188 128.381L268.062 116.196C267.755 114.459 267.105 112.802 266.15 111.32L259.945 107.725C259.31 106.966 258.717 106.173 258.168 105.349L261.107 112.861L262.139 118.86L262.776 132.624L266.161 151.102L269.478 191.735L276.686 190.324L272.783 159.595Z" fill="#EBEBEB"/>
<path d="M263.014 123.228L264.407 112.985L259.923 107.725L258.146 105.349L260.904 113.278L263.014 123.228Z" fill="#EBEBEB"/>
<path d="M255.93 142.343L266.765 126.924L285.622 132.63L271.357 151.096L253.645 145.334L255.93 142.343Z" fill="#0E4C8F"/>
<path d="M280.117 131.919C280.117 132.012 280.089 132.103 280.038 132.18C279.986 132.257 279.913 132.317 279.828 132.353C279.742 132.388 279.648 132.397 279.557 132.379C279.466 132.361 279.383 132.317 279.317 132.251C279.252 132.185 279.207 132.102 279.189 132.011C279.171 131.92 279.18 131.826 279.216 131.74C279.251 131.654 279.311 131.581 279.388 131.53C279.465 131.478 279.556 131.451 279.648 131.451C279.773 131.451 279.892 131.5 279.979 131.588C280.067 131.676 280.117 131.795 280.117 131.919Z" fill="#263238"/>
<path d="M272.575 129.814C272.575 129.907 272.547 129.998 272.495 130.076C272.444 130.153 272.37 130.213 272.284 130.248C272.198 130.283 272.104 130.292 272.013 130.274C271.922 130.255 271.839 130.21 271.773 130.144C271.708 130.078 271.664 129.994 271.647 129.902C271.629 129.811 271.639 129.717 271.675 129.631C271.712 129.545 271.773 129.473 271.85 129.422C271.928 129.371 272.019 129.344 272.112 129.346C272.235 129.347 272.353 129.397 272.439 129.485C272.526 129.573 272.575 129.691 272.575 129.814Z" fill="#263238"/>
<path d="M263.736 117.009C263.708 117.009 263.939 118.013 264.26 119.266C264.431 120.011 264.642 120.745 264.892 121.467C264.92 121.467 264.683 120.463 264.367 119.238C264.052 118.013 263.764 117.003 263.736 117.009Z" fill="#263238"/>
<path d="M267.335 123.928C267.401 124.37 267.343 124.821 267.166 125.231C267.076 125.441 266.942 125.629 266.774 125.783C266.606 125.936 266.406 126.052 266.19 126.123C265.896 126.217 265.583 126.232 265.281 126.168C264.979 126.103 264.7 125.962 264.469 125.756C263.696 124.855 263.309 123.685 263.392 122.5C263.42 122.131 263.55 121.776 263.768 121.477C263.986 121.178 264.284 120.946 264.627 120.807C265.016 120.703 265.429 120.733 265.798 120.893C266.168 121.053 266.473 121.333 266.664 121.687" fill="#E0E0E0"/>
<path d="M266.663 121.699C266.59 121.547 266.493 121.407 266.376 121.287C266.24 121.145 266.084 121.023 265.913 120.925C265.683 120.796 265.426 120.723 265.163 120.711C265.009 120.707 264.856 120.722 264.706 120.756C264.541 120.791 264.382 120.854 264.238 120.942C263.934 121.153 263.694 121.444 263.544 121.783C263.375 122.153 263.296 122.557 263.313 122.963C263.332 123.393 263.41 123.818 263.544 124.227C263.713 124.874 264.061 125.461 264.548 125.92C264.79 126.108 265.079 126.227 265.383 126.264C265.66 126.297 265.94 126.272 266.207 126.191C266.403 126.141 266.584 126.042 266.731 125.903C266.866 125.784 266.984 125.648 267.081 125.497C267.225 125.248 267.321 124.974 267.363 124.69C267.389 124.502 267.389 124.312 267.363 124.125C267.368 124.078 267.368 124.031 267.363 123.984C267.364 123.967 267.364 123.95 267.363 123.933C267.382 124.176 267.372 124.421 267.335 124.661C267.287 124.937 267.188 125.202 267.041 125.44C266.946 125.584 266.83 125.713 266.697 125.824C266.558 125.95 266.389 126.039 266.207 126.084C265.944 126.165 265.666 126.183 265.396 126.135C265.125 126.088 264.869 125.978 264.65 125.813C264.187 125.371 263.853 124.811 263.685 124.193C263.391 123.43 263.391 122.585 263.685 121.823C263.824 121.501 264.049 121.224 264.334 121.021C264.467 120.937 264.614 120.875 264.768 120.841C265.159 120.739 265.574 120.79 265.93 120.982C266.101 121.07 266.257 121.184 266.393 121.32C266.492 121.44 266.583 121.566 266.663 121.699Z" fill="#263238"/>
<path d="M267.837 123.843C267.903 124.283 267.845 124.733 267.667 125.141C267.578 125.351 267.445 125.54 267.276 125.695C267.108 125.85 266.909 125.967 266.692 126.038C266.398 126.132 266.085 126.147 265.783 126.083C265.481 126.019 265.202 125.877 264.971 125.672C264.198 124.77 263.811 123.6 263.894 122.415C263.92 122.046 264.049 121.692 264.266 121.392C264.484 121.093 264.781 120.861 265.124 120.722C265.513 120.617 265.926 120.647 266.296 120.805C266.667 120.964 266.973 121.243 267.165 121.597" fill="#E0E0E0"/>
<path d="M267.166 121.608C267.093 121.458 266.996 121.32 266.878 121.202C266.743 121.058 266.587 120.937 266.415 120.841C266.184 120.711 265.925 120.637 265.659 120.626C265.506 120.619 265.352 120.635 265.203 120.671C265.039 120.705 264.882 120.768 264.74 120.858C264.433 121.066 264.192 121.358 264.046 121.699C263.876 122.066 263.797 122.468 263.815 122.872C263.834 123.304 263.912 123.731 264.046 124.142C264.217 124.789 264.565 125.375 265.05 125.835C265.292 126.024 265.581 126.143 265.885 126.18C266.162 126.213 266.442 126.188 266.709 126.106C266.907 126.058 267.09 125.959 267.239 125.818C267.374 125.7 267.491 125.563 267.589 125.412C267.733 125.163 267.829 124.889 267.871 124.605C267.897 124.418 267.897 124.228 267.871 124.041C267.873 123.994 267.873 123.947 267.871 123.9C267.872 123.883 267.872 123.866 267.871 123.849C267.889 124.092 267.878 124.336 267.837 124.577C267.79 124.853 267.69 125.117 267.543 125.356C267.451 125.5 267.337 125.63 267.205 125.739C267.066 125.865 266.897 125.955 266.714 125.999C266.452 126.081 266.175 126.1 265.904 126.054C265.633 126.007 265.378 125.898 265.157 125.734C264.694 125.292 264.361 124.732 264.193 124.114C263.899 123.351 263.899 122.506 264.193 121.744C264.33 121.421 264.555 121.144 264.842 120.942C264.974 120.857 265.121 120.795 265.276 120.762C265.418 120.726 265.564 120.709 265.71 120.711C265.963 120.715 266.211 120.781 266.432 120.903C266.604 120.99 266.76 121.104 266.895 121.241C266.992 121.358 267.082 121.481 267.166 121.608Z" fill="#263238"/>
<path d="M266.297 121.586C266.522 121.499 266.768 121.487 267.001 121.551C267.233 121.615 267.439 121.752 267.588 121.941C267.876 122.334 268.003 122.823 267.944 123.307C267.934 123.555 267.871 123.797 267.757 124.018C267.699 124.129 267.619 124.227 267.522 124.306C267.425 124.386 267.313 124.445 267.193 124.481C267.017 124.517 266.834 124.51 266.66 124.461C266.486 124.412 266.327 124.322 266.195 124.199C265.973 124.01 265.794 123.776 265.67 123.512C265.546 123.248 265.481 122.961 265.479 122.669C265.462 122.473 265.507 122.276 265.608 122.107C265.709 121.937 265.861 121.804 266.043 121.727" fill="#E0E0E0"/>
<path d="M266.043 121.727C266.015 121.722 265.986 121.722 265.958 121.727C265.879 121.754 265.807 121.801 265.75 121.862C265.647 121.976 265.568 122.11 265.519 122.256C265.469 122.401 265.45 122.555 265.462 122.709C265.469 123.165 265.632 123.606 265.925 123.956C266.091 124.169 266.305 124.339 266.551 124.453C266.684 124.52 266.832 124.556 266.982 124.556C267.132 124.556 267.28 124.52 267.414 124.453C267.665 124.291 267.846 124.041 267.921 123.753C267.991 123.496 268.018 123.229 268 122.963C267.997 122.735 267.948 122.51 267.856 122.301C267.764 122.093 267.631 121.905 267.464 121.749C267.226 121.549 266.918 121.45 266.607 121.473C266.526 121.484 266.446 121.504 266.37 121.535C266.319 121.563 266.297 121.574 266.297 121.58C266.4 121.549 266.506 121.528 266.613 121.518C266.906 121.509 267.191 121.614 267.408 121.811C267.563 121.962 267.686 122.141 267.771 122.34C267.855 122.539 267.899 122.752 267.899 122.968C267.909 123.223 267.881 123.478 267.814 123.725C267.742 123.983 267.58 124.207 267.357 124.357C267.239 124.415 267.109 124.445 266.977 124.445C266.845 124.445 266.714 124.415 266.596 124.357C266.366 124.25 266.163 124.092 266.004 123.894C265.721 123.562 265.558 123.144 265.541 122.709C265.513 122.417 265.6 122.125 265.784 121.896C265.86 121.825 265.948 121.768 266.043 121.727Z" fill="#263238"/>
<path d="M266.139 125.306C266.139 125.306 266.139 125.232 266.212 125.13C266.277 124.995 266.379 124.882 266.506 124.803C266.64 124.728 266.782 124.668 266.929 124.622C267.041 124.582 267.115 124.554 267.115 124.537C267.048 124.522 266.979 124.522 266.912 124.537C266.749 124.563 266.592 124.619 266.449 124.701C266.3 124.791 266.188 124.931 266.133 125.097C266.099 125.226 266.122 125.311 266.139 125.306Z" fill="#263238"/>
<path d="M265 121.642C265 121.642 265.05 121.71 265.169 121.761C265.325 121.825 265.494 121.852 265.663 121.839C265.831 121.827 265.994 121.775 266.139 121.687C266.246 121.614 266.297 121.552 266.286 121.54C266.084 121.63 265.872 121.693 265.654 121.727C265.433 121.722 265.214 121.693 265 121.642Z" fill="#263238"/>
<path d="M256.285 129.227C255.721 129.391 255.078 128.973 254.525 129.188C254.425 129.229 254.334 129.291 254.258 129.368C254.181 129.445 254.121 129.536 254.08 129.636C254.039 129.737 254.018 129.844 254.018 129.952C254.018 130.061 254.04 130.168 254.082 130.268C254.124 130.368 254.185 130.459 254.262 130.536C254.339 130.612 254.43 130.672 254.53 130.714C254.631 130.755 254.738 130.776 254.847 130.775C254.955 130.775 255.062 130.753 255.162 130.711C255.726 130.452 255.856 129.639 256.398 129.317" fill="#263238"/>
<path d="M251.676 131.264C251.852 131.206 252.024 131.135 252.189 131.05L252.099 130.864C251.822 131.028 251.514 131.132 251.195 131.171C250.875 131.21 250.551 131.182 250.243 131.089C249.827 130.911 249.45 130.651 249.134 130.325C248.819 130 248.57 129.615 248.404 129.193V129.154C248.201 128.747 245.409 120.429 244.896 118.843C244.636 118.187 244.631 117.458 244.881 116.799C245.132 116.14 245.62 115.599 246.25 115.282C246.329 115.237 248.196 114.266 250.119 116.631C252.133 119.108 255.653 123.967 255.98 124.599L256.132 124.87C256.578 125.626 257.508 127.207 256.696 128.561C255.788 130.062 254.649 129.961 254.604 129.961V130.164C254.654 130.164 255.912 130.288 256.894 128.663C257.779 127.212 256.803 125.559 256.33 124.763L256.183 124.503C255.856 123.894 252.319 118.984 250.305 116.501C248.292 114.018 246.199 115.09 246.176 115.101C245.514 115.45 245.001 116.029 244.734 116.729C244.468 117.43 244.465 118.203 244.727 118.905C245.15 120.209 248.027 128.815 248.241 129.244V129.283C248.416 129.731 248.679 130.139 249.014 130.483C249.349 130.827 249.75 131.1 250.193 131.287C250.677 131.439 251.197 131.431 251.676 131.264Z" fill="#263238"/>
<path d="M245.274 120.468C245.25 120.099 245.28 119.728 245.364 119.368C245.466 118.978 245.636 118.609 245.867 118.279C246.147 117.876 246.508 117.536 246.927 117.28C247.704 116.828 248.613 116.661 249.499 116.806C249.866 116.873 250.222 116.986 250.56 117.144C250.56 117.144 250.56 117.144 250.492 117.093C250.43 117.054 250.366 117.019 250.3 116.986C250.05 116.87 249.787 116.785 249.516 116.732C249.111 116.651 248.695 116.64 248.286 116.698C247.786 116.765 247.305 116.932 246.871 117.189C246.437 117.452 246.065 117.807 245.782 118.228C245.551 118.571 245.384 118.953 245.291 119.356C245.226 119.626 245.203 119.904 245.223 120.18C245.223 120.276 245.223 120.35 245.252 120.4C245.28 120.451 245.269 120.474 245.274 120.468Z" fill="#263238"/>
<path d="M243.356 106.675L252.709 118.267L261.085 123.527L244.834 103.024L243.356 106.675Z" fill="#EBEBEB"/>
<path d="M235.082 114.068C235.082 114.068 233.119 117.161 232.825 120.321C232.701 121.557 235.781 144.769 236.125 145.814C236.469 146.858 240.564 149.465 241.766 149.99C242.967 150.515 257.853 155.47 263.939 155.385L265.242 143.9L249.59 141.287C249.59 141.287 247.762 139.549 246.809 139.199L245.5 126.411L243.588 116.145C243.588 116.145 238.139 112.77 235.082 114.068Z" fill="#EBEBEB"/>
<path d="M270.257 127.969C270.178 127.969 269.337 124.582 268.378 120.384C267.419 116.185 266.686 112.753 266.782 112.737C266.878 112.72 267.701 116.123 268.666 120.316C269.63 124.509 270.336 127.946 270.257 127.969Z" fill="#263238"/>
<path d="M244.733 125.277C244.733 125.277 244.733 125.356 244.778 125.514C244.823 125.672 244.851 125.92 244.902 126.225C245.003 126.862 245.15 127.782 245.336 128.973C245.703 131.377 246.239 134.854 246.904 139.182L246.842 139.109C247.367 139.347 247.857 139.657 248.297 140.029C248.76 140.396 249.211 140.791 249.662 141.208L249.606 141.18L265.265 143.765H265.389V143.889C264.983 147.478 264.548 151.35 264.091 155.374V155.509H263.962C261.051 155.371 258.163 154.921 255.348 154.166C251.738 153.303 248.264 152.27 244.93 151.203C244.101 150.932 243.277 150.639 242.465 150.374C241.652 150.094 240.878 149.715 240.158 149.245C239.442 148.805 238.742 148.342 238.077 147.857C237.395 147.389 236.773 146.84 236.226 146.22C236.087 146.06 235.995 145.865 235.961 145.655C235.911 145.447 235.877 145.255 235.848 145.057C235.781 144.662 235.719 144.273 235.657 143.889C235.544 143.11 235.431 142.348 235.318 141.592L234.709 137.207C234.326 134.385 233.981 131.733 233.682 129.306C233.384 126.879 233.118 124.712 232.932 122.788C232.887 122.308 232.831 121.845 232.803 121.394C232.746 120.961 232.746 120.523 232.803 120.09C232.925 119.343 233.102 118.605 233.333 117.883C233.646 116.885 234.052 115.917 234.545 114.994C234.709 114.678 234.856 114.43 234.952 114.288C234.998 114.209 235.05 114.133 235.11 114.063L234.974 114.305C234.89 114.463 234.754 114.7 234.596 115.022C234.13 115.953 233.743 116.921 233.44 117.917C233.22 118.636 233.052 119.37 232.938 120.113C232.888 120.534 232.888 120.961 232.938 121.382C232.972 121.828 233.028 122.291 233.079 122.771C233.288 124.69 233.564 126.868 233.874 129.278C234.184 131.688 234.551 134.357 234.935 137.179C235.134 138.594 235.341 140.055 235.555 141.564C235.668 142.314 235.786 143.076 235.905 143.85L236.091 145.018C236.125 145.21 236.159 145.407 236.204 145.582C236.227 145.764 236.304 145.935 236.424 146.073C236.957 146.67 237.561 147.199 238.223 147.648C238.883 148.133 239.577 148.59 240.288 149.025C240.991 149.492 241.749 149.871 242.544 150.153C243.351 150.436 244.174 150.718 245.003 150.977C248.331 152.038 251.772 153.066 255.399 153.929C258.191 154.675 261.053 155.124 263.939 155.267L263.798 155.396C264.261 151.372 264.701 147.495 265.112 143.912L265.225 144.058L249.572 141.395H249.538C249.093 140.977 248.647 140.582 248.19 140.221C247.769 139.859 247.3 139.558 246.797 139.323L246.741 139.295V139.244C246.115 134.904 245.612 131.422 245.263 129.013C245.099 127.827 244.969 126.902 244.879 126.264C244.84 125.959 244.812 125.7 244.789 125.547C244.764 125.459 244.745 125.368 244.733 125.277Z" fill="#263238"/>
<path d="M243.807 121.828C243.529 121.384 243.288 120.918 243.085 120.434C242.563 119.296 241.908 118.224 241.134 117.24C240.344 116.276 239.312 115.539 238.144 115.107C237.648 114.963 237.143 114.853 236.632 114.779C236.769 114.736 236.913 114.72 237.055 114.734C237.447 114.737 237.837 114.796 238.212 114.909C239.447 115.3 240.54 116.046 241.354 117.054C242.153 118.05 242.801 119.159 243.277 120.344C243.505 120.819 243.682 121.316 243.807 121.828Z" fill="#263238"/>
<path d="M241.303 141.333C241.958 140.555 242.799 139.957 243.748 139.593C244.697 139.23 245.723 139.114 246.729 139.256C245.751 139.355 244.787 139.559 243.852 139.865C242.954 140.265 242.1 140.757 241.303 141.333Z" fill="#263238"/>
<path d="M243.08 143.15C243.348 142.22 243.844 141.372 244.522 140.682C245.201 139.992 246.041 139.482 246.966 139.199C246.161 139.689 245.405 140.256 244.71 140.892C244.099 141.593 243.553 142.349 243.08 143.15Z" fill="#263238"/>
<path d="M261.085 123.527C260.858 123.431 260.64 123.314 260.436 123.177L258.676 122.122L252.635 118.386L249.814 114.915C247.231 111.709 244.913 108.809 243.305 106.771L243.266 106.72V106.67L244.394 104.012L244.71 103.3C244.74 103.213 244.784 103.131 244.839 103.058C244.824 103.149 244.798 103.238 244.76 103.323C244.693 103.521 244.602 103.758 244.495 104.051C244.236 104.728 243.886 105.631 243.452 106.743V106.641C245.099 108.645 247.445 111.523 250.034 114.734L252.855 118.211L252.821 118.183L258.811 122.003L260.504 123.132C260.707 123.248 260.901 123.381 261.085 123.527Z" fill="#263238"/>
<path d="M262.45 125.705C262.449 125.452 262.47 125.199 262.512 124.949C262.58 124.419 262.665 123.73 262.772 122.895C263.003 121.157 263.336 118.736 263.742 116.01V116.1C263.567 115.773 263.375 115.423 263.178 115.067C261.745 112.404 260.459 109.988 259.545 108.222L258.479 106.134C258.338 105.882 258.217 105.62 258.118 105.349C258.293 105.577 258.446 105.821 258.575 106.077L259.731 108.126C260.69 109.858 261.988 112.262 263.432 114.898C263.623 115.254 263.81 115.603 263.996 115.931V115.976V116.027C263.584 118.747 263.206 121.162 262.924 122.895C262.783 123.725 262.665 124.407 262.574 124.938C262.562 125.198 262.52 125.455 262.45 125.705Z" fill="#263238"/>
<path d="M245.297 115.654L245.776 115.361L245.291 115.654C244.49 114.393 243.787 113.072 243.187 111.704L243.086 111.461C242.521 110.078 241.867 108.515 242.144 106.997V106.969C242.283 106.303 242.648 105.705 243.176 105.276L243.328 105.14H243.779V106.015L243.881 106.134L243.779 106.229V106.269C243.522 106.519 243.347 106.842 243.277 107.195V107.223C243.074 108.408 243.65 109.802 244.157 111.032L244.259 111.275C244.837 112.582 245.516 113.843 246.289 115.045L245.297 115.654Z" fill="#263238"/>
<path d="M265.924 150.052C265.966 150.19 265.993 150.332 266.003 150.475C266.043 150.78 266.099 151.186 266.167 151.694C266.308 152.755 266.494 154.29 266.731 156.209C267.165 160.007 267.701 165.239 268.192 171.074C268.683 176.91 269.032 182.158 269.247 185.973C269.348 187.881 269.427 189.427 269.467 190.488C269.467 191.002 269.495 191.408 269.506 191.718C269.52 191.861 269.52 192.005 269.506 192.147C269.475 192.008 269.458 191.866 269.455 191.724C269.455 191.414 269.399 191.007 269.36 190.494C269.281 189.399 269.173 187.864 269.044 185.979C268.779 182.169 268.395 176.904 267.916 171.091C267.436 165.278 266.906 160.018 266.5 156.209C266.314 154.33 266.167 152.823 266.054 151.694C266.009 151.186 265.975 150.78 265.947 150.469C265.931 150.331 265.924 150.191 265.924 150.052Z" fill="#263238"/>
<path d="M258.688 163.292C258.688 163.292 258.564 163.438 258.31 163.659C258.056 163.879 257.672 164.195 257.182 164.567C255.942 165.556 254.634 166.455 253.267 167.259C252.507 167.696 251.719 168.085 250.909 168.422C250.247 168.688 249.566 168.907 248.873 169.076C248.404 169.194 247.927 169.276 247.446 169.319C247.27 169.348 247.091 169.348 246.916 169.319C246.916 169.268 247.66 169.184 248.816 168.856C249.495 168.665 250.16 168.43 250.808 168.151C251.599 167.805 252.371 167.417 253.12 166.988C254.711 166.068 256.07 165.086 257.069 164.387C257.583 163.985 258.124 163.619 258.688 163.292Z" fill="#263238"/>
<path d="M259.573 165.493C259.494 165.657 259.391 165.809 259.269 165.944C258.97 166.343 258.644 166.72 258.293 167.073C255.977 169.451 252.978 171.047 249.713 171.639C249.225 171.733 248.732 171.793 248.235 171.819C248.048 171.843 247.859 171.843 247.671 171.819C247.671 171.763 248.439 171.706 249.657 171.435C251.242 171.081 252.772 170.511 254.203 169.742C255.64 168.983 256.968 168.034 258.152 166.921C259.009 166.068 259.511 165.459 259.573 165.493Z" fill="#263238"/>
<path d="M247.497 172.022C247.301 171.53 247.197 171.006 247.192 170.476C247.091 169.956 247.091 169.421 247.192 168.901C247.492 169.913 247.6 170.971 247.508 172.022H247.497Z" fill="#263238"/>
<path d="M246.143 97.228C245.935 97.2214 245.734 97.1559 245.562 97.0389C245.39 96.922 245.255 96.7585 245.173 96.5677C244.992 96.1683 244.881 95.7406 244.846 95.3035C244.58 93.3847 244.321 91.4602 244.056 89.5358C243.784 87.9114 243.65 86.2671 243.655 84.6202C243.787 83.0242 244.283 81.4796 245.105 80.1054C245.974 78.4123 249.494 75.4833 255.332 77.1368" fill="#263238"/>
<path d="M245.843 90.3089C245.764 90.3089 242.724 89.4511 242.876 92.5664C243.028 95.6816 246.103 94.8633 246.103 94.773C246.103 94.6827 245.843 90.3089 245.843 90.3089Z" fill="#FFBE9D"/>
<path d="M245.099 93.6217C245.099 93.6217 245.049 93.6612 244.958 93.7064C244.834 93.7665 244.691 93.7785 244.558 93.7402C244.352 93.6222 244.182 93.4521 244.063 93.247C243.944 93.0419 243.881 92.8091 243.881 92.572C243.859 92.3091 243.898 92.0446 243.994 91.7988C244.017 91.7004 244.064 91.6093 244.131 91.5335C244.198 91.4577 244.283 91.3996 244.377 91.3643C244.439 91.3445 244.505 91.3467 244.564 91.3704C244.624 91.394 244.674 91.4378 244.705 91.4941C244.75 91.5787 244.733 91.6408 244.75 91.6465C244.767 91.6521 244.812 91.59 244.75 91.4659C244.742 91.4276 244.726 91.3914 244.704 91.3594C244.682 91.3274 244.653 91.3003 244.62 91.2796C244.533 91.2189 244.426 91.1945 244.321 91.2119C244.191 91.2409 244.071 91.3028 243.972 91.3918C243.874 91.4808 243.799 91.5938 243.757 91.7198C243.642 91.9944 243.594 92.2922 243.616 92.5889C243.615 92.8651 243.695 93.1355 243.846 93.3663C243.998 93.5972 244.214 93.7783 244.468 93.887C244.552 93.9054 244.64 93.9054 244.725 93.8869C244.809 93.8684 244.889 93.8318 244.958 93.7797C245.099 93.6951 245.111 93.6274 245.099 93.6217Z" fill="#EB996E"/>
<path d="M261.711 96.0541C261.711 93.87 261.305 89.3777 260.904 85.3313C260.695 83.2248 259.7 81.2743 258.119 79.8678C256.538 78.4613 254.485 77.7019 252.37 77.7407H251.935C247.237 78.1019 244.924 82.2894 245.415 86.9792L246.075 101.923L257.272 108.069L257.232 101.37C257.232 101.37 261.739 100.575 261.711 96.0541Z" fill="#FFBE9D"/>
<path d="M257.237 101.359C255.153 101.439 253.093 100.894 251.32 99.7958C251.32 99.7958 252.742 103.069 257.243 102.584L257.237 101.359Z" fill="#EB996E"/>
<path d="M259.409 88.2772C259.414 88.4451 259.353 88.6081 259.239 88.7314C259.125 88.8548 258.968 88.9288 258.8 88.9375C258.718 88.9461 258.636 88.9382 258.557 88.9142C258.479 88.8903 258.406 88.8509 258.343 88.7983C258.28 88.7457 258.228 88.681 258.19 88.6079C258.152 88.5349 258.13 88.4551 258.123 88.3732C258.119 88.2054 258.18 88.0424 258.294 87.919C258.407 87.7956 258.565 87.7217 258.732 87.7129C258.814 87.7051 258.896 87.7136 258.975 87.7378C259.053 87.762 259.126 87.8015 259.188 87.854C259.251 87.9065 259.303 87.9709 259.341 88.0435C259.379 88.1162 259.402 88.1956 259.409 88.2772Z" fill="#263238"/>
<path d="M260.035 87.3072C259.956 87.392 259.471 87.0361 258.766 87.053C258.061 87.0699 257.57 87.4258 257.491 87.3411C257.412 87.2564 257.536 87.149 257.751 86.9852C258.049 86.7723 258.405 86.656 258.772 86.6519C259.132 86.6433 259.486 86.7501 259.781 86.957C260.001 87.1151 260.075 87.2677 260.035 87.3072Z" fill="#263238"/>
<path d="M252.658 88.4184C252.664 88.5866 252.603 88.7504 252.489 88.8741C252.375 88.9978 252.217 89.0713 252.049 89.0787C251.967 89.0872 251.885 89.0792 251.807 89.0552C251.728 89.0313 251.656 88.9918 251.593 88.9391C251.531 88.8864 251.479 88.8217 251.442 88.7487C251.405 88.6757 251.383 88.596 251.377 88.5143C251.371 88.3461 251.432 88.1822 251.546 88.0586C251.66 87.9349 251.818 87.8613 251.987 87.854C252.068 87.8455 252.15 87.8534 252.228 87.8774C252.307 87.9014 252.379 87.9409 252.442 87.9936C252.505 88.0462 252.556 88.111 252.593 88.184C252.63 88.257 252.652 88.3367 252.658 88.4184Z" fill="#263238"/>
<path d="M253.115 87.2168C253.047 87.3072 252.517 87.0134 251.829 87.1038C251.14 87.1942 250.7 87.6009 250.593 87.5275C250.486 87.4541 250.593 87.3354 250.813 87.1433C251.084 86.8969 251.425 86.7427 251.789 86.7027C252.147 86.6543 252.51 86.7216 252.827 86.8948C253.058 87.053 253.148 87.2168 253.115 87.2168Z" fill="#263238"/>
<path d="M255.765 92.905C256.13 92.7819 256.509 92.706 256.894 92.6792C257.074 92.6792 257.238 92.6228 257.266 92.4986C257.277 92.3145 257.232 92.1314 257.136 91.9738L256.572 90.6363C256.064 89.4997 255.649 88.3239 255.331 87.1203C255.924 88.2088 256.433 89.3408 256.854 90.5065C257.035 90.9805 257.209 91.4264 257.379 91.8553C257.496 92.0686 257.534 92.3165 257.486 92.5551C257.461 92.6177 257.422 92.6737 257.372 92.7188C257.323 92.7638 257.263 92.7966 257.198 92.8147C257.101 92.8458 257.001 92.8629 256.899 92.8655C256.524 92.9263 256.143 92.9396 255.765 92.905Z" fill="#263238"/>
<path d="M253.729 93.4242C253.842 93.4242 253.859 94.1691 254.513 94.6883C255.167 95.2076 255.968 95.1173 255.98 95.2245C255.991 95.3317 255.799 95.3712 255.461 95.3881C255.02 95.4027 254.588 95.2608 254.242 94.9875C253.909 94.7238 253.691 94.3416 253.633 93.9208C253.599 93.6048 253.678 93.4242 253.729 93.4242Z" fill="#263238"/>
<path d="M253.154 84.2426C253.092 84.429 252.393 84.3556 251.581 84.4686C250.768 84.5815 250.114 84.8132 250.001 84.6493C249.888 84.4855 250.063 84.3895 250.328 84.1974C250.676 83.964 251.074 83.8169 251.49 83.7681C251.906 83.71 252.329 83.7507 252.726 83.8867C253.03 84.0053 253.182 84.1522 253.154 84.2426Z" fill="#263238"/>
<path d="M259.68 85.5239C259.561 85.6821 259.082 85.5239 258.507 85.5239C257.931 85.5239 257.446 85.6482 257.328 85.49C257.209 85.3318 257.328 85.2471 257.565 85.0946C257.844 84.9047 258.175 84.8078 258.512 84.8177C258.85 84.8171 259.179 84.9218 259.454 85.1172C259.663 85.2979 259.731 85.4618 259.68 85.5239Z" fill="#263238"/>
<path d="M255.675 77.2441C254.079 76.612 252.46 76.9449 250.762 77.1933C249.455 77.3585 248.21 77.8537 247.147 78.6324C246.325 79.2788 245.659 80.1019 245.198 81.0407C244.737 81.9795 244.493 83.01 244.484 84.0559C244.394 86.11 244.62 88.1657 245.155 90.1509L245.325 90.1114C245.172 90.622 245.162 91.1646 245.296 91.6803C245.374 91.9347 245.547 92.1487 245.78 92.2764C246.013 92.404 246.287 92.4352 246.543 92.3632C247.107 92.1149 247.107 91.3304 247.107 90.7096C246.96 88.6203 246.96 86.5233 247.107 84.434C247.197 82.8763 248.083 80.9632 249.301 80.2239C251.518 78.7452 254.406 79.953 255.382 80.1223C256.888 78.8355 258.293 79.8401 259.206 80.9575C258.823 79.2757 257.272 77.8705 255.675 77.2441Z" fill="#263238"/>
<path d="M255.332 80.1223C256.324 80.1223 257.114 79.4564 258.214 79.637C258.879 79.7442 259.551 80.8334 260.132 82.1879C260.465 81.9868 260.731 81.6909 260.895 81.3379C261.06 80.9849 261.115 80.5909 261.054 80.2062C260.994 79.8216 260.82 79.4637 260.555 79.1783C260.29 78.893 259.947 78.6931 259.568 78.6042C259.831 78.7748 260.134 78.874 260.448 78.8921C260.603 78.894 260.754 78.8369 260.869 78.7321C260.984 78.6274 261.055 78.4829 261.068 78.3277C261.05 78.2131 261.008 78.1036 260.945 78.0063C260.882 77.9091 260.799 77.8263 260.701 77.7633C259.7 76.9698 258.425 76.6062 257.156 76.7522C255.887 76.8982 254.728 77.5419 253.933 78.5422" fill="#263238"/>
<path d="M260.43 78.2543C260.43 78.2938 260.109 78.085 259.573 77.9156C258.885 77.6942 258.145 77.6942 257.457 77.9156C256.771 78.163 256.18 78.6188 255.765 79.2193C255.449 79.6821 255.354 80.0263 255.303 80.0151C255.309 79.6925 255.409 79.3787 255.59 79.1121C255.974 78.4232 256.598 77.8995 257.342 77.6404C258.087 77.3813 258.901 77.4049 259.629 77.7068C260.199 77.9495 260.453 78.2317 260.43 78.2543Z" fill="#455A64"/>
<path d="M260.221 81.6573C260.269 81.3091 260.269 80.9559 260.221 80.6076C260.14 80.2423 259.97 79.9029 259.725 79.62C259.422 79.2878 259.031 79.049 258.597 78.9315C258.188 78.8352 257.764 78.8226 257.35 78.8944C256.936 78.9662 256.541 79.1208 256.188 79.3491C255.624 79.699 255.353 80.015 255.32 79.9812C255.286 79.9473 255.517 79.5918 256.075 79.1798C256.405 78.9383 256.776 78.7586 257.17 78.6493C257.661 78.5194 258.178 78.5194 258.67 78.6493C259.169 78.776 259.616 79.054 259.951 79.445C260.216 79.7685 260.385 80.1593 260.441 80.5738C260.483 80.7597 260.485 80.9524 260.447 81.1391C260.41 81.3259 260.332 81.5025 260.221 81.6573Z" fill="#455A64"/>
<path d="M244.152 89.0956C244.152 89.0956 244.084 88.9545 244.034 88.6836C243.961 88.3004 243.927 87.9109 243.932 87.521C243.928 86.2224 244.25 84.9436 244.868 83.8019C245.489 82.6608 246.382 81.6913 247.469 80.9801C247.793 80.7606 248.136 80.5717 248.495 80.4157C248.623 80.3453 248.763 80.3011 248.907 80.2859C248.907 80.3311 248.343 80.5681 247.582 81.1381C246.56 81.8687 245.719 82.8229 245.121 83.928C244.524 85.0332 244.187 86.2601 244.135 87.5154C244.09 88.4917 244.203 89.0899 244.152 89.0956Z" fill="#455A64"/>
<path d="M244.839 89.6656C244.643 88.5315 244.73 87.3664 245.093 86.2743C245.456 85.1821 246.084 84.197 246.921 83.4068C246.291 84.3294 245.771 85.3217 245.369 86.3641C245.065 87.4402 244.887 88.5482 244.839 89.6656Z" fill="#455A64"/>
<path d="M295.894 115.502C295.764 115.158 295.11 115.084 295.11 115.084L295.24 114.887C295.333 114.749 295.388 114.59 295.4 114.425C295.412 114.259 295.38 114.093 295.307 113.944L295.234 113.803C295.045 113.543 294.782 113.346 294.478 113.239C294.478 113.239 294.958 112.584 294.839 112.262C294.706 111.989 294.495 111.762 294.234 111.608C293.972 111.454 293.67 111.382 293.367 111.399C292.322 111.632 291.295 111.937 290.293 112.313C290.2 112.348 290.102 112.362 290.003 112.355C289.905 112.348 289.809 112.319 289.723 112.271C289.637 112.224 289.562 112.158 289.503 112.078C289.445 111.999 289.404 111.908 289.385 111.811C289.203 110.825 288.87 109.873 288.398 108.989C287.833 108.041 287.173 108.007 286.773 108.098C286.728 108.107 286.685 108.127 286.649 108.155C286.612 108.183 286.582 108.218 286.56 108.259C286.539 108.3 286.526 108.345 286.524 108.391C286.522 108.438 286.53 108.484 286.547 108.526C286.828 109.173 287.067 109.836 287.264 110.513C287.371 111.021 287.004 114.695 287.004 114.695L285.137 117.206L289.368 123.318L291.229 120.553L295.217 118.798C295.217 118.798 295.973 117.844 295.894 117.517C295.825 117.302 295.686 117.117 295.499 116.992L295.996 116.298C296.012 116.028 295.978 115.758 295.894 115.502Z" fill="#FFBE9D"/>
<path d="M294.834 113.34L294.755 113.391L294.506 113.532L293.598 114.04L292.244 114.774C291.985 114.909 291.726 115.067 291.427 115.191C291.275 115.269 291.106 115.31 290.936 115.31C290.765 115.31 290.597 115.269 290.445 115.191C290.296 115.092 290.187 114.942 290.14 114.768C290.101 114.603 290.101 114.431 290.14 114.266C290.219 113.961 290.401 113.692 290.654 113.504C290.873 113.332 291.105 113.177 291.348 113.041L291.962 112.674L292.859 112.144L293.107 112.008L293.192 111.963C293.192 111.963 293.192 111.963 293.113 112.025L292.876 112.178L291.996 112.742L291.387 113.12C291.151 113.257 290.925 113.41 290.71 113.577C290.476 113.759 290.308 114.013 290.231 114.3C290.188 114.448 290.19 114.607 290.239 114.754C290.287 114.901 290.379 115.03 290.501 115.124C290.635 115.205 290.79 115.247 290.947 115.242C291.102 115.235 291.255 115.2 291.398 115.141C291.686 115.022 291.962 114.864 292.205 114.734L293.57 114.012L294.495 113.538L294.749 113.408L294.834 113.34Z" fill="#EB996E"/>
<path d="M295.375 115.175C295.316 115.221 295.252 115.259 295.183 115.287C295.059 115.355 294.878 115.451 294.647 115.558C294.19 115.784 293.553 116.072 292.831 116.36C292.657 116.436 292.478 116.5 292.295 116.552C292.11 116.603 291.915 116.603 291.731 116.552C291.579 116.509 291.442 116.425 291.336 116.308C291.231 116.191 291.16 116.047 291.133 115.891C291.106 115.692 291.157 115.49 291.274 115.327C291.303 115.28 291.339 115.238 291.381 115.203L291.432 115.169C291.432 115.169 291.375 115.225 291.302 115.344C291.199 115.513 291.161 115.713 291.195 115.908C291.23 116.044 291.301 116.168 291.4 116.268C291.499 116.367 291.623 116.438 291.759 116.473C291.924 116.514 292.096 116.514 292.261 116.473C292.43 116.427 292.605 116.348 292.786 116.281C293.502 115.993 294.145 115.716 294.607 115.508L295.172 115.259C295.236 115.223 295.304 115.195 295.375 115.175Z" fill="#EB996E"/>
<path d="M295.583 116.913C295.525 116.947 295.462 116.972 295.397 116.986L294.866 117.161L293.107 117.692C292.932 117.737 292.768 117.793 292.593 117.821C292.426 117.859 292.252 117.847 292.091 117.788C292.017 117.759 291.949 117.715 291.893 117.659C291.836 117.603 291.792 117.535 291.764 117.46C291.722 117.33 291.722 117.19 291.764 117.059C291.833 116.879 291.963 116.727 292.131 116.631C292.187 116.591 292.25 116.563 292.317 116.546C292.264 116.586 292.21 116.624 292.153 116.659C292.005 116.763 291.892 116.911 291.832 117.082C291.794 117.197 291.794 117.322 291.832 117.438C291.857 117.501 291.896 117.557 291.945 117.603C291.995 117.649 292.055 117.683 292.119 117.703C292.269 117.746 292.427 117.746 292.576 117.703C292.734 117.703 292.904 117.618 293.073 117.573C293.761 117.37 294.387 117.189 294.838 117.071L295.402 116.924L295.583 116.913Z" fill="#EB996E"/>
<path d="M295.606 118.505C295.406 118.539 295.204 118.56 295.002 118.567L293.552 118.646H293.135C293.004 118.663 292.871 118.663 292.74 118.646C292.616 118.625 292.503 118.564 292.419 118.471C292.38 118.429 292.353 118.378 292.338 118.323C292.323 118.268 292.322 118.21 292.334 118.155C292.352 118.079 292.387 118.008 292.436 117.948C292.484 117.887 292.546 117.838 292.616 117.804C292.663 117.775 292.718 117.761 292.774 117.765C292.725 117.786 292.678 117.811 292.633 117.838C292.573 117.874 292.521 117.921 292.481 117.978C292.44 118.034 292.411 118.098 292.396 118.166C292.39 118.212 292.394 118.258 292.408 118.302C292.421 118.346 292.444 118.386 292.475 118.42C292.55 118.498 292.65 118.548 292.757 118.561C292.883 118.576 293.009 118.576 293.135 118.561H293.547C294.111 118.561 294.63 118.516 295.002 118.511C295.203 118.492 295.405 118.49 295.606 118.505Z" fill="#EB996E"/>
<path d="M291.781 117.128C291.452 117.006 291.112 116.917 290.766 116.862C290.416 116.842 290.064 116.857 289.717 116.907C290.054 116.78 290.417 116.733 290.775 116.772C291.134 116.81 291.478 116.932 291.781 117.128Z" fill="#EB996E"/>
<path d="M265.164 144.572L266.043 144.346C266.043 144.346 266.348 142.873 266.737 142.563C267.126 142.252 271.002 140.486 271.853 140.023C272.705 139.56 276.033 138.042 276.451 138.844C276.924 139.758 275.565 140.537 274.832 140.858C274.098 141.18 272.011 142.021 272.423 142.523C272.835 143.026 277.539 142.8 277.539 142.8L278.103 142.01C278.103 142.01 279.135 142.986 279.017 143.838C278.958 144.329 278.801 144.803 278.554 145.232H278.205C278.303 145.381 278.359 145.554 278.366 145.732C278.373 145.91 278.331 146.087 278.244 146.242C277.967 146.652 277.658 147.039 277.319 147.399C277.081 147.804 276.762 148.156 276.383 148.434C276.004 148.712 275.572 148.909 275.114 149.013C274.916 149.064 267.177 149.741 267.177 149.741L264.583 150.001L265.164 144.572Z" fill="#FFBE9D"/>
<g opacity="0.8">
<path d="M110.141 30.3049L89.5978 22.7312L69.2575 30.2033C66.6572 31.4618 64.384 32.2124 64.384 34.7182V47.0607C64.3377 55.7218 66.6546 64.2313 71.0851 71.6723C75.445 79.0991 81.9776 85.0086 89.8009 88.603C98.1152 85.832 104.32 78.4446 108.116 72.1181C112.543 64.6797 114.86 56.1748 114.817 47.5178V36.4225C114.817 32.884 112.99 31.1571 110.141 30.3049Z" fill="#1E934C" fill-opacity="0.68"/>
</g>
<path d="M105.944 34.4996L89.4617 28.4271L73.1432 34.415C71.0561 35.4252 69.2286 36.029 69.2286 38.0212V47.9426C69.1918 54.8941 71.0524 61.7238 74.6098 67.6951C78.102 73.6652 83.3439 78.4172 89.6253 81.3074C96.2925 79.0839 101.273 73.1525 104.319 68.0845C107.872 62.1116 109.731 55.2827 109.695 48.332V39.4095C109.695 36.5708 108.228 35.1825 105.944 34.4996Z" fill="#058638"/>
<path d="M101.939 51.5432H92.248V41.8419H86.6807V51.5432H76.9844V57.1135H86.6807V66.8091H92.248V57.1135H101.939V51.5432Z" fill="white"/>
<path d="M120.051 79.795C120.051 79.795 120.141 79.6595 120.333 79.4056L120.497 79.1968C120.553 79.1121 120.598 79.0162 120.66 78.9146C120.805 78.6839 120.928 78.4402 121.027 78.1866C121.083 78.0398 121.151 77.8931 121.208 77.7294C121.264 77.5658 121.303 77.3852 121.354 77.2046C121.408 77.0197 121.447 76.831 121.473 76.6402C121.515 76.4258 121.545 76.2091 121.563 75.9912C121.649 74.9529 121.601 73.9079 121.422 72.8816C120.886 70.0585 119.92 67.3347 118.556 64.8056C116.803 61.4439 114.749 58.2479 112.419 55.2567C109.615 51.6182 106.558 48.1822 103.27 44.9741C99.512 41.2825 95.4991 37.8597 91.2612 34.731C89.005 33.0774 86.6528 31.4803 84.1596 29.9735C81.6202 28.4239 78.9823 27.042 76.2627 25.8367C73.4642 24.5537 70.5154 23.6284 67.4858 23.0827C65.9399 22.808 64.3613 22.77 62.804 22.9698C62.0255 23.0836 61.2663 23.3039 60.5477 23.6245C59.825 23.9491 59.1787 24.4225 58.651 25.0137C58.1232 25.6049 57.7259 26.3007 57.4848 27.0557C57.2496 27.8076 57.1168 28.5878 57.09 29.3753C57.07 30.9474 57.2887 32.5135 57.7387 34.0199C58.624 36.9701 59.8766 39.7971 61.4672 42.4345C62.9775 44.996 64.6506 47.4579 66.4761 49.805C68.2585 52.1132 70.1143 54.2804 72.0096 56.3233C75.6109 60.1778 79.4787 63.7741 83.5843 67.0856C87.1542 69.9817 90.924 72.6219 94.8656 74.9866C98.0918 76.9605 101.49 78.6378 105.019 79.9981C107.677 81.062 110.483 81.711 113.339 81.9226C114.38 81.9857 115.424 81.9136 116.447 81.7081C116.661 81.6688 116.872 81.616 117.079 81.5501C117.272 81.5029 117.461 81.4387 117.643 81.3582L118.15 81.1551C118.303 81.0817 118.444 80.9971 118.579 80.9237C118.822 80.7995 119.05 80.6501 119.262 80.4778C119.357 80.4101 119.448 80.348 119.521 80.286L119.713 80.0997C119.944 79.8796 120.068 79.7724 120.068 79.7724L119.73 80.111L119.538 80.3029C119.465 80.365 119.374 80.4271 119.278 80.5004C119.056 80.6946 118.814 80.8649 118.556 81.0083L118.128 81.2454L117.62 81.4542C117.438 81.5338 117.249 81.598 117.056 81.6461C116.847 81.7132 116.634 81.7697 116.419 81.8154C115.393 82.0242 114.345 82.102 113.299 82.0468C110.434 81.8453 107.616 81.2038 104.946 80.1449C101.398 78.7929 97.9808 77.1212 94.7359 75.1503C90.7953 72.7839 87.0256 70.1438 83.4545 67.2493C79.3436 63.9338 75.4719 60.3317 71.8686 56.4701C69.9733 54.4214 68.1119 52.2543 66.3238 49.9405C64.4901 47.5897 62.8112 45.122 61.2979 42.553C59.6987 39.8992 58.4386 37.0553 57.5469 34.0876C57.0933 32.5646 56.8746 30.9812 56.8982 29.3922C56.9246 28.5858 57.0593 27.7867 57.2987 27.0162C57.5674 26.2459 57.9767 25.5321 58.5058 24.9112C59.0582 24.3035 59.7204 23.8057 60.4575 23.4439C61.1931 23.1181 61.969 22.8923 62.7645 22.7723C64.3408 22.5713 65.9384 22.6112 67.5027 22.8908C70.5471 23.4411 73.5107 24.37 76.3247 25.6561C79.0438 26.8688 81.6817 28.2562 84.2217 29.8098C86.7205 31.3223 89.0896 32.9251 91.3346 34.5786C95.5876 37.7284 99.6138 41.1738 103.383 44.8895C106.668 48.1099 109.724 51.5572 112.527 55.2059C114.857 58.2098 116.908 61.4213 118.652 64.8C120.003 67.3343 120.954 70.0623 121.473 72.8872C121.649 73.9196 121.692 74.9703 121.602 76.0138C121.602 76.2452 121.535 76.4596 121.507 76.6628C121.478 76.8628 121.437 77.0608 121.382 77.2554C121.326 77.436 121.275 77.6166 121.23 77.7802C121.185 77.9439 121.1 78.0963 121.044 78.2373C120.94 78.4926 120.814 78.7382 120.666 78.971C120.604 79.0726 120.553 79.1685 120.503 79.2476L120.333 79.4564L120.051 79.795Z" fill="#058638"/>
<path d="M131.406 52.3672C131.406 52.3672 131.406 52.2035 131.361 51.8875C131.361 51.8085 131.361 51.7182 131.361 51.6222C131.361 51.5263 131.316 51.4191 131.293 51.3062C131.246 51.0367 131.175 50.7722 131.079 50.5161C131.028 50.375 130.977 50.217 130.91 50.0533L130.673 49.568C130.586 49.3866 130.484 49.2129 130.368 49.0488C130.261 48.8528 130.14 48.6643 130.007 48.4844C129.384 47.6396 128.652 46.8806 127.83 46.227C125.558 44.4826 123.032 43.0987 120.339 42.1241C116.794 40.7828 113.135 39.7647 109.407 39.0822C104.886 38.2526 100.311 37.7416 95.7175 37.5528C90.4513 37.2954 85.1736 37.4104 79.9236 37.897C77.1484 38.1623 74.3224 38.5461 71.4626 39.0822C68.5385 39.6153 65.6519 40.3374 62.8211 41.2437C59.882 42.1539 57.0681 43.4279 54.4447 45.0362C53.1053 45.8582 51.8993 46.8802 50.8685 48.0668C50.3628 48.6731 49.9416 49.3451 49.6162 50.0646C49.2935 50.7883 49.1267 51.5719 49.1267 52.3644C49.1267 53.1568 49.2935 53.9404 49.6162 54.6641C49.9416 55.3836 50.3628 56.0556 50.8685 56.6619C51.8989 57.8483 53.1027 58.8719 54.439 59.6982C57.0627 61.3154 59.8787 62.597 62.8211 63.5132C65.6524 64.4194 68.5388 65.1433 71.4626 65.6804C74.3281 66.2447 77.154 66.5946 79.9236 66.8599C85.1736 67.3462 90.4513 67.4613 95.7175 67.2041C100.305 67.0006 104.872 66.4726 109.385 65.6239C113.114 64.9404 116.774 63.9243 120.322 62.5877C123.018 61.5967 125.544 60.1957 127.813 58.434C128.635 57.7804 129.367 57.0214 129.99 56.1766C130.123 55.9954 130.245 55.8069 130.357 55.6122C130.469 55.4467 130.569 55.2732 130.656 55.093L130.898 54.6077C130.96 54.444 131.011 54.2916 131.062 54.1449C131.158 53.8888 131.23 53.6243 131.276 53.3548C131.276 53.2419 131.327 53.1347 131.344 53.0388C131.361 52.9428 131.344 52.8525 131.344 52.7735C131.372 52.4575 131.389 52.2938 131.389 52.2938C131.389 52.2938 131.389 52.4575 131.389 52.7735V53.0444C131.389 53.1403 131.35 53.2476 131.327 53.3604C131.285 53.6322 131.215 53.8989 131.118 54.1562C131.068 54.3029 131.023 54.4609 130.955 54.6246C130.887 54.7883 130.803 54.9463 130.718 55.1156C130.632 55.2982 130.532 55.4738 130.419 55.6405C130.309 55.8351 130.189 56.0235 130.058 56.2048C129.432 57.0478 128.7 57.8066 127.881 58.4622C125.61 60.2225 123.081 61.6216 120.384 62.6103C116.837 63.9616 113.174 64.9892 109.441 65.6804C104.921 66.537 100.347 67.0726 95.7514 67.2831C90.4856 67.5453 85.2079 67.4359 79.9575 66.9558C77.1822 66.6962 74.345 66.3125 71.4964 65.7763C68.5642 65.244 65.67 64.52 62.8324 63.6092C59.8751 62.6972 57.0439 61.4174 54.4052 59.7998C53.0527 58.9662 51.8353 57.9309 50.7952 56.7297C50.279 56.109 49.8483 55.4219 49.5147 54.6867C49.201 53.9329 49.0307 53.1271 49.0127 52.3107C49.0305 51.4956 49.2028 50.6913 49.5204 49.9404C49.8517 49.204 50.2825 48.5166 50.8008 47.8975C51.8261 46.7248 53.02 45.711 54.3431 44.8894C56.9804 43.273 59.8096 41.9932 62.7647 41.08C65.6026 40.1686 68.4967 39.4428 71.4288 38.9072C74.2999 38.3429 77.1371 37.993 79.8898 37.7277C85.1402 37.2477 90.4179 37.1383 95.6837 37.4004C100.278 37.6099 104.851 38.1474 109.368 39.0088C113.118 39.6911 116.798 40.715 120.362 42.0676C123.058 43.0545 125.587 44.4518 127.858 46.21C128.678 46.8657 129.41 47.6244 130.035 48.4675C130.166 48.6488 130.287 48.8372 130.396 49.0318C130.508 49.2 130.607 49.3753 130.695 49.5567L130.932 50.0533C131 50.2113 131.045 50.3694 131.096 50.5161C131.192 50.7736 131.262 51.0402 131.305 51.3118C131.305 51.4247 131.35 51.5319 131.367 51.6335V51.8988C131.4 52.2261 131.406 52.3672 131.406 52.3672Z" fill="#058638"/>
<path d="M116.357 18.2292L115.956 17.9696L115.736 17.8003C115.652 17.7495 115.55 17.71 115.449 17.6592C115.206 17.5317 114.954 17.4259 114.693 17.3431L114.225 17.1908L113.689 17.0835C113.494 17.0415 113.296 17.0151 113.096 17.0045C112.881 16.9777 112.665 16.9626 112.448 16.9594C111.405 16.9457 110.364 17.0652 109.351 17.3149C106.583 18.0356 103.943 19.1777 101.522 20.7011C98.2909 22.6792 95.2457 24.9459 92.4233 27.4734C88.9831 30.5402 85.7654 33.8482 82.7947 37.3722C79.3636 41.3766 76.2214 45.62 73.3917 50.0702C71.9025 52.4236 70.4698 54.8955 69.1386 57.4859C67.7604 60.1245 66.5564 62.8505 65.5342 65.6465C64.4478 68.5285 63.7276 71.5356 63.3908 74.5972C63.2234 76.1583 63.2938 77.7358 63.5995 79.2757C63.7691 80.0457 64.0404 80.7896 64.4061 81.488C64.7815 82.1858 65.2986 82.7972 65.9242 83.2832C66.5498 83.7692 67.27 84.1188 68.0387 84.3098C68.8066 84.4939 69.5961 84.5717 70.3852 84.5412C71.9517 84.4557 73.4962 84.1322 74.9654 83.5818C77.8459 82.4922 80.5785 81.0456 83.0993 79.2757C85.5531 77.5959 87.8934 75.7558 90.105 73.7676C92.2879 71.8319 94.3186 69.8171 96.2251 67.7967C99.8275 63.9454 103.153 59.8435 106.175 55.5219C108.833 51.7746 111.223 47.8444 113.328 43.7607C115.073 40.3944 116.512 36.8773 117.626 33.2524C118.5 30.5248 118.953 27.6796 118.968 24.8152C118.958 23.7721 118.814 22.7346 118.54 21.7282C118.495 21.5081 118.399 21.3106 118.337 21.1074C118.276 20.9139 118.2 20.7252 118.111 20.543C118.028 20.3737 117.949 20.2101 117.874 20.052C117.784 19.9053 117.694 19.7699 117.609 19.6401C117.468 19.4061 117.303 19.1868 117.118 18.9854C117.045 18.9008 116.977 18.8105 116.91 18.7427L116.712 18.5621L116.357 18.2348C116.357 18.2348 116.486 18.3364 116.723 18.5509L116.926 18.7258C116.994 18.7935 117.062 18.8782 117.141 18.9685C117.328 19.1687 117.496 19.386 117.643 19.6175C117.727 19.7473 117.823 19.8827 117.908 20.0351C117.993 20.1875 118.066 20.3512 118.15 20.5261C118.245 20.7066 118.322 20.8955 118.382 21.0905C118.449 21.2936 118.545 21.4912 118.596 21.7113C118.877 22.7226 119.026 23.7658 119.042 24.8152C119.038 27.6881 118.593 30.5432 117.722 33.2806C116.618 36.9158 115.185 40.4426 113.44 43.8172C111.351 47.9133 108.972 51.855 106.322 55.6122C103.303 59.9476 99.9781 64.061 96.3718 67.9209C94.4653 69.9582 92.4233 71.9673 90.246 73.9087C88.0273 75.899 85.6815 77.7427 83.2234 79.4281C80.6928 81.211 77.9465 82.6655 75.05 83.7567C73.5634 84.3171 71.9997 84.6463 70.4134 84.7331C69.6073 84.7612 68.8011 84.6815 68.0161 84.496C67.2296 84.2793 66.4896 83.9197 65.8332 83.4351C65.2008 82.9172 64.6708 82.2856 64.2707 81.5727C63.894 80.861 63.6151 80.1016 63.4415 79.3152C63.1304 77.7569 63.06 76.16 63.2328 74.5803C63.5703 71.5035 64.2923 68.4813 65.3819 65.5844C66.4038 62.7837 67.6059 60.0521 68.9807 57.4069C70.3175 54.8052 71.7502 52.3277 73.245 49.9799C76.0845 45.5258 79.2362 41.2787 82.6762 37.2706C85.6584 33.7653 88.8854 30.4763 92.3331 27.4282C95.1636 24.896 98.2205 22.629 101.465 20.6559C103.906 19.1235 106.57 17.9811 109.362 17.2698C110.379 17.0204 111.424 16.9047 112.47 16.9255C112.689 16.9303 112.908 16.9473 113.125 16.9763C113.326 16.9891 113.526 17.0174 113.723 17.061L114.287 17.1738C114.456 17.2246 114.608 17.2811 114.755 17.3318C115.016 17.4163 115.269 17.524 115.511 17.6535C115.612 17.71 115.714 17.7495 115.798 17.8003L116.018 17.9526L116.357 18.2292Z" fill="#058638"/>
<path d="M48.6121 69.3769C48.8253 69.591 48.9703 69.8636 49.0288 70.1601C49.0873 70.4566 49.0567 70.7638 48.9408 71.0429C48.8249 71.322 48.629 71.5605 48.3777 71.7283C48.1265 71.8961 47.8312 71.9857 47.5291 71.9857C47.227 71.9857 46.9317 71.8961 46.6805 71.7283C46.4292 71.5605 46.2333 71.322 46.1174 71.0429C46.0015 70.7638 45.9709 70.4566 46.0294 70.1601C46.0879 69.8636 46.2329 69.591 46.4461 69.3769C46.5877 69.2336 46.7564 69.1198 46.9423 69.0421C47.1282 68.9645 47.3277 68.9245 47.5291 68.9245C47.7306 68.9245 47.93 68.9645 48.1159 69.0421C48.3018 69.1198 48.4705 69.2336 48.6121 69.3769Z" fill="#058638"/>
<path d="M134.915 21.954C134.915 22.2565 134.825 22.5522 134.657 22.8037C134.489 23.0552 134.25 23.2512 133.971 23.367C133.692 23.4827 133.384 23.513 133.088 23.454C132.791 23.395 132.519 23.2493 132.305 23.0354C132.091 22.8215 131.946 22.549 131.887 22.2523C131.828 21.9557 131.858 21.6482 131.974 21.3687C132.089 21.0892 132.285 20.8504 132.537 20.6823C132.788 20.5143 133.084 20.4246 133.386 20.4246C133.791 20.4246 134.18 20.5857 134.467 20.8725C134.754 21.1593 134.915 21.5483 134.915 21.954Z" fill="#058638"/>
<path d="M58.2467 74.4058C58.2467 74.4829 58.2239 74.5582 58.1811 74.6223C58.1383 74.6864 58.0775 74.7364 58.0064 74.7659C57.9353 74.7954 57.857 74.8031 57.7815 74.7881C57.706 74.773 57.6367 74.7359 57.5823 74.6814C57.5278 74.6269 57.4908 74.5574 57.4757 74.4818C57.4607 74.4062 57.4684 74.3278 57.4979 74.2566C57.5273 74.1854 57.5772 74.1245 57.6412 74.0817C57.7052 74.0388 57.7805 74.016 57.8575 74.016C57.9607 74.016 58.0597 74.057 58.1327 74.1301C58.2057 74.2032 58.2467 74.3024 58.2467 74.4058Z" fill="#058638"/>
<path d="M66.5436 31.5258C66.5436 31.6029 66.5207 31.6783 66.478 31.7424C66.4352 31.8065 66.3744 31.8564 66.3033 31.8859C66.2322 31.9154 66.1539 31.9232 66.0784 31.9081C66.0029 31.8931 65.9336 31.856 65.8791 31.8014C65.8247 31.7469 65.7876 31.6775 65.7726 31.6019C65.7576 31.5262 65.7653 31.4479 65.7948 31.3766C65.8242 31.3054 65.8741 31.2445 65.9381 31.2017C66.0021 31.1589 66.0774 31.136 66.1543 31.136C66.2576 31.136 66.3566 31.1771 66.4296 31.2502C66.5025 31.3233 66.5436 31.4224 66.5436 31.5258Z" fill="#FF725E"/>
<path d="M127.204 52.3676C127.204 52.4447 127.181 52.52 127.139 52.5841C127.096 52.6482 127.035 52.6982 126.964 52.7277C126.893 52.7572 126.815 52.7649 126.739 52.7499C126.664 52.7348 126.594 52.6977 126.54 52.6432C126.485 52.5887 126.448 52.5192 126.433 52.4436C126.418 52.368 126.426 52.2896 126.455 52.2184C126.485 52.1472 126.535 52.0863 126.599 52.0435C126.663 52.0006 126.738 51.9778 126.815 51.9778C126.918 51.9778 127.017 52.0188 127.09 52.0919C127.163 52.165 127.204 52.2642 127.204 52.3676Z" fill="#058638"/>
<path d="M132.602 34.2347C132.603 34.312 132.581 34.388 132.539 34.4528C132.497 34.5176 132.436 34.5685 132.365 34.5988C132.294 34.6292 132.216 34.6377 132.14 34.6233C132.064 34.609 131.994 34.5723 131.939 34.518C131.884 34.4637 131.847 34.3943 131.831 34.3185C131.816 34.2427 131.823 34.1641 131.852 34.0925C131.882 34.021 131.931 33.9598 131.996 33.9167C132.06 33.8736 132.135 33.8506 132.212 33.8506C132.263 33.8498 132.314 33.8592 132.361 33.8782C132.408 33.8971 132.451 33.9253 132.487 33.9611C132.523 33.9968 132.552 34.0394 132.572 34.0864C132.592 34.1334 132.602 34.1838 132.602 34.2347Z" fill="#058638"/>
</svg>
