<svg width="48" height="48" viewBox="0 0 48 48" fill="none" xmlns="http://www.w3.org/2000/svg">
<rect x="0.125" y="0.125" width="47.75" height="47.75" rx="4.875" fill="white" stroke="#0E4C8F" stroke-width="0.25"/>
<path fill-rule="evenodd" clip-rule="evenodd" d="M24 14C29.5228 14 34 18.4772 34 24C34 29.5228 29.5228 34 24 34C18.4772 34 14 29.5228 14 24C14 18.4772 18.4772 14 24 14Z" stroke="#0E4C8F" stroke-width="1.5" stroke-linecap="round" stroke-linejoin="round"/>
<path fill-rule="evenodd" clip-rule="evenodd" d="M27.0502 24.4668C26.3212 25.2528 24.3372 26.5828 23.3222 27.0098C23.1602 27.0778 22.7472 27.2218 22.6582 27.2238C22.4692 27.2298 22.2872 27.1238 22.1992 26.9538C22.1652 26.8878 22.0652 26.4568 22.0332 26.2648C21.9382 25.6808 21.8892 24.7738 21.8902 23.8618C21.8892 22.9048 21.9422 21.9548 22.0482 21.3768C22.0762 21.2208 22.1582 20.8618 22.1822 20.8038C22.2272 20.6958 22.3092 20.6108 22.4082 20.5578C22.4842 20.5168 22.5712 20.4948 22.6582 20.4978C22.7472 20.4998 23.1092 20.6268 23.2332 20.6758C24.2112 21.0558 26.2802 22.4338 27.0402 23.2438C27.1082 23.3168 27.2952 23.5128 27.3262 23.5528C27.3972 23.6428 27.4322 23.7518 27.4322 23.8618C27.4322 23.9638 27.4012 24.0678 27.3372 24.1548C27.3042 24.1998 27.1132 24.3998 27.0502 24.4668Z" stroke="#0E4C8F" stroke-width="1.5" stroke-linecap="round" stroke-linejoin="round"/>
</svg>
