<svg width="48" height="48" viewBox="0 0 48 48" fill="none" xmlns="http://www.w3.org/2000/svg">
<rect x="0.125" y="0.125" width="47.75" height="47.75" rx="4.875" fill="white" stroke="#0E4C8F" stroke-width="0.25"/>
<path d="M21.7436 37C21.2844 36.9144 20.8318 36.7968 20.389 36.6482C19.4969 36.3146 18.7142 35.7417 18.1272 34.9925C17.5401 34.2432 17.1714 33.3467 17.0617 32.4016C17.0503 32.3307 17.0331 32.2611 17.0265 32.2272C16.6031 32.3341 16.1744 32.4187 15.7422 32.4808C14.8654 32.5295 14.0017 32.2512 13.3189 31.6996C12.6361 31.1481 12.1829 30.3628 12.0472 29.4962C11.9087 28.625 12.0772 27.7327 12.524 26.9717C13.7391 24.8223 14.949 22.6692 16.1701 20.5233C16.4662 19.9374 16.9221 19.447 17.4852 19.1087C18.0483 18.7704 18.6956 18.5979 19.3526 18.6112C19.3913 18.6112 19.43 18.6053 19.5069 18.5993V18.3142C19.5069 16.9253 19.5069 15.5363 19.5069 14.1474C19.4911 13.8151 19.5554 13.484 19.6942 13.1817C19.8331 12.8794 20.0425 12.6147 20.3049 12.4099C20.654 12.1382 21.0859 11.9942 21.5284 12.0021C25.3446 11.9993 29.1608 11.9993 32.977 12.0021C33.2501 11.9973 33.5213 12.0489 33.7735 12.1537C34.0258 12.2584 34.2537 12.414 34.4429 12.6107C34.6322 12.8075 34.7787 13.041 34.8734 13.2969C34.9681 13.5529 35.0089 13.8256 34.9931 14.098C35.0023 18.3616 35.0023 22.6249 34.9931 26.8877C34.9968 27.346 34.9091 27.8003 34.7352 28.2243C34.5612 28.6483 34.3045 29.0335 33.98 29.3574C33.1377 30.2305 32.3033 31.1119 31.4769 32.0016C31.1557 32.3639 30.7586 32.651 30.3137 32.8426C29.8689 33.0343 29.3872 33.1259 28.9029 33.1106C28.4178 33.1035 27.9327 33.1165 27.4482 33.1058C27.416 33.1004 27.383 33.1013 27.3512 33.1086C27.3193 33.1159 27.2892 33.1294 27.2626 33.1483C27.236 33.1672 27.2133 33.1911 27.196 33.2187C27.1787 33.2464 27.1669 33.2773 27.1615 33.3094C26.8821 34.2328 26.3507 35.06 25.6269 35.6986C24.9031 36.3372 24.0155 36.7619 23.0637 36.925C22.9409 36.95 22.8175 36.9725 22.6948 36.9969L21.7436 37ZM33.9722 27.6003C33.9967 27.3175 34.039 27.0538 34.039 26.7901C34.043 22.5911 34.043 18.3926 34.039 14.1945C34.0638 14.0319 34.0505 13.8657 34.0003 13.7091C33.9501 13.5525 33.8642 13.4095 33.7495 13.2916C33.6347 13.1736 33.4942 13.0838 33.3388 13.0291C33.1835 12.9745 33.0177 12.9564 32.8542 12.9765H21.6464C21.4851 12.9567 21.3214 12.9741 21.1679 13.0275C21.0143 13.0809 20.8751 13.1688 20.761 13.2844C20.6469 13.4001 20.5608 13.5402 20.5096 13.6943C20.4583 13.8483 20.4431 14.0121 20.4652 14.173C20.4652 15.6349 20.4652 17.097 20.4605 18.5583C20.4504 18.6312 20.467 18.7053 20.5073 18.7669C20.5476 18.8285 20.6089 18.8735 20.6798 18.8935C21.1273 19.0925 21.5299 19.3799 21.8631 19.7385C22.1964 20.0972 22.4534 20.5196 22.6187 20.9802C22.784 21.4408 22.8541 21.9302 22.8249 22.4187C22.7957 22.9071 22.6677 23.3846 22.4486 23.8222C22.035 24.6556 21.5499 25.446 21.0976 26.2556C21.0576 26.3276 21.0189 26.3996 20.9641 26.4996C21.0588 26.4865 21.1053 26.4817 21.1512 26.4734C22.2488 26.2424 23.3919 26.3749 24.4073 26.8508C25.4228 27.3267 26.2553 28.1203 26.7789 29.1111C26.8092 29.152 26.8478 29.1861 26.8922 29.2112C26.9365 29.2363 26.9856 29.2519 27.0364 29.2569C27.3296 29.2753 27.6246 29.2616 27.9184 29.2651C28.0136 29.2652 28.1085 29.2754 28.2015 29.2955C28.308 29.3203 28.4026 29.3815 28.469 29.4684C28.5353 29.5554 28.5693 29.6625 28.565 29.7717C28.5653 29.8859 28.5225 29.9959 28.4452 30.08C28.3679 30.164 28.2617 30.2159 28.1479 30.2253C27.8499 30.2432 27.5519 30.2295 27.2837 30.2295L27.4625 32.1343C27.9989 32.1343 28.5466 32.1379 29.0949 32.1343C29.2367 32.1343 29.3773 32.0968 29.5198 32.0861C29.6986 32.0736 29.7534 31.9903 29.751 31.8046C29.7403 31.0307 29.7301 30.2605 29.7546 29.4902C29.757 29.1836 29.819 28.8804 29.937 28.5974C30.0752 28.2832 30.307 28.0192 30.6008 27.8412C30.8945 27.6633 31.236 27.5799 31.5788 27.6026C32.3572 27.5972 33.1361 27.6003 33.9722 27.6003ZM15.415 23.809L19.8955 26.4521C20.4986 25.3615 21.147 24.318 21.6679 23.2126C21.9177 22.6393 21.9516 21.9952 21.7633 21.3989C21.5751 20.8026 21.1773 20.2943 20.6434 19.9679C20.1339 19.6441 19.5243 19.5155 18.9272 19.6059C18.3301 19.6962 17.786 19.9995 17.3954 20.4595C17.0577 20.9202 16.7553 21.4058 16.4907 21.912C16.129 22.5305 15.7827 23.1578 15.4144 23.809H15.415ZM19.3198 27.2407L14.9239 24.649C14.322 25.7431 13.6784 26.7996 13.1479 27.9121C12.9337 28.4157 12.8848 28.9741 13.008 29.5072C13.1312 30.0403 13.4204 30.5208 13.8339 30.8796C14.2431 31.2403 14.7573 31.4602 15.301 31.5072C15.8447 31.5543 16.3891 31.4259 16.8543 31.1409C16.9572 31.0747 17.0315 30.9723 17.0623 30.854C17.2746 29.4822 18.0106 28.2458 19.116 27.4044C19.1756 27.3568 19.2352 27.3068 19.3198 27.2407ZM22.6614 35.9773C23.7516 35.8531 24.753 35.3169 25.4602 34.4789C26.1674 33.6408 26.5268 32.5643 26.4648 31.47C26.3892 29.3783 24.4475 27.2889 22.6614 27.393V35.9773ZM21.6792 35.9714V27.389C20.6477 27.54 19.705 28.0565 19.0234 28.8444C18.3417 29.6323 17.9666 30.6389 17.9666 31.6802C17.9666 32.7215 18.3417 33.7281 19.0234 34.5159C19.705 35.3038 20.6477 35.8204 21.6792 35.9714ZM30.7081 31.411L33.384 28.5843C32.6844 28.5843 32.0437 28.5658 31.4048 28.5914C31.2208 28.5972 31.0462 28.6736 30.9172 28.8047C30.7882 28.9359 30.7148 29.1117 30.7123 29.2955C30.6974 29.9759 30.7081 30.6563 30.7081 31.4104V31.411Z" fill="#0E4C8F"/>
<path d="M27.2032 16.3695H30.9346C31.3237 16.3743 31.543 16.5427 31.5532 16.8415C31.5633 17.1403 31.3273 17.3437 30.9358 17.3443C29.4073 17.3471 27.8788 17.3471 26.3504 17.3443C25.3992 17.3443 24.448 17.3443 23.4969 17.3443C23.3916 17.3454 23.2865 17.3352 23.1834 17.3135C23.0785 17.2851 22.9864 17.2217 22.9225 17.1339C22.8586 17.0461 22.8266 16.9392 22.8319 16.8308C22.8371 16.7223 22.8794 16.619 22.9516 16.5378C23.0237 16.4566 23.1215 16.4024 23.2287 16.3843C23.3254 16.3724 23.4227 16.3675 23.5201 16.3695C24.7494 16.3687 25.9771 16.3687 27.2032 16.3695Z" fill="#0E4C8F"/>
<path d="M26.2353 21.6452C25.3342 21.6452 24.4331 21.6452 23.5314 21.6452C23.4263 21.6474 23.3214 21.6364 23.2191 21.612C23.1114 21.5865 23.0167 21.5223 22.953 21.4318C22.8893 21.3413 22.861 21.2307 22.8735 21.1208C22.8791 21.0147 22.9207 20.9136 22.9916 20.8342C23.0625 20.7549 23.1583 20.7022 23.2632 20.6846C23.3517 20.6728 23.441 20.6686 23.5302 20.6721H28.9619C29.4095 20.6721 29.6365 20.8357 29.6365 21.1566C29.6365 21.4774 29.4065 21.6472 28.9631 21.6478L26.2353 21.6452Z" fill="#0E4C8F"/>
<path d="M28.3541 25.9408C27.5169 25.9408 26.6796 25.9408 25.8421 25.9408C25.7528 25.944 25.6635 25.9393 25.5751 25.9265C25.4664 25.9055 25.3681 25.8482 25.2963 25.764C25.2245 25.6799 25.1835 25.574 25.1799 25.4635C25.1792 25.3574 25.214 25.2541 25.2788 25.17C25.3436 25.0858 25.4346 25.0256 25.5375 24.999C25.6401 24.9755 25.7452 24.9649 25.8504 24.9671C27.5167 24.9671 29.1831 24.9671 30.8494 24.9671C31.294 24.9671 31.5282 25.1323 31.5359 25.4496C31.5437 25.7668 31.3017 25.9425 30.8404 25.9425L28.3541 25.9408Z" fill="#0E4C8F"/>
<path d="M31.0639 21.6413C30.9376 21.6374 30.8175 21.5862 30.7271 21.498C30.6367 21.4099 30.5828 21.2909 30.5758 21.165C30.5768 21.0345 30.6294 20.9099 30.7222 20.8182C30.8151 20.7265 30.9405 20.6753 31.0711 20.6758C31.1975 20.6793 31.3175 20.732 31.4057 20.8226C31.4938 20.9132 31.5431 21.0346 31.5431 21.1609C31.5396 21.2869 31.4881 21.4067 31.399 21.496C31.3099 21.5853 31.1901 21.6374 31.0639 21.6413Z" fill="#0E4C8F"/>
</svg>
