<svg width="48" height="48" viewBox="0 0 48 48" fill="none" xmlns="http://www.w3.org/2000/svg">
<rect width="48" height="48" rx="5" fill="#006F2C"/>
<path d="M14 28.9206C14 25.6381 14 22.3604 14 19.0779C14.0342 18.8724 14.0538 18.667 14.0978 18.4664C14.6066 16.221 15.9667 14.7827 18.1828 14.1663C18.4763 14.0832 18.7797 14.0538 19.0781 14C22.3607 14 25.6385 14 28.9212 14C29.3419 14.0881 29.7724 14.1321 30.1736 14.2642C32.4973 15.0322 33.9846 17.0673 33.9944 19.5035C34.0041 22.4974 33.9992 25.4913 33.9944 28.4852C33.9944 29.4343 33.784 30.3393 33.3094 31.1562C32.2234 33.0152 30.5845 33.9789 28.427 33.9887C25.4722 34.0083 22.5173 33.9985 19.5624 33.9887C19.1955 33.9887 18.8139 33.9691 18.4568 33.886C16.2211 33.3919 14.7827 32.0319 14.1663 29.8207C14.0832 29.5272 14.0538 29.219 14 28.9206ZM32.8202 23.9992C32.8202 22.5414 32.8251 21.0836 32.8153 19.6258C32.8104 19.2785 32.7909 18.9213 32.7126 18.5789C32.2478 16.5389 30.5551 15.1839 28.4466 15.179C25.4868 15.1692 22.5222 15.1741 19.5624 15.179C18.9264 15.179 18.3002 15.2817 17.7278 15.5654C16.0498 16.3824 15.1986 17.7424 15.1888 19.5964C15.1692 22.5316 15.179 25.4668 15.1888 28.402C15.1888 28.7396 15.2182 29.082 15.2915 29.4098C15.7514 31.4449 17.4294 32.8048 19.5331 32.8146C22.5124 32.8293 25.4966 32.8293 28.476 32.8146C29.9583 32.8097 31.1569 32.1982 32.0326 30.9948C32.5903 30.2268 32.83 29.356 32.83 28.4118C32.8202 26.9393 32.8202 25.4717 32.8202 23.9992Z" fill="white"/>
<path d="M29.4789 24.0087C29.4593 27.0466 26.979 29.5171 23.9801 29.4829C20.9371 29.4437 18.5008 26.9977 18.5155 23.994C18.5351 20.9561 21.0154 18.4856 24.0143 18.5199C27.0622 18.5541 29.4985 21.005 29.4789 24.0087ZM23.9948 28.299C26.3626 28.3039 28.2852 26.3911 28.2999 24.0136C28.3145 21.641 26.3821 19.7037 24.0045 19.6989C21.6367 19.694 19.7092 21.6067 19.6994 23.9842C19.6847 26.352 21.6172 28.2941 23.9948 28.299Z" fill="white"/>
<path d="M29.8164 16.5244C30.7313 16.5293 31.4798 17.2778 31.4749 18.1877C31.47 19.0976 30.7117 19.8559 29.8116 19.851C28.9065 19.8461 28.1433 19.083 28.1482 18.1828C28.1482 17.2729 28.9065 16.5195 29.8164 16.5244ZM30.291 18.1828C30.291 17.9187 30.0708 17.7034 29.8018 17.7083C29.5474 17.7132 29.3321 17.9284 29.3272 18.1828C29.3223 18.4421 29.5523 18.672 29.8116 18.672C30.0708 18.672 30.2959 18.447 30.291 18.1828Z" fill="white"/>
</svg>
