<svg width="40" height="26" viewBox="0 0 40 26" fill="none" xmlns="http://www.w3.org/2000/svg">
<rect x="1" y="1" width="38" height="24" rx="2" fill="white"/>
<rect x="0.8" y="0.8" width="38.4" height="24.4" rx="2.2" stroke="#E2E2E2" stroke-opacity="0.886275" stroke-width="0.4"/>
<g clip-path="url(#clip0_9_910)">
<path d="M35.1111 10.1C35.0899 10.1839 35.07 10.2678 35.0477 10.3514C34.8387 11.1355 34.1705 11.6095 33.2956 11.588C32.9627 11.5822 32.6325 11.5292 32.3156 11.4306C32.2076 11.397 32.0717 11.4423 31.9487 11.4527C31.786 11.4661 31.6233 11.493 31.461 11.4933C29.9304 11.4962 28.4 11.4968 26.8698 11.495H26.7026C26.7409 11.2517 26.7768 11.0224 26.8116 10.8008H28.7337C28.7215 10.8149 28.7313 10.8089 28.7309 10.8032C28.7233 10.35 28.718 9.89688 28.7027 9.44372C28.6996 9.35947 28.662 9.27354 28.6278 9.19331C28.5045 8.90531 28.2794 8.75694 27.954 8.75694C27.699 8.75694 27.444 8.75694 27.1875 8.75694H27.0356C27.0705 8.52868 27.098 8.32057 27.1342 8.11077C27.1399 8.09515 27.1497 8.08118 27.1625 8.0702C27.1754 8.05922 27.191 8.05158 27.2078 8.048C27.6394 8.05572 28.0763 8.03122 28.5013 8.08929C29.1375 8.17589 29.5964 8.66564 29.7075 9.31885C29.7483 9.55953 29.7514 9.80726 29.7601 10.0523C29.7685 10.2873 29.7618 10.5256 29.7618 10.7716C29.8078 10.775 29.8451 10.78 29.8824 10.78C30.4356 10.78 30.9892 10.777 31.5425 10.7831C31.6564 10.7831 31.7 10.7361 31.7115 10.6427C31.7185 10.5764 31.7215 10.5097 31.7205 10.443C31.7205 9.99758 31.7205 9.55181 31.7205 9.10604C31.7205 8.58743 31.9414 8.287 32.4563 8.13259C32.6609 8.07116 32.8762 8.04364 33.0866 8.00067H33.5277C33.5601 8.0108 33.5931 8.01898 33.6266 8.02517C34.3311 8.11614 34.846 8.54916 35.0331 9.21245C35.0623 9.31583 35.0846 9.42123 35.1104 9.52563L35.1111 10.1ZM32.6703 8.96203C32.6814 9.09261 32.6974 9.20271 32.6981 9.31348C32.7013 9.73341 32.7037 10.1527 32.6981 10.5739C32.6964 10.6773 32.733 10.7152 32.833 10.7216C33.0051 10.7327 33.1768 10.7552 33.3493 10.7579C33.7221 10.7649 33.9656 10.5931 34.0663 10.2483C34.1567 9.93803 34.1578 9.60989 34.0694 9.29905C34.0175 9.1104 33.9109 8.94626 33.7109 8.88382C33.3489 8.77037 32.9981 8.8375 32.6703 8.96203Z" fill="black"/>
<path d="M26.3395 8.06078C26.3022 8.29575 26.2664 8.52032 26.228 8.76267H26.073C25.4243 8.76267 24.7757 8.76267 24.1272 8.76267C24.0364 8.76131 23.9457 8.76535 23.8555 8.77476C23.59 8.80665 23.4496 8.96609 23.4618 9.21382C23.474 9.46154 23.6325 9.62099 23.8889 9.62803C24.2171 9.63676 24.546 9.62803 24.8745 9.63441C25.0213 9.63519 25.1677 9.64935 25.3118 9.67671C25.8552 9.78882 26.2005 10.2081 26.1925 10.7445C26.1915 10.8824 26.174 11.0197 26.1402 11.1537C26.0298 11.5823 25.7044 11.7891 25.2825 11.869C25.0664 11.9097 24.8467 11.9303 24.6265 11.9304C23.1865 11.9334 21.7466 11.9365 20.3063 11.923C19.4085 11.9146 18.8145 11.3524 18.7633 10.4904C18.7382 10.0661 18.7177 9.64079 18.8403 9.22456C19.0431 8.53643 19.6008 8.11684 20.3447 8.10476C20.7976 8.09704 21.2505 8.10476 21.7146 8.10476C21.6797 8.34409 21.6449 8.5747 21.6062 8.81873H21.0885C20.9199 8.81873 20.7509 8.81571 20.5826 8.82242C20.2778 8.83451 20.0503 8.97549 19.9349 9.24537C19.8677 9.39832 19.829 9.56149 19.8207 9.72739C19.8106 10.0295 19.8064 10.3373 19.8555 10.6337C19.9099 10.9774 20.1551 11.1819 20.5136 11.2027C20.9359 11.2272 21.3602 11.2205 21.7839 11.2221C22.7129 11.2253 23.642 11.2264 24.5711 11.2255C24.6401 11.2271 24.7091 11.2226 24.7773 11.2121C25.0588 11.1614 25.2198 10.9613 25.1954 10.6978C25.171 10.4343 24.9787 10.2685 24.6895 10.2635C24.2833 10.2567 23.8764 10.2655 23.4701 10.2453C22.989 10.2212 22.6402 9.96035 22.5148 9.56325C22.3695 9.10338 22.5023 8.61901 22.8496 8.35852C23.1284 8.15041 23.4551 8.06414 23.7952 8.05642C24.6251 8.04199 25.4553 8.0487 26.2855 8.04736C26.3039 8.05011 26.322 8.0546 26.3395 8.06078Z" fill="black"/>
<path d="M35.1111 18.0013C34.7885 17.9453 34.4666 17.8835 34.1426 17.8359C34.0527 17.8228 33.9548 17.8446 33.8638 17.861C33.4705 17.9308 33.0779 17.9762 32.6824 17.8755C32.2135 17.7563 31.947 17.4391 31.9309 16.9775C31.9142 16.5002 32.1431 16.1585 32.6218 16.0296C32.9051 15.9534 33.2064 15.9336 33.5015 15.9074C33.7022 15.8893 33.906 15.9041 34.106 15.9041C34.2032 15.5076 34.0137 15.2602 33.605 15.2535C33.1549 15.2458 32.7228 15.3435 32.2995 15.4838C32.2595 15.4972 32.2187 15.5083 32.1658 15.5241C32.1309 15.2871 32.0961 15.0588 32.0581 14.8215C32.7573 14.6057 33.4517 14.4113 34.1927 14.553C34.7331 14.657 35.0198 14.9558 35.0892 15.4798C35.0949 15.5122 35.1026 15.5442 35.1121 15.5758L35.1111 18.0013ZM33.7471 16.4771L33.744 16.4619C33.5576 16.4871 33.366 16.4955 33.1866 16.5425C33.0005 16.5925 32.9141 16.7614 32.9308 16.9571C32.9455 17.1249 33.0489 17.2592 33.2367 17.277C33.4326 17.2918 33.6297 17.2815 33.8227 17.2461C34.144 17.191 34.144 17.1789 34.1408 16.8631C34.1408 16.7402 34.1729 16.5781 34.106 16.5069C34.0488 16.4425 33.8715 16.4814 33.7471 16.4754V16.4771Z" fill="black"/>
<path d="M23.7617 17.8906H22.7437V17.7372C22.7437 17.1121 22.7437 16.4871 22.7437 15.8621C22.7451 15.7955 22.7423 15.7289 22.7354 15.6627C22.712 15.4734 22.5849 15.3452 22.3936 15.325C22.1741 15.2991 21.9516 15.3359 21.7536 15.4308C21.7602 15.706 21.7707 15.9655 21.772 16.2253C21.7748 16.7335 21.772 17.2417 21.772 17.7502V17.8909H20.7572V17.7469C20.7572 17.1219 20.7509 16.4968 20.7572 15.8722C20.7634 15.3854 20.5373 15.2589 20.0646 15.3391C19.781 15.3871 19.782 15.3942 19.782 15.6674V17.8862H18.7511V17.7358C18.7511 16.9275 18.7511 16.1192 18.7511 15.3109C18.7511 14.9011 18.8595 14.7624 19.2716 14.654C19.7813 14.5197 20.298 14.4526 20.8223 14.5533C20.9648 14.5854 21.1022 14.6355 21.231 14.7023C21.2589 14.7195 21.2908 14.7295 21.3238 14.7316C21.3568 14.7337 21.3898 14.7278 21.4198 14.7144C21.9194 14.513 22.4354 14.4492 22.966 14.5741C23.4318 14.6839 23.7234 14.9994 23.7405 15.4596C23.7645 16.1004 23.7565 16.7426 23.7614 17.384C23.7628 17.5509 23.7617 17.7167 23.7617 17.8906Z" fill="black"/>
<path d="M30.328 14.652V14.506C30.328 14.0981 30.328 13.69 30.328 13.2818C30.328 13.2167 30.3367 13.1717 30.4172 13.1593C30.7237 13.1119 31.0296 13.0602 31.355 13.0072V13.1478C31.355 14.489 31.355 15.8299 31.355 17.1705C31.355 17.5545 31.2676 17.672 30.8878 17.7845C30.3987 17.9303 29.8817 17.9676 29.3755 17.8936C28.6375 17.7878 28.1442 17.2524 28.0864 16.5056C28.0613 16.185 28.0718 15.8658 28.1582 15.5513C28.3324 14.9202 28.7982 14.5442 29.474 14.5322C29.7036 14.5278 29.9346 14.5808 30.1646 14.61C30.2198 14.6211 30.2744 14.6351 30.328 14.652ZM30.328 16.2498V15.7631C30.328 15.3166 30.328 15.3166 29.8597 15.2767C29.4977 15.2458 29.2326 15.415 29.142 15.7523C29.0568 16.0595 29.0576 16.383 29.1441 16.6899C29.2406 17.0349 29.4859 17.2091 29.8569 17.2028C29.9684 17.2008 30.0792 17.1769 30.1907 17.1692C30.2952 17.1615 30.3349 17.1195 30.3301 17.0118C30.321 16.7573 30.328 16.5036 30.328 16.2498Z" fill="black"/>
<path d="M26.5197 15.9034C26.5545 15.4032 26.3932 15.2384 25.8981 15.2519C25.4887 15.2629 25.094 15.3526 24.7083 15.4801C24.6679 15.4935 24.6272 15.505 24.569 15.5234C24.5341 15.2999 24.5017 15.0837 24.4742 14.8665C24.4767 14.8519 24.4828 14.8382 24.4921 14.8265C24.5014 14.8148 24.5136 14.8054 24.5275 14.7994C25.085 14.6272 25.6459 14.4761 26.2399 14.506C26.3305 14.51 26.4208 14.5194 26.5102 14.5342C27.1788 14.6456 27.4955 14.9991 27.5011 15.657C27.5074 16.4069 27.5011 17.1571 27.5011 17.906C27.5011 17.9309 27.4983 17.9554 27.4962 17.9943C27.3823 17.9755 27.2722 17.9648 27.1659 17.9389C26.7572 17.833 26.3283 17.8215 25.9141 17.9053C25.6071 17.9675 25.2882 17.9471 24.9923 17.8466C24.5718 17.7066 24.3439 17.4049 24.3303 16.9718C24.3167 16.5301 24.5164 16.2196 24.9261 16.0531C25.2048 15.9396 25.5023 15.9104 25.8016 15.9034C26.0389 15.899 26.2758 15.9034 26.5197 15.9034ZM26.5409 16.5002C26.2444 16.5002 25.972 16.4834 25.7027 16.5053C25.457 16.5257 25.3166 16.7103 25.3285 16.9369C25.3396 17.1474 25.4978 17.3062 25.7448 17.2948C25.9918 17.2833 26.2371 17.2233 26.4824 17.1796C26.4967 17.1738 26.5093 17.1646 26.5191 17.1529C26.5288 17.1411 26.5354 17.1273 26.5381 17.1125C26.5426 16.9094 26.5409 16.706 26.5409 16.5002Z" fill="black"/>
<path d="M17.1555 8H4V12.1999H17.1555V8Z" fill="#289BD7"/>
<path d="M17.1555 13.7252H4V17.9251H17.1555V13.7252Z" fill="#85B840"/>
</g>
<defs>
<clipPath id="clip0_9_910">
<rect width="31.1111" height="10" fill="white" transform="translate(4 8)"/>
</clipPath>
</defs>
</svg>
