<svg xmlns="http://www.w3.org/2000/svg" version="1.1" xmlns:xlink="http://www.w3.org/1999/xlink" xmlns:svgjs="http://svgjs.com/svgjs" width="24" height="24" x="0" y="0" viewBox="0 0 682.66669 682.66669" style="enable-background:new 0 0 512 512" xml:space="preserve" class=""><g><defs id="defs3985"><clipPath clipPathUnits="userSpaceOnUse" id="clipPath3995"><path d="M 0,512 H 512 V 0 H 0 Z" id="path3993" fill="#058638" data-original="#000000"></path></clipPath></defs><g id="g3987" transform="matrix(1.3333333,0,0,-1.3333333,0,682.66667)"><g id="g3989"><g id="g3991" clip-path="url(#clipPath3995)"><g id="g3997" transform="translate(247.6934,421.9141)"><path d="m 0,0 c -2.397,-20.598 2.277,-41.588 13.332,-59.131 0,0 11.575,5.068 19.297,7.874 l 24.993,9.112 c 4.62,1.672 7.917,5.781 8.555,10.645 l 1.904,24.336 c 6.35,-4.168 13.964,-6.582 22.125,-6.582 8.172,0 15.775,2.414 22.137,6.594 l 1.903,-24.348 c 0.65,-4.864 3.936,-8.973 8.544,-10.645 l 25.004,-9.112 c 7.73,-2.809 19.327,-7.883 19.327,-7.883 8.83,14.007 13.946,30.59 13.946,48.371 0,50.177 -40.675,90.853 -90.852,90.853 C 44.864,80.084 7.278,46.855 0.467,3.417 0.407,3.417 -0.031,-0.262 0,0 Z" style="stroke-linecap: round; stroke-linejoin: round; stroke-miterlimit: 10; stroke-dasharray: none; stroke-opacity: 1;" id="path3999" fill="none" stroke="#058638" stroke-width="20px" stroke-linecap="round" stroke-linejoin="round" stroke-miterlimit="10" stroke-dasharray="none" stroke-opacity="" data-original="#000000"></path></g><g id="g4001" transform="translate(337.9014,408.1719)"><path d="M 0,0 V 0 C -22.349,0 -40.466,18.117 -40.466,40.466 V 53.36 c 0,22.349 18.117,40.466 40.466,40.466 22.349,0 40.466,-18.117 40.466,-40.466 V 40.466 C 40.466,18.117 22.349,0 0,0 Z" style="stroke-linecap: round; stroke-linejoin: round; stroke-miterlimit: 10; stroke-dasharray: none; stroke-opacity: 1;" id="path4003" fill="none" stroke="#058638" stroke-width="20px" stroke-linecap="round" stroke-linejoin="round" stroke-miterlimit="10" stroke-dasharray="none" stroke-opacity="" data-original="#000000"></path></g><g id="g4005" transform="translate(424.207,96.1104)"><path d="m 0,0 c 24.705,34.189 39.278,76.199 39.278,121.621 0,29.958 -6.334,58.432 -17.734,84.156 l -44.106,-44.166 c -6.46,-6.469 -10.08,-15.23 -10.08,-24.36 v -29.609 c 0,-9.13 -3.62,-17.891 -10.08,-24.361 l -60.459,-60.539 c -13.44,-13.439 -35.21,-13.439 -48.65,0 l -26.921,25.32 c -13.44,13.45 -13.44,35.259 0,48.709 6.45,6.47 10.07,15.23 10.07,24.35 v 56.51 c 0,19.02 -15.4,34.44 -34.39,34.44 -9.12,0 -17.87,3.63 -24.32,10.09 l -45.31,45.37 c -6.46,6.46 -10.08,15.22 -10.08,24.35 v 2.947 c -55.99,-37.206 -92.91,-100.888 -92.91,-173.207 0,-114.72 92.9,-207.729 207.49,-207.729 37.824,0 73.279,10.138 103.814,27.841" style="stroke-linecap: round; stroke-linejoin: round; stroke-miterlimit: 10; stroke-dasharray: none; stroke-opacity: 1;" id="path4007" fill="none" stroke="#058638" stroke-width="20px" stroke-linecap="round" stroke-linejoin="round" stroke-miterlimit="10" stroke-dasharray="none" stroke-opacity="" data-original="#000000"></path></g><g id="g4009" transform="translate(445.751,301.8877)"><path d="M 0,0 0.004,0.004 C -8.773,19.84 -20.721,38.459 -35.29,54.547 L -35.295,54.54 C -20.851,38.431 -8.886,20.051 0,0 Z" style="stroke-linecap: round; stroke-linejoin: round; stroke-miterlimit: 10; stroke-dasharray: none; stroke-opacity: 1;" id="path4011" fill="none" stroke="#058638" stroke-width="20px" stroke-linecap="round" stroke-linejoin="round" stroke-miterlimit="10" stroke-dasharray="none" stroke-opacity="" data-original="#000000"></path></g><g id="g4013" transform="translate(169.0146,172.8115)"><path d="m 0,0 v -71.97 c 0,-6.27 -2.479,-12.27 -6.899,-16.69 l -13.031,-13.05 c -4.42,-4.42 -6.9,-10.43 -6.9,-16.68 v -10.4 c -56.42,37.13 -93.67,101.07 -93.67,173.71 0,15.101 1.61,29.82 4.67,44 L -57.479,30.5 c 4.419,-4.43 10.41,-6.91 16.669,-6.91 h 17.25 C -10.55,23.59 0,13.021 0,0 Z" style="stroke-linecap: round; stroke-linejoin: round; stroke-miterlimit: 10; stroke-dasharray: none; stroke-opacity: 1;" id="path4015" fill="none" stroke="#058638" stroke-width="20px" stroke-linecap="round" stroke-linejoin="round" stroke-miterlimit="10" stroke-dasharray="none" stroke-opacity="" data-original="#000000"></path></g><g id="g4017" transform="translate(151.5049,363.6416)"><path d="m 0,0 45.311,-45.37 c 6.449,-6.46 15.199,-10.09 24.319,-10.09 18.99,0 34.391,-15.42 34.391,-34.44 v -56.51 c 0,-9.12 -3.621,-17.88 -10.071,-24.35 -13.44,-13.45 -13.44,-35.261 0,-48.71 l 26.921,-25.319 c 13.441,-13.44 35.21,-13.44 48.65,0 l 60.459,60.539 c 6.46,6.47 10.081,15.23 10.081,24.36 v 29.61 c 0,9.13 3.619,17.89 10.08,24.36 l 44.105,44.166 c -8.886,20.051 -20.85,38.431 -35.295,54.54 l -51.418,-71.16 -3.043,-4.212 c -8.913,-12.337 -27.286,-12.336 -36.197,0.002 L 113.62,-6.89 C 105.941,3.863 100.28,15.616 97.529,28.593 94.958,38.798 95.223,54.988 96.655,61.689 70.787,60.578 44.884,54.736 21.235,44.413 10.328,39.623 -0.156,33.892 -10.08,27.297 V 24.35 C -10.08,15.22 -6.46,6.46 0,0 Z" style="stroke-linecap: round; stroke-linejoin: round; stroke-miterlimit: 10; stroke-dasharray: none; stroke-opacity: 1;" id="path4019" fill="none" stroke="#058638" stroke-width="20px" stroke-linecap="round" stroke-linejoin="round" stroke-miterlimit="10" stroke-dasharray="none" stroke-opacity="" data-original="#000000"></path></g><g id="g4021" transform="translate(395.4844,63.9443)"><path d="M 0,0 V 0" style="stroke-linecap: round; stroke-linejoin: round; stroke-miterlimit: 10; stroke-dasharray: none; stroke-opacity: 1;" id="path4023" fill="none" stroke="#058638" stroke-width="20px" stroke-linecap="round" stroke-linejoin="round" stroke-miterlimit="10" stroke-dasharray="none" stroke-opacity="" data-original="#000000"></path></g><g id="g4025" transform="translate(395.5244,370.6602)"><path d="m 0,0 -17.157,6.252 c 0,0 -18.475,-22.143 -40.446,-22.143 -21.969,0 -40.486,22.127 -40.486,22.127 L -115.204,0 c -7.721,-2.811 -19.29,-7.88 -19.29,-7.88 1.489,-2.38 3.47,-5.14 3.609,-5.341 l 0.49,-0.689 54.601,-75.59 c 4.47,-6.19 11.342,-9.28 18.191,-9.28 6.85,0 13.723,3.09 18.194,9.28 l 54.599,75.59 0.491,0.689 c 0.139,0.201 2.119,2.961 3.609,5.341 0,0 -11.57,5.069 -19.29,7.88 z" style="stroke-linecap: round; stroke-linejoin: round; stroke-miterlimit: 10; stroke-dasharray: none; stroke-opacity: 1;" id="path4027" fill="none" stroke="#058638" stroke-width="20px" stroke-linecap="round" stroke-linejoin="round" stroke-miterlimit="10" stroke-dasharray="none" stroke-opacity="" data-original="#000000"></path></g></g></g></g></g></svg>