<svg width="150" height="150" viewBox="0 0 150 150" fill="none" xmlns="http://www.w3.org/2000/svg">
<path d="M54.4041 29.6768L44.9123 20.1851C54.4807 17.0666 64.595 15.4438 74.9989 15.4438C102.121 15.4438 127.298 26.429 145.889 46.3772L149.89 50.6699L141.306 58.6704L137.305 54.3777C120.957 36.8385 98.83 27.1797 74.9989 27.1797C67.9493 27.1797 61.0497 28.0312 54.4041 29.6768ZM73.0602 48.3318L85.8238 61.0966C97.3103 63.3533 108.077 69.1761 116.899 78.0476L121.037 82.2086L129.357 73.9334L125.22 69.7723C111.451 55.9273 93.615 48.3021 74.9989 48.3021C74.3511 48.3021 73.7057 48.3135 73.0602 48.3318ZM74.707 115.78C69.5217 115.78 65.3183 119.983 65.3183 125.167C65.3183 130.353 69.5217 134.556 74.707 134.556C79.8912 134.556 84.0946 130.353 84.0946 125.167C84.0946 119.983 79.8912 115.78 74.707 115.78ZM150 141.702L8.29811 0L0 8.29811L22.5677 30.8659C15.9039 35.1894 9.70688 40.3725 4.11072 46.3772L0.109863 50.6687L8.69522 58.6704L12.6949 54.3777C18.2167 48.4543 24.4011 43.4383 31.0844 39.3826L46.3268 54.6249C38.483 58.2321 31.1886 63.3259 24.7776 69.7735L20.6406 73.9346L28.9627 82.2086L33.0997 78.0476C39.6057 71.5038 47.1703 66.6195 55.3024 63.6005L72.908 81.205C63.6738 81.6822 53.8181 86.1637 46.8292 93.1458L42.6773 97.2919L50.9708 105.595L55.1228 101.448C60.3241 96.2528 67.9413 92.8963 74.5319 92.8963H74.5354H74.9439H74.9474C79.4666 92.8963 84.47 94.4756 88.8462 97.1443L141.702 150L150 141.702Z" fill="#939393"/>
</svg>
