<svg width="36" height="36" viewBox="0 0 36 36" fill="none" xmlns="http://www.w3.org/2000/svg">
<path d="M22.1363 34.9949C21.388 35.0197 20.6474 34.837 19.9963 34.4668C19.3968 34.083 18.7004 33.8785 17.9889 33.8774C17.2774 33.8764 16.5804 34.0788 15.9798 34.4609C15.2636 34.8608 14.4497 35.0512 13.6307 35.0103C12.8118 34.9695 12.0207 34.6991 11.3477 34.2299C10.6815 33.8013 10.1378 33.2068 9.76994 32.5045C9.59776 32.1889 9.43628 31.8665 9.25243 31.5586C8.96675 31.1253 8.58338 30.7653 8.13325 30.5078C7.68311 30.2502 7.17882 30.1023 6.66107 30.0758C5.70524 29.9738 4.80641 29.5705 4.09405 28.9241C3.3817 28.2777 2.8926 27.4216 2.69719 26.479C2.57057 25.7438 2.56499 24.9928 2.68066 24.2558C2.79215 23.704 2.76183 23.1328 2.59254 22.596C2.42324 22.0592 2.12051 21.5742 1.71279 21.1867C0.819534 20.4047 0.230477 19.3322 0.0494149 18.1579C-0.0457837 17.5118 -0.0031053 16.8528 0.174628 16.2244C0.352361 15.596 0.661107 15.0125 1.08051 14.5123C1.28164 14.2661 1.49802 14.0328 1.72835 13.8137C2.13888 13.4367 2.44204 12.9571 2.6068 12.4242C2.77156 11.8913 2.79201 11.3243 2.66607 10.7809C2.50999 10.11 2.49725 9.41359 2.62868 8.73746C2.7601 8.06133 3.03273 7.42067 3.42868 6.85746C3.78943 6.33081 4.25923 5.88823 4.8061 5.55973C5.35297 5.23123 5.96409 5.02466 6.59786 4.95392C7.25823 4.89692 7.89104 4.66258 8.42974 4.2758C8.96844 3.88902 9.3931 3.36399 9.65903 2.75591C9.91615 2.16259 10.2958 1.63058 10.7731 1.19488C11.2504 0.759173 11.8144 0.429577 12.428 0.228C13.0417 0.0264232 13.691 -0.0425997 14.3332 0.0253484C14.9754 0.0932966 15.5959 0.296821 16.154 0.622362C16.9031 1.10455 17.8104 1.27515 18.6831 1.09783C19.0762 0.974583 19.458 0.817294 19.8241 0.62807C20.3853 0.301758 21.0091 0.0980047 21.6545 0.0301055C22.2999 -0.0377937 22.9524 0.0317952 23.5691 0.234184C24.1857 0.436573 24.7528 0.767346 25.2329 1.20463C25.713 1.64191 26.0954 2.17591 26.355 2.77161C26.5953 3.35429 26.9884 3.86092 27.4927 4.23822C27.9969 4.61551 28.5937 4.8494 29.2197 4.91491C29.8942 4.98193 30.5463 5.19345 31.132 5.535C31.7178 5.87655 32.2233 6.3402 32.6145 6.89457C33.0056 7.44893 33.2732 8.08092 33.3991 8.74793C33.525 9.41493 33.5062 10.1013 33.3441 10.7604C33.2147 11.3099 33.2342 11.884 33.4004 12.4235C33.5666 12.963 33.8736 13.4482 34.2896 13.8292C35.1796 14.6148 35.7673 15.6873 35.951 16.8611C36.0456 17.5074 36.0029 18.1665 35.8255 18.7951C35.6482 19.4237 35.3402 20.0075 34.9219 20.5086C34.7125 20.7659 34.487 21.0097 34.2468 21.2383C33.8476 21.6074 33.5526 22.0755 33.3914 22.5951C33.2302 23.1147 33.2085 23.6675 33.3285 24.1982C33.6215 25.4697 33.4079 26.8055 32.7332 27.9218C32.3318 28.5548 31.7889 29.0856 31.1473 29.4721C30.5058 29.8587 29.7832 30.0902 29.0368 30.1488C28.4849 30.2045 27.9579 30.4073 27.5106 30.7359C27.0633 31.0645 26.712 31.5069 26.4931 32.0174C26.0393 33.1327 25.18 34.0342 24.0885 34.5399C23.4594 34.7644 22.8176 34.9514 22.1664 35.1L22.1363 34.9949ZM31.7663 9.59516C31.746 9.35911 31.7112 9.12457 31.6622 8.89278C31.5193 8.2733 31.1809 7.71632 30.6971 7.30463C30.2133 6.89294 29.61 6.64851 28.9765 6.60724C28.0981 6.52859 27.2573 6.21311 26.5434 5.6946C25.8294 5.17608 25.2688 4.47367 24.9212 3.6619C24.8432 3.4995 24.7565 3.34159 24.6615 3.18857C24.2954 2.56225 23.711 2.09361 23.0208 1.87276C22.3305 1.65191 21.5831 1.69441 20.9223 1.99216C20.5818 2.14122 20.256 2.32235 19.9155 2.47239C19.3076 2.75507 18.6448 2.89978 17.9746 2.89624C17.3043 2.89271 16.6431 2.74101 16.0382 2.45193C15.6997 2.298 15.3738 2.1178 15.0314 1.97361C14.3658 1.68541 13.6172 1.65419 12.93 1.88608C12.2427 2.11797 11.6656 2.59661 11.3098 3.22948C11.1493 3.50422 11.0102 3.79068 10.8574 4.07029C10.5238 4.71802 10.0423 5.2777 9.45208 5.70411C8.86189 6.13052 8.17962 6.41143 7.46066 6.52423C7.12215 6.58561 6.77975 6.63256 6.44805 6.71927C5.68296 6.92526 5.0302 7.42566 4.63206 8.11167C4.23392 8.79768 4.1227 9.61347 4.32263 10.3813C4.51373 11.2312 4.47639 12.1167 4.21443 12.9475C3.95247 13.7782 3.47525 14.5245 2.83143 15.1103C2.75166 15.1872 2.6758 15.2682 2.59993 15.3481C2.3094 15.6283 2.0784 15.9644 1.9208 16.3362C1.76319 16.708 1.68222 17.1077 1.68277 17.5117C1.68331 17.9156 1.76535 18.3153 1.92396 18.6867C2.08257 19.058 2.31448 19.3934 2.60576 19.6728C2.78572 19.8676 2.97346 20.0478 3.14952 20.2427C3.63153 20.7528 3.99342 21.3646 4.2087 22.033C4.42398 22.7014 4.48717 23.4096 4.39364 24.1057C4.28391 24.7595 4.26524 25.4254 4.33819 26.0844C4.46108 26.7163 4.7918 27.2889 5.27754 27.7106C5.76328 28.1323 6.37605 28.3787 7.01807 28.4108C7.88198 28.4897 8.70944 28.7971 9.4157 29.3016C10.122 29.8061 10.6816 30.4896 11.0374 31.282C11.1237 31.4701 11.2212 31.653 11.3292 31.8295C11.6003 32.3244 12.0154 32.7251 12.5193 32.9781C13.0232 33.2311 13.592 33.3247 14.1501 33.2462C14.704 33.1521 15.2385 32.9665 15.7318 32.6974C16.4264 32.323 17.2031 32.1278 17.992 32.1292C18.7808 32.1306 19.5568 32.3285 20.2501 32.7053C20.4709 32.8183 20.6918 32.9313 20.9194 33.0297C21.5811 33.3259 22.3287 33.3669 23.0187 33.1446C23.7087 32.9223 24.2923 32.4527 24.6576 31.8257C24.8521 31.5052 25.0078 31.1651 25.1926 30.8417C25.5308 30.2202 26.0078 29.6852 26.5864 29.2788C27.165 28.8723 27.8295 28.6054 28.5281 28.4986C28.8666 28.4392 29.209 28.3883 29.5397 28.3036C30.305 28.0978 30.9579 27.5975 31.3561 26.9114C31.7542 26.2253 31.8653 25.4094 31.6651 24.6416C31.4731 23.7918 31.5102 22.906 31.7726 22.0754C32.035 21.2447 32.5132 20.499 33.1583 19.9145C33.2682 19.8102 33.3723 19.698 33.4744 19.586C34.0018 19.0327 34.2978 18.2984 34.3016 17.5335C34.3054 16.7686 34.0167 16.0312 33.4949 15.4728C33.275 15.2253 33.0318 14.9974 32.8139 14.7499C32.3369 14.2444 31.9803 13.6371 31.7709 12.9739C31.5615 12.3106 31.5047 11.6086 31.6048 10.9202C31.6661 10.475 31.7148 10.0345 31.7673 9.59516H31.7663Z" fill="#0E4C8F"/>
<path d="M10.7232 23.7618C10.8439 23.5349 10.989 23.322 11.1561 23.1267C13.3908 20.8704 15.6326 18.6211 17.8815 16.3791C19.7797 14.4773 21.6788 12.5762 23.5788 10.6758C23.7106 10.525 23.8693 10.3999 24.0467 10.3074C24.2162 10.2227 24.4096 10.1996 24.5943 10.2417C24.7789 10.2838 24.9432 10.3885 25.0593 10.5383C25.1813 10.6731 25.2559 10.8442 25.2717 11.0254C25.2875 11.2066 25.2437 11.3879 25.1469 11.5418C25.0629 11.6755 24.9608 11.7969 24.8434 11.9024C20.6931 16.0631 16.5427 20.2238 12.3924 24.3845C12.2724 24.5473 12.1058 24.6694 11.9146 24.7349C11.7234 24.8003 11.5168 24.806 11.3224 24.7508C10.9469 24.6232 10.7456 24.3366 10.7232 23.7618Z" fill="#0E4C8F"/>
<path d="M10.8526 11.6948C10.8526 10.9529 11.0721 10.2276 11.4834 9.61054C11.8947 8.99348 12.4794 8.51235 13.1636 8.22789C13.8477 7.94344 14.6007 7.86826 15.3274 8.01216C16.0541 8.15605 16.722 8.51255 17.2466 9.03636C17.7712 9.56016 18.1291 10.228 18.275 10.9554C18.4209 11.6828 18.3484 12.437 18.0665 13.1232C17.7846 13.8093 17.306 14.3964 16.6912 14.8103C16.0764 15.2241 15.3529 15.4463 14.6122 15.4487C14.1184 15.4524 13.6288 15.3578 13.1717 15.1706C12.7147 14.9834 12.2992 14.7073 11.9495 14.3581C11.5998 14.0089 11.3228 13.5937 11.1345 13.1365C10.9462 12.6793 10.8504 12.1894 10.8526 11.6948ZM16.5693 11.6792C16.5698 11.1564 16.3642 10.6547 15.9971 10.2832C15.6299 9.91167 15.1311 9.70057 14.6093 9.69569C14.0801 9.69823 13.5733 9.90946 13.1986 10.2837C12.8239 10.6579 12.6115 11.1649 12.6074 11.6948C12.611 12.2175 12.8202 12.7175 13.1898 13.0865C13.5593 13.4555 14.0593 13.6637 14.5811 13.6657C14.8433 13.6715 15.1039 13.6242 15.3474 13.5266C15.5909 13.4289 15.8121 13.2829 15.9978 13.0975C16.1836 12.912 16.3299 12.6907 16.4281 12.4472C16.5263 12.2036 16.5744 11.9427 16.5693 11.6801V11.6792Z" fill="#0E4C8F"/>
<path d="M21.3999 27.0861C20.6579 27.0861 19.9325 26.8655 19.3157 26.4524C18.6988 26.0394 18.2182 25.4524 17.9346 24.7656C17.6511 24.0788 17.5773 23.323 17.7227 22.5942C17.8681 21.8654 18.2261 21.1963 18.7514 20.6714C19.2768 20.1465 19.9457 19.7895 20.6737 19.6455C21.4017 19.5016 22.156 19.5773 22.841 19.8629C23.526 20.1485 24.1111 20.6313 24.5221 21.2501C24.933 21.8689 25.1515 22.5958 25.1498 23.3389C25.1464 24.3332 24.75 25.2857 24.0472 25.9879C23.3445 26.6901 22.3926 27.0851 21.3999 27.0861ZM21.4096 21.3555C21.1517 21.3521 20.8957 21.3999 20.6563 21.4963C20.417 21.5926 20.1991 21.7356 20.0152 21.9168C19.8313 22.098 19.6851 22.3138 19.585 22.5519C19.4849 22.79 19.4329 23.0456 19.4321 23.304C19.427 23.5665 19.4742 23.8273 19.571 24.0713C19.6678 24.3153 19.8121 24.5374 19.9956 24.7249C20.1791 24.9124 20.398 25.0615 20.6396 25.1633C20.8812 25.2651 21.1407 25.3174 21.4028 25.3176C21.9247 25.3142 22.4246 25.1071 22.7964 24.7404C23.1682 24.3736 23.3826 23.8762 23.394 23.3537C23.3957 23.0914 23.3454 22.8313 23.2462 22.5885C23.1469 22.3458 23.0007 22.1252 22.8158 21.9394C22.6309 21.7536 22.4111 21.6063 22.1691 21.506C21.9271 21.4058 21.6676 21.3547 21.4057 21.3555H21.4096Z" fill="#0E4C8F"/>
</svg>
