<svg width="35" height="31" viewBox="0 0 35 31" fill="none" xmlns="http://www.w3.org/2000/svg">
<g clip-path="url(#clip0_1130_552)">
<path d="M29.7501 20.1503C30.3944 20.1503 30.9167 20.6129 30.9167 21.1836C30.9167 21.469 31.1779 21.7003 31.5001 21.7003C31.8222 21.7003 32.0834 21.469 32.0834 21.1836C32.0794 20.2441 31.3604 19.4252 30.3334 19.1903V18.6003C30.3334 18.3149 30.0722 18.0836 29.7501 18.0836C29.4279 18.0836 29.1667 18.3149 29.1667 18.6003V19.1903C27.9212 19.4742 27.1715 20.5987 27.492 21.7018C27.7571 22.6142 28.6865 23.2515 29.7501 23.2503C30.3944 23.2503 30.9167 23.7129 30.9167 24.2836C30.9167 24.8543 30.3944 25.317 29.7501 25.317C29.1057 25.317 28.5834 24.8543 28.5834 24.2836C28.5834 23.9983 28.3222 23.767 28.0001 23.767C27.6779 23.767 27.4167 23.9983 27.4167 24.2836C27.4207 25.2231 28.1396 26.042 29.1667 26.2769V26.867C29.1667 27.1523 29.4279 27.3836 29.7501 27.3836C30.0722 27.3836 30.3334 27.1523 30.3334 26.867V26.2769C31.5789 25.993 32.3286 24.8686 32.0081 23.7654C31.743 22.8531 30.8137 22.2158 29.7501 22.217C29.1057 22.217 28.5834 21.7543 28.5834 21.1836C28.5834 20.6129 29.1058 20.1503 29.7501 20.1503V20.1503Z" fill="#0E4C8F"/>
<path d="M14 18.6002H12.8333C12.5111 18.6002 12.25 18.8315 12.25 19.1169C12.25 19.4022 12.5112 19.6335 12.8333 19.6335H14C14.3222 19.6335 14.5833 19.4022 14.5833 19.1169C14.5833 18.8315 14.3222 18.6002 14 18.6002Z" fill="#0E4C8F"/>
<path d="M26.2501 18.6002H16.3334C16.0113 18.6002 15.7501 18.8315 15.7501 19.1169C15.7501 19.4022 16.0113 19.6335 16.3334 19.6335H26.2501C26.5722 19.6335 26.8334 19.4022 26.8334 19.1169C26.8334 18.8315 26.5722 18.6002 26.2501 18.6002Z" fill="#0E4C8F"/>
<path d="M14 15.5002H12.8333C12.5111 15.5002 12.25 15.7316 12.25 16.0169C12.25 16.3022 12.5112 16.5335 12.8333 16.5335H14C14.3222 16.5335 14.5833 16.3022 14.5833 16.0169C14.5834 15.7316 14.3222 15.5002 14 15.5002Z" fill="#0E4C8F"/>
<path d="M16.3334 16.5335H30.9167C31.2389 16.5335 31.5001 16.3022 31.5001 16.0169C31.5001 15.7315 31.2389 15.5002 30.9167 15.5002H16.3334C16.0113 15.5002 15.7501 15.7316 15.7501 16.0169C15.7501 16.3022 16.0113 16.5335 16.3334 16.5335Z" fill="#0E4C8F"/>
<path d="M14 12.4003H12.8333C12.5111 12.4003 12.25 12.6316 12.25 12.9169C12.25 13.2023 12.5112 13.4336 12.8333 13.4336H14C14.3222 13.4336 14.5833 13.2022 14.5833 12.9169C14.5834 12.6316 14.3222 12.4003 14 12.4003Z" fill="#0E4C8F"/>
<path d="M16.3334 13.4336H30.9167C31.2389 13.4336 31.5001 13.2022 31.5001 12.9169C31.5001 12.6316 31.2389 12.4003 30.9167 12.4003H16.3334C16.0113 12.4003 15.7501 12.6316 15.7501 12.9169C15.7501 13.2022 16.0113 13.4336 16.3334 13.4336Z" fill="#0E4C8F"/>
<path d="M14 9.30029H12.8333C12.5111 9.30029 12.25 9.53164 12.25 9.81694C12.25 10.1022 12.5112 10.3336 12.8333 10.3336H14C14.3222 10.3336 14.5833 10.1022 14.5833 9.81694C14.5833 9.53164 14.3222 9.30029 14 9.30029Z" fill="#0E4C8F"/>
<path d="M16.3334 10.3336H30.9167C31.2389 10.3336 31.5001 10.1022 31.5001 9.81694C31.5001 9.53164 31.2389 9.30029 30.9167 9.30029H16.3334C16.0113 9.30029 15.7501 9.53164 15.7501 9.81694C15.7501 10.1022 16.0113 10.3336 16.3334 10.3336Z" fill="#0E4C8F"/>
<path d="M14 21.7002H12.8333C12.5111 21.7002 12.25 21.9315 12.25 22.2168C12.25 22.5021 12.5112 22.7335 12.8333 22.7335H14C14.3222 22.7335 14.5833 22.5022 14.5833 22.2168C14.5833 21.9315 14.3222 21.7002 14 21.7002Z" fill="#0E4C8F"/>
<path d="M24.5001 21.7002H16.3334C16.0113 21.7002 15.7501 21.9315 15.7501 22.2168C15.7501 22.5021 16.0113 22.7335 16.3334 22.7335H24.5001C24.8222 22.7335 25.0834 22.5022 25.0834 22.2168C25.0834 21.9315 24.8222 21.7002 24.5001 21.7002Z" fill="#0E4C8F"/>
<path d="M14 24.8003H12.8333C12.5111 24.8003 12.25 25.0316 12.25 25.3169C12.25 25.6023 12.5112 25.8336 12.8333 25.8336H14C14.3222 25.8336 14.5833 25.6022 14.5833 25.3169C14.5834 25.0316 14.3222 24.8003 14 24.8003Z" fill="#0E4C8F"/>
<path d="M24.5001 24.8003H16.3334C16.0113 24.8003 15.7501 25.0316 15.7501 25.3169C15.7501 25.6023 16.0113 25.8336 16.3334 25.8336H24.5001C24.8222 25.8336 25.0834 25.6022 25.0834 25.3169C25.0834 25.0316 24.8222 24.8003 24.5001 24.8003Z" fill="#0E4C8F"/>
<path d="M16.9168 7.7502H18.0834C18.7278 7.7502 19.2501 7.28756 19.2501 6.71685V5.68356H20.4168V6.71691C20.4168 7.28763 20.9392 7.75026 21.5835 7.75026H22.7501C23.3944 7.75026 23.9168 7.28763 23.9168 6.71691V5.68356H25.0834V6.71691C25.0834 7.28763 25.6058 7.75026 26.2501 7.75026H27.4168C28.0612 7.75026 28.5835 7.28763 28.5835 6.71691V5.68356C28.5835 5.11284 28.0612 4.6502 27.4168 4.6502H26.2501V3.61685C26.2501 3.04613 25.7277 2.5835 25.0834 2.5835H23.9167C23.2723 2.5835 22.75 3.04613 22.75 3.61685V4.6502H21.5833V3.61685C21.5833 3.04613 21.061 2.5835 20.4166 2.5835H19.2501C18.6057 2.5835 18.0834 3.04613 18.0834 3.61685V4.6502H16.9167C16.2723 4.6502 15.75 5.11284 15.75 5.68356V6.71691C15.7501 7.28756 16.2724 7.7502 16.9168 7.7502ZM21.5834 6.71685V5.68356H22.7501V6.71691H21.5834V6.71685ZM27.4168 6.71685H26.2501V5.68356H27.4168V6.71685ZM23.9168 3.61685H25.0834V4.6502H23.9168V3.61685ZM19.2501 3.61685H20.4168V4.6502H19.2501V3.61685ZM16.9168 5.68356H18.0834V6.71691H16.9168V5.68356Z" fill="#0E4C8F"/>
<path d="M29.7499 0.000244141H5.24989C2.35173 0.00308984 0.0031023 2.0833 -0.000110589 4.65024V21.7674C-0.00195629 22.134 0.218844 22.4732 0.578005 22.6556C0.939079 22.8443 1.38697 22.8462 1.74989 22.6602L3.64283 21.7002L6.12489 22.9527C6.3018 23.0446 6.50312 23.0932 6.7082 23.0937C6.91082 23.0934 7.10967 23.0454 7.28454 22.9548L9.33436 21.9214V29.6714C9.33457 30.2421 9.85704 30.7046 10.5014 30.7044C10.7042 30.7044 10.9036 30.6574 11.0797 30.5684L12.9791 29.6074L15.4583 30.8639C15.8172 31.045 16.2573 31.045 16.6162 30.8639L19.1006 29.6053L21.5833 30.8639C21.9424 31.0451 22.3827 31.0451 22.7418 30.8639L25.2233 29.6053L27.7083 30.8639C28.0667 31.0451 28.5066 31.0451 28.865 30.8639L31.3512 29.6053L33.2552 30.5684C33.8149 30.8511 34.5274 30.6786 34.8467 30.1828C34.9469 30.0271 34.9998 29.8511 35 29.6719V4.65024C34.9967 2.0833 32.6481 0.00308984 29.7499 0.000244141V0.000244141ZM9.18971 20.8023L6.7082 22.0572L4.2191 20.8012C3.85994 20.6245 3.42326 20.6245 3.0641 20.8012L1.16651 21.7673V4.65024C1.16651 2.6528 2.99471 1.0336 5.24982 1.0336C7.50493 1.0336 9.33313 2.65286 9.33313 4.65024V20.7491C9.28391 20.7635 9.23599 20.7813 9.18971 20.8023V20.8023ZM33.8333 29.6724L31.9304 28.7093C31.5716 28.5287 31.1319 28.5287 30.7731 28.7093L28.2863 29.9669L25.8007 28.7088C25.4418 28.529 25.0028 28.529 24.6439 28.7088L22.1624 29.9669L19.6792 28.7098C19.32 28.5297 18.8805 28.5297 18.5212 28.7098L16.0415 29.9669L13.5565 28.7098C13.1974 28.5293 12.7577 28.5293 12.3986 28.7098L10.4999 29.6714V4.65024C10.5 3.24501 9.78171 1.91528 8.54632 1.0336H29.7499C32.004 1.0359 33.8307 2.65377 33.8332 4.65024V29.6724H33.8333Z" fill="#0E4C8F"/>
</g>
<defs>
<clipPath id="clip0_1130_552">
<rect width="35" height="31" fill="white"/>
</clipPath>
</defs>
</svg>
