<svg width="24" height="24" viewBox="0 0 24 24" fill="none" xmlns="http://www.w3.org/2000/svg">
<path fill-rule="evenodd" clip-rule="evenodd" d="M4.87351 21.0101C4.34875 20.6937 2.44377 18.9498 2.50127 17.7071C2.53311 17.3353 2.75698 17.0067 3.01783 16.7396L3.01783 16.7386C3.61756 16.1265 5.88094 14.3703 6.35745 14.2717C7.52611 14.0283 8.19978 15.4219 9.37769 14.9957C12.0364 13.9091 13.9086 12.0368 14.994 9.3768C15.4212 8.19981 14.0287 7.52607 14.2711 6.35731C14.3707 5.88076 16.1257 3.61614 16.7388 3.01738V3.01738C17.0048 2.75754 17.3344 2.53159 17.7062 2.50078C19.0155 2.45456 20.7829 4.47783 21.0088 4.87221C21.6753 5.8027 21.663 7.01666 20.975 8.49663C19.2569 12.6263 12.782 19.2261 8.49657 20.9762C7.02496 21.6458 5.8029 21.691 4.87351 21.0101Z" stroke="#058638" stroke-width="1.5" stroke-linecap="round" stroke-linejoin="round"/>
<path d="M2.75 9.4346C3.161 5.7326 6.081 2.8096 9.782 2.3936" stroke="#058638" stroke-width="1.5" stroke-linecap="round" stroke-linejoin="round"/>
<path d="M6.29297 9.4346C6.63797 7.6646 8.02097 6.2816 9.79097 5.9366" stroke="#058638" stroke-width="1.5" stroke-linecap="round" stroke-linejoin="round"/>
</svg>
