<svg width="48" height="48" viewBox="0 0 48 48" fill="none" xmlns="http://www.w3.org/2000/svg">
<rect x="0.125" y="0.125" width="47.75" height="47.75" rx="4.875" fill="white" stroke="#0E4C8F" stroke-width="0.25"/>
<path d="M20.5295 11.999C20.7425 12.1493 20.993 12.2683 21.1622 12.4562C23.5487 15.1055 25.6221 17.9678 27.1567 21.1933C27.2382 21.3687 27.2945 21.6067 27.4323 21.6881C27.5639 21.7632 27.7894 21.6693 27.9773 21.6442C31.8171 21.187 35.3562 23.8927 35.92 27.7132C36.4962 31.6276 33.903 35.2227 30.0006 35.8928C28.2153 36.1997 26.5366 35.849 24.9957 34.897C24.8391 34.7968 24.7263 34.7843 24.5572 34.8845C19.4772 37.7968 13.0379 34.7216 12.1045 28.9408C12.0607 28.6965 12.0294 28.4585 11.998 28.2205C11.998 27.7821 11.998 27.3437 11.998 26.9053C12.0231 26.7362 12.0482 26.567 12.067 26.3979C12.2549 24.7382 12.756 23.1662 13.4325 21.6505C14.9671 18.2246 17.1345 15.2245 19.64 12.45C19.8029 12.2683 20.0472 12.1493 20.2476 11.999C20.3416 11.999 20.4355 11.999 20.5295 11.999ZM20.3854 12.7694C20.3291 12.8508 20.2977 12.9009 20.2539 12.951C18.2244 15.187 16.4329 17.592 14.9985 20.2538C13.9461 22.2017 13.1318 24.2372 12.8625 26.4543C12.6933 27.876 12.8437 29.2602 13.4137 30.5817C14.7918 33.7759 18.1304 35.6298 21.5818 35.0974C22.4588 34.9659 23.2919 34.6778 24.0749 34.2394C22.0767 32.3479 21.206 30.0556 21.7572 27.3499C22.3147 24.6317 24.0185 22.8718 26.6118 21.9135C25.0521 18.5252 22.8973 15.5627 20.3854 12.7694ZM28.7916 22.4021C25.2525 22.4083 22.4024 25.2581 22.4024 28.7967C22.4024 32.3291 25.265 35.1976 28.7916 35.1976C32.3245 35.1976 35.2121 32.3103 35.1996 28.7842C35.1933 25.2518 32.3245 22.3958 28.7916 22.4021Z" fill="#0E4C8F"/>
<path d="M13.5955 27.8259C13.5955 27.7382 13.5955 27.6755 13.5955 27.6129C13.608 27.3749 13.7708 27.1995 13.9838 27.1933C14.2093 27.187 14.3847 27.3624 14.391 27.6129C14.4098 28.4396 14.5476 29.2476 14.9046 29.9992C15.957 32.2163 17.7171 33.4126 20.1726 33.5879C20.2477 33.5942 20.3292 33.5942 20.4043 33.6005C20.6424 33.6255 20.8052 33.8009 20.7927 34.0138C20.7802 34.233 20.6111 34.4021 20.3668 34.3896C20.0035 34.3771 19.6276 34.3583 19.2706 34.2957C16.2639 33.7508 14.0715 31.471 13.6518 28.4522C13.6205 28.2392 13.6143 28.02 13.5955 27.8259Z" fill="#0E4C8F"/>
<path d="M28.8164 23.1726C31.7292 23.2102 34.1282 25.4273 34.3788 28.3334C34.3913 28.4649 34.4038 28.5965 34.4038 28.728C34.4038 29.0036 34.2472 29.1852 34.0155 29.1977C33.7837 29.204 33.6146 29.0286 33.6083 28.7531C33.577 27.7322 33.2889 26.8052 32.6875 25.9785C31.535 24.3877 29.5556 23.6737 27.6075 24.1497C25.7972 24.5943 24.3503 26.1789 24.0684 28.0453C24.0371 28.2708 24.0245 28.4963 24.012 28.7217C23.9995 29.0161 23.8429 29.1977 23.6048 29.1977C23.3668 29.1977 23.2102 29.0098 23.2102 28.7155C23.204 26.1288 25.1896 23.7551 27.7328 23.3041C28.0835 23.2415 28.4531 23.2164 28.8164 23.1726Z" fill="#0E4C8F"/>
<path d="M29.1986 26.1787C29.1986 26.4606 29.2049 26.7424 29.1986 27.0243C29.1924 27.1871 29.2362 27.2623 29.3991 27.3312C30.1069 27.6067 30.4953 28.3332 30.37 29.0848C30.251 29.7988 29.6309 30.3437 28.8917 30.3938C28.1463 30.4439 27.4761 29.9742 27.2631 29.2477C27.0251 28.4585 27.426 27.6255 28.2089 27.3186C28.3593 27.2623 28.4094 27.1934 28.4031 27.0305C28.3906 26.4543 28.3969 25.8781 28.3969 25.2956C28.3969 24.97 28.5347 24.7946 28.7852 24.7946C29.042 24.7883 29.1924 24.9762 29.1924 25.3082C29.2049 25.6025 29.1986 25.8906 29.1986 26.1787ZM29.5933 28.7842C29.587 28.3395 29.2237 27.9825 28.7852 27.995C28.353 28.0076 28.0022 28.3646 28.0022 28.7967C28.0022 29.2351 28.3593 29.5921 28.8103 29.5921C29.2488 29.5859 29.5995 29.2351 29.5933 28.7842Z" fill="#0E4C8F"/>
</svg>
