<svg xmlns="http://www.w3.org/2000/svg" version="1.1" xmlns:xlink="http://www.w3.org/1999/xlink" xmlns:svgjs="http://svgjs.com/svgjs" width="25" height="25" x="0" y="0" viewBox="0 0 60 60" style="enable-background:new 0 0 512 512" xml:space="preserve" class=""><g><path d="m20.718 59.998.272.002a20.854 20.854 0 0 0 14.755-6.06A20.891 20.891 0 0 0 42 38.969c0-1.854-.2-3.644-.608-5.427a14.91 14.91 0 0 0 3.608.457c8.271 0 15-6.729 15-15s-6.729-15-15-15c-6.863 0-12.651 4.639-14.427 10.941-3.3-4.262-6.533-8.715-8.225-13.928A1.417 1.417 0 0 0 20.987 0h-.005c-.628 0-1.172.4-1.352.983-1.877 5.797-5.648 10.646-9.296 15.335-4.17 5.361-8.481 10.904-9.882 17.823-1.314 6.465.271 13.07 4.348 18.122a20.722 20.722 0 0 0 15.918 7.735zM45 6c7.168 0 13 5.832 13 13s-5.832 13-13 13-13-5.832-13-13S37.832 6 45 6zM2.412 34.538c1.308-6.459 5.287-11.575 9.501-16.992 3.432-4.411 6.97-8.96 9.071-14.403 2.103 5.445 5.645 9.999 9.089 14.413-.046.476-.073.957-.073 1.444 0 6.186 3.765 11.508 9.123 13.798.581 2.032.877 4.056.877 6.171 0 5.132-2.01 9.943-5.66 13.548a18.868 18.868 0 0 1-13.597 5.48 18.73 18.73 0 0 1-14.387-6.991c-3.701-4.587-5.14-10.589-3.944-16.469z" fill="#058638" data-original="#000000" opacity="1" class=""></path><path d="M38.637 26.777a.999.999 0 0 0 0-1.414c-3.508-3.508-3.508-9.217 0-12.726 2.834-2.834 7.104-3.375 10.49-1.631L45.729 16.1A2.975 2.975 0 0 0 45 16c-1.654 0-3 1.346-3 3s1.346 3 3 3 3-1.346 3-3a2.97 2.97 0 0 0-.607-1.79l3.396-5.091c.196.165.39.334.574.519 3.508 3.508 3.508 9.217 0 12.726a.999.999 0 1 0 1.414 1.414c4.288-4.288 4.288-11.266 0-15.554a11.114 11.114 0 0 0-.893-.797.987.987 0 0 0-.33-1.258.985.985 0 0 0-1.291.182c-4.173-2.273-9.514-1.653-13.041 1.874-4.288 4.288-4.288 11.266 0 15.554a.999.999 0 0 0 1.414 0zM45 20a1.001 1.001 0 0 1 0-2 1.001 1.001 0 0 1 0 2zM9 39h5c.417 0 .79-.259.937-.648l1.872-4.993 3.222 12.884a1 1 0 0 0 .943.758H21a1 1 0 0 0 .956-.706l3.167-10.294.948 2.371a1 1 0 0 0 .929.629h6a1 1 0 1 0 0-2h-5.323l-1.748-4.371a1.001 1.001 0 0 0-1.885.077L21.1 42.276l-3.13-12.518a1 1 0 0 0-1.906-.109L13.307 37H9a1 1 0 1 0 0 2z" fill="#058638" data-original="#000000" opacity="1" class=""></path></g></svg>