<svg width="35" height="35" viewBox="0 0 35 35" fill="none" xmlns="http://www.w3.org/2000/svg">
<path d="M29 0H6C2.68629 0 0 2.68629 0 6V29C0 32.3137 2.68629 35 6 35H29C32.3137 35 35 32.3137 35 29V6C35 2.68629 32.3137 0 29 0Z" fill="white"/>
<path d="M29 0.125H6C2.75533 0.125 0.125 2.75533 0.125 6V29C0.125 32.2447 2.75533 34.875 6 34.875H29C32.2447 34.875 34.875 32.2447 34.875 29V6C34.875 2.75533 32.2447 0.125 29 0.125Z" fill="white" stroke="#0E4C8F" stroke-width="0.25"/>
<path d="M22.0239 28H13.9779C13.9632 27.9878 13.9467 27.9779 13.929 27.9709C13.4211 27.8946 12.9598 27.6319 12.635 27.2341C12.3102 26.8363 12.1451 26.3319 12.172 25.819C12.172 24.9531 12.172 24.088 12.172 23.219V22.997H11.9339C11.3289 22.997 10.7239 22.997 10.1189 22.997C9.83987 23.0019 9.56273 22.9505 9.30398 22.8459C9.04522 22.7413 8.81017 22.5858 8.61287 22.3884C8.41558 22.191 8.26011 21.9558 8.15566 21.697C8.05121 21.4382 7.99995 21.1611 8.00496 20.882C8.0003 18.962 8.0003 17.0423 8.00496 15.123C7.99882 14.8423 8.04957 14.5632 8.1542 14.3027C8.25882 14.0422 8.41515 13.8054 8.61373 13.6069C8.81231 13.4084 9.049 13.2524 9.30959 13.1479C9.57018 13.0434 9.84927 12.9927 10.13 12.999C10.735 12.999 11.3399 12.999 11.9459 12.999H12.1729V12.7658C12.1729 11.9128 12.1729 11.0659 12.1729 10.2089C12.1685 10.0528 12.1776 9.8965 12.2 9.7419C12.2797 9.24848 12.5349 8.80052 12.9188 8.48043C13.3026 8.16033 13.7893 7.9897 14.289 7.99996C16.7356 7.99996 19.1823 7.99996 21.6289 7.99996C21.9224 7.98264 22.2162 8.0276 22.4909 8.13204C22.7657 8.23647 23.0152 8.39807 23.223 8.60591C23.4309 8.81376 23.5924 9.06333 23.6968 9.33809C23.8012 9.61286 23.8463 9.90648 23.8289 10.1999C23.8289 11.0592 23.8289 11.9184 23.8289 12.7771V12.9961H24.07C24.701 12.9961 25.3329 12.9891 25.9639 12.9961C26.4031 13.006 26.8278 13.1543 27.1775 13.4201C27.5272 13.6859 27.7839 14.0556 27.911 14.476C27.942 14.576 27.9699 14.685 27.9989 14.789V21.195C27.9863 21.2089 27.9762 21.2246 27.969 21.2419C27.8888 21.7492 27.6234 22.2089 27.2241 22.5319C26.8248 22.855 26.3199 23.0185 25.807 22.9909H23.831C23.831 23.0969 23.831 23.1739 23.831 23.2509C23.831 24.1689 23.841 25.0869 23.823 26.0039C23.8076 26.4363 23.656 26.8529 23.3899 27.194C23.1237 27.5352 22.7566 27.7838 22.341 27.904C22.235 27.944 22.1289 27.971 22.0239 28ZM12.172 22.1599V21.9309C12.172 21.0715 12.172 20.2126 12.172 19.354C12.172 18.978 12.3159 18.831 12.6889 18.831H23.3109C23.6849 18.831 23.8289 18.977 23.8299 19.353C23.8299 20.2123 23.8299 21.0715 23.8299 21.9309V22.1709C24.5129 22.1709 25.1629 22.1709 25.8129 22.1709C25.9943 22.1843 26.1764 22.1584 26.3468 22.0952C26.5173 22.0319 26.6721 21.9326 26.8008 21.8042C26.9295 21.6757 27.029 21.5212 27.0925 21.3508C27.156 21.1804 27.1821 20.9982 27.169 20.8169C27.169 18.9429 27.169 17.0687 27.169 15.194C27.1832 15.0111 27.1575 14.8271 27.0937 14.655C27.0299 14.4829 26.9295 14.3269 26.7994 14.1975C26.6693 14.068 26.5126 13.9684 26.3402 13.9055C26.1678 13.8425 25.9838 13.8178 25.8009 13.833C24.9289 13.833 24.0573 13.833 23.1859 13.833C18.8526 13.833 14.5193 13.833 10.1859 13.833C10.0045 13.82 9.82234 13.8464 9.652 13.9104C9.48166 13.9743 9.32717 14.0742 9.199 14.2033C9.07083 14.3324 8.97204 14.4876 8.90938 14.6584C8.84673 14.8292 8.82168 15.0115 8.83596 15.1928C8.83596 15.7788 8.83596 16.3649 8.83596 16.9499C8.83596 18.2499 8.83596 19.5499 8.83596 20.8559C8.82442 21.0163 8.84486 21.1776 8.89608 21.33C8.9473 21.4825 9.02825 21.6232 9.1343 21.7441C9.24035 21.865 9.36934 21.9637 9.51381 22.0344C9.65829 22.1051 9.81541 22.1464 9.97597 22.156C10.693 22.192 11.416 22.1599 12.172 22.1599ZM23.0009 19.685H13.0009V19.913C13.0009 21.8717 13.0009 23.8307 13.0009 25.79C12.9835 25.9761 13.0075 26.1638 13.0711 26.3396C13.1348 26.5153 13.2365 26.6748 13.3691 26.8066C13.5017 26.9384 13.6618 27.0394 13.8379 27.102C14.0141 27.1646 14.2019 27.1874 14.388 27.1689H21.612C21.798 27.1874 21.9858 27.1646 22.1619 27.102C22.3381 27.0394 22.4982 26.9384 22.6308 26.8066C22.7633 26.6748 22.8651 26.5153 22.9288 26.3396C22.9924 26.1638 23.0164 25.9761 22.9989 25.79C22.9989 23.8307 22.9989 21.8717 22.9989 19.913L23.0009 19.685ZM23.0009 12.9961V12.8081C23.0009 11.9231 23.0009 11.0371 23.0009 10.1521C23.011 9.97712 22.9841 9.80202 22.9221 9.63814C22.8601 9.47426 22.7642 9.32511 22.6409 9.20064C22.5176 9.07617 22.3694 8.97901 22.2061 8.91548C22.0428 8.85196 21.868 8.82357 21.693 8.83199C19.2323 8.82866 16.7716 8.82866 14.3109 8.83199C14.136 8.82358 13.9612 8.85202 13.798 8.91548C13.6348 8.97895 13.4867 9.07604 13.3634 9.2004C13.24 9.32476 13.1443 9.47365 13.0822 9.63741C13.0201 9.80117 12.9931 9.97598 13.003 10.1508C13.003 11.0368 13.003 11.9222 13.003 12.8068V12.9961H23.0009Z" fill="#0E4C8F" stroke="#0E4C8F" stroke-width="0.25"/>
<path d="M17.5849 23.8368C16.7359 23.8368 15.885 23.8368 15.039 23.8368C14.9333 23.8503 14.8264 23.8246 14.7385 23.7645C14.6506 23.7045 14.5877 23.6142 14.5619 23.5109C14.5453 23.4462 14.5439 23.3786 14.5579 23.3134C14.572 23.2481 14.601 23.187 14.6427 23.1349C14.6844 23.0828 14.7377 23.041 14.7983 23.0131C14.8589 22.9851 14.9252 22.9717 14.992 22.9738C15.324 22.9658 15.657 22.9738 15.992 22.9738H20.0249C20.0789 22.9738 20.1339 22.9738 20.1879 22.9738C20.3047 22.9714 20.4177 23.0155 20.5021 23.0963C20.5865 23.1771 20.6353 23.2881 20.638 23.4049C20.6385 23.4628 20.6274 23.5202 20.6052 23.5736C20.583 23.6271 20.5502 23.6755 20.5088 23.716C20.4674 23.7564 20.4183 23.788 20.3643 23.809C20.3104 23.8299 20.2527 23.8397 20.1949 23.8378C19.8559 23.8448 19.516 23.8378 19.177 23.8378L17.5849 23.8368Z" fill="#0E4C8F" stroke="#0E4C8F" stroke-width="0.25"/>
<path d="M17.5779 25.3888C16.7359 25.3888 15.8943 25.3888 15.053 25.3888C14.9506 25.4003 14.8473 25.3768 14.7599 25.3224C14.6724 25.268 14.6059 25.1857 14.571 25.0888C14.5493 25.0258 14.5427 24.9587 14.5518 24.8927C14.5609 24.8268 14.5854 24.7637 14.6232 24.7089C14.6611 24.6541 14.7113 24.6091 14.7698 24.5773C14.8283 24.5455 14.8934 24.5278 14.96 24.5258C15.224 24.5138 15.489 24.5209 15.754 24.5209H20.0539C20.1419 24.5169 20.2301 24.5221 20.3169 24.5368C20.4175 24.564 20.5047 24.6267 20.5626 24.7133C20.6205 24.7999 20.6451 24.9044 20.6318 25.0077C20.6185 25.111 20.5682 25.2062 20.4903 25.2753C20.4124 25.3444 20.3121 25.3828 20.2079 25.3837C19.8079 25.3917 19.4079 25.3837 19.0079 25.3837L17.5779 25.3888Z" fill="#0E4C8F" stroke="#0E4C8F" stroke-width="0.25"/>
<path d="M15.9349 22.181C15.6629 22.181 15.3909 22.181 15.1199 22.181C15.0588 22.1879 14.9968 22.1818 14.9382 22.1632C14.8795 22.1445 14.8255 22.1138 14.7795 22.0728C14.7336 22.0319 14.6967 21.9815 14.6715 21.9254C14.6462 21.8693 14.6331 21.8085 14.6329 21.7469C14.6316 21.6854 14.6434 21.6243 14.6675 21.5677C14.6917 21.5111 14.7276 21.4602 14.7729 21.4186C14.8183 21.3769 14.8719 21.3455 14.9304 21.3263C14.9889 21.307 15.0507 21.3004 15.1119 21.307C15.6553 21.3016 16.1989 21.3016 16.7429 21.307C16.8042 21.2999 16.8663 21.3058 16.9252 21.3243C16.9841 21.3428 17.0384 21.3738 17.0846 21.4146C17.1309 21.4555 17.168 21.5057 17.1936 21.5619C17.2192 21.618 17.2326 21.6789 17.2331 21.7406C17.2336 21.8023 17.2211 21.8634 17.1965 21.92C17.1718 21.9766 17.1355 22.0273 17.0899 22.0689C17.0443 22.1106 16.9905 22.1422 16.9319 22.1617C16.8734 22.1812 16.8113 22.188 16.7499 22.182H15.9349V22.181Z" fill="#0E4C8F" stroke="#0E4C8F" stroke-width="0.25"/>
</svg>
