<svg width="54" height="54" viewBox="0 0 54 54" fill="none" xmlns="http://www.w3.org/2000/svg">
<path d="M52.8058 0.0336936C53.2411 0.336936 53.3416 0.741259 53.3416 1.24666C53.3081 3.53783 53.3416 5.7953 53.3416 8.08646C53.3416 12.3992 50.7965 15.5327 46.577 16.3751C46.4765 16.4088 46.3761 16.4088 46.2086 16.4425C46.2086 17.15 46.2086 17.8576 46.2086 18.5315C46.2086 21.4291 45.7398 24.2257 44.7017 26.9212C43.1612 30.9981 40.7836 34.4011 37.0664 36.7934C34.2534 38.6128 31.1725 39.3878 27.8236 39.1519C23.7381 38.8487 20.4897 35.2435 20.3558 30.9644C20.1883 25.3713 24.5083 22.2378 28.9288 22.1704C31.8087 22.1367 34.2534 23.2823 36.4301 24.9669C37.8366 26.0788 39.1426 27.3592 40.4487 28.5722C40.9175 29.0102 40.951 29.5156 40.5826 29.8862C40.2143 30.2568 39.7454 30.1895 39.2766 29.7177C37.7361 28.1004 36.1287 26.6179 34.2199 25.4387C32.512 24.3605 30.6701 23.754 28.6274 23.8214C25.2785 23.9561 22.4655 26.3821 22.0637 29.5493C21.5949 33.1208 23.4367 36.2206 26.6516 37.1977C28.5939 37.8042 30.5362 37.5347 32.4115 36.9619C37.0999 35.513 40.3147 32.3795 42.4914 28.0331C43.9649 25.068 44.5342 21.8671 44.5342 18.5652C44.5342 17.8576 44.5342 17.1163 44.5342 16.5436C43.4626 16.1392 42.391 15.8697 41.4533 15.3643C38.8078 13.8481 37.4347 11.4895 37.3678 8.4234C37.3343 5.99746 37.3678 3.57152 37.3678 1.14558C37.3678 0.640178 37.5352 0.269549 37.9705 0.0336936C38.9417 0.0336936 39.8794 0.0336936 40.8505 0.0336936C41.1854 0.336936 41.4868 0.673872 41.2859 1.17928C41.0515 1.68468 40.6161 1.71837 40.1473 1.68468C39.7789 1.68468 39.444 1.68468 39.0422 1.68468C39.0422 1.85315 39.0087 1.95423 39.0087 2.089C39.0087 4.2117 39.0087 6.36809 39.0087 8.49078C39.0087 8.89511 39.0757 9.33312 39.1426 9.70375C39.8459 12.972 42.7594 15.061 46.1417 14.6904C49.1891 14.3535 51.6002 11.5906 51.6002 8.3897C51.6002 6.3007 51.6002 4.2117 51.6002 2.1227C51.6002 1.98792 51.5667 1.81945 51.5667 1.68468C50.9305 1.5499 50.1267 1.95423 49.7919 1.07819C49.5909 0.606484 49.9258 0.269549 50.2607 0C51.1649 0.0336936 51.9686 0.0336936 52.8058 0.0336936Z" fill="#0E4C8F"/>
<path d="M0.664551 10.4787C0.965944 10.0744 1.3678 9.93961 1.87012 9.93961C4.21429 9.9733 6.55846 9.93961 8.90263 9.93961C9.0031 9.93961 9.10356 9.93961 9.20403 9.93961C9.73983 9.9733 10.1082 10.3102 10.1082 10.7819C10.0747 11.2537 9.73983 11.5569 9.20403 11.5906C7.79752 11.5906 6.35753 11.5906 4.95103 11.5906C4.08034 11.5906 3.24314 11.5906 2.33896 11.5906C2.33896 24.8659 2.33896 38.1074 2.33896 51.349C12.3184 51.349 22.3314 51.349 32.3778 51.349C32.3778 51.1469 32.3778 50.9447 32.3778 50.7425C32.3778 47.508 32.3778 44.2734 32.3778 41.0051C32.3778 40.8029 32.3778 40.6008 32.4113 40.3986C32.4783 39.9943 32.7462 39.7584 33.1815 39.7584C33.5834 39.7584 33.8848 39.9606 33.9852 40.3312C34.0187 40.4997 34.0522 40.7018 34.0522 40.904C34.0522 44.5429 34.0522 48.1818 34.0522 51.8207C34.0522 52.7641 33.8178 53.0337 32.8801 53.0337C22.5323 53.0337 12.218 53.0337 1.87012 53.0337C1.3678 53.0337 0.965944 52.9326 0.664551 52.4946C0.664551 38.4781 0.664551 24.4952 0.664551 10.4787Z" fill="#0E4C8F"/>
<path d="M29.5315 14.5556C21.3939 14.5556 13.3233 14.5556 5.21913 14.5556C5.21913 25.843 5.21913 37.1303 5.21913 48.4177C13.2898 48.4177 21.3939 48.4177 29.5315 48.4177C29.5315 48.2155 29.5315 48.0134 29.5315 47.8449C29.5315 45.7559 29.5315 43.6669 29.5315 41.5779C29.5315 41.4094 29.5315 41.241 29.5315 41.0725C29.5985 40.6345 29.8664 40.3986 30.2683 40.3649C30.7036 40.3312 31.005 40.5671 31.1055 40.9714C31.1389 41.1399 31.1389 41.3083 31.1389 41.4768C31.1389 43.9701 31.1389 46.4298 31.1389 48.9231C31.1389 49.8328 30.9045 50.1024 30.0003 50.1024C21.5613 50.1024 13.0888 50.1024 4.64983 50.1024C3.74565 50.1024 3.51123 49.8665 3.51123 48.9905C3.51123 37.3325 3.51123 25.6408 3.51123 13.9828C3.51123 13.1405 3.77914 12.871 4.61634 12.871C13.0888 12.871 21.5948 12.871 30.0673 12.871C30.871 12.871 31.1389 13.1405 31.1724 13.9492C31.1724 15.9708 31.1724 18.0261 31.1724 20.0477C31.1724 20.1488 31.1724 20.2162 31.1724 20.3172C31.1055 20.8226 30.7706 21.1596 30.3352 21.1596C29.8664 21.1596 29.5315 20.8226 29.5315 20.2835C29.5315 18.5652 29.5315 16.8805 29.5315 15.1621C29.5315 14.96 29.5315 14.7578 29.5315 14.5556Z" fill="#0E4C8F"/>
<path d="M46.5433 39.4889C45.2707 37.6358 44.0317 35.85 42.8261 34.0642C42.7256 33.9295 42.6252 33.8284 42.5582 33.6936C42.2903 33.2556 42.3573 32.8176 42.7591 32.548C43.1275 32.2785 43.5963 32.3459 43.8977 32.7502C44.3331 33.2893 44.7349 33.8284 45.1033 34.4012C45.974 35.7489 46.8447 37.063 47.7154 38.4107C47.8493 38.6466 47.9498 38.7476 48.2847 38.6803C50.1935 38.3433 52.0019 39.3878 52.6381 41.2073C53.2744 43.0267 52.5042 45.0483 50.8298 45.9581C49.1554 46.8678 47.0791 46.4298 45.907 44.9473C44.7014 43.3974 44.8019 41.2747 46.1414 39.8258C46.2419 39.7248 46.3424 39.6574 46.5433 39.4889ZM48.9544 40.2639C47.6819 40.2639 46.6772 41.2747 46.6772 42.555C46.6772 43.8017 47.6819 44.8125 48.921 44.8462C50.1265 44.8799 51.1981 43.8354 51.1981 42.6224C51.2651 41.342 50.227 40.2975 48.9544 40.2639Z" fill="#0E4C8F"/>
<path d="M17.3083 11.6243C15.6004 11.6243 13.8925 11.6243 12.1511 11.6243C11.3474 11.6243 11.0125 11.22 11.2135 10.445C11.4144 9.56898 11.6153 8.69295 11.8497 7.85061C11.9837 7.27781 12.2181 7.07565 12.8209 7.07565C15.8348 7.07565 18.8153 7.07565 21.8292 7.07565C22.432 7.07565 22.6664 7.27781 22.8338 7.85061C23.0683 8.72664 23.2692 9.60267 23.4701 10.445C23.6376 11.22 23.3027 11.6243 22.499 11.6243C20.7911 11.6243 19.0497 11.6243 17.3083 11.6243ZM13.0553 9.93961C15.9353 9.93961 18.7818 9.93961 21.6618 9.93961C21.5948 9.67006 21.5278 9.4679 21.4943 9.23204C21.4608 8.79403 21.2264 8.69295 20.8245 8.69295C19.7864 8.72664 18.7818 8.69295 17.7436 8.69295C16.3037 8.69295 14.8302 8.69295 13.3567 8.69295C13.2562 9.13096 13.1558 9.53528 13.0553 9.93961Z" fill="#0E4C8F"/>
<path d="M32.3778 11.6243C30.1676 11.6243 28.0244 11.6243 25.8811 11.6243C25.7137 11.6243 25.5462 11.6243 25.3788 11.6243C24.9434 11.5569 24.709 11.2873 24.6755 10.8493C24.642 10.445 24.8765 10.1418 25.2448 10.0407C25.4123 10.007 25.5797 9.9733 25.7472 9.9733C28.1583 9.9733 30.536 9.9733 32.9471 9.9733C33.7508 9.9733 34.0187 10.2428 34.0522 11.0515C34.0522 14.0502 34.0522 17.049 34.0522 20.0477C34.0522 20.2161 34.0857 20.452 33.9852 20.5531C33.7843 20.7889 33.5164 21.0585 33.215 21.1259C32.8466 21.1933 32.5452 20.9237 32.4448 20.5194C32.4113 20.3172 32.4113 20.1151 32.4113 19.9129C32.4113 17.3859 32.4113 14.8589 32.4113 12.3318C32.3778 12.096 32.3778 11.8938 32.3778 11.6243Z" fill="#0E4C8F"/>
<path d="M17.3753 42.555C20.1548 42.555 22.9344 42.555 25.7139 42.555C26.4506 42.555 26.9194 43.1615 26.5846 43.7006C26.4171 43.9364 26.0488 44.1386 25.7474 44.1723C25.0106 44.2397 24.2739 44.206 23.5371 44.206C18.8488 44.206 14.1605 44.206 9.47212 44.206C9.33817 44.206 9.23771 44.206 9.10376 44.206C8.46748 44.206 8.06562 43.869 8.09911 43.3636C8.09911 42.8582 8.46748 42.555 9.13724 42.555C11.8498 42.555 14.6293 42.555 17.3753 42.555Z" fill="#0E4C8F"/>
<path d="M15.5668 20.89C13.4905 20.89 11.3808 20.89 9.30449 20.89C9.10356 20.89 8.93612 20.89 8.73519 20.8563C8.29985 20.7889 8.06543 20.4857 8.06543 20.0477C8.06543 19.6434 8.29985 19.3738 8.7017 19.2727C8.86914 19.239 9.07007 19.239 9.271 19.239C13.457 19.239 17.643 19.239 21.8625 19.239C22.03 19.239 22.1974 19.239 22.3649 19.2727C22.8337 19.3401 23.0681 19.6434 23.0346 20.1151C23.0346 20.5531 22.7667 20.8226 22.3314 20.89C22.1304 20.9237 21.963 20.9237 21.7621 20.9237C19.6858 20.89 17.643 20.89 15.5668 20.89Z" fill="#0E4C8F"/>
<path d="M29.5312 30.8296C29.5312 29.2123 29.5312 27.6287 29.5312 26.0114C29.5312 25.4386 29.7657 25.1354 30.201 25.068C30.6363 25.0006 31.0047 25.2365 31.1052 25.6408C31.1387 25.8093 31.1722 25.9777 31.1722 26.1462C31.1722 29.246 31.1722 32.3458 31.1722 35.4456C31.1722 35.5804 31.1722 35.7152 31.1387 35.85C31.0382 36.3217 30.7033 36.5912 30.268 36.5575C29.7991 36.5238 29.5312 36.2543 29.5312 35.7826C29.4978 34.9402 29.5312 34.1316 29.5312 33.2893C29.5312 32.4806 29.5312 31.672 29.5312 30.8296Z" fill="#0E4C8F"/>
<path d="M13.5575 25.068C15.031 25.068 16.5044 25.068 17.9779 25.068C18.6477 25.068 18.9826 25.3713 18.9826 25.9104C18.9826 26.4495 18.6142 26.719 17.9444 26.719C14.9975 26.719 12.017 26.719 9.07007 26.719C8.4338 26.719 8.06543 26.3821 8.06543 25.8767C8.06543 25.3713 8.4338 25.068 9.10356 25.068C10.577 25.068 12.084 25.068 13.5575 25.068Z" fill="#0E4C8F"/>
<path d="M13.4905 32.548C12.017 32.548 10.5436 32.548 9.07007 32.548C8.4338 32.548 8.06543 32.2447 8.06543 31.7057C8.06543 31.2002 8.4338 30.8633 9.10356 30.8633C12.0505 30.8633 15.031 30.8633 17.9779 30.8633C18.6477 30.8633 18.9826 31.1666 18.9826 31.7057C18.9826 32.2447 18.6142 32.5143 17.9779 32.5143C16.471 32.548 14.9975 32.548 13.4905 32.548Z" fill="#0E4C8F"/>
<path d="M13.5575 38.377C12.1175 38.377 10.6775 38.377 9.23751 38.377C9.03659 38.377 8.86914 38.377 8.66822 38.3433C8.26636 38.2422 8.06543 37.939 8.06543 37.5347C8.06543 37.1303 8.29985 36.8608 8.7017 36.7597C8.86914 36.726 9.07007 36.726 9.271 36.726C12.1175 36.726 14.964 36.726 17.777 36.726C17.9444 36.726 18.1119 36.726 18.2793 36.7597C18.7147 36.8271 18.9491 37.0966 18.9826 37.5347C18.9826 38.0064 18.7481 38.2759 18.3128 38.377C18.1454 38.4107 17.9779 38.4107 17.8105 38.4107C16.3705 38.377 14.964 38.377 13.5575 38.377Z" fill="#0E4C8F"/>
<path d="M32.3777 30.9307C32.3777 29.684 32.3777 28.4037 32.3777 27.157C32.3777 26.7864 32.4447 26.4495 32.8131 26.2473C33.3489 25.9441 33.9517 26.3147 34.0186 26.9886C34.0521 27.5614 34.0186 28.1678 34.0186 28.7406C34.0186 30.6275 34.0186 32.5143 34.0186 34.4348C34.0186 34.6033 34.0186 34.7718 33.9852 34.9402C33.9182 35.412 33.5833 35.6815 33.148 35.6478C32.6791 35.6141 32.4112 35.3446 32.3777 34.9066C32.3442 34.2327 32.3777 33.5588 32.3442 32.8849C32.3777 32.2448 32.3777 31.5709 32.3777 30.9307Z" fill="#0E4C8F"/>
<path d="M13.0552 9.93961C13.1556 9.50159 13.2561 9.13096 13.3566 8.69295C14.83 8.69295 16.3035 8.69295 17.7435 8.69295C18.7816 8.69295 19.7863 8.72664 20.8244 8.69295C21.2263 8.69295 21.4607 8.76033 21.4942 9.23204C21.5277 9.4679 21.5947 9.70375 21.6616 9.93961C18.7816 9.93961 15.9352 9.93961 13.0552 9.93961Z" fill="white"/>
</svg>
