<svg width="32" height="38" viewBox="0 0 32 38" fill="none" xmlns="http://www.w3.org/2000/svg">
<path d="M23.5179 0C23.7654 0.101872 23.9729 0.281839 24.1087 0.512587C24.2446 0.743334 24.3013 1.01221 24.2703 1.27821C24.2555 7.41451 24.2526 13.5508 24.2615 19.6871V20.1769C24.3645 20.0293 24.4276 19.9521 24.4782 19.8659C24.7874 19.3414 25.0841 18.8108 25.4031 18.2925C25.517 18.0914 25.6698 17.9148 25.8525 17.7732C26.0352 17.6316 26.2442 17.5276 26.4674 17.4674C26.6905 17.4073 26.9234 17.3923 27.1525 17.423C27.3815 17.4536 27.6022 17.5295 27.8018 17.6463C28.9158 18.2602 30.0204 18.8909 31.1155 19.5386C31.3194 19.6509 31.4983 19.8039 31.641 19.9878C31.7838 20.1718 31.8874 20.383 31.9457 20.6085C32.0039 20.834 32.0155 21.0689 31.9797 21.299C31.9438 21.5292 31.8614 21.7495 31.7374 21.9466C31.2834 22.7519 30.8081 23.5466 30.3426 24.3466C30.2822 24.4506 30.2262 24.5573 30.1703 24.6604C31.1777 25.3715 31.4584 26.0763 31.0764 26.8932C31.007 27.133 30.8883 27.3558 30.7279 27.5471C30.5676 27.7384 30.3691 27.894 30.1451 28.0041C29.9212 28.1142 29.6767 28.1763 29.4274 28.1864C29.1781 28.1966 28.9294 28.1547 28.6973 28.0632C28.6271 28.1743 28.5471 28.2933 28.4752 28.4186C27.6649 29.8059 26.8556 31.1935 26.0471 32.5814C26.0223 32.6232 25.9992 32.6701 25.9734 32.7075C25.7513 33.0675 25.4404 33.1769 25.1508 33.0009C25.0833 32.9584 25.0256 32.902 24.9815 32.8355C24.9374 32.7691 24.9078 32.6941 24.8948 32.6155C24.8818 32.5368 24.8856 32.4562 24.906 32.3791C24.9264 32.302 24.9629 32.23 25.013 32.168C25.4075 31.4826 25.8126 30.8018 26.2097 30.1191C26.2764 30.0045 26.3377 29.8871 26.4283 29.7235C26.2888 29.712 26.1875 29.696 26.0871 29.696C24.0003 29.696 21.9116 29.6959 19.8265 29.6897C19.731 29.6794 19.6347 29.6997 19.5514 29.7476C19.468 29.7955 19.402 29.8686 19.3628 29.9564C19.0332 30.5528 18.6743 31.1324 18.3385 31.7261C18.131 32.0646 17.9937 32.4415 17.9351 32.8342C17.8764 33.2269 17.8975 33.6275 17.997 34.0119C18.0965 34.3963 18.2724 34.7568 18.5142 35.0716C18.7561 35.3865 19.0589 35.6493 19.4045 35.8444C19.7506 36.0429 20.1325 36.1709 20.5281 36.2209C20.9238 36.271 21.3255 36.242 21.71 36.1359C22.0945 36.0297 22.4541 35.8486 22.7682 35.6026C23.0824 35.3567 23.3447 35.051 23.5401 34.7031C23.8457 34.1991 24.1318 34.0613 24.4605 34.2587C24.7892 34.456 24.7865 34.7697 24.4791 35.2799C24.1789 35.8012 23.7676 36.25 23.2743 36.5942C22.7811 36.9383 22.2182 37.1693 21.6256 37.271C21.569 37.2877 21.5142 37.31 21.4621 37.3377H20.3569C19.9461 37.2278 19.5423 37.0931 19.1478 36.9342C18.3212 36.555 17.6475 35.9066 17.2367 35.0948C16.8259 34.2831 16.7023 33.3559 16.8859 32.4648C16.909 32.3466 16.933 32.2284 16.9668 32.056H1.41965C1.24787 32.0594 1.07604 32.0518 0.905258 32.033C0.671999 32.0105 0.454767 31.9042 0.293611 31.7339C0.132456 31.5637 0.0382518 31.341 0.0284018 31.1068C0.0195177 30.9859 0.0284018 30.864 0.0284018 30.7422C0.0284018 23.1849 0.0284018 15.6276 0.0284018 8.07031C0.0214889 7.94883 0.023861 7.82685 0.0355051 7.70573C0.050138 7.57186 0.113501 7.448 0.213495 7.35786C0.31349 7.26771 0.443123 7.21767 0.577718 7.21701C0.712314 7.21635 0.842452 7.26522 0.943324 7.35438C1.0442 7.44355 1.10876 7.5668 1.1247 7.70052C1.13828 7.83341 1.14123 7.96712 1.13357 8.10048C1.13357 15.5482 1.13357 22.9961 1.13357 30.4444V30.9627H1.55202C6.74386 30.9627 11.9357 30.9648 17.1276 30.969C17.2457 30.9815 17.3648 30.957 17.4683 30.8987C17.5718 30.8403 17.6545 30.7512 17.705 30.6437C18.9266 28.5246 20.1632 26.4143 21.3946 24.3014C21.455 24.1974 21.5092 24.0899 21.5723 23.977C21.2628 23.7602 21.04 23.4407 20.9434 23.0753C20.8468 22.7099 20.8826 22.322 21.0445 21.9805C21.1665 21.5405 21.4537 21.1647 21.8461 20.9316C22.2384 20.6986 22.7056 20.6263 23.1501 20.7298V1.11914H1.1247V2.54123C1.1247 3.37945 1.1247 4.21777 1.1247 5.05599C1.1247 5.48266 0.918579 5.73768 0.582761 5.74479C0.246943 5.7519 0.0212984 5.49058 0.0212984 5.0408C0.0212984 3.80169 0.0434936 2.56179 0.011511 1.32357C-0.0255324 1.05205 0.0273917 0.775889 0.162172 0.537326C0.296953 0.298763 0.506185 0.110868 0.757796 0.00260417L23.5179 0ZM29.1921 24.1289C29.7456 23.1716 30.2911 22.2543 30.809 21.3218C30.9983 20.9823 30.865 20.6578 30.483 20.4329C29.437 19.8279 28.3875 19.2285 27.3345 18.6348C27.2528 18.5734 27.1582 18.5314 27.0579 18.5122C26.9575 18.4929 26.8542 18.497 26.7556 18.5239C26.6571 18.5507 26.566 18.5997 26.4892 18.6671C26.4125 18.7345 26.3521 18.8187 26.3128 18.913C26.0001 19.433 25.698 19.9599 25.3924 20.4852C25.181 20.8479 24.9731 21.2125 24.7554 21.5885L29.1921 24.1289ZM27.7396 27.4826L22.5371 24.5111L20.1561 28.6C22.466 28.6 24.6808 28.6 26.8982 28.5929C26.9543 28.5873 27.0086 28.57 27.0576 28.5421C27.1065 28.5142 27.1491 28.4766 27.1825 28.4312C27.3753 28.1352 27.5414 27.8222 27.7396 27.4826ZM30.2182 26.1992C30.1001 26.0305 29.9597 25.8785 29.8007 25.7476C27.55 24.4481 25.2905 23.1585 23.0221 21.8791C22.8755 21.7965 22.5691 21.7608 22.4891 21.8461C22.2673 22.0632 22.1012 22.3308 22.0049 22.6259C21.9232 22.9085 22.2048 23.0551 22.4349 23.1858C24.6097 24.4267 26.7834 25.6697 28.9558 26.9147C29.185 27.0463 29.4453 27.2036 29.6665 26.9965C29.8769 26.7499 30.062 26.4828 30.2191 26.1992H30.2182Z" fill="#0E4C8F"/>
<path d="M12.1747 13.6748C14.4603 13.6748 16.7461 13.6748 19.0323 13.6748C19.8203 13.6748 20.1562 14.0089 20.1597 14.792C20.1597 15.2604 20.1659 15.7289 20.1597 16.1965C20.1735 16.3357 20.1563 16.4762 20.1093 16.6079C20.0622 16.7397 19.9866 16.8595 19.8878 16.9584C19.7889 17.0574 19.6694 17.1333 19.5377 17.1804C19.4061 17.2276 19.2657 17.2449 19.1265 17.2312C14.4813 17.2342 9.83614 17.2342 5.19096 17.2312C5.05791 17.2434 4.92378 17.2267 4.79772 17.1824C4.67167 17.1381 4.55664 17.0673 4.46045 16.9745C4.36426 16.8817 4.28919 16.7693 4.24033 16.6448C4.19146 16.5204 4.16994 16.3868 4.17726 16.2533C4.16127 15.736 4.16571 15.2188 4.17726 14.7015C4.16242 14.5595 4.18015 14.416 4.2291 14.282C4.27806 14.1479 4.35695 14.0268 4.45977 13.9278C4.56259 13.8289 4.68663 13.7547 4.82242 13.711C4.95821 13.6673 5.10218 13.6553 5.24336 13.6757C7.55381 13.6727 9.86426 13.6724 12.1747 13.6748ZM5.30911 14.7974V16.0986H11.5822V14.7974H5.30911ZM12.7424 14.7974V16.1006H19.0261V14.7974H12.7424Z" fill="#0E4C8F"/>
<path d="M10.3526 8.66498C9.81955 8.66498 9.3407 8.66498 8.86363 8.66498C8.74634 8.68086 8.62695 8.66956 8.5147 8.63199C8.40245 8.59442 8.30035 8.53149 8.21622 8.44818C8.1321 8.36487 8.0682 8.26322 8.0295 8.1513C7.9908 8.03939 7.97831 7.92008 7.99298 7.80256C7.98232 7.18686 7.98232 6.57099 7.99298 5.95469C7.97868 5.83709 7.99164 5.71773 8.03086 5.60595C8.07007 5.49417 8.1345 5.39302 8.21912 5.31016C8.30374 5.2273 8.40628 5.1649 8.51882 5.12808C8.63136 5.09127 8.75087 5.08087 8.86808 5.0977C9.34515 5.0977 9.82132 5.0977 10.3517 5.0977C10.3517 4.61415 10.3517 4.16273 10.3517 3.71207C10.3517 2.98673 10.6085 2.7342 11.329 2.7342C11.9189 2.7342 12.5088 2.72887 13.0987 2.7342C13.21 2.72315 13.3223 2.73671 13.4278 2.77392C13.5332 2.81112 13.6293 2.87104 13.709 2.94948C13.7888 3.02793 13.8503 3.12303 13.8893 3.22791C13.9283 3.33279 13.9438 3.44494 13.9347 3.55647C13.9471 4.0578 13.9347 4.55899 13.9347 5.09944C14.4526 5.09944 14.9288 5.09944 15.405 5.09944C15.525 5.08158 15.6475 5.09205 15.7628 5.12982C15.8781 5.16759 15.983 5.2317 16.0692 5.3171C16.1555 5.40251 16.2206 5.50681 16.2595 5.62179C16.2984 5.73677 16.31 5.8594 16.2934 5.97965C16.3005 6.5835 16.3005 7.18693 16.2934 7.79019C16.3093 7.91069 16.2969 8.03316 16.2572 8.14805C16.2176 8.26294 16.1518 8.36705 16.065 8.45209C15.9782 8.53712 15.8728 8.60083 15.7572 8.63807C15.6415 8.6753 15.5188 8.68514 15.3987 8.66671C14.9323 8.66671 14.4668 8.66671 13.9338 8.66671C13.9338 9.11116 13.9338 9.53154 13.9338 9.95643C13.9338 10.8089 13.7108 11.0337 12.8677 11.0337C12.3142 11.0337 11.7616 11.0337 11.2081 11.0337C11.0939 11.0479 10.9778 11.0362 10.8687 10.9994C10.7596 10.9626 10.6601 10.9018 10.5778 10.8212C10.4954 10.7407 10.4323 10.6426 10.393 10.5343C10.3537 10.426 10.3393 10.3102 10.3508 10.1956C10.3428 9.70135 10.3526 9.20898 10.3526 8.66498ZM12.8304 9.89957C12.8304 9.42579 12.8304 8.97334 12.8304 8.52001C12.8304 7.76268 13.0374 7.55651 13.7925 7.55473H15.1731V6.20447H14.171C12.9014 6.20447 12.8304 6.13428 12.8304 4.87917V3.85768H11.4578C11.4578 4.36702 11.4578 4.85684 11.4578 5.34662C11.4524 5.95551 11.2126 6.19827 10.6084 6.2036C10.1198 6.2036 9.63121 6.2036 9.11949 6.2036V7.50222C9.15769 7.52177 9.17901 7.54126 9.20033 7.54215C9.64217 7.54748 10.084 7.55149 10.5258 7.55386C11.2366 7.55386 11.4551 7.77506 11.4578 8.47639C11.4578 8.95106 11.4578 9.42492 11.4578 9.8987L12.8304 9.89957Z" fill="#0E4C8F"/>
<path d="M8.42302 20.3389C7.66077 20.3389 6.8994 20.3442 6.13715 20.3389C5.98168 20.3389 5.7667 20.3388 5.68674 20.241C5.53506 20.0811 5.44582 19.8721 5.4353 19.6518C5.46195 19.3478 5.72137 19.2304 6.03231 19.2313C7.63144 19.2366 9.23058 19.2313 10.8244 19.2313C10.8617 19.2313 10.8981 19.2313 10.9354 19.2313C11.0036 19.2289 11.0714 19.2403 11.135 19.2649C11.1986 19.2895 11.2566 19.3267 11.3054 19.3743C11.3542 19.4219 11.3929 19.4789 11.4191 19.5418C11.4453 19.6048 11.4584 19.6724 11.4578 19.7406C11.4662 19.8084 11.4611 19.8775 11.4426 19.9433C11.4242 20.0091 11.3929 20.0705 11.3505 20.1241C11.3081 20.1777 11.2554 20.2223 11.1956 20.2554C11.1358 20.2884 11.07 20.3094 11.002 20.3168C10.8932 20.3352 10.7828 20.3421 10.6725 20.3372C9.92207 20.3419 9.17224 20.3425 8.42302 20.3389Z" fill="#0E4C8F"/>
<path d="M8.42828 23.4878C7.64204 23.4878 6.85494 23.4878 6.0687 23.4878C5.66181 23.4878 5.41482 23.2861 5.4015 22.959C5.38728 22.6176 5.6458 22.3822 6.06246 22.3813C7.64797 22.3771 9.23348 22.3771 10.819 22.3813C11.2241 22.3813 11.4604 22.5973 11.4622 22.9342C11.464 23.2711 11.2312 23.4852 10.8252 23.487C10.0265 23.4905 9.22696 23.4878 8.42828 23.4878Z" fill="#0E4C8F"/>
<path d="M8.45937 26.6506C7.67313 26.6506 6.88689 26.6506 6.10065 26.6506C5.65645 26.6506 5.41037 26.4523 5.40059 26.1172C5.39082 25.7821 5.652 25.5476 6.10686 25.5458C7.6669 25.5411 9.22695 25.5411 10.787 25.5458C11.2312 25.5458 11.4622 25.7493 11.4604 26.104C11.4586 26.4586 11.2383 26.6462 10.8181 26.6506C10.0318 26.6559 9.2465 26.6506 8.45937 26.6506Z" fill="#0E4C8F"/>
<path d="M17.865 19.233C18.0364 19.233 18.2088 19.2214 18.3793 19.233C18.5105 19.2341 18.636 19.2867 18.7289 19.3793C18.8219 19.4718 18.875 19.597 18.8769 19.7282C18.8903 19.7893 18.8912 19.8526 18.8793 19.914C18.8674 19.9754 18.8431 20.0338 18.8078 20.0854C18.7725 20.1371 18.7269 20.1808 18.674 20.2141C18.6211 20.2475 18.562 20.2696 18.5002 20.2792C18.0525 20.3247 17.6013 20.3225 17.1542 20.2723C16.8833 20.2412 16.7713 19.9843 16.7989 19.7078C16.8027 19.583 16.8542 19.4644 16.9428 19.3764C17.0314 19.2885 17.1503 19.2379 17.2751 19.235C17.4696 19.2172 17.6668 19.235 17.8623 19.235L17.865 19.233Z" fill="#0E4C8F"/>
<path d="M17.8054 26.6372C17.6223 26.649 17.4387 26.649 17.2555 26.6372C17.1906 26.6334 17.1272 26.6166 17.0688 26.588C17.0104 26.5593 16.9584 26.5193 16.9156 26.4703C16.8728 26.4214 16.8403 26.3645 16.8198 26.3028C16.7993 26.2411 16.7913 26.1758 16.7962 26.111C16.7882 26.0464 16.7935 25.9809 16.8118 25.9185C16.8302 25.856 16.8611 25.7979 16.9027 25.7479C16.9444 25.6979 16.9958 25.657 17.0539 25.6277C17.112 25.5984 17.1755 25.5813 17.2404 25.5775C17.6301 25.5458 18.0217 25.5458 18.4113 25.5775C18.4799 25.5801 18.5471 25.5973 18.6085 25.6277C18.67 25.6581 18.7244 25.7011 18.7681 25.754C18.8118 25.8068 18.8438 25.8684 18.8621 25.9345C18.8804 26.0006 18.8845 26.0698 18.8742 26.1377C18.8773 26.2691 18.8282 26.3965 18.7376 26.4918C18.647 26.5871 18.5223 26.6426 18.3909 26.6461C18.1972 26.6657 18 26.6461 17.8045 26.6461L17.8054 26.6372Z" fill="#0E4C8F"/>
<path d="M17.809 23.4872C17.65 23.4872 17.49 23.4961 17.331 23.4872C17.261 23.4872 17.1917 23.4734 17.127 23.4466C17.0624 23.4198 17.0036 23.3805 16.9541 23.3309C16.9046 23.2814 16.8653 23.2227 16.8385 23.158C16.8118 23.0933 16.798 23.0238 16.798 22.9538C16.7912 22.8856 16.7983 22.8168 16.819 22.7515C16.8397 22.6862 16.8734 22.626 16.9183 22.5742C16.9631 22.5224 17.0181 22.4803 17.0797 22.4505C17.1414 22.4207 17.2084 22.404 17.2768 22.401C17.655 22.3644 18.0358 22.3644 18.414 22.401C18.4825 22.4049 18.5495 22.4229 18.6107 22.454C18.6719 22.485 18.7261 22.5284 18.7697 22.5814C18.8134 22.6344 18.8456 22.6959 18.8643 22.7619C18.8831 22.828 18.8879 22.8974 18.8786 22.9655C18.8796 23.0337 18.8669 23.1014 18.8414 23.1647C18.8159 23.228 18.7781 23.2855 18.7302 23.334C18.6822 23.3825 18.625 23.4209 18.5621 23.447C18.4991 23.4732 18.4315 23.4866 18.3634 23.4863C18.1777 23.4997 17.9929 23.4863 17.809 23.4872Z" fill="#0E4C8F"/>
</svg>
