<svg width="24" height="24" viewBox="0 0 24 24" fill="none" xmlns="http://www.w3.org/2000/svg">
<path d="M4.01015 2C4.48245 2.19787 4.93225 2.38631 5.38527 2.56847C6.33629 2.95165 7.31301 3.2563 8.35077 3.28771C9.74838 3.33168 11.0046 2.86685 12.1805 2.17588C12.4311 2.02827 12.5918 2.03769 12.8392 2.17274C14.0312 2.82602 15.2938 3.28456 16.6882 3.25002C17.7131 3.22489 18.677 2.92966 19.6184 2.55905C20.065 2.38317 20.5084 2.20101 20.9935 2.00628C20.9935 2.11621 20.9935 2.19473 20.9935 2.27639C20.9935 5.97932 20.9807 9.68226 20.9999 13.3852C21.0064 14.6855 20.563 15.791 19.7469 16.8023C17.8513 19.1548 15.4641 20.8476 12.64 21.9783C12.5597 22.0097 12.444 22.0065 12.3637 21.972C9.43994 20.7094 6.9885 18.8375 5.01258 16.3815C4.35715 15.568 4.00694 14.6352 4.00694 13.5988C3.9973 9.77963 4.00051 5.95734 4.00051 2.13505C4.00051 2.1005 4.00373 2.06596 4.01015 2ZM5.60375 4.343C5.60054 4.39011 5.59411 4.41837 5.59411 4.44664C5.59411 7.47432 5.5909 10.502 5.59732 13.5297C5.59732 14.2332 5.82865 14.8708 6.27524 15.4235C7.94273 17.487 9.97328 19.1139 12.3958 20.2634C12.4697 20.298 12.5918 20.298 12.6657 20.2666C15.085 19.1956 17.1155 17.6472 18.7027 15.5523C19.1589 14.9493 19.3903 14.2835 19.3903 13.5328C19.3871 10.5334 19.3903 7.53399 19.3871 4.53458C19.3871 4.46863 19.3806 4.40267 19.3774 4.32415C19.2746 4.35242 19.1911 4.3744 19.1108 4.39953C18.4296 4.60996 17.7356 4.75129 17.0224 4.80154C15.6633 4.89891 14.3717 4.60682 13.1476 4.06033C12.701 3.85932 12.3605 3.86246 11.9139 4.06975C10.3138 4.81725 8.63029 5.07165 6.87284 4.66963C6.45195 4.57541 6.03749 4.45606 5.60375 4.343Z" fill="#058638"/>
<path d="M11.6151 14.8614C10.391 13.6647 9.154 12.4555 7.93311 11.2589C8.29616 10.9072 8.66886 10.5428 9.05119 10.1691C9.8994 10.9982 10.7605 11.8368 11.6215 12.6785C13.183 11.1521 14.7412 9.62887 16.2834 8.11817C16.669 8.4982 17.0384 8.85939 17.3919 9.20487C15.4834 11.0768 13.5492 12.9706 11.6151 14.8614Z" fill="#058638"/>
</svg>
