<svg width="35" height="31" viewBox="0 0 35 31" fill="none" xmlns="http://www.w3.org/2000/svg">
<path d="M34.993 14.8685C34.7794 14.9837 34.549 15.0639 34.3106 15.1059C31.0367 15.1219 27.7619 15.1174 24.4871 15.1157C24.356 15.139 24.2216 15.1346 24.0923 15.1027C23.963 15.0708 23.8416 15.012 23.7359 14.9301C23.6301 14.8483 23.5423 14.7451 23.4779 14.6272C23.4136 14.5093 23.3741 14.379 23.362 14.2449C23.1695 13.5496 22.977 12.8544 22.7224 12.1564C22.569 12.7469 22.4153 13.3355 22.2613 13.9225C22.0374 14.7834 21.8169 15.6461 21.5894 16.5061C21.5607 16.7326 21.4476 16.9394 21.2733 17.0843C21.0989 17.2292 20.8765 17.3013 20.6515 17.2856C20.4144 17.2668 20.1939 17.1554 20.0364 16.9751C19.8789 16.7948 19.7967 16.5597 19.8072 16.3193C19.7048 14.8401 19.6103 13.3601 19.5106 11.881C19.5014 11.6702 19.4644 11.4617 19.4004 11.261C19.1466 12.2185 18.8903 13.1741 18.6392 14.1324C17.9696 16.6809 17.3014 19.2298 16.6348 21.7788C16.5271 22.1925 16.3609 22.5495 15.9077 22.6531C15.7846 22.6827 15.6568 22.6857 15.5325 22.662C15.4081 22.6382 15.2902 22.5883 15.1862 22.5154C15.0822 22.4424 14.9945 22.3481 14.9289 22.2386C14.8633 22.1291 14.8212 22.0069 14.8053 21.8798C14.4554 20.5613 14.1086 19.2424 13.7651 17.9233C13.1713 15.6659 12.5767 13.4085 11.9811 11.1512C11.9636 11.0856 11.9374 11.0218 11.884 10.8677C11.7221 11.4708 11.5813 11.9926 11.4465 12.5152C11.2007 13.4425 10.9592 14.3707 10.709 15.2962C10.678 15.5421 10.5519 15.7654 10.3582 15.917C10.1646 16.0687 9.91942 16.1363 9.67659 16.105C6.68732 16.105 3.69804 16.105 0.708766 16.105C0.441919 16.105 0.18383 16.0615 0.0840899 15.7851C0.051315 15.7033 0.0364372 15.6152 0.0405153 15.527C0.0445933 15.4387 0.0675107 15.3526 0.107693 15.2742C0.260805 15.1162 0.465401 15.02 0.683401 15.0032C1.80066 14.9784 2.91966 14.9907 4.03779 14.9907C5.80599 14.9907 7.57508 14.9854 9.34327 14.997C9.38931 15.0051 9.43653 15.0034 9.4819 14.992C9.52726 14.9806 9.56978 14.9598 9.60669 14.9308C9.64361 14.9018 9.67411 14.8652 9.69625 14.8235C9.71838 14.7819 9.73166 14.7358 9.73523 14.6886C10.1429 13.0987 10.5629 11.5125 10.9829 9.92616C10.999 9.78441 11.0473 9.64847 11.1239 9.52871C11.2005 9.40895 11.3034 9.30858 11.4246 9.23571C11.5458 9.16284 11.682 9.11939 11.8225 9.10856C11.9631 9.09773 12.1042 9.11997 12.2348 9.17343C12.3856 9.24436 12.5166 9.3522 12.6159 9.48719C12.7151 9.62219 12.7797 9.77993 12.8036 9.94648C13.3069 11.8691 13.8123 13.7916 14.3197 15.7136C14.7496 17.3451 15.1807 18.9762 15.6129 20.607C15.633 20.6823 15.6601 20.7559 15.7135 20.9189C15.9707 19.9499 16.2061 19.0667 16.4397 18.1837C17.1927 15.3346 17.9457 12.4857 18.6987 9.63661C18.7224 9.49636 18.7785 9.3638 18.8626 9.24976C18.9467 9.13573 19.0562 9.04346 19.1823 8.98055C19.3084 8.91764 19.4474 8.88582 19.588 8.88778C19.7285 8.88974 19.8666 8.92539 19.9909 8.99179C20.1505 9.08406 20.2813 9.22003 20.3681 9.38405C20.4549 9.54806 20.4943 9.73338 20.4818 9.91902C20.5868 11.5133 20.7005 13.1077 20.8125 14.702C20.8142 14.7715 20.8374 14.8388 20.879 14.8942L21.8492 11.144C21.9918 10.5922 22.2657 10.3389 22.7241 10.3336C22.9438 10.3282 23.1576 10.4051 23.325 10.5491C23.4923 10.6932 23.6014 10.8945 23.6314 11.1148C23.8676 11.9607 24.1117 12.8049 24.3313 13.6561C24.4022 13.9342 24.5265 14.0103 24.8021 14.0103C27.9622 13.9996 31.1224 13.9996 34.2826 14.0103C34.5316 14.0502 34.7733 14.1273 35 14.2388L34.993 14.8685Z" fill="#0E4C8F"/>
<path d="M34.993 11.9481C34.9288 12.2274 34.865 12.5067 34.8014 12.786C34.6876 13.2838 34.468 13.4831 34.1093 13.4122C33.7506 13.3414 33.6281 13.0438 33.734 12.5531C34.2405 10.3761 33.9488 8.08703 32.9133 6.11137C32.3507 4.98224 31.5613 3.98453 30.5957 3.1822C29.6301 2.37986 28.5096 1.79053 27.306 1.45207C26.1023 1.11361 24.8421 1.03335 23.6061 1.21659C22.37 1.39983 21.1855 1.84255 20.1283 2.51618C19.6993 2.78097 19.2867 3.07193 18.8928 3.38762C18.7186 3.57412 18.5086 3.72263 18.2755 3.82378C18.0425 3.92492 17.7915 3.97662 17.5379 3.97579C17.2844 3.97496 17.0337 3.92169 16.8013 3.81902C16.5689 3.71635 16.3598 3.56639 16.1868 3.37876C14.8347 2.24518 13.2049 1.50294 11.4701 1.23021C10.1747 1.01477 8.84771 1.10298 7.59132 1.4884C6.33493 1.87382 5.18266 2.54598 4.22326 3.45314C2.8198 4.66408 1.82329 6.28727 1.37195 8.0973C0.92061 9.90733 1.03679 11.8145 1.70437 13.5547C1.7728 13.6769 1.79622 13.8198 1.77042 13.9578C1.74463 14.0958 1.67129 14.2201 1.5635 14.3085C1.49392 14.3653 1.41148 14.4035 1.32362 14.4199C1.23577 14.4363 1.1453 14.4305 1.06031 14.4026C0.975314 14.3747 0.898507 14.3257 0.836825 14.2603C0.775143 14.1949 0.730542 14.1151 0.707009 14.0279C0.149644 12.612 -0.0831062 11.0865 0.0263161 9.56643C0.160014 7.71029 0.787197 5.92537 1.84139 4.4007C2.89559 2.87603 4.33751 1.66844 6.01446 0.905853C7.69141 0.14327 9.54092 -0.145878 11.367 0.0690096C13.1931 0.283897 14.9277 0.994855 16.3871 2.12652C16.5936 2.27178 16.7905 2.43032 16.9873 2.58797C17.0559 2.67174 17.1418 2.73912 17.239 2.7854C17.3363 2.83168 17.4424 2.85568 17.5499 2.85568C17.6573 2.85568 17.7634 2.83168 17.8607 2.7854C17.9579 2.73912 18.0439 2.67174 18.1125 2.58797C19.385 1.52666 20.8697 0.757177 22.4643 0.332821C23.7718 0.000764701 25.1318 -0.0632055 26.4642 0.144477C27.7966 0.352159 29.0745 0.827377 30.2229 1.54224C31.3712 2.25711 32.3668 3.19707 33.1511 4.30707C33.9355 5.41707 34.4927 6.6747 34.79 8.00583C34.8609 8.32026 34.9264 8.63548 34.9947 8.95079L34.993 11.9481Z" fill="#0E4C8F"/>
<path d="M17.465 30.9997C16.9765 30.9732 16.5181 30.7525 16.1894 30.3858C14.4209 28.579 12.6486 26.7757 10.8725 24.9759L3.83744 17.823C3.76079 17.7538 3.68997 17.6781 3.6257 17.597C3.53747 17.495 3.49157 17.3623 3.4976 17.2268C3.50363 17.0913 3.56112 16.9634 3.65807 16.8698C3.70092 16.8187 3.75328 16.7769 3.81218 16.7463C3.87107 16.7158 3.93535 16.6971 4.00132 16.6916C4.06729 16.6862 4.13366 16.694 4.19666 16.7146C4.25966 16.7351 4.31807 16.768 4.3685 16.8114C4.47642 16.897 4.57679 16.9919 4.66856 17.0949L16.8789 29.5072C17.3933 30.0307 17.7073 30.0289 18.2297 29.4984C22.5412 25.1153 26.8522 20.7317 31.1626 16.3474C31.3079 16.2004 31.4408 16.0409 31.5887 15.8957C31.6382 15.8399 31.6982 15.7946 31.7651 15.7625C31.8321 15.7304 31.9046 15.7121 31.9786 15.7086C32.0526 15.7051 32.1266 15.7166 32.1962 15.7423C32.2658 15.7681 32.3296 15.8076 32.384 15.8585C32.4371 15.9115 32.479 15.9748 32.5073 16.0446C32.5355 16.1145 32.5495 16.1895 32.5484 16.265C32.5472 16.3405 32.531 16.4149 32.5006 16.4838C32.4703 16.5528 32.4264 16.6148 32.3717 16.6661C32.2352 16.822 32.0883 16.9682 31.943 17.1152C27.6075 21.5237 23.273 25.9329 18.9392 30.3426C18.7523 30.5501 18.5246 30.7157 18.2707 30.8289C18.0169 30.9421 17.7424 31.0002 17.465 30.9997Z" fill="#0E4C8F"/>
<path d="M32.2807 10.3487C32.1276 11.1281 31.9946 11.9119 31.8135 12.6843C31.6998 13.1687 31.4076 13.344 31.0567 13.2253C30.7304 13.1146 30.6332 12.8091 30.7723 12.3521C31.0847 11.3974 31.1762 10.3826 31.0396 9.3864C30.9031 8.39017 30.5423 7.43903 29.985 6.60643C29.8167 6.35797 29.6347 6.11943 29.4399 5.89176C29.1529 5.53748 29.1337 5.20075 29.3988 4.97578C29.6639 4.75081 29.9701 4.81209 30.2632 5.15309C31.5166 6.57822 32.2054 8.42195 32.1976 10.3301L32.2807 10.3487Z" fill="#0E4C8F"/>
<path d="M28.6883 4.19881C28.683 4.64167 28.3243 4.93126 27.9962 4.80903C27.59 4.6555 27.193 4.47797 26.8072 4.27752C26.6899 4.22308 26.5986 4.12408 26.5532 4.00182C26.5078 3.87955 26.512 3.74408 26.5649 3.62491C26.5798 3.55882 26.6081 3.49654 26.6482 3.44219C26.6882 3.38784 26.739 3.34255 26.7973 3.3092C26.8556 3.27586 26.9201 3.25509 26.9867 3.24844C27.0534 3.24179 27.1207 3.24932 27.1843 3.2705C27.6243 3.42858 28.0506 3.6232 28.459 3.85239C28.5858 3.92237 28.641 4.12441 28.6883 4.19881Z" fill="#0E4C8F"/>
</svg>
