<svg xmlns="http://www.w3.org/2000/svg" version="1.1" xmlns:xlink="http://www.w3.org/1999/xlink" xmlns:svgjs="http://svgjs.com/svgjs" width="35" height="35" x="0" y="0" viewBox="0 0 24 24" style="enable-background:new 0 0 512 512" xml:space="preserve" class=""><g><path d="M22 13a1 1 0 0 0-1 1v4.213A2.79 2.79 0 0 1 18.213 21H5.787A2.79 2.79 0 0 1 3 18.213V14a1 1 0 0 0-2 0v4.213A4.792 4.792 0 0 0 5.787 23h12.426A4.792 4.792 0 0 0 23 18.213V14a1 1 0 0 0-1-1Z" fill="#0E4C8F" data-original="#000000" opacity="1"></path><path d="M6.707 8.707 11 4.414V17a1 1 0 0 0 2 0V4.414l4.293 4.293a1 1 0 0 0 1.414-1.414l-6-6a1 1 0 0 0-1.414 0l-6 6a1 1 0 0 0 1.414 1.414Z" fill="#0E4C8F" data-original="#000000" opacity="1"></path></g></svg>