<svg width="35" height="35" viewBox="0 0 35 35" fill="none" xmlns="http://www.w3.org/2000/svg">
<path d="M29 0H6C2.68629 0 0 2.68629 0 6V29C0 32.3137 2.68629 35 6 35H29C32.3137 35 35 32.3137 35 29V6C35 2.68629 32.3137 0 29 0Z" fill="white"/>
<path d="M29 0.125H6C2.75533 0.125 0.125 2.75533 0.125 6V29C0.125 32.2447 2.75533 34.875 6 34.875H29C32.2447 34.875 34.875 32.2447 34.875 29V6C34.875 2.75533 32.2447 0.125 29 0.125Z" fill="white" stroke="#0E4C8F" stroke-width="0.25"/>
<path fill-rule="evenodd" clip-rule="evenodd" d="M21.1614 18.0531C21.1614 19.7991 19.7454 21.2141 17.9994 21.2141C16.2534 21.2141 14.8384 19.7991 14.8384 18.0531C14.8384 16.3061 16.2534 14.8911 17.9994 14.8911C19.7454 14.8911 21.1614 16.3061 21.1614 18.0531Z" stroke="#0E4C8F" stroke-width="1.5" stroke-linecap="round" stroke-linejoin="round"/>
<path fill-rule="evenodd" clip-rule="evenodd" d="M17.998 25.3549C21.806 25.3549 25.289 22.6169 27.25 18.0529C25.289 13.4889 21.806 10.7509 17.998 10.7509H18.002C14.194 10.7509 10.711 13.4889 8.75 18.0529C10.711 22.6169 14.194 25.3549 18.002 25.3549H17.998Z" stroke="#0E4C8F" stroke-width="1.5" stroke-linecap="round" stroke-linejoin="round"/>
</svg>
