<svg width="48" height="48" viewBox="0 0 48 48" fill="none" xmlns="http://www.w3.org/2000/svg">
<rect width="48" height="48" rx="5" fill="#006F2C"/>
<path d="M14 23.4088C14 23.8004 14 24.1919 14 24.5835C14.0098 24.652 14.0245 24.7205 14.0342 24.789C14.0831 25.1512 14.1076 25.5134 14.1761 25.8706C14.5527 27.8626 15.4625 29.5854 16.8858 31.0243C18.3825 32.5317 20.1775 33.4861 22.2758 33.8483C22.6525 33.9119 23.034 33.9511 23.4155 34C23.8068 34 24.1981 34 24.5894 34C24.648 33.9902 24.7018 33.9755 24.7605 33.9657C25.3915 33.8581 26.042 33.7993 26.6583 33.6329C31.6571 32.287 34.807 27.2166 33.819 22.1265C33.4032 19.9682 32.3956 18.1279 30.7718 16.6499C28.4583 14.5404 25.7192 13.6986 22.6182 14.0951C20.6422 14.3447 18.9058 15.1571 17.414 16.4737C15.6581 18.0252 14.5576 19.9584 14.1516 22.2734C14.088 22.6502 14.0489 23.032 14 23.4088ZM20.0308 27.7647C19.7813 26.7222 19.6493 25.67 19.6199 24.5932C20.8916 24.5932 22.1438 24.5932 23.4008 24.5932C23.4008 25.5819 23.4008 26.5607 23.4008 27.5298C22.2758 27.6081 21.1607 27.6864 20.0308 27.7647ZM28.38 24.5932C28.3507 25.67 28.2186 26.7174 27.974 27.7403C26.8344 27.6668 25.7143 27.5983 24.5991 27.5249C24.5991 26.5461 24.5991 25.5721 24.5991 24.5932C25.8562 24.5932 27.1083 24.5932 28.38 24.5932ZM15.1641 24.5932C16.2842 24.5932 17.3553 24.5932 18.3874 24.5932C18.5292 25.7287 18.6711 26.8446 18.8129 27.9409C18.089 28.122 17.3456 28.2982 16.6021 28.494C16.47 28.5282 16.4113 28.5086 16.3429 28.3912C15.932 27.6668 15.6141 26.9082 15.4331 26.0958C15.3206 25.6112 15.2521 25.1071 15.1641 24.5932ZM29.6077 23.399C29.4658 22.2881 29.324 21.1966 29.1821 20.1003C29.9647 19.9143 30.7864 19.7235 31.6131 19.5277C32.3076 20.7121 32.7087 21.9993 32.7967 23.399C31.7109 23.399 30.6446 23.399 29.6077 23.399ZM31.6131 28.4597C30.7864 28.2737 29.9696 28.0926 29.1919 27.9164C29.3289 26.8103 29.4707 25.7042 29.6077 24.5981C30.6495 24.5981 31.7158 24.5981 32.7967 24.5981C32.6989 25.993 32.3076 27.2753 31.6131 28.4597ZM24.5942 20.5212C25.7241 20.4429 26.8393 20.3646 27.9643 20.2912C28.2088 21.3092 28.3409 22.3419 28.3751 23.3942C27.1034 23.3942 25.8464 23.3942 24.5942 23.3942C24.5942 22.4202 24.5942 21.4658 24.5942 20.5212ZM20.0259 20.3108C21.1655 20.3842 22.2758 20.4527 23.3959 20.5212C23.3959 21.4756 23.3959 22.4349 23.3959 23.3942C22.134 23.3942 20.8819 23.3942 19.615 23.3942C19.6591 22.3419 19.7813 21.3141 20.0259 20.3108ZM15.2179 23.399C15.213 23.3746 15.2032 23.355 15.2081 23.3354C15.2962 22.0238 15.6728 20.8002 16.3184 19.6549C16.3429 19.6109 16.4603 19.5864 16.5238 19.6011C17.145 19.7381 17.7613 19.8899 18.3825 20.0318C18.539 20.0661 18.6955 20.0905 18.8129 20.1101C18.6711 21.2211 18.5341 22.3027 18.3923 23.3942C17.3553 23.399 16.2891 23.399 15.2179 23.399ZM24.5991 32.7324C24.5991 31.3865 24.5991 30.0601 24.5991 28.7093C25.6165 28.7729 26.6192 28.8317 27.6414 28.8904C27.5436 29.1449 27.4751 29.3554 27.3871 29.556C27.0252 30.4125 26.5898 31.2201 25.9295 31.8906C25.5529 32.2723 25.1323 32.5807 24.5991 32.7324ZM23.4008 15.3235C23.4008 16.6597 23.4008 17.9811 23.4008 19.3368C22.3883 19.2781 21.3856 19.2145 20.3781 19.1557C20.5786 18.3041 21.327 16.9533 21.9432 16.2926C22.3492 15.8619 22.8041 15.5046 23.4008 15.3235ZM23.4008 32.7324C23.0046 32.6247 22.672 32.4241 22.3737 32.1744C21.5324 31.4648 21.0237 30.5349 20.6031 29.5462C20.5199 29.3505 20.4514 29.1498 20.3634 28.9198C21.3954 28.8512 22.3932 28.7827 23.4008 28.7191C23.4008 30.0699 23.4008 31.3865 23.4008 32.7324ZM24.5991 19.3368C24.5991 17.9664 24.5991 16.6548 24.5991 15.2991C26.3306 16.0185 26.9958 17.5357 27.6463 19.1362C26.6045 19.2047 25.6067 19.2732 24.5991 19.3368ZM17.0765 18.5586C17.6635 17.5749 20.0895 15.7983 20.8085 15.813C20.0553 16.7624 19.5612 17.8392 19.17 18.9942C18.4754 18.8474 17.7858 18.7055 17.0765 18.5586ZM27.2012 15.7934C28.6735 16.3464 29.8865 17.2519 30.9038 18.5048C30.1799 18.6663 29.5001 18.8131 28.8104 18.9649C28.4289 17.8098 27.9251 16.7478 27.2012 15.7934ZM30.9087 29.4875C29.9011 30.7306 28.7028 31.6263 27.2746 32.194C27.573 31.6948 27.8909 31.2103 28.1501 30.6964C28.4142 30.1776 28.6148 29.6294 28.8593 29.0617C29.5147 29.1987 30.1897 29.3407 30.9087 29.4875ZM20.7449 32.1891C19.3118 31.6312 18.1281 30.7502 17.1303 29.5413C17.8396 29.3847 18.5048 29.2379 19.1846 29.0911C19.5515 30.2216 20.0504 31.2543 20.7449 32.1891Z" fill="white"/>
</svg>
