<svg width="24" height="24" viewBox="0 0 24 24" fill="none" xmlns="http://www.w3.org/2000/svg">
<path d="M17.1167 21.9922C16.6158 21.8122 16.0954 21.6792 15.6258 21.4406C15.168 21.2059 14.7611 20.8695 14.3463 20.5605C14.2367 20.4784 14.1389 20.4275 14.002 20.4275C10.4412 20.4314 6.88041 20.4314 3.31964 20.4314C2.47053 20.4314 2.00098 19.9621 2.00098 19.1132C2.00098 17.1222 2.00098 15.1312 2.00098 13.1402C2.00098 13.0698 1.99707 12.9955 2.00489 12.9251C2.02837 12.7256 2.19663 12.5809 2.39227 12.5809C2.58792 12.5809 2.75226 12.7295 2.77574 12.929C2.78357 12.9994 2.77965 13.0737 2.77965 13.1441C2.77965 15.1469 2.77965 17.1535 2.77965 19.1563C2.77965 19.5044 2.91661 19.6491 3.25703 19.6491C6.62216 19.6491 9.98728 19.6491 13.3524 19.6491C13.3955 19.6491 13.4424 19.6491 13.5285 19.6491C12.6872 18.4444 12.382 17.1183 12.4759 15.6671C12.382 15.6671 12.3077 15.6671 12.2333 15.6671C9.79946 15.6671 7.36562 15.6671 4.93177 15.6671C4.86134 15.6671 4.78699 15.671 4.71656 15.6593C4.517 15.628 4.37613 15.4559 4.38396 15.2642C4.39178 15.0765 4.53265 14.92 4.72047 14.8926C4.7909 14.8848 4.86525 14.8887 4.93568 14.8887C7.35779 14.8887 9.7799 14.8887 12.1981 14.8887C12.2764 14.8887 12.3546 14.8887 12.4485 14.8887C12.4485 14.4271 12.4485 13.9695 12.4485 13.4845C12.3781 13.4845 12.3037 13.4845 12.2294 13.4845C9.79555 13.4845 7.3617 13.4845 4.92786 13.4845C4.57178 13.4845 4.38787 13.3515 4.38396 13.0972C4.38004 12.839 4.56787 12.706 4.92003 12.706C7.34605 12.706 9.77598 12.706 12.202 12.706C12.2803 12.706 12.3585 12.706 12.4563 12.706C12.4642 12.4205 12.652 12.3149 12.8946 12.2406C13.7907 11.9707 14.6828 11.689 15.575 11.4113C15.6689 11.3839 15.751 11.3683 15.7471 11.2275C15.7393 9.5885 15.7432 7.94954 15.7432 6.30667C15.7432 6.28711 15.7354 6.27146 15.7276 6.22453C15.661 6.22453 15.5906 6.22453 15.5241 6.22453C14.8472 6.22453 14.1702 6.22453 13.4933 6.22453C12.7772 6.22453 12.3116 5.75513 12.3077 5.03931C12.3077 4.30002 12.3077 3.55682 12.3077 2.79014C12.2255 2.79014 12.159 2.79014 12.0885 2.79014C9.15774 2.79014 6.23086 2.79014 3.30007 2.79014C2.90487 2.78232 2.78357 2.90749 2.78357 3.31039C2.78357 5.30921 2.78357 7.30413 2.78357 9.30295C2.78357 9.36945 2.78748 9.43204 2.77965 9.49853C2.75618 9.69802 2.59183 9.84667 2.39618 9.84667C2.19271 9.85058 2.02446 9.69802 2.00489 9.4868C1.99707 9.42812 2.00098 9.36945 2.00098 9.31078C2.00098 7.30413 2.00098 5.29357 2.00098 3.283C2.00098 2.48504 2.48227 2.00391 3.2766 2.00391C6.37564 2.00391 9.47469 2.00391 12.5698 2C12.7733 2 12.9259 2.06259 13.0707 2.20731C14.1546 3.29474 15.2384 4.38216 16.3302 5.46568C16.4671 5.60258 16.5336 5.75122 16.5336 5.95071C16.5297 7.58576 16.5297 9.2169 16.5297 10.8519C16.5297 10.9302 16.5297 11.0084 16.5297 11.1101C16.7019 11.0553 16.8506 10.9889 17.0071 10.9654C17.1558 10.9419 17.3201 10.9224 17.461 10.9654C18.8462 11.3878 20.2274 11.8259 21.6126 12.2523C21.7848 12.3071 21.9139 12.3931 22 12.5496C22 13.9538 22 15.362 22 16.7663C21.9883 16.821 21.9726 16.8758 21.9648 16.9345C21.6283 19.3206 20.3292 20.936 18.0792 21.7849C17.8445 21.8748 17.594 21.9296 17.3553 22C17.2732 21.9922 17.1949 21.9922 17.1167 21.9922ZM13.2507 12.9486C13.2507 14.079 13.2468 15.1899 13.2507 16.3008C13.2585 18.6047 14.7806 20.5684 17.011 21.1473C17.148 21.1825 17.3084 21.1864 17.4453 21.1512C19.6757 20.5801 21.2057 18.6126 21.2174 16.3125C21.2213 15.2447 21.2174 14.1807 21.2174 13.1129C21.2174 13.062 21.2174 13.0111 21.2174 12.9681C21.1939 12.9525 21.1861 12.9407 21.1744 12.9407C19.8909 12.5378 18.6075 12.135 17.324 11.736C17.2653 11.7164 17.191 11.7203 17.1323 11.7399C15.845 12.135 14.5537 12.5418 13.2507 12.9486ZM15.0898 5.43438C14.4285 4.77332 13.7515 4.09662 13.0902 3.43947C13.0902 3.96753 13.0863 4.53863 13.0942 5.10972C13.0942 5.28965 13.2194 5.43047 13.3955 5.43438C13.9785 5.44221 14.5576 5.43438 15.0898 5.43438Z" fill="#058638"/>
<path d="M7.12676 17.0715C7.88587 17.0715 8.6489 17.0715 9.40801 17.0715C9.57626 17.0715 9.73669 17.1185 9.79147 17.2789C9.8306 17.3923 9.83452 17.5605 9.77582 17.6583C9.71713 17.7561 9.56061 17.8421 9.44322 17.846C7.88979 17.8578 6.33635 17.8539 4.78292 17.8539C4.54814 17.8539 4.37988 17.6818 4.37988 17.4666C4.37988 17.2437 4.55205 17.0794 4.80248 17.0755C5.58115 17.0715 6.35592 17.0715 7.12676 17.0715Z" fill="#058638"/>
<path d="M2.77992 11.2312C2.77209 11.4463 2.58036 11.6184 2.36515 11.6028C2.15776 11.5871 1.99342 11.4072 2.00124 11.1999C2.00907 10.9847 2.2008 10.8126 2.41602 10.8283C2.6234 10.8439 2.79166 11.0238 2.77992 11.2312Z" fill="#058638"/>
<path d="M14.0293 15.2018C14.0293 14.7598 14.0293 14.3178 14.0293 13.8758C14.0293 13.6137 14.1154 13.4924 14.3619 13.4142C15.2658 13.1326 16.1736 12.847 17.0814 12.5732C17.1753 12.5458 17.2927 12.5458 17.3827 12.5732C18.2905 12.847 19.1944 13.1326 20.1022 13.4142C20.3526 13.4924 20.4348 13.6137 20.4348 13.8758C20.4348 14.7089 20.4426 15.5421 20.4348 16.3753C20.4152 18.1824 19.1983 19.8097 17.4688 20.3299C17.324 20.3729 17.144 20.3729 16.9992 20.3299C15.2345 19.7823 14.041 18.1629 14.0332 16.3166C14.0293 15.945 14.0293 15.5734 14.0293 15.2018ZM19.6874 15.3896C19.6757 15.3896 19.6639 15.3896 19.6522 15.3856C19.6522 15.014 19.6444 14.6424 19.6561 14.2747C19.66 14.13 19.6091 14.0713 19.4761 14.0322C18.7757 13.821 18.0753 13.598 17.3709 13.3829C17.2888 13.3594 17.187 13.3555 17.1088 13.379C16.3888 13.598 15.6727 13.8288 14.9528 14.0479C14.8471 14.0792 14.808 14.1222 14.808 14.2356C14.8158 14.9788 14.8001 15.7181 14.8158 16.4613C14.8471 17.8265 15.8097 19.1134 17.101 19.5398C17.1792 19.5671 17.2849 19.5711 17.3592 19.5437C18.5448 19.0977 19.3039 18.2568 19.5622 17.0207C19.6757 16.4887 19.6522 15.9333 19.6874 15.3896Z" fill="#058638"/>
<path d="M16.8816 16.6293C17.3316 16.1755 17.7581 15.7452 18.1846 15.3189C18.3685 15.1389 18.615 15.1389 18.7716 15.3071C18.9085 15.4597 18.9163 15.6787 18.7598 15.8352C18.2277 16.3789 17.6916 16.9148 17.1477 17.4468C16.9912 17.5993 16.7642 17.5915 16.6038 17.4351C16.3025 17.1417 16.0012 16.8444 15.7077 16.5393C15.5473 16.375 15.5551 16.1521 15.7038 15.9956C15.8564 15.8391 16.0912 15.8313 16.2634 15.9956C16.4668 16.199 16.6625 16.4063 16.8816 16.6293Z" fill="#058638"/>
<path d="M11.0065 9.63232C10.9061 9.72289 10.8123 9.82144 10.704 9.90135C9.96152 10.4554 9.14508 10.5966 8.27448 10.2903C6.91639 9.81345 6.26773 8.30981 6.72219 7.02592C7.07096 6.0417 7.78567 5.47833 8.80556 5.31318C9.18472 5.25192 9.55991 5.29587 9.92717 5.4144C9.93774 5.4184 9.94963 5.4184 9.9602 5.42106C9.97737 5.43172 9.99455 5.44104 10.0117 5.4517C10.0408 5.49698 10.0514 5.54359 10.0183 5.59154C9.9853 5.63948 9.93642 5.63815 9.8849 5.63149C9.07771 5.53294 8.40791 5.79531 7.89929 6.43326C7.2361 7.26299 7.3114 8.49361 8.05386 9.25675C8.79499 10.0186 9.97473 10.1184 10.8308 9.49115C10.8361 9.48715 10.8414 9.48316 10.8467 9.47916C10.8863 9.4472 10.9299 9.42855 10.9788 9.45386C11.029 9.48049 11.0422 9.52711 11.0382 9.58038C11.0263 9.59903 11.0171 9.61501 11.0065 9.63232ZM9.89415 5.52095C8.87294 5.16935 7.55844 5.56623 6.95867 6.73159C6.3721 7.87297 6.76711 9.26341 7.79624 9.93598C8.89143 10.6512 10.2086 10.3329 10.9008 9.57506C10.4662 9.88404 9.99587 10.0305 9.478 10.0079C8.96013 9.98526 8.50303 9.80014 8.10934 9.46052C7.42501 8.87052 7.16079 7.85566 7.46861 6.99662C7.62714 6.55712 7.894 6.19619 8.27184 5.9245C8.75404 5.57822 9.29305 5.44903 9.89415 5.52095Z" fill="#058638"/>
<path fill-rule="evenodd" clip-rule="evenodd" d="M11.1132 9.72062L11.0984 9.73395C11.0727 9.75711 11.0456 9.78279 11.0171 9.80963C10.9464 9.87649 10.8679 9.95062 10.7858 10.0113C10.0086 10.5911 9.14473 10.7415 8.22916 10.4194C6.79623 9.91625 6.11474 8.33203 6.59324 6.98024L6.59325 6.98019C6.9596 5.94637 7.71717 5.35074 8.78382 5.17803L8.78386 5.17802C9.18705 5.11287 9.58335 5.15992 9.96647 5.28316L9.96747 5.2833C9.969 5.28352 9.9712 5.28384 9.9736 5.28422C9.9783 5.28496 9.98554 5.28621 9.99383 5.2883L10.0145 5.2935L10.0326 5.30472C10.0392 5.30885 10.0461 5.31288 10.055 5.31803L10.0556 5.31838C10.0638 5.32316 10.0738 5.32899 10.0841 5.33535L10.1104 5.35168L10.1271 5.37775C10.1483 5.41076 10.17 5.45498 10.1748 5.50805C10.1801 5.56491 10.165 5.62021 10.1313 5.66917C10.0935 5.72397 10.0418 5.75432 9.9871 5.76591C9.93992 5.7759 9.8948 5.77078 9.86798 5.76732C9.10678 5.67451 8.48452 5.91906 8.00654 6.51857L8.00644 6.5187C7.38753 7.29302 7.4565 8.44621 8.15219 9.16128C8.84562 9.87406 9.94845 9.96745 10.7492 9.3813L10.7626 9.37113C10.7898 9.34943 10.8281 9.32424 10.8762 9.31221C10.9298 9.29879 10.9872 9.30396 11.0419 9.33227L11.0425 9.33259L11.0431 9.33292C11.0955 9.3607 11.1337 9.4027 11.1552 9.45415C11.1755 9.50246 11.1779 9.55104 11.1749 9.59052L11.1724 9.62489L11.1539 9.65396C11.1468 9.66495 11.1417 9.6736 11.1356 9.68373C11.1321 9.68961 11.1282 9.69599 11.1236 9.70362L11.1132 9.72062ZM10.8468 9.47915L10.831 9.49113C10.8269 9.49411 10.8228 9.49706 10.8188 9.5C10.7843 9.52491 10.7493 9.54864 10.7138 9.57121C10.3365 9.81126 9.90639 9.91925 9.48286 9.90024C9.01411 9.87921 8.55342 9.70263 8.18125 9.37738C8.18125 9.37737 8.18126 9.37738 8.18125 9.37738C8.13758 9.33921 8.09511 9.29898 8.05401 9.25673C7.47549 8.6621 7.30203 7.78364 7.56738 7.03216C7.56741 7.03209 7.56743 7.03202 7.56746 7.03195C7.64265 6.81907 7.75305 6.61639 7.89944 6.43324C8.03283 6.26594 8.17729 6.12447 8.33242 6.00857C8.33244 6.00856 8.33245 6.00854 8.33247 6.00853C8.73486 5.70789 9.20895 5.57928 9.74724 5.61806C9.78365 5.62069 9.82034 5.62408 9.85733 5.62823C9.86525 5.62912 9.87318 5.63004 9.88112 5.631C9.88204 5.63111 9.88296 5.63122 9.88388 5.63134C9.88427 5.63138 9.88466 5.63143 9.88505 5.63148C9.93657 5.63814 9.98545 5.63947 10.0185 5.59152C10.0515 5.54358 10.0409 5.49696 10.0119 5.45168C10.0033 5.44635 9.9947 5.44136 9.98611 5.43636C9.97753 5.43137 9.96894 5.42638 9.96035 5.42105C9.95607 5.41997 9.95157 5.41933 9.94703 5.41868C9.94241 5.41802 9.93774 5.41735 9.93323 5.41622C9.93235 5.416 9.93149 5.41576 9.93062 5.4155C9.92951 5.41517 9.92841 5.4148 9.92733 5.41439C9.92082 5.41229 9.91431 5.41021 9.9078 5.40816C9.86757 5.39547 9.82724 5.38369 9.78682 5.37285C9.46456 5.28638 9.13665 5.2597 8.80571 5.31317C7.9104 5.45814 7.25027 5.91 6.86641 6.68405C6.86641 6.68407 6.8664 6.68408 6.86639 6.6841C6.81299 6.79179 6.76494 6.90571 6.72234 7.02591C6.33282 8.12636 6.75371 9.38826 7.73711 10.0266C7.73712 10.0266 7.7371 10.0266 7.73711 10.0266C7.90103 10.133 8.08061 10.2221 8.27463 10.2902C9.14524 10.5966 9.96167 10.4554 10.7041 9.90134C10.761 9.85942 10.8138 9.81236 10.8657 9.76402C10.8825 9.74835 10.8992 9.73255 10.9159 9.71675C10.933 9.70058 10.9501 9.68441 10.9674 9.66837C10.9733 9.66286 10.9792 9.65737 10.9852 9.6519C10.9858 9.65135 10.9864 9.6508 10.987 9.65025C10.9935 9.64424 11.0001 9.63826 11.0067 9.63231C11.0102 9.62654 11.0136 9.62091 11.0169 9.61528C11.0237 9.60404 11.0304 9.5928 11.0384 9.58037C11.0423 9.52709 11.0291 9.48048 10.9789 9.45384C10.93 9.42854 10.8864 9.44718 10.8468 9.47915ZM10.7813 9.65545C10.6164 9.7598 10.4465 9.84139 10.2707 9.89987C10.019 9.98366 9.75537 10.02 9.47815 10.0079C8.96028 9.98525 8.50318 9.80012 8.1095 9.4605C8.06267 9.42013 8.0178 9.37776 7.97495 9.33359C7.39168 8.73233 7.18201 7.79686 7.46876 6.99661C7.55294 6.76326 7.66764 6.55206 7.81329 6.3646C7.81332 6.36457 7.81334 6.36453 7.81337 6.36449C7.94202 6.19893 8.0948 6.05189 8.27199 5.92448C8.55716 5.7197 8.8622 5.59084 9.1882 5.5346C9.37319 5.50268 9.56494 5.49415 9.76364 5.50841C9.80457 5.51134 9.8458 5.51525 9.88733 5.52011C9.88921 5.52033 9.89109 5.52055 9.89297 5.52078C9.89341 5.52083 9.89385 5.52088 9.8943 5.52094C9.89388 5.52079 9.89347 5.52065 9.89305 5.52051C9.89132 5.51991 9.88959 5.51932 9.88785 5.51873C9.84938 5.50562 9.8105 5.49357 9.77126 5.48257C9.57974 5.42894 9.37969 5.40056 9.17734 5.39758C9.05951 5.39584 8.9409 5.40272 8.82274 5.41822C8.82275 5.41822 8.82273 5.41823 8.82274 5.41822C8.08274 5.51535 7.36049 5.95114 6.95882 6.73157C6.90355 6.83912 6.85699 6.94889 6.81886 7.06005C6.81887 7.06004 6.81886 7.06006 6.81886 7.06005C6.45235 8.12861 6.86424 9.32677 7.7964 9.93597C7.96307 10.0448 8.13489 10.1297 8.30887 10.1928C8.30889 10.1928 8.30891 10.1928 8.30894 10.1928C9.0116 10.4475 9.74943 10.3458 10.3257 10.0258C10.4373 9.96388 10.5428 9.89377 10.6408 9.81648C10.6409 9.81636 10.6411 9.81624 10.6412 9.81611C10.6962 9.77271 10.7489 9.72704 10.7989 9.67929C10.8326 9.64718 10.865 9.61413 10.8963 9.58019C10.8966 9.57977 10.897 9.57936 10.8974 9.57895C10.8986 9.57765 10.8998 9.57634 10.901 9.57504C10.8996 9.57605 10.8981 9.57705 10.8967 9.57806C10.8963 9.57837 10.8958 9.57869 10.8954 9.579C10.8576 9.60571 10.8196 9.6312 10.7813 9.65545ZM8.02002 9.56415C7.29229 8.93671 7.01316 7.86211 7.33983 6.95044L7.33993 6.95017C7.50749 6.48564 7.7909 6.10178 8.19202 5.81334L8.19209 5.81329C8.29107 5.74221 8.39239 5.67976 8.496 5.62582C7.92454 5.79085 7.39722 6.17908 7.08064 6.79413M8.02002 9.56415C8.43646 9.92339 8.9228 10.1206 9.47217 10.1447C9.52142 10.1468 9.57026 10.1475 9.61871 10.1468C9.06051 10.2674 8.43478 10.1893 7.87134 9.82138C6.90021 9.18671 6.52651 7.8725 7.0806 6.79421" fill="#058638"/>
</svg>
