<svg width="48" height="48" viewBox="0 0 48 48" fill="none" xmlns="http://www.w3.org/2000/svg">
<rect x="0.125" y="0.125" width="47.75" height="47.75" rx="4.875" fill="white" stroke="#0E4C8F" stroke-width="0.25"/>
<path d="M24.1779 25.0902C24.1145 25.0903 24.0517 25.075 23.9932 25.0452C23.9346 25.0155 23.8814 24.9718 23.8367 24.9167L22.0305 22.7001C21.94 22.589 21.8892 22.4384 21.8892 22.2813C21.8892 22.1242 21.94 21.9736 22.0305 21.8625L27.7708 14.8175C27.8156 14.7625 27.8688 14.7189 27.9274 14.6891C27.986 14.6594 28.0487 14.644 28.1121 14.644C28.1755 14.644 28.2382 14.6594 28.2968 14.6891C28.3553 14.7189 28.4085 14.7625 28.4533 14.8175L30.2594 17.0341C30.3043 17.0891 30.3398 17.1544 30.3641 17.2263C30.3883 17.2981 30.4008 17.3752 30.4008 17.4529C30.4008 17.5307 30.3883 17.6077 30.3641 17.6796C30.3398 17.7515 30.3043 17.8168 30.2594 17.8717L24.5191 24.9167C24.4743 24.9718 24.4212 25.0155 24.3626 25.0452C24.304 25.075 24.2413 25.0903 24.1779 25.0902V25.0902ZM23.0542 22.2813L24.1779 23.6603L29.2357 17.453L28.1121 16.074L23.0542 22.2813Z" fill="#0E4C8F"/>
<path d="M33.9892 10.2405C33.3405 9.44611 32.4615 9 31.5451 9C30.6287 9 29.7497 9.44611 29.101 10.2405L20.1468 21.2296C19.5092 22.0119 19.0614 22.9964 18.8535 24.0731L18.5553 25.617C18.3887 26.48 18.0298 27.2692 17.5187 27.8962L13.4277 32.9169C13.153 33.2566 12.9992 33.716 13 34.1946C13.0008 34.6731 13.156 35.1318 13.4317 35.4702C13.7074 35.8086 14.0812 35.9991 14.4711 36C14.861 36.0009 15.2353 35.8122 15.5121 35.4751L19.6031 30.4543C20.1141 29.827 20.7572 29.3865 21.4605 29.1821L22.7185 28.816C23.5958 28.5608 24.398 28.0113 25.0354 27.2287L33.9892 16.2397C34.6365 15.4435 35 14.3647 35 13.2401C35 12.1154 34.6365 11.0366 33.9892 10.2405V10.2405ZM14.8298 34.6375C14.7344 34.7546 14.605 34.8204 14.47 34.8204C14.335 34.8204 14.2056 34.7546 14.1102 34.6375C14.0148 34.5204 13.9611 34.3615 13.9611 34.1959C13.9611 34.0303 14.0148 33.8714 14.1102 33.7543L15.1767 32.4454L15.8961 33.3284L14.8298 34.6375ZM24.3526 26.3913C23.8417 27.0186 23.1987 27.459 22.4955 27.6635L21.2375 28.0296C20.3602 28.2847 19.558 28.8343 18.9206 29.6169L16.5785 32.4913L15.8591 31.6082L18.2012 28.7338C18.8388 27.9515 19.2866 26.967 19.4945 25.8903L19.7928 24.3464C19.9594 23.4834 20.3183 22.6943 20.8293 22.0672L29.0823 11.9386L32.6056 16.2627L24.3526 26.3913ZM33.3068 15.4021L33.288 15.4251L29.7647 11.101L29.7835 11.078C30.251 10.5068 30.8842 10.1865 31.5439 10.1874C32.2037 10.1883 32.8362 10.5104 33.3028 11.083C33.7693 11.6555 34.0317 12.4318 34.0325 13.2415C34.0332 14.0512 33.7722 14.8282 33.3068 15.4021V15.4021Z" fill="#0E4C8F"/>
<path d="M30.091 15.6166C30.3575 15.6166 30.5736 15.3515 30.5736 15.0244C30.5736 14.6973 30.3575 14.4321 30.091 14.4321C29.8245 14.4321 29.6084 14.6973 29.6084 15.0244C29.6084 15.3515 29.8245 15.6166 30.091 15.6166Z" fill="#0E4C8F"/>
</svg>
