<svg width="48" height="48" viewBox="0 0 48 48" fill="none" xmlns="http://www.w3.org/2000/svg">
<rect x="0.125" y="0.125" width="47.75" height="47.75" rx="4.875" fill="white" stroke="#0E4C8F" stroke-width="0.25"/>
<g clip-path="url(#clip0_77_6617)">
<path d="M20.88 39.0001C20.6353 38.8303 20.57 38.5957 20.57 38.2965C20.5782 36.7113 20.5782 35.1261 20.5782 33.549C20.5782 33.4439 20.5782 33.3307 20.5782 33.1932C19.9093 33.1932 19.2567 33.2013 18.6123 33.1932C17.1603 33.177 15.8796 32.6917 14.8192 31.7131C13.6527 30.6375 13.0246 29.2949 13.0164 27.7178C13.0001 22.9704 12.9919 18.231 13.0164 13.4916C13.0246 10.4911 15.5207 8.02437 18.547 8.01628C22.177 8.00011 25.8069 8.00011 29.445 8.01628C32.4714 8.03246 34.9675 10.4911 34.9838 13.4916C35.0001 18.231 35.0001 22.9704 34.9838 27.7097C34.9675 30.7103 32.4795 33.1527 29.445 33.1932C28.7843 33.2013 28.1236 33.1932 27.4139 33.1932C27.4139 33.3145 27.4139 33.4196 27.4139 33.5248C27.4139 35.118 27.4057 36.7113 27.4221 38.3046C27.4221 38.6038 27.3568 38.8303 27.1121 39.0082C25.032 39.0001 22.9601 39.0001 20.88 39.0001ZM27.4302 32.2227C28.1154 32.2227 28.7762 32.2307 29.4287 32.2227C31.9411 32.1984 33.9968 30.1765 34.0049 27.6855C34.0212 22.9623 34.0212 18.2472 34.0049 13.524C33.9968 11.033 31.9412 8.99489 29.4369 8.9868C25.8151 8.97063 22.1933 8.97063 18.5715 8.9868C16.0427 8.99489 13.9953 11.0411 13.9871 13.5482C13.979 18.2472 13.9708 22.9623 13.9953 27.6693C14.0034 29.2868 14.7457 30.5485 16.0835 31.4624C17.4621 32.4087 19.0201 32.2065 20.5618 32.2065C20.5618 31.2279 20.5618 30.2735 20.5618 29.3354C20.5292 29.3273 20.5211 29.3192 20.5129 29.3192C20.2356 29.3192 19.9664 29.3192 19.689 29.3111C19.3383 29.303 19.118 29.1089 19.118 28.8177C19.1262 28.5347 19.3383 28.3487 19.6727 28.3487C22.5522 28.3487 25.4317 28.3487 28.3112 28.3487C28.662 28.3487 28.8822 28.5509 28.8822 28.842C28.874 29.1251 28.662 29.3111 28.3275 29.3192C28.0338 29.3273 27.7402 29.3192 27.4384 29.3192C27.4302 30.2897 27.4302 31.236 27.4302 32.2227ZM26.4187 38.0215C26.4187 35.1099 26.4187 32.2227 26.4187 29.3434C24.7873 29.3434 23.1721 29.3434 21.5733 29.3434C21.5733 32.2469 21.5733 35.1261 21.5733 38.0215C23.1885 38.0215 24.7954 38.0215 26.4187 38.0215Z" fill="#0E4C8F"/>
<path d="M23.9961 24.4746C21.9405 24.4746 19.8849 24.4746 17.8293 24.4746C17.3072 24.4746 17.1604 24.3209 17.1604 23.8114C17.1604 20.1396 17.1604 16.4678 17.1604 12.796C17.1604 12.2784 17.3154 12.1328 17.8293 12.1328C21.9405 12.1328 26.0518 12.1328 30.163 12.1328C30.6851 12.1328 30.8319 12.2865 30.8319 12.796C30.8319 16.4678 30.8319 20.1396 30.8319 23.8114C30.8319 24.329 30.6769 24.4746 30.163 24.4746C28.1074 24.4746 26.0518 24.4746 23.9961 24.4746ZM29.8367 23.496C29.8367 20.0183 29.8367 16.5648 29.8367 13.1195C25.9212 13.1195 22.0384 13.1195 18.1556 13.1195C18.1556 16.5891 18.1556 20.0345 18.1556 23.496C22.0547 23.496 25.9376 23.496 29.8367 23.496Z" fill="#0E4C8F"/>
<path d="M23.9879 34.1636C24.7954 34.1556 25.4643 34.8187 25.4643 35.6194C25.4643 36.4039 24.8036 37.059 24.0123 37.0671C23.2048 37.0752 22.5359 36.412 22.5359 35.6113C22.5359 34.8187 23.1885 34.1636 23.9879 34.1636ZM23.996 35.1342C23.735 35.1342 23.5066 35.3525 23.5066 35.6113C23.5066 35.8701 23.7268 36.0966 23.9879 36.0966C24.2489 36.0966 24.4773 35.8782 24.4773 35.6194C24.4855 35.3525 24.2652 35.1342 23.996 35.1342Z" fill="#0E4C8F"/>
<path d="M26.639 19.3715C26.639 20.7706 25.6275 21.9029 24.2408 22.0404C22.8948 22.1779 21.6305 21.2316 21.4021 19.881C21.2471 18.9913 21.5081 18.1583 21.867 17.3576C22.2912 16.4114 22.8785 15.5622 23.58 14.8019C23.8655 14.4946 24.1429 14.4784 24.4202 14.7615C25.5296 15.91 26.3616 17.2202 26.5982 18.8296C26.6145 19.0075 26.6227 19.1935 26.639 19.3715ZM24.045 15.7725C23.4495 16.3224 22.7072 17.6245 22.4788 18.5223C22.4054 18.8134 22.3565 19.1208 22.3483 19.42C22.3238 20.3824 23.0498 21.1022 23.9961 21.1022C24.9423 21.1022 25.6683 20.3663 25.6438 19.4119C25.6193 17.9804 24.9097 16.8481 24.045 15.7725Z" fill="#0E4C8F"/>
</g>
<defs>
<clipPath id="clip0_77_6617">
<rect width="22" height="31" fill="white" transform="translate(13 8)"/>
</clipPath>
</defs>
</svg>
