<svg xmlns="http://www.w3.org/2000/svg" version="1.1" xmlns:xlink="http://www.w3.org/1999/xlink" xmlns:svgjs="http://svgjs.com/svgjs" width="25" height="25" x="0" y="0" viewBox="0 0 512 512" style="enable-background:new 0 0 512 512" xml:space="preserve" class=""><g><path d="M296 317.139V70c0-38.598-31.402-70-70-70s-70 31.402-70 70v247.139c-25.486 20.986-40 51.634-40 84.861 0 60.654 49.346 110 110 110s110-49.346 110-110c0-33.228-14.514-63.875-40-84.861zM226 492c-49.626 0-90-40.374-90-90 0-28.577 13.124-54.824 36.006-72.012a10 10 0 0 0 3.994-7.996V70c0-27.57 22.43-50 50-50s50 22.43 50 50v251.993a10 10 0 0 0 3.994 7.996C302.876 347.176 316 373.423 316 402c0 49.626-40.374 90-90 90zM326 60h60c5.522 0 10-4.477 10-10s-4.478-10-10-10h-60c-5.522 0-10 4.477-10 10s4.478 10 10 10zM326 120h40c5.522 0 10-4.477 10-10s-4.478-10-10-10h-40c-5.522 0-10 4.477-10 10s4.478 10 10 10zM386 160h-60c-5.522 0-10 4.477-10 10s4.478 10 10 10h60c5.522 0 10-4.477 10-10s-4.478-10-10-10z" fill="#058638" data-original="#000000" opacity="1" class=""></path><path d="M326 240h40c5.522 0 10-4.477 10-10s-4.478-10-10-10h-40c-5.522 0-10 4.477-10 10s4.478 10 10 10zM386 280h-60c-5.522 0-10 4.477-10 10s4.478 10 10 10h60c5.522 0 10-4.477 10-10s-4.478-10-10-10zM236 353.006V70c0-5.523-4.477-10-10-10s-10 4.477-10 10v283.006c-22.795 4.646-40 24.848-40 48.994 0 27.57 22.43 50 50 50s50-22.43 50-50c0-24.146-17.205-44.348-40-48.994z" fill="#058638" data-original="#000000" opacity="1" class=""></path></g></svg>