<svg width="48" height="48" viewBox="0 0 48 48" fill="none" xmlns="http://www.w3.org/2000/svg">
<rect width="48" height="48" rx="5" fill="#006F2C"/>
<path d="M14 30.208C16.2386 30.4056 18.217 29.8705 20.0334 28.5353C18.7963 28.463 17.8046 28.005 17.0191 27.1325C16.6559 26.7324 16.3859 26.2744 16.2091 25.7297C16.813 25.802 17.3972 25.8117 18.0059 25.6526C15.5415 25.0356 14.6775 22.8808 14.7855 21.6516C15.3402 21.9263 15.9146 22.1095 16.6019 22.124C15.5709 21.3864 14.9818 20.4464 14.8247 19.2606C14.7069 18.3784 14.8837 17.5445 15.35 16.7491C17.5739 19.3184 20.3819 20.7405 23.7938 20.9622C23.7791 20.5573 23.7447 20.1717 23.7545 19.7908C23.8036 18.1422 25.0997 16.5611 26.7246 16.1513C28.2514 15.7705 29.5916 16.108 30.7403 17.1685C30.8287 17.2504 30.9023 17.2601 31.0152 17.236C31.8105 17.0624 32.5665 16.7877 33.2734 16.3924C33.3176 16.3683 33.3667 16.349 33.4404 16.3104C33.3029 16.7828 33.0869 17.1926 32.7776 17.5397C32.4732 17.8819 32.1198 18.1856 31.7712 18.5182C32.1443 18.4411 32.5174 18.3736 32.8856 18.2772C33.2489 18.1808 33.6024 18.0458 34 17.9639C33.6711 18.3447 33.3569 18.74 33.0034 19.0967C32.7187 19.3859 32.3849 19.6269 32.0805 19.8969C32.0216 19.9499 31.9676 20.056 31.9676 20.1331C31.9627 24.2932 30.2936 27.6386 26.8424 30.0778C25.3795 31.1094 23.7104 31.6686 21.9283 31.8952C20.2494 32.1073 18.5901 32.0012 16.9651 31.5433C15.944 31.254 14.9818 30.825 14.0835 30.2706C14.0638 30.2658 14.0491 30.2465 14 30.208Z" fill="white"/>
</svg>
