<svg xmlns="http://www.w3.org/2000/svg" version="1.1" xmlns:xlink="http://www.w3.org/1999/xlink" xmlns:svgjs="http://svgjs.com/svgjs" width="24" height="24" x="0" y="0" viewBox="0 0 682.667 682.667" style="enable-background:new 0 0 512 512" xml:space="preserve" class=""><g><defs><clipPath id="a" clipPathUnits="userSpaceOnUse"><path d="M0 512h512V0H0Z" fill="#0e4c8f" data-original="#000000" opacity="1"></path></clipPath></defs><path d="M0 0h101.588" style="stroke-linecap: round; stroke-linejoin: round; stroke-miterlimit: 10; stroke-dasharray: none; stroke-opacity: 1;" transform="matrix(1.33333 0 0 -1.33333 472.66 122.171)" fill="none" stroke="#0E4C8F" stroke-width="15px" stroke-linecap="round" stroke-linejoin="round" stroke-miterlimit="10" stroke-dasharray="none" stroke-opacity="" data-original="#000000" opacity="1" class=""></path><path d="M0 0h50.794" style="stroke-linecap: round; stroke-linejoin: round; stroke-miterlimit: 10; stroke-dasharray: none; stroke-opacity: 1;" transform="matrix(1.33333 0 0 -1.33333 472.66 173.747)" fill="none" stroke="#0E4C8F" stroke-width="15px" stroke-linecap="round" stroke-linejoin="round" stroke-miterlimit="10" stroke-dasharray="none" stroke-opacity="" data-original="#000000" opacity="1" class=""></path><g clip-path="url(#a)" transform="matrix(1.33333 0 0 -1.33333 0 682.667)"><path d="M0 0h-416.508c-22.227 0-40.246 18.019-40.246 40.246 0 6.915 5.605 12.52 12.52 12.52H27.727c6.914 0 12.519-5.605 12.519-12.52C40.246 18.019 22.228 0 0 0Z" style="stroke-linecap: round; stroke-linejoin: round; stroke-miterlimit: 10; stroke-dasharray: none; stroke-opacity: 1;" transform="translate(464.254 53.995)" fill="none" stroke="#0E4C8F" stroke-width="15px" stroke-linecap="round" stroke-linejoin="round" stroke-miterlimit="10" stroke-dasharray="none" stroke-opacity="" data-original="#000000" opacity="1" class=""></path><path d="M0 0v-5.436c0-11.568 9.378-20.947 20.947-20.947h98.106c11.569 0 20.947 9.379 20.947 20.947V0" style="stroke-linecap: round; stroke-linejoin: round; stroke-miterlimit: 10; stroke-dasharray: none; stroke-opacity: 1;" transform="translate(186 106.76)" fill="none" stroke="#0E4C8F" stroke-width="15px" stroke-linecap="round" stroke-linejoin="round" stroke-miterlimit="10" stroke-dasharray="none" stroke-opacity="" data-original="#000000" opacity="1" class=""></path><path d="m0 0-1.95 28.813c-1.084 16.02-12.705 29.357-28.426 32.624l-51.186 10.636" style="stroke-linecap: round; stroke-linejoin: round; stroke-miterlimit: 10; stroke-dasharray: none; stroke-opacity: 1;" transform="translate(361.67 106.76)" fill="none" stroke="#0E4C8F" stroke-width="15px" stroke-linecap="round" stroke-linejoin="round" stroke-miterlimit="10" stroke-dasharray="none" stroke-opacity="" data-original="#000000" opacity="1" class=""></path><path d="m0 0-51.186-10.636C-66.907-13.902-78.528-27.24-79.612-43.26l-1.95-28.813" style="stroke-linecap: round; stroke-linejoin: round; stroke-miterlimit: 10; stroke-dasharray: none; stroke-opacity: 1;" transform="translate(232.852 178.833)" fill="none" stroke="#0E4C8F" stroke-width="15px" stroke-linecap="round" stroke-linejoin="round" stroke-miterlimit="10" stroke-dasharray="none" stroke-opacity="" data-original="#000000" opacity="1" class=""></path><path d="M0 0v-22.345c0-13.05 10.579-23.628 23.628-23.628v0c13.05 0 23.628 10.578 23.628 23.628V-.654" style="stroke-linecap: round; stroke-linejoin: round; stroke-miterlimit: 10; stroke-dasharray: none; stroke-opacity: 1;" transform="translate(232.852 201.179)" fill="none" stroke="#0E4C8F" stroke-width="15px" stroke-linecap="round" stroke-linejoin="round" stroke-miterlimit="10" stroke-dasharray="none" stroke-opacity="" data-original="#000000" opacity="1" class=""></path><path d="M0 0s-11.301 3.37-19.853 12.852c-5.096 5.65-13.337 7.133-19.962 3.391-17.132-9.677-48.493-22.891-75.979-10.05v16.898c0 22.02 17.85 39.87 39.87 39.87h23.707a24.066 24.066 0 0 0 14.565-4.908 24.063 24.063 0 0 1 14.013-4.903C-10.497 52.849 0 42.108 0 28.962Z" style="stroke-linecap: round; stroke-linejoin: round; stroke-miterlimit: 10; stroke-dasharray: none; stroke-opacity: 1;" transform="translate(314.858 263.062)" fill="none" stroke="#0E4C8F" stroke-width="15px" stroke-linecap="round" stroke-linejoin="round" stroke-miterlimit="10" stroke-dasharray="none" stroke-opacity="" data-original="#000000" opacity="1" class=""></path><path d="M0 0v-18.67c0-6.385 5.176-11.561 11.561-11.561.261-12.175 5.377-23.893 14.62-31.851 7.441-6.407 17.9-14.391 31.716-14.545 13.817.154 24.276 8.138 31.717 14.545 9.242 7.958 14.358 19.676 14.619 31.851 6.386 0 11.561 5.176 11.561 11.561v12.477" style="stroke-linecap: round; stroke-linejoin: round; stroke-miterlimit: 10; stroke-dasharray: none; stroke-opacity: 1;" transform="translate(199.064 269.254)" fill="none" stroke="#0E4C8F" stroke-width="15px" stroke-linecap="round" stroke-linejoin="round" stroke-miterlimit="10" stroke-dasharray="none" stroke-opacity="" data-original="#000000" opacity="1" class=""></path><path d="M0 0v236.11" style="stroke-linecap: round; stroke-linejoin: round; stroke-miterlimit: 10; stroke-dasharray: none; stroke-opacity: 1;" transform="translate(433.302 106.76)" fill="none" stroke="#0E4C8F" stroke-width="15px" stroke-linecap="round" stroke-linejoin="round" stroke-miterlimit="10" stroke-dasharray="none" stroke-opacity="" data-original="#000000" opacity="1" class=""></path><path d="M0 0v-110.501" style="stroke-linecap: round; stroke-linejoin: round; stroke-miterlimit: 10; stroke-dasharray: none; stroke-opacity: 1;" transform="translate(78.698 217.262)" fill="none" stroke="#0E4C8F" stroke-width="15px" stroke-linecap="round" stroke-linejoin="round" stroke-miterlimit="10" stroke-dasharray="none" stroke-opacity="" data-original="#000000" opacity="1" class=""></path><path d="M0 0h-224.568c-5.64 0-10.211-4.571-10.211-10.211v-99.964" style="stroke-linecap: round; stroke-linejoin: round; stroke-miterlimit: 10; stroke-dasharray: none; stroke-opacity: 1;" transform="translate(313.477 357.82)" fill="none" stroke="#0E4C8F" stroke-width="15px" stroke-linecap="round" stroke-linejoin="round" stroke-miterlimit="10" stroke-dasharray="none" stroke-opacity="" data-original="#000000" opacity="1" class=""></path><path d="M0 0v207.11" style="stroke-linecap: round; stroke-linejoin: round; stroke-miterlimit: 10; stroke-dasharray: none; stroke-opacity: 1;" transform="translate(465.44 106.76)" fill="none" stroke="#0E4C8F" stroke-width="15px" stroke-linecap="round" stroke-linejoin="round" stroke-miterlimit="10" stroke-dasharray="none" stroke-opacity="" data-original="#000000" opacity="1" class=""></path><path d="M0 0h-205.173c-17.268 0-31.268-13.999-31.268-31.268v-250.501" style="stroke-linecap: round; stroke-linejoin: round; stroke-miterlimit: 10; stroke-dasharray: none; stroke-opacity: 1;" transform="translate(283 388.53)" fill="none" stroke="#0E4C8F" stroke-width="15px" stroke-linecap="round" stroke-linejoin="round" stroke-miterlimit="10" stroke-dasharray="none" stroke-opacity="" data-original="#000000" opacity="1" class=""></path><path d="M0 0h-139.559c-12.583 0-22.783-10.201-22.783-22.784V-92.35c0-12.583 10.2-22.784 22.783-22.784h15.072l-16.882-34.299c-2.393-4.862 2.954-9.885 7.658-7.192l72.48 41.491H0c12.583 0 22.783 10.201 22.783 22.784v69.566C22.783-10.201 12.583 0 0 0Z" style="stroke-linecap: round; stroke-linejoin: round; stroke-miterlimit: 10; stroke-dasharray: none; stroke-opacity: 1;" transform="translate(474.437 458.005)" fill="none" stroke="#0E4C8F" stroke-width="15px" stroke-linecap="round" stroke-linejoin="round" stroke-miterlimit="10" stroke-dasharray="none" stroke-opacity="" data-original="#000000" opacity="1" class=""></path></g></g></svg>