<svg width="24" height="24" viewBox="0 0 24 24" fill="none" xmlns="http://www.w3.org/2000/svg">
<g clip-path="url(#clip0_384_589)">
<path d="M23.299 18.8911L21.5212 8.82778C21.1531 6.74489 19.3508 5.23312 17.2357 5.23312H14.7205C15.1008 4.69256 15.325 4.03467 15.325 3.32498C15.3251 1.49161 13.8334 0 12 0C10.1666 0 8.67496 1.49161 8.67496 3.32503C8.67496 4.03472 8.89917 4.69261 9.27946 5.23317H6.76424C4.64915 5.23317 2.84685 6.74494 2.47884 8.82783L0.700962 18.8911C0.476571 20.1614 0.823352 21.4567 1.65229 22.4449C2.48127 23.4332 3.69646 24 4.98641 24H19.0137C20.3036 24 21.5188 23.4332 22.3477 22.445C23.1767 21.4567 23.5234 20.1614 23.299 18.8911ZM12 1.41689C13.0522 1.41689 13.9081 2.27287 13.9081 3.32503C13.9081 4.37719 13.0521 5.23317 12 5.23317C10.9479 5.23317 10.0919 4.37719 10.0919 3.32503C10.0919 2.27287 10.9478 1.41689 12 1.41689ZM21.2622 21.5344C20.987 21.8631 20.643 22.1275 20.2545 22.3087C19.866 22.4899 19.4424 22.5836 19.0137 22.5831H4.98641C4.11651 22.5831 3.29695 22.2009 2.73791 21.5344C2.17888 20.8679 1.94498 19.9943 2.09634 19.1377L3.87421 9.07434C4.12241 7.66964 5.33788 6.65002 6.76429 6.65002H17.2358C18.6623 6.65002 19.8778 7.66955 20.1259 9.07425L21.9038 19.1376C22.0551 19.9943 21.8211 20.8679 21.2622 21.5344Z" fill="#058638"/>
<path d="M9.67044 14.6165L11.4457 12.7821C11.7178 12.501 11.7104 12.0525 11.4293 11.7803C11.1481 11.5081 10.6996 11.5156 10.4275 11.7968L8.44208 13.8483V12.2894C8.44208 11.8981 8.12488 11.5809 7.73362 11.5809C7.34235 11.5809 7.02515 11.8981 7.02515 12.2894V16.9437C7.02515 17.3349 7.34235 17.6521 7.73362 17.6521C8.12488 17.6521 8.44208 17.3349 8.44208 16.9437V15.3848L10.4275 17.4363C10.4935 17.5047 10.5726 17.5591 10.6601 17.5961C10.7476 17.6332 10.8416 17.6523 10.9367 17.6521C11.1141 17.6521 11.2917 17.5859 11.4293 17.4528C11.7104 17.1807 11.7178 16.7322 11.4457 16.451L9.67044 14.6165ZM16.2666 14.1083H15.2031C14.8118 14.1083 14.4946 14.4255 14.4946 14.8168C14.4946 15.2081 14.8118 15.5253 15.2031 15.5253H15.5464C15.4789 15.9277 15.1281 16.2353 14.7068 16.2353C14.2374 16.2353 13.8555 15.8535 13.8555 15.384V13.8493C13.8555 13.3799 14.2374 12.998 14.7068 12.998C14.9709 12.998 15.2157 13.1176 15.3786 13.3263C15.6193 13.6346 16.0645 13.6896 16.373 13.4488C16.6813 13.208 16.7362 12.7628 16.4955 12.4545C16.0623 11.8995 15.4103 11.5811 14.7068 11.5811C13.4562 11.5811 12.4386 12.5986 12.4386 13.8493V15.3841C12.4386 16.6348 13.4562 17.6523 14.7068 17.6523C15.9575 17.6523 16.975 16.6348 16.975 15.3841V14.8169C16.975 14.4255 16.6578 14.1083 16.2666 14.1083Z" fill="#058638"/>
</g>
<defs>
<clipPath id="clip0_384_589">
<rect width="24" height="24" fill="white"/>
</clipPath>
</defs>
</svg>
