<svg width="56" height="56" viewBox="0 0 56 56" fill="none" xmlns="http://www.w3.org/2000/svg">
<g filter="url(#filter0_d_322_16621)">
<rect x="3" y="3" width="48" height="48" rx="24" fill="#55CD6C"/>
<path d="M15 39L16.6552 33C15.5793 31.1379 15 29.069 15 26.9172C15 20.3793 20.3793 15 26.9586 15C33.5379 15 39 20.3793 39 26.9172C39 33.4551 33.5379 39 26.9586 39C24.8896 39 22.9035 38.3379 21.1241 37.3448L15 39Z" fill="#EDEDED"/>
<path d="M21.455 35.1944L21.8275 35.4013C23.3585 36.353 25.1378 36.9324 26.9999 36.9324C32.4206 36.9324 36.9309 32.422 36.9309 26.9186C36.9309 21.4151 32.4206 17.0703 26.9585 17.0703C21.4964 17.0703 17.0688 21.4565 17.0688 26.9186C17.0688 28.822 17.6068 30.6841 18.5999 32.2565L18.8482 32.6289L17.8965 36.1048L21.455 35.1944Z" fill="#55CD6C"/>
<path d="M23.7724 21.3734L22.9862 21.332C22.7379 21.332 22.4896 21.4148 22.3241 21.5803C21.9517 21.9114 21.331 22.532 21.1655 23.3597C20.8759 24.601 21.331 26.0907 22.4069 27.5803C23.4828 29.07 25.5517 31.47 29.1931 32.5044C30.3517 32.8355 31.2621 32.6286 32.0069 32.1734C32.5862 31.801 32.9586 31.2217 33.0828 30.601L33.2069 30.0217C33.2483 29.8561 33.1655 29.6492 33 29.5665L30.3931 28.3665C30.2276 28.2837 30.0207 28.3251 29.8965 28.4906L28.8621 29.8148C28.7793 29.8975 28.6551 29.9389 28.531 29.8975C27.8276 29.6492 25.469 28.6561 24.1862 26.1734C24.1448 26.0493 24.1448 25.9251 24.2276 25.8424L25.2207 24.7252C25.3034 24.601 25.3448 24.4355 25.3034 24.3114L24.1034 21.6217C24.062 21.4975 23.9379 21.3734 23.7724 21.3734Z" fill="#FEFEFE"/>
</g>
<defs>
<filter id="filter0_d_322_16621" x="0" y="0" width="56" height="56" filterUnits="userSpaceOnUse" color-interpolation-filters="sRGB">
<feFlood flood-opacity="0" result="BackgroundImageFix"/>
<feColorMatrix in="SourceAlpha" type="matrix" values="0 0 0 0 0 0 0 0 0 0 0 0 0 0 0 0 0 0 127 0" result="hardAlpha"/>
<feOffset dx="1" dy="1"/>
<feGaussianBlur stdDeviation="2"/>
<feComposite in2="hardAlpha" operator="out"/>
<feColorMatrix type="matrix" values="0 0 0 0 0 0 0 0 0 0 0 0 0 0 0 0 0 0 0.04 0"/>
<feBlend mode="normal" in2="BackgroundImageFix" result="effect1_dropShadow_322_16621"/>
<feBlend mode="normal" in="SourceGraphic" in2="effect1_dropShadow_322_16621" result="shape"/>
</filter>
</defs>
</svg>
