<svg width="48" height="48" viewBox="0 0 48 48" fill="none" xmlns="http://www.w3.org/2000/svg">
<rect x="0.125" y="0.125" width="47.75" height="47.75" rx="4.875" fill="white" stroke="#0E4C8F" stroke-width="0.25"/>
<path d="M19.6928 19.7996C18.8856 18.2416 18.7133 16.6836 19.2393 15.0722C19.6293 13.8703 20.3548 12.891 21.3887 12.152C23.4928 10.6385 26.3496 10.6118 28.4627 12.0986C29.6961 12.9711 30.5033 14.1374 30.8388 15.5885C31.1744 17.0308 31.0112 18.4286 30.2403 19.7996C30.6212 19.7996 30.9477 19.7996 31.2651 19.7996C33.0336 19.8085 34.3486 20.8145 34.7114 22.515C35.4732 26.0227 36.226 29.5216 36.9333 33.0382C37.3415 35.0681 35.8269 36.8843 33.7138 36.9911C33.6503 36.9911 33.5777 37 33.5143 37C27.8279 37 22.1324 37 16.446 37C14.6594 37 13.2265 35.807 13.0179 34.0709C12.9544 33.519 13.0723 32.9225 13.1811 32.3616C13.8432 29.0764 14.5233 25.7913 15.2126 22.515C15.5482 20.9036 16.8995 19.8352 18.5773 19.8174C18.931 19.7996 19.2756 19.7996 19.6928 19.7996ZM24.9801 36.0563C25.2069 36.0563 25.4336 36.0563 25.6603 36.0563C28.2723 36.0563 30.8842 36.0652 33.4961 36.0563C35.1649 36.0474 36.3529 34.6674 36.0264 33.1183C35.3009 29.6551 34.5572 26.1919 33.8226 22.7287C33.5687 21.5268 32.6073 20.77 31.3558 20.7522C30.7209 20.7433 30.0861 20.77 29.4603 20.7344C29.2789 20.7255 29.0522 20.6009 28.9434 20.4584C28.7711 20.2358 28.9615 20.0222 29.0976 19.8352C29.8594 18.7936 30.1859 17.6273 30.0317 16.3453C29.7868 14.2976 28.2813 12.5972 26.268 12.0897C24.2183 11.5733 22.0689 12.3479 20.8537 14.0394C19.584 15.8022 19.6021 18.0635 20.9171 19.853C21.0622 20.0489 21.1892 20.2358 21.0622 20.494C20.9353 20.7522 20.6995 20.7522 20.4546 20.7522C19.8923 20.7522 19.321 20.7522 18.7587 20.7522C17.3892 20.7611 16.4551 21.5179 16.1739 22.8355C15.4938 25.9782 14.8136 29.1209 14.1606 32.2726C14.0427 32.8513 13.9066 33.4655 13.9792 34.0442C14.1334 35.255 15.1945 36.0563 16.5004 36.0563C19.33 36.0652 22.1505 36.0563 24.9801 36.0563Z" fill="#0E4C8F"/>
<path d="M24.944 20.6902C22.8218 20.6635 21.1168 18.9542 21.1349 16.8887C21.153 14.7698 22.8943 13.105 25.0528 13.1317C27.1841 13.1584 28.8891 14.8944 28.8528 16.9777C28.8165 19.0432 27.048 20.7258 24.944 20.6902ZM24.9893 19.7554C26.5855 19.7554 27.8915 18.5001 27.9005 16.9332C27.9187 15.3663 26.6036 14.0665 24.9984 14.0665C23.3931 14.0665 22.0781 15.3485 22.0781 16.9243C22.0962 18.4823 23.3931 19.7554 24.9893 19.7554Z" fill="#0E4C8F"/>
<path d="M25.5607 28.4977C25.5607 27.9991 25.5516 27.5006 25.5607 27.002C25.5788 26.0939 26.1683 25.5063 27.1024 25.4974C28.0184 25.4885 28.9344 25.4885 29.8504 25.4974C30.2585 25.4974 30.4943 25.6844 30.4852 25.9871C30.4762 26.2898 30.2495 26.4589 29.8323 26.4589C28.9344 26.4589 28.0456 26.4589 27.1478 26.4589C26.6762 26.4589 26.5129 26.6103 26.5129 27.0732C26.5039 28.0525 26.5039 29.0229 26.5129 30.0023C26.5129 30.4474 26.6853 30.5988 27.1296 30.5988C27.7373 30.5988 28.354 30.6077 28.9616 30.5988C29.3425 30.5988 29.5148 30.4207 29.533 30.0468C29.5783 29.0942 29.4876 28.9962 28.5082 28.9962C28.3721 28.9962 28.2361 29.0051 28.1 28.9873C27.8189 28.9606 27.6647 28.7915 27.6557 28.5244C27.6466 28.2662 27.8008 28.0614 28.0819 28.0525C28.49 28.0347 28.9072 27.9991 29.2972 28.0792C29.5874 28.1327 29.8685 28.3285 30.1134 28.5155C30.6394 28.925 30.6394 30.5988 30.0499 31.0706C29.7506 31.311 29.4332 31.4712 29.0342 31.4712C28.3631 31.4712 27.701 31.4801 27.0299 31.4712C26.1774 31.4534 25.5879 30.8926 25.5607 30.0468C25.5516 29.5393 25.5607 29.0229 25.5607 28.4977Z" fill="#0E4C8F"/>
<path d="M20.491 28.9959C20.491 29.5835 20.491 30.1711 20.491 30.7587C20.491 30.8833 20.5182 31.0347 20.4547 31.1148C20.3459 31.2572 20.1917 31.4175 20.0285 31.462C19.8017 31.5243 19.6203 31.3819 19.5387 31.1504C19.5115 31.0614 19.5024 30.9545 19.5024 30.8566C19.5024 29.2808 19.5024 27.705 19.5024 26.1292C19.5024 26.0847 19.5024 26.0401 19.5024 25.9956C19.5296 25.6929 19.7201 25.4971 19.9922 25.4971C20.2552 25.4971 20.4728 25.684 20.4819 25.9867C20.5001 26.5209 20.491 27.0551 20.491 27.5893C20.491 27.7228 20.491 27.8474 20.491 27.9899C21.0442 28.07 21.4886 28.0522 21.8604 27.5714C22.3502 26.9393 22.9306 26.3696 23.4748 25.7731C23.7378 25.4793 24.0189 25.4348 24.2366 25.6217C24.4633 25.8176 24.4452 26.1203 24.1822 26.4141C23.5564 27.1085 22.9215 27.8029 22.2776 28.5152C22.849 29.1384 23.4022 29.7527 23.9554 30.367C24.0643 30.4916 24.1912 30.6073 24.291 30.7409C24.4542 30.9545 24.4542 31.1771 24.2638 31.373C24.0915 31.5421 23.774 31.5421 23.5927 31.3463C23.2571 30.9991 22.9397 30.6429 22.6132 30.2868C22.3683 30.0108 22.0872 29.7616 21.8786 29.4589C21.543 28.9603 21.0896 28.8802 20.491 28.9959Z" fill="#0E4C8F"/>
</svg>
