<svg width="48" height="48" viewBox="0 0 48 48" fill="none" xmlns="http://www.w3.org/2000/svg">
<rect width="48" height="48" rx="5" fill="#006F2C"/>
<path d="M14 21.6668C14.0235 21.3003 14.0353 20.9339 14.0784 20.5712C14.1569 19.9299 14.2078 19.2847 14.349 18.6548C14.6314 17.376 15.6863 16.4827 17.0196 16.3033C18.5961 16.0895 20.1843 16.0246 21.7686 16.0094C23.6824 15.9903 25.5961 15.9979 27.5059 16.0552C28.6863 16.0895 29.8706 16.185 31.0432 16.3453C32.5294 16.5514 33.4549 17.5058 33.7255 18.9488C33.9059 19.9184 33.9647 20.8995 33.9844 21.8806C34.0157 23.3503 34.0157 24.82 33.8314 26.2859C33.7726 26.7631 33.7059 27.2479 33.5412 27.6945C33.1138 28.8589 32.2236 29.5116 30.9687 29.6911C29.3922 29.9163 27.8039 29.9697 26.2196 29.9888C24.3334 30.0117 22.4432 30.0003 20.5608 29.9468C19.353 29.9125 18.1412 29.817 16.9451 29.6529C15.4627 29.4544 14.502 28.4886 14.2745 27.0456C14.1569 26.2706 14.1137 25.4842 14.0353 24.7017C14.0235 24.591 14.0118 24.4764 14 24.3657C14 23.4648 14 22.5677 14 21.6668ZM24.4824 17.4562C22.753 17.502 21.5569 17.5173 20.3608 17.5707C19.3608 17.6165 18.3608 17.6967 17.3647 17.7921C16.4706 17.8799 16.0039 18.3075 15.8314 19.1588C15.7373 19.6168 15.6824 20.0864 15.6471 20.5521C15.5373 21.9875 15.5216 23.4266 15.6118 24.8658C15.6588 25.5949 15.749 26.3279 15.8863 27.0494C15.9922 27.6182 16.4118 27.9656 16.9843 28.1221C17.1451 28.1641 17.3137 28.1984 17.4824 28.2099C18.9373 28.3015 20.3922 28.4351 21.8471 28.4618C23.7451 28.4962 25.6471 28.4695 27.549 28.4237C28.5765 28.4008 29.6 28.3015 30.6236 28.2023C31.5765 28.1106 32.051 27.664 32.1961 26.744C32.2942 26.1179 32.3765 25.4881 32.3922 24.8544C32.4236 23.6022 32.4314 22.3463 32.3922 21.0904C32.3687 20.3727 32.2589 19.6512 32.1216 18.945C32.004 18.3647 31.5804 18.0021 30.9843 17.8685C30.6432 17.7921 30.2941 17.7348 29.9451 17.7196C27.9451 17.6165 25.949 17.5249 24.4824 17.4562Z" fill="white"/>
<path d="M22.0197 19.9224C23.8432 20.9493 25.6432 21.9609 27.4785 22.9954C25.6471 24.0261 23.8432 25.0415 22.0197 26.0684C22.0197 24.0147 22.0197 21.9838 22.0197 19.9224Z" fill="white"/>
</svg>
